%TF.GenerationSoftware,KiCad,Pcbnew,7.0.6*%
%TF.CreationDate,2024-03-31T21:54:29-07:00*%
%TF.ProjectId,retroglowplus_gbc,72657472-6f67-46c6-9f77-706c75735f67,rev?*%
%TF.SameCoordinates,Original*%
%TF.FileFunction,Soldermask,Top*%
%TF.FilePolarity,Negative*%
%FSLAX46Y46*%
G04 Gerber Fmt 4.6, Leading zero omitted, Abs format (unit mm)*
G04 Created by KiCad (PCBNEW 7.0.6) date 2024-03-31 21:54:29*
%MOMM*%
%LPD*%
G01*
G04 APERTURE LIST*
G04 Aperture macros list*
%AMRoundRect*
0 Rectangle with rounded corners*
0 $1 Rounding radius*
0 $2 $3 $4 $5 $6 $7 $8 $9 X,Y pos of 4 corners*
0 Add a 4 corners polygon primitive as box body*
4,1,4,$2,$3,$4,$5,$6,$7,$8,$9,$2,$3,0*
0 Add four circle primitives for the rounded corners*
1,1,$1+$1,$2,$3*
1,1,$1+$1,$4,$5*
1,1,$1+$1,$6,$7*
1,1,$1+$1,$8,$9*
0 Add four rect primitives between the rounded corners*
20,1,$1+$1,$2,$3,$4,$5,0*
20,1,$1+$1,$4,$5,$6,$7,0*
20,1,$1+$1,$6,$7,$8,$9,0*
20,1,$1+$1,$8,$9,$2,$3,0*%
%AMFreePoly0*
4,1,33,0.458779,1.080902,0.470711,1.070711,0.941422,0.600000,2.600000,0.600000,2.658779,0.580902,2.695106,0.530902,2.700000,0.500000,2.700000,-0.500000,2.680902,-0.558779,2.630902,-0.595106,2.600000,-0.600000,0.941422,-0.600000,0.470711,-1.070711,0.415643,-1.098769,0.400000,-1.100000,-0.400000,-1.100000,-0.458779,-1.080902,-0.470711,-1.070711,-0.941422,-0.600000,-2.600000,-0.600000,
-2.658779,-0.580902,-2.695106,-0.530902,-2.700000,-0.500000,-2.700000,0.500000,-2.680902,0.558779,-2.630902,0.595106,-2.600000,0.600000,-0.941422,0.600000,-0.470711,1.070711,-0.415643,1.098769,-0.400000,1.100000,0.400000,1.100000,0.458779,1.080902,0.458779,1.080902,$1*%
G04 Aperture macros list end*
%ADD10C,1.022946*%
%ADD11C,0.200000*%
%ADD12C,0.300000*%
%ADD13C,0.100000*%
%ADD14C,3.150000*%
%ADD15C,0.025000*%
%ADD16C,0.010000*%
%ADD17C,2.956253*%
%ADD18RoundRect,0.350000X0.850000X-0.375000X0.850000X0.375000X-0.850000X0.375000X-0.850000X-0.375000X0*%
%ADD19RoundRect,0.200000X0.130000X0.100000X-0.130000X0.100000X-0.130000X-0.100000X0.130000X-0.100000X0*%
%ADD20RoundRect,0.200000X-0.130000X-0.100000X0.130000X-0.100000X0.130000X0.100000X-0.130000X0.100000X0*%
%ADD21RoundRect,0.100000X-0.185000X-0.185000X0.185000X-0.185000X0.185000X0.185000X-0.185000X0.185000X0*%
%ADD22RoundRect,0.100000X-1.250000X1.250000X-1.250000X-1.250000X1.250000X-1.250000X1.250000X1.250000X0*%
%ADD23RoundRect,0.150000X-0.050000X0.387500X-0.050000X-0.387500X0.050000X-0.387500X0.050000X0.387500X0*%
%ADD24RoundRect,0.150000X-0.387500X0.050000X-0.387500X-0.050000X0.387500X-0.050000X0.387500X0.050000X0*%
%ADD25RoundRect,0.100000X-1.600000X1.600000X-1.600000X-1.600000X1.600000X-1.600000X1.600000X1.600000X0*%
%ADD26RoundRect,0.100000X-1.250000X-1.250000X1.250000X-1.250000X1.250000X1.250000X-1.250000X1.250000X0*%
%ADD27RoundRect,0.200000X-0.100000X0.130000X-0.100000X-0.130000X0.100000X-0.130000X0.100000X0.130000X0*%
%ADD28RoundRect,0.100000X0.450000X-0.500000X0.450000X0.500000X-0.450000X0.500000X-0.450000X-0.500000X0*%
%ADD29RoundRect,0.100000X-0.250000X-0.275000X0.250000X-0.275000X0.250000X0.275000X-0.250000X0.275000X0*%
%ADD30RoundRect,0.100000X0.250000X0.275000X-0.250000X0.275000X-0.250000X-0.275000X0.250000X-0.275000X0*%
%ADD31RoundRect,0.240000X-0.140000X-0.170000X0.140000X-0.170000X0.140000X0.170000X-0.140000X0.170000X0*%
%ADD32RoundRect,0.100000X-0.200000X0.325000X-0.200000X-0.325000X0.200000X-0.325000X0.200000X0.325000X0*%
%ADD33RoundRect,0.325000X0.225000X0.250000X-0.225000X0.250000X-0.225000X-0.250000X0.225000X-0.250000X0*%
%ADD34RoundRect,0.100000X-0.350000X0.750000X-0.350000X-0.750000X0.350000X-0.750000X0.350000X0.750000X0*%
%ADD35FreePoly0,270.000000*%
%ADD36RoundRect,0.240000X0.140000X0.170000X-0.140000X0.170000X-0.140000X-0.170000X0.140000X-0.170000X0*%
%ADD37RoundRect,0.325000X-0.250000X0.225000X-0.250000X-0.225000X0.250000X-0.225000X0.250000X0.225000X0*%
%ADD38RoundRect,0.350000X0.250000X0.475000X-0.250000X0.475000X-0.250000X-0.475000X0.250000X-0.475000X0*%
%ADD39O,3.200000X5.300000*%
%ADD40O,3.700000X1.750000*%
%ADD41RoundRect,0.350000X-0.250000X-0.475000X0.250000X-0.475000X0.250000X0.475000X-0.250000X0.475000X0*%
%ADD42RoundRect,0.240000X0.170000X-0.140000X0.170000X0.140000X-0.170000X0.140000X-0.170000X-0.140000X0*%
%ADD43RoundRect,0.100000X0.325000X0.200000X-0.325000X0.200000X-0.325000X-0.200000X0.325000X-0.200000X0*%
%ADD44RoundRect,0.100000X-0.950000X0.200000X-0.950000X-0.200000X0.950000X-0.200000X0.950000X0.200000X0*%
%ADD45RoundRect,0.100000X-0.150000X0.200000X-0.150000X-0.200000X0.150000X-0.200000X0.150000X0.200000X0*%
%ADD46RoundRect,0.100000X-0.800000X0.100000X-0.800000X-0.100000X0.800000X-0.100000X0.800000X0.100000X0*%
%ADD47RoundRect,0.350000X-0.275000X-0.700000X0.275000X-0.700000X0.275000X0.700000X-0.275000X0.700000X0*%
%ADD48RoundRect,0.240000X-0.170000X0.140000X-0.170000X-0.140000X0.170000X-0.140000X0.170000X0.140000X0*%
%ADD49RoundRect,0.200000X0.100000X-0.130000X0.100000X0.130000X-0.100000X0.130000X-0.100000X-0.130000X0*%
%ADD50O,3.200000X2.200000*%
%ADD51C,0.700000*%
%ADD52RoundRect,0.102000X0.200000X0.925000X-0.200000X0.925000X-0.200000X-0.925000X0.200000X-0.925000X0*%
%ADD53RoundRect,0.102000X0.812500X0.450000X-0.812500X0.450000X-0.812500X-0.450000X0.812500X-0.450000X0*%
%ADD54RoundRect,0.102000X0.845000X0.650000X-0.845000X0.650000X-0.845000X-0.650000X0.845000X-0.650000X0*%
%ADD55RoundRect,0.100000X-0.650000X-0.300000X0.650000X-0.300000X0.650000X0.300000X-0.650000X0.300000X0*%
%ADD56RoundRect,0.100000X-1.150000X-1.600000X1.150000X-1.600000X1.150000X1.600000X-1.150000X1.600000X0*%
G04 APERTURE END LIST*
D10*
X210150421Y-121419369D02*
G75*
G03*
X210150421Y-121419369I-511473J0D01*
G01*
X222020509Y-123525544D02*
G75*
G03*
X222020509Y-123525544I-511473J0D01*
G01*
X235993544Y-146041107D02*
G75*
G03*
X235993544Y-146041107I-511473J0D01*
G01*
X266238261Y-120708386D02*
G75*
G03*
X266238261Y-120708386I-511473J0D01*
G01*
X253866029Y-124224638D02*
G75*
G03*
X253866029Y-124224638I-511473J0D01*
G01*
D11*
X218220008Y-126042850D02*
X218435672Y-126100637D01*
X218638025Y-126194996D01*
X218820918Y-126323059D01*
X218978795Y-126480936D01*
X219106858Y-126663830D01*
X219201217Y-126866182D01*
X219259004Y-127081846D01*
X219278463Y-127304268D01*
X219259004Y-127526690D01*
X219201217Y-127742354D01*
X219106858Y-127944707D01*
X218978795Y-128127600D01*
X218820918Y-128285477D01*
X218638025Y-128413540D01*
X218435672Y-128507899D01*
X218220008Y-128565686D01*
X217997586Y-128585145D01*
X217775164Y-128565686D01*
X217559500Y-128507899D01*
X217357147Y-128413540D01*
X217174254Y-128285477D01*
X217016377Y-128127600D01*
X216888314Y-127944707D01*
X216793955Y-127742354D01*
X216736168Y-127526690D01*
X216716709Y-127304268D01*
X216736168Y-127081846D01*
X216793955Y-126866182D01*
X216888314Y-126663830D01*
X217016377Y-126480936D01*
X217174254Y-126323059D01*
X217357148Y-126194996D01*
X217559500Y-126100637D01*
X217775164Y-126042850D01*
X217997586Y-126023391D01*
X218220008Y-126042850D01*
G36*
X218220008Y-126042850D02*
G01*
X218435672Y-126100637D01*
X218638025Y-126194996D01*
X218820918Y-126323059D01*
X218978795Y-126480936D01*
X219106858Y-126663830D01*
X219201217Y-126866182D01*
X219259004Y-127081846D01*
X219278463Y-127304268D01*
X219259004Y-127526690D01*
X219201217Y-127742354D01*
X219106858Y-127944707D01*
X218978795Y-128127600D01*
X218820918Y-128285477D01*
X218638025Y-128413540D01*
X218435672Y-128507899D01*
X218220008Y-128565686D01*
X217997586Y-128585145D01*
X217775164Y-128565686D01*
X217559500Y-128507899D01*
X217357147Y-128413540D01*
X217174254Y-128285477D01*
X217016377Y-128127600D01*
X216888314Y-127944707D01*
X216793955Y-127742354D01*
X216736168Y-127526690D01*
X216716709Y-127304268D01*
X216736168Y-127081846D01*
X216793955Y-126866182D01*
X216888314Y-126663830D01*
X217016377Y-126480936D01*
X217174254Y-126323059D01*
X217357148Y-126194996D01*
X217559500Y-126100637D01*
X217775164Y-126042850D01*
X217997586Y-126023391D01*
X218220008Y-126042850D01*
G37*
D10*
X212593726Y-116715094D02*
G75*
G03*
X212593726Y-116715094I-511473J0D01*
G01*
X214778600Y-130942607D02*
G75*
G03*
X214778600Y-130942607I-511473J0D01*
G01*
X249749143Y-141912784D02*
G75*
G03*
X249749143Y-141912784I-511473J0D01*
G01*
D12*
X218402310Y-72294114D02*
X218616596Y-72365542D01*
X218616596Y-72365542D02*
X218688025Y-72436971D01*
X218688025Y-72436971D02*
X218759453Y-72579828D01*
X218759453Y-72579828D02*
X218759453Y-72794114D01*
X218759453Y-72794114D02*
X218688025Y-72936971D01*
X218688025Y-72936971D02*
X218616596Y-73008400D01*
X218616596Y-73008400D02*
X218473739Y-73079828D01*
X218473739Y-73079828D02*
X217902310Y-73079828D01*
X217902310Y-73079828D02*
X217902310Y-71579828D01*
X217902310Y-71579828D02*
X218402310Y-71579828D01*
X218402310Y-71579828D02*
X218545168Y-71651257D01*
X218545168Y-71651257D02*
X218616596Y-71722685D01*
X218616596Y-71722685D02*
X218688025Y-71865542D01*
X218688025Y-71865542D02*
X218688025Y-72008400D01*
X218688025Y-72008400D02*
X218616596Y-72151257D01*
X218616596Y-72151257D02*
X218545168Y-72222685D01*
X218545168Y-72222685D02*
X218402310Y-72294114D01*
X218402310Y-72294114D02*
X217902310Y-72294114D01*
X217932482Y-69069857D02*
X218646768Y-69069857D01*
X217789625Y-69498428D02*
X218289625Y-67998428D01*
X218289625Y-67998428D02*
X218789625Y-69498428D01*
X215392482Y-80044200D02*
X215606768Y-80115628D01*
X215606768Y-80115628D02*
X215963910Y-80115628D01*
X215963910Y-80115628D02*
X216106768Y-80044200D01*
X216106768Y-80044200D02*
X216178196Y-79972771D01*
X216178196Y-79972771D02*
X216249625Y-79829914D01*
X216249625Y-79829914D02*
X216249625Y-79687057D01*
X216249625Y-79687057D02*
X216178196Y-79544200D01*
X216178196Y-79544200D02*
X216106768Y-79472771D01*
X216106768Y-79472771D02*
X215963910Y-79401342D01*
X215963910Y-79401342D02*
X215678196Y-79329914D01*
X215678196Y-79329914D02*
X215535339Y-79258485D01*
X215535339Y-79258485D02*
X215463910Y-79187057D01*
X215463910Y-79187057D02*
X215392482Y-79044200D01*
X215392482Y-79044200D02*
X215392482Y-78901342D01*
X215392482Y-78901342D02*
X215463910Y-78758485D01*
X215463910Y-78758485D02*
X215535339Y-78687057D01*
X215535339Y-78687057D02*
X215678196Y-78615628D01*
X215678196Y-78615628D02*
X216035339Y-78615628D01*
X216035339Y-78615628D02*
X216249625Y-78687057D01*
X216892481Y-79329914D02*
X217392481Y-79329914D01*
X217606767Y-80115628D02*
X216892481Y-80115628D01*
X216892481Y-80115628D02*
X216892481Y-78615628D01*
X216892481Y-78615628D02*
X217606767Y-78615628D01*
X218963910Y-80115628D02*
X218249624Y-80115628D01*
X218249624Y-80115628D02*
X218249624Y-78615628D01*
D13*
X266352179Y-144842552D02*
X266135512Y-144533028D01*
X265980750Y-144842552D02*
X265980750Y-144192552D01*
X265980750Y-144192552D02*
X266228369Y-144192552D01*
X266228369Y-144192552D02*
X266290274Y-144223504D01*
X266290274Y-144223504D02*
X266321227Y-144254457D01*
X266321227Y-144254457D02*
X266352179Y-144316361D01*
X266352179Y-144316361D02*
X266352179Y-144409219D01*
X266352179Y-144409219D02*
X266321227Y-144471123D01*
X266321227Y-144471123D02*
X266290274Y-144502076D01*
X266290274Y-144502076D02*
X266228369Y-144533028D01*
X266228369Y-144533028D02*
X265980750Y-144533028D01*
X266878369Y-144811600D02*
X266816465Y-144842552D01*
X266816465Y-144842552D02*
X266692655Y-144842552D01*
X266692655Y-144842552D02*
X266630750Y-144811600D01*
X266630750Y-144811600D02*
X266599798Y-144749695D01*
X266599798Y-144749695D02*
X266599798Y-144502076D01*
X266599798Y-144502076D02*
X266630750Y-144440171D01*
X266630750Y-144440171D02*
X266692655Y-144409219D01*
X266692655Y-144409219D02*
X266816465Y-144409219D01*
X266816465Y-144409219D02*
X266878369Y-144440171D01*
X266878369Y-144440171D02*
X266909322Y-144502076D01*
X266909322Y-144502076D02*
X266909322Y-144563980D01*
X266909322Y-144563980D02*
X266599798Y-144625885D01*
X267095036Y-144409219D02*
X267342655Y-144409219D01*
X267187893Y-144192552D02*
X267187893Y-144749695D01*
X267187893Y-144749695D02*
X267218846Y-144811600D01*
X267218846Y-144811600D02*
X267280751Y-144842552D01*
X267280751Y-144842552D02*
X267342655Y-144842552D01*
X267559322Y-144842552D02*
X267559322Y-144409219D01*
X267559322Y-144533028D02*
X267590275Y-144471123D01*
X267590275Y-144471123D02*
X267621227Y-144440171D01*
X267621227Y-144440171D02*
X267683132Y-144409219D01*
X267683132Y-144409219D02*
X267745037Y-144409219D01*
X268054561Y-144842552D02*
X267992656Y-144811600D01*
X267992656Y-144811600D02*
X267961703Y-144780647D01*
X267961703Y-144780647D02*
X267930751Y-144718742D01*
X267930751Y-144718742D02*
X267930751Y-144533028D01*
X267930751Y-144533028D02*
X267961703Y-144471123D01*
X267961703Y-144471123D02*
X267992656Y-144440171D01*
X267992656Y-144440171D02*
X268054561Y-144409219D01*
X268054561Y-144409219D02*
X268147418Y-144409219D01*
X268147418Y-144409219D02*
X268209322Y-144440171D01*
X268209322Y-144440171D02*
X268240275Y-144471123D01*
X268240275Y-144471123D02*
X268271227Y-144533028D01*
X268271227Y-144533028D02*
X268271227Y-144718742D01*
X268271227Y-144718742D02*
X268240275Y-144780647D01*
X268240275Y-144780647D02*
X268209322Y-144811600D01*
X268209322Y-144811600D02*
X268147418Y-144842552D01*
X268147418Y-144842552D02*
X268054561Y-144842552D01*
X268890275Y-144223504D02*
X268828370Y-144192552D01*
X268828370Y-144192552D02*
X268735513Y-144192552D01*
X268735513Y-144192552D02*
X268642656Y-144223504D01*
X268642656Y-144223504D02*
X268580751Y-144285409D01*
X268580751Y-144285409D02*
X268549798Y-144347314D01*
X268549798Y-144347314D02*
X268518846Y-144471123D01*
X268518846Y-144471123D02*
X268518846Y-144563980D01*
X268518846Y-144563980D02*
X268549798Y-144687790D01*
X268549798Y-144687790D02*
X268580751Y-144749695D01*
X268580751Y-144749695D02*
X268642656Y-144811600D01*
X268642656Y-144811600D02*
X268735513Y-144842552D01*
X268735513Y-144842552D02*
X268797417Y-144842552D01*
X268797417Y-144842552D02*
X268890275Y-144811600D01*
X268890275Y-144811600D02*
X268921227Y-144780647D01*
X268921227Y-144780647D02*
X268921227Y-144563980D01*
X268921227Y-144563980D02*
X268797417Y-144563980D01*
X269292656Y-144842552D02*
X269230751Y-144811600D01*
X269230751Y-144811600D02*
X269199798Y-144749695D01*
X269199798Y-144749695D02*
X269199798Y-144192552D01*
X269633132Y-144842552D02*
X269571227Y-144811600D01*
X269571227Y-144811600D02*
X269540274Y-144780647D01*
X269540274Y-144780647D02*
X269509322Y-144718742D01*
X269509322Y-144718742D02*
X269509322Y-144533028D01*
X269509322Y-144533028D02*
X269540274Y-144471123D01*
X269540274Y-144471123D02*
X269571227Y-144440171D01*
X269571227Y-144440171D02*
X269633132Y-144409219D01*
X269633132Y-144409219D02*
X269725989Y-144409219D01*
X269725989Y-144409219D02*
X269787893Y-144440171D01*
X269787893Y-144440171D02*
X269818846Y-144471123D01*
X269818846Y-144471123D02*
X269849798Y-144533028D01*
X269849798Y-144533028D02*
X269849798Y-144718742D01*
X269849798Y-144718742D02*
X269818846Y-144780647D01*
X269818846Y-144780647D02*
X269787893Y-144811600D01*
X269787893Y-144811600D02*
X269725989Y-144842552D01*
X269725989Y-144842552D02*
X269633132Y-144842552D01*
X270066465Y-144409219D02*
X270190274Y-144842552D01*
X270190274Y-144842552D02*
X270314084Y-144533028D01*
X270314084Y-144533028D02*
X270437893Y-144842552D01*
X270437893Y-144842552D02*
X270561703Y-144409219D01*
X270809321Y-144594933D02*
X271304560Y-144594933D01*
X271056940Y-144842552D02*
X271056940Y-144347314D01*
X265980750Y-145889052D02*
X265980750Y-145239052D01*
X265980750Y-145239052D02*
X266135512Y-145239052D01*
X266135512Y-145239052D02*
X266228369Y-145270004D01*
X266228369Y-145270004D02*
X266290274Y-145331909D01*
X266290274Y-145331909D02*
X266321227Y-145393814D01*
X266321227Y-145393814D02*
X266352179Y-145517623D01*
X266352179Y-145517623D02*
X266352179Y-145610480D01*
X266352179Y-145610480D02*
X266321227Y-145734290D01*
X266321227Y-145734290D02*
X266290274Y-145796195D01*
X266290274Y-145796195D02*
X266228369Y-145858100D01*
X266228369Y-145858100D02*
X266135512Y-145889052D01*
X266135512Y-145889052D02*
X265980750Y-145889052D01*
X266878369Y-145858100D02*
X266816465Y-145889052D01*
X266816465Y-145889052D02*
X266692655Y-145889052D01*
X266692655Y-145889052D02*
X266630750Y-145858100D01*
X266630750Y-145858100D02*
X266599798Y-145796195D01*
X266599798Y-145796195D02*
X266599798Y-145548576D01*
X266599798Y-145548576D02*
X266630750Y-145486671D01*
X266630750Y-145486671D02*
X266692655Y-145455719D01*
X266692655Y-145455719D02*
X266816465Y-145455719D01*
X266816465Y-145455719D02*
X266878369Y-145486671D01*
X266878369Y-145486671D02*
X266909322Y-145548576D01*
X266909322Y-145548576D02*
X266909322Y-145610480D01*
X266909322Y-145610480D02*
X266599798Y-145672385D01*
X267156941Y-145858100D02*
X267218846Y-145889052D01*
X267218846Y-145889052D02*
X267342655Y-145889052D01*
X267342655Y-145889052D02*
X267404560Y-145858100D01*
X267404560Y-145858100D02*
X267435512Y-145796195D01*
X267435512Y-145796195D02*
X267435512Y-145765242D01*
X267435512Y-145765242D02*
X267404560Y-145703338D01*
X267404560Y-145703338D02*
X267342655Y-145672385D01*
X267342655Y-145672385D02*
X267249798Y-145672385D01*
X267249798Y-145672385D02*
X267187893Y-145641433D01*
X267187893Y-145641433D02*
X267156941Y-145579528D01*
X267156941Y-145579528D02*
X267156941Y-145548576D01*
X267156941Y-145548576D02*
X267187893Y-145486671D01*
X267187893Y-145486671D02*
X267249798Y-145455719D01*
X267249798Y-145455719D02*
X267342655Y-145455719D01*
X267342655Y-145455719D02*
X267404560Y-145486671D01*
X267714083Y-145889052D02*
X267714083Y-145455719D01*
X267714083Y-145239052D02*
X267683131Y-145270004D01*
X267683131Y-145270004D02*
X267714083Y-145300957D01*
X267714083Y-145300957D02*
X267745036Y-145270004D01*
X267745036Y-145270004D02*
X267714083Y-145239052D01*
X267714083Y-145239052D02*
X267714083Y-145300957D01*
X268302179Y-145455719D02*
X268302179Y-145981909D01*
X268302179Y-145981909D02*
X268271226Y-146043814D01*
X268271226Y-146043814D02*
X268240274Y-146074766D01*
X268240274Y-146074766D02*
X268178369Y-146105719D01*
X268178369Y-146105719D02*
X268085512Y-146105719D01*
X268085512Y-146105719D02*
X268023607Y-146074766D01*
X268302179Y-145858100D02*
X268240274Y-145889052D01*
X268240274Y-145889052D02*
X268116465Y-145889052D01*
X268116465Y-145889052D02*
X268054560Y-145858100D01*
X268054560Y-145858100D02*
X268023607Y-145827147D01*
X268023607Y-145827147D02*
X267992655Y-145765242D01*
X267992655Y-145765242D02*
X267992655Y-145579528D01*
X267992655Y-145579528D02*
X268023607Y-145517623D01*
X268023607Y-145517623D02*
X268054560Y-145486671D01*
X268054560Y-145486671D02*
X268116465Y-145455719D01*
X268116465Y-145455719D02*
X268240274Y-145455719D01*
X268240274Y-145455719D02*
X268302179Y-145486671D01*
X268611702Y-145455719D02*
X268611702Y-145889052D01*
X268611702Y-145517623D02*
X268642655Y-145486671D01*
X268642655Y-145486671D02*
X268704560Y-145455719D01*
X268704560Y-145455719D02*
X268797417Y-145455719D01*
X268797417Y-145455719D02*
X268859321Y-145486671D01*
X268859321Y-145486671D02*
X268890274Y-145548576D01*
X268890274Y-145548576D02*
X268890274Y-145889052D01*
X269447416Y-145858100D02*
X269385512Y-145889052D01*
X269385512Y-145889052D02*
X269261702Y-145889052D01*
X269261702Y-145889052D02*
X269199797Y-145858100D01*
X269199797Y-145858100D02*
X269168845Y-145796195D01*
X269168845Y-145796195D02*
X269168845Y-145548576D01*
X269168845Y-145548576D02*
X269199797Y-145486671D01*
X269199797Y-145486671D02*
X269261702Y-145455719D01*
X269261702Y-145455719D02*
X269385512Y-145455719D01*
X269385512Y-145455719D02*
X269447416Y-145486671D01*
X269447416Y-145486671D02*
X269478369Y-145548576D01*
X269478369Y-145548576D02*
X269478369Y-145610480D01*
X269478369Y-145610480D02*
X269168845Y-145672385D01*
X270035512Y-145889052D02*
X270035512Y-145239052D01*
X270035512Y-145858100D02*
X269973607Y-145889052D01*
X269973607Y-145889052D02*
X269849798Y-145889052D01*
X269849798Y-145889052D02*
X269787893Y-145858100D01*
X269787893Y-145858100D02*
X269756940Y-145827147D01*
X269756940Y-145827147D02*
X269725988Y-145765242D01*
X269725988Y-145765242D02*
X269725988Y-145579528D01*
X269725988Y-145579528D02*
X269756940Y-145517623D01*
X269756940Y-145517623D02*
X269787893Y-145486671D01*
X269787893Y-145486671D02*
X269849798Y-145455719D01*
X269849798Y-145455719D02*
X269973607Y-145455719D01*
X269973607Y-145455719D02*
X270035512Y-145486671D01*
X271056940Y-145548576D02*
X271149797Y-145579528D01*
X271149797Y-145579528D02*
X271180750Y-145610480D01*
X271180750Y-145610480D02*
X271211702Y-145672385D01*
X271211702Y-145672385D02*
X271211702Y-145765242D01*
X271211702Y-145765242D02*
X271180750Y-145827147D01*
X271180750Y-145827147D02*
X271149797Y-145858100D01*
X271149797Y-145858100D02*
X271087892Y-145889052D01*
X271087892Y-145889052D02*
X270840273Y-145889052D01*
X270840273Y-145889052D02*
X270840273Y-145239052D01*
X270840273Y-145239052D02*
X271056940Y-145239052D01*
X271056940Y-145239052D02*
X271118845Y-145270004D01*
X271118845Y-145270004D02*
X271149797Y-145300957D01*
X271149797Y-145300957D02*
X271180750Y-145362861D01*
X271180750Y-145362861D02*
X271180750Y-145424766D01*
X271180750Y-145424766D02*
X271149797Y-145486671D01*
X271149797Y-145486671D02*
X271118845Y-145517623D01*
X271118845Y-145517623D02*
X271056940Y-145548576D01*
X271056940Y-145548576D02*
X270840273Y-145548576D01*
X271428369Y-145455719D02*
X271583131Y-145889052D01*
X271737892Y-145455719D02*
X271583131Y-145889052D01*
X271583131Y-145889052D02*
X271521226Y-146043814D01*
X271521226Y-146043814D02*
X271490273Y-146074766D01*
X271490273Y-146074766D02*
X271428369Y-146105719D01*
X272480749Y-145889052D02*
X272480749Y-145239052D01*
X272480749Y-145239052D02*
X272697416Y-145703338D01*
X272697416Y-145703338D02*
X272914083Y-145239052D01*
X272914083Y-145239052D02*
X272914083Y-145889052D01*
X273223606Y-145889052D02*
X273223606Y-145455719D01*
X273223606Y-145239052D02*
X273192654Y-145270004D01*
X273192654Y-145270004D02*
X273223606Y-145300957D01*
X273223606Y-145300957D02*
X273254559Y-145270004D01*
X273254559Y-145270004D02*
X273223606Y-145239052D01*
X273223606Y-145239052D02*
X273223606Y-145300957D01*
X273440273Y-145455719D02*
X273687892Y-145455719D01*
X273533130Y-145239052D02*
X273533130Y-145796195D01*
X273533130Y-145796195D02*
X273564083Y-145858100D01*
X273564083Y-145858100D02*
X273625988Y-145889052D01*
X273625988Y-145889052D02*
X273687892Y-145889052D01*
X274183131Y-145858100D02*
X274121226Y-145889052D01*
X274121226Y-145889052D02*
X273997417Y-145889052D01*
X273997417Y-145889052D02*
X273935512Y-145858100D01*
X273935512Y-145858100D02*
X273904559Y-145827147D01*
X273904559Y-145827147D02*
X273873607Y-145765242D01*
X273873607Y-145765242D02*
X273873607Y-145579528D01*
X273873607Y-145579528D02*
X273904559Y-145517623D01*
X273904559Y-145517623D02*
X273935512Y-145486671D01*
X273935512Y-145486671D02*
X273997417Y-145455719D01*
X273997417Y-145455719D02*
X274121226Y-145455719D01*
X274121226Y-145455719D02*
X274183131Y-145486671D01*
X274461702Y-145889052D02*
X274461702Y-145239052D01*
X274740274Y-145889052D02*
X274740274Y-145548576D01*
X274740274Y-145548576D02*
X274709321Y-145486671D01*
X274709321Y-145486671D02*
X274647417Y-145455719D01*
X274647417Y-145455719D02*
X274554560Y-145455719D01*
X274554560Y-145455719D02*
X274492655Y-145486671D01*
X274492655Y-145486671D02*
X274461702Y-145517623D01*
D12*
X208929653Y-107252371D02*
X208858225Y-107323800D01*
X208858225Y-107323800D02*
X208643939Y-107395228D01*
X208643939Y-107395228D02*
X208501082Y-107395228D01*
X208501082Y-107395228D02*
X208286796Y-107323800D01*
X208286796Y-107323800D02*
X208143939Y-107180942D01*
X208143939Y-107180942D02*
X208072510Y-107038085D01*
X208072510Y-107038085D02*
X208001082Y-106752371D01*
X208001082Y-106752371D02*
X208001082Y-106538085D01*
X208001082Y-106538085D02*
X208072510Y-106252371D01*
X208072510Y-106252371D02*
X208143939Y-106109514D01*
X208143939Y-106109514D02*
X208286796Y-105966657D01*
X208286796Y-105966657D02*
X208501082Y-105895228D01*
X208501082Y-105895228D02*
X208643939Y-105895228D01*
X208643939Y-105895228D02*
X208858225Y-105966657D01*
X208858225Y-105966657D02*
X208929653Y-106038085D01*
X210286796Y-107395228D02*
X209572510Y-107395228D01*
X209572510Y-107395228D02*
X209572510Y-105895228D01*
X210786796Y-107395228D02*
X210786796Y-105895228D01*
X211643939Y-107395228D02*
X211001082Y-106538085D01*
X211643939Y-105895228D02*
X210786796Y-106752371D01*
X216117853Y-63488171D02*
X216046425Y-63559600D01*
X216046425Y-63559600D02*
X215832139Y-63631028D01*
X215832139Y-63631028D02*
X215689282Y-63631028D01*
X215689282Y-63631028D02*
X215474996Y-63559600D01*
X215474996Y-63559600D02*
X215332139Y-63416742D01*
X215332139Y-63416742D02*
X215260710Y-63273885D01*
X215260710Y-63273885D02*
X215189282Y-62988171D01*
X215189282Y-62988171D02*
X215189282Y-62773885D01*
X215189282Y-62773885D02*
X215260710Y-62488171D01*
X215260710Y-62488171D02*
X215332139Y-62345314D01*
X215332139Y-62345314D02*
X215474996Y-62202457D01*
X215474996Y-62202457D02*
X215689282Y-62131028D01*
X215689282Y-62131028D02*
X215832139Y-62131028D01*
X215832139Y-62131028D02*
X216046425Y-62202457D01*
X216046425Y-62202457D02*
X216117853Y-62273885D01*
X217474996Y-63631028D02*
X216760710Y-63631028D01*
X216760710Y-63631028D02*
X216760710Y-62131028D01*
X217974996Y-63631028D02*
X217974996Y-62131028D01*
X218832139Y-63631028D02*
X218189282Y-62773885D01*
X218832139Y-62131028D02*
X217974996Y-62988171D01*
X216738682Y-76539000D02*
X216952968Y-76610428D01*
X216952968Y-76610428D02*
X217310110Y-76610428D01*
X217310110Y-76610428D02*
X217452968Y-76539000D01*
X217452968Y-76539000D02*
X217524396Y-76467571D01*
X217524396Y-76467571D02*
X217595825Y-76324714D01*
X217595825Y-76324714D02*
X217595825Y-76181857D01*
X217595825Y-76181857D02*
X217524396Y-76039000D01*
X217524396Y-76039000D02*
X217452968Y-75967571D01*
X217452968Y-75967571D02*
X217310110Y-75896142D01*
X217310110Y-75896142D02*
X217024396Y-75824714D01*
X217024396Y-75824714D02*
X216881539Y-75753285D01*
X216881539Y-75753285D02*
X216810110Y-75681857D01*
X216810110Y-75681857D02*
X216738682Y-75539000D01*
X216738682Y-75539000D02*
X216738682Y-75396142D01*
X216738682Y-75396142D02*
X216810110Y-75253285D01*
X216810110Y-75253285D02*
X216881539Y-75181857D01*
X216881539Y-75181857D02*
X217024396Y-75110428D01*
X217024396Y-75110428D02*
X217381539Y-75110428D01*
X217381539Y-75110428D02*
X217595825Y-75181857D01*
X218024396Y-75110428D02*
X218881539Y-75110428D01*
X218452967Y-76610428D02*
X218452967Y-75110428D01*
%TO.C,SWDL1*%
D14*
X211697495Y-127303994D02*
G75*
G03*
X211697495Y-127303994I-1575000J0D01*
G01*
%TO.C,SWDU1*%
X219572495Y-119366494D02*
G75*
G03*
X219572495Y-119366494I-1575000J0D01*
G01*
%TO.C,SWDR1*%
X227447495Y-127303994D02*
G75*
G03*
X227447495Y-127303994I-1575000J0D01*
G01*
%TO.C,SWDD1*%
X219572495Y-135241494D02*
G75*
G03*
X219572495Y-135241494I-1575000J0D01*
G01*
%TO.C,REF\u002A\u002A*%
D15*
X272186400Y-140332898D02*
X273140355Y-140332898D01*
X273140355Y-141002267D01*
X271553741Y-141002267D01*
X271553741Y-138449095D01*
X272186400Y-138449095D01*
X272186400Y-140332898D01*
G36*
X272186400Y-140332898D02*
G01*
X273140355Y-140332898D01*
X273140355Y-141002267D01*
X271553741Y-141002267D01*
X271553741Y-138449095D01*
X272186400Y-138449095D01*
X272186400Y-140332898D01*
G37*
X269420266Y-141002267D02*
X268739405Y-141002267D01*
X268739405Y-140034145D01*
X268499749Y-140034145D01*
X268499749Y-141002267D01*
X267814449Y-141002267D01*
X267814449Y-138449615D01*
X268497463Y-138449095D01*
X268497463Y-139371897D01*
X268739405Y-139371897D01*
X268739405Y-138449095D01*
X269420266Y-138449095D01*
X269420266Y-141002267D01*
G36*
X269420266Y-141002267D02*
G01*
X268739405Y-141002267D01*
X268739405Y-140034145D01*
X268499749Y-140034145D01*
X268499749Y-141002267D01*
X267814449Y-141002267D01*
X267814449Y-138449615D01*
X268497463Y-138449095D01*
X268497463Y-139371897D01*
X268739405Y-139371897D01*
X268739405Y-138449095D01*
X269420266Y-138449095D01*
X269420266Y-141002267D01*
G37*
X271270266Y-141002267D02*
X270589405Y-141002267D01*
X270589405Y-140034145D01*
X270349749Y-140034145D01*
X270349749Y-141002267D01*
X269664449Y-141002267D01*
X269664449Y-138449615D01*
X270347463Y-138449095D01*
X270347463Y-139371897D01*
X270589405Y-139371897D01*
X270589405Y-138449095D01*
X271270266Y-138449095D01*
X271270266Y-141002267D01*
G36*
X271270266Y-141002267D02*
G01*
X270589405Y-141002267D01*
X270589405Y-140034145D01*
X270349749Y-140034145D01*
X270349749Y-141002267D01*
X269664449Y-141002267D01*
X269664449Y-138449615D01*
X270347463Y-138449095D01*
X270347463Y-139371897D01*
X270589405Y-139371897D01*
X270589405Y-138449095D01*
X271270266Y-138449095D01*
X271270266Y-141002267D01*
G37*
%TO.C,U5*%
D16*
X235491800Y-138669400D02*
X234751800Y-138669400D01*
X234751800Y-138289400D01*
X235491800Y-138289400D01*
X235491800Y-138669400D01*
G36*
X235491800Y-138669400D02*
G01*
X234751800Y-138669400D01*
X234751800Y-138289400D01*
X235491800Y-138289400D01*
X235491800Y-138669400D01*
G37*
X235491800Y-139169400D02*
X234751800Y-139169400D01*
X234751800Y-138789400D01*
X235491800Y-138789400D01*
X235491800Y-139169400D01*
G36*
X235491800Y-139169400D02*
G01*
X234751800Y-139169400D01*
X234751800Y-138789400D01*
X235491800Y-138789400D01*
X235491800Y-139169400D01*
G37*
X235491800Y-139669400D02*
X234751800Y-139669400D01*
X234751800Y-139289400D01*
X235491800Y-139289400D01*
X235491800Y-139669400D01*
G36*
X235491800Y-139669400D02*
G01*
X234751800Y-139669400D01*
X234751800Y-139289400D01*
X235491800Y-139289400D01*
X235491800Y-139669400D01*
G37*
X235491800Y-140169400D02*
X234751800Y-140169400D01*
X234751800Y-139789400D01*
X235491800Y-139789400D01*
X235491800Y-140169400D01*
G36*
X235491800Y-140169400D02*
G01*
X234751800Y-140169400D01*
X234751800Y-139789400D01*
X235491800Y-139789400D01*
X235491800Y-140169400D01*
G37*
X235491800Y-140669400D02*
X234751800Y-140669400D01*
X234751800Y-140289400D01*
X235491800Y-140289400D01*
X235491800Y-140669400D01*
G36*
X235491800Y-140669400D02*
G01*
X234751800Y-140669400D01*
X234751800Y-140289400D01*
X235491800Y-140289400D01*
X235491800Y-140669400D01*
G37*
X238291800Y-138669400D02*
X237551800Y-138669400D01*
X237551800Y-138289400D01*
X238291800Y-138289400D01*
X238291800Y-138669400D01*
G36*
X238291800Y-138669400D02*
G01*
X237551800Y-138669400D01*
X237551800Y-138289400D01*
X238291800Y-138289400D01*
X238291800Y-138669400D01*
G37*
X238291800Y-139169400D02*
X237551800Y-139169400D01*
X237551800Y-138789400D01*
X238291800Y-138789400D01*
X238291800Y-139169400D01*
G36*
X238291800Y-139169400D02*
G01*
X237551800Y-139169400D01*
X237551800Y-138789400D01*
X238291800Y-138789400D01*
X238291800Y-139169400D01*
G37*
X238291800Y-139669400D02*
X237551800Y-139669400D01*
X237551800Y-139289400D01*
X238291800Y-139289400D01*
X238291800Y-139669400D01*
G36*
X238291800Y-139669400D02*
G01*
X237551800Y-139669400D01*
X237551800Y-139289400D01*
X238291800Y-139289400D01*
X238291800Y-139669400D01*
G37*
X238291800Y-140169400D02*
X237551800Y-140169400D01*
X237551800Y-139789400D01*
X238291800Y-139789400D01*
X238291800Y-140169400D01*
G36*
X238291800Y-140169400D02*
G01*
X237551800Y-140169400D01*
X237551800Y-139789400D01*
X238291800Y-139789400D01*
X238291800Y-140169400D01*
G37*
X238291800Y-140669400D02*
X237551800Y-140669400D01*
X237551800Y-140289400D01*
X238291800Y-140289400D01*
X238291800Y-140669400D01*
G36*
X238291800Y-140669400D02*
G01*
X237551800Y-140669400D01*
X237551800Y-140289400D01*
X238291800Y-140289400D01*
X238291800Y-140669400D01*
G37*
X236466800Y-138209400D02*
X236576800Y-138209400D01*
X236576800Y-137709400D01*
X236966800Y-137709400D01*
X236966800Y-138209400D01*
X237416800Y-138209400D01*
X237416800Y-140749400D01*
X236966800Y-140749400D01*
X236966800Y-141249400D01*
X236576800Y-141249400D01*
X236576800Y-140749400D01*
X236466800Y-140749400D01*
X236466800Y-141249400D01*
X236076800Y-141249400D01*
X236076800Y-140749400D01*
X235626800Y-140749400D01*
X235626800Y-138209400D01*
X236076800Y-138209400D01*
X236076800Y-137709400D01*
X236466800Y-137709400D01*
X236466800Y-138209400D01*
G36*
X236466800Y-138209400D02*
G01*
X236576800Y-138209400D01*
X236576800Y-137709400D01*
X236966800Y-137709400D01*
X236966800Y-138209400D01*
X237416800Y-138209400D01*
X237416800Y-140749400D01*
X236966800Y-140749400D01*
X236966800Y-141249400D01*
X236576800Y-141249400D01*
X236576800Y-140749400D01*
X236466800Y-140749400D01*
X236466800Y-141249400D01*
X236076800Y-141249400D01*
X236076800Y-140749400D01*
X235626800Y-140749400D01*
X235626800Y-138209400D01*
X236076800Y-138209400D01*
X236076800Y-137709400D01*
X236466800Y-137709400D01*
X236466800Y-138209400D01*
G37*
%TO.C,SWB1*%
D17*
X255503120Y-129549554D02*
G75*
G03*
X255503120Y-129549554I-1478126J0D01*
G01*
%TO.C,SWA1*%
X269495724Y-125046960D02*
G75*
G03*
X269495724Y-125046960I-1478126J0D01*
G01*
%TO.C,SWSEL1*%
D13*
X238593390Y-151314896D02*
X231024190Y-151314896D01*
X231024190Y-147708096D01*
X238593390Y-147708096D01*
X238593390Y-151314896D01*
G36*
X238593390Y-151314896D02*
G01*
X231024190Y-151314896D01*
X231024190Y-147708096D01*
X238593390Y-147708096D01*
X238593390Y-151314896D01*
G37*
%TO.C,SWSTART1*%
X249993390Y-151314896D02*
X242424190Y-151314896D01*
X242424190Y-147708096D01*
X249993390Y-147708096D01*
X249993390Y-151314896D01*
G36*
X249993390Y-151314896D02*
G01*
X242424190Y-151314896D01*
X242424190Y-147708096D01*
X249993390Y-147708096D01*
X249993390Y-151314896D01*
G37*
%TD*%
D18*
%TO.C,I1*%
X233019600Y-140876600D03*
X233019600Y-138726600D03*
%TD*%
D19*
%TO.C,R11*%
X231256800Y-112115600D03*
X230616800Y-112115600D03*
%TD*%
%TO.C,R15*%
X246835815Y-144183415D03*
X246195815Y-144183415D03*
%TD*%
D20*
%TO.C,R6*%
X234715280Y-115129803D03*
X235355280Y-115129803D03*
%TD*%
D21*
%TO.C,L2*%
X214137495Y-127638994D03*
X214807495Y-127638994D03*
X214807495Y-126968994D03*
X214137495Y-126968994D03*
%TD*%
D22*
%TO.C,TP10*%
X282346400Y-130581400D03*
%TD*%
D19*
%TO.C,R4*%
X256207407Y-112066293D03*
X255567407Y-112066293D03*
%TD*%
D23*
%TO.C,U2*%
X250491200Y-112297500D03*
X250091200Y-112297500D03*
X249691200Y-112297500D03*
X249291200Y-112297500D03*
X248891200Y-112297500D03*
X248491200Y-112297500D03*
X248091200Y-112297500D03*
X247691200Y-112297500D03*
X247291200Y-112297500D03*
X246891200Y-112297500D03*
X246491200Y-112297500D03*
X246091200Y-112297500D03*
X245691200Y-112297500D03*
X245291200Y-112297500D03*
D24*
X244453700Y-113135000D03*
X244453700Y-113535000D03*
X244453700Y-113935000D03*
X244453700Y-114335000D03*
X244453700Y-114735000D03*
X244453700Y-115135000D03*
X244453700Y-115535000D03*
X244453700Y-115935000D03*
X244453700Y-116335000D03*
X244453700Y-116735000D03*
X244453700Y-117135000D03*
X244453700Y-117535000D03*
X244453700Y-117935000D03*
X244453700Y-118335000D03*
D23*
X245291200Y-119172500D03*
X245691200Y-119172500D03*
X246091200Y-119172500D03*
X246491200Y-119172500D03*
X246891200Y-119172500D03*
X247291200Y-119172500D03*
X247691200Y-119172500D03*
X248091200Y-119172500D03*
X248491200Y-119172500D03*
X248891200Y-119172500D03*
X249291200Y-119172500D03*
X249691200Y-119172500D03*
X250091200Y-119172500D03*
X250491200Y-119172500D03*
D24*
X251328700Y-118335000D03*
X251328700Y-117935000D03*
X251328700Y-117535000D03*
X251328700Y-117135000D03*
X251328700Y-116735000D03*
X251328700Y-116335000D03*
X251328700Y-115935000D03*
X251328700Y-115535000D03*
X251328700Y-115135000D03*
X251328700Y-114735000D03*
X251328700Y-114335000D03*
X251328700Y-113935000D03*
X251328700Y-113535000D03*
X251328700Y-113135000D03*
D25*
X247891200Y-115735000D03*
%TD*%
D26*
%TO.C,TP7*%
X220954600Y-79425800D03*
%TD*%
D27*
%TO.C,R10*%
X245450600Y-126283800D03*
X245450600Y-126923800D03*
%TD*%
D28*
%TO.C,Y2*%
X241668600Y-141427200D03*
X241668600Y-139277200D03*
X240118600Y-139277200D03*
X240118600Y-141427200D03*
%TD*%
D19*
%TO.C,R14*%
X231256800Y-112903000D03*
X230616800Y-112903000D03*
%TD*%
D20*
%TO.C,R26*%
X214665600Y-143103600D03*
X215305600Y-143103600D03*
%TD*%
D29*
%TO.C,SW1*%
X263836200Y-114812200D03*
X264636200Y-114812200D03*
X263836200Y-112162200D03*
D30*
X264636200Y-112162200D03*
%TD*%
D26*
%TO.C,TP3*%
X209804000Y-103809800D03*
%TD*%
D31*
%TO.C,C3*%
X252758000Y-119989600D03*
X253718000Y-119989600D03*
%TD*%
D21*
%TO.C,L7*%
X234473790Y-152846496D03*
X235143790Y-152846496D03*
X235143790Y-152176496D03*
X234473790Y-152176496D03*
%TD*%
D19*
%TO.C,R13*%
X231256800Y-115011200D03*
X230616800Y-115011200D03*
%TD*%
D21*
%TO.C,L8*%
X217662495Y-131226494D03*
X218332495Y-131226494D03*
X218332495Y-130556494D03*
X217662495Y-130556494D03*
%TD*%
%TO.C,L3*%
X253689994Y-133734554D03*
X254359994Y-133734554D03*
X254359994Y-133064554D03*
X253689994Y-133064554D03*
%TD*%
D20*
%TO.C,R24*%
X241395215Y-142888015D03*
X242035215Y-142888015D03*
%TD*%
D27*
%TO.C,R5*%
X238953600Y-116439500D03*
X238953600Y-117079500D03*
%TD*%
D32*
%TO.C,Q1*%
X246837200Y-128041400D03*
X246187200Y-128041400D03*
X245537200Y-128041400D03*
X245537200Y-129941400D03*
X246187200Y-129941400D03*
X246837200Y-129941400D03*
%TD*%
D22*
%TO.C,TP12*%
X278765000Y-126974600D03*
%TD*%
D21*
%TO.C,L4*%
X217662495Y-124051494D03*
X218332495Y-124051494D03*
X218332495Y-123381494D03*
X217662495Y-123381494D03*
%TD*%
D19*
%TO.C,R3*%
X254996200Y-117292900D03*
X254356200Y-117292900D03*
%TD*%
D27*
%TO.C,R9*%
X246923800Y-126258400D03*
X246923800Y-126898400D03*
%TD*%
D33*
%TO.C,C11*%
X233244880Y-122394203D03*
X231694880Y-122394203D03*
%TD*%
D27*
%TO.C,C13*%
X238912400Y-141259600D03*
X238912400Y-141899600D03*
%TD*%
D34*
%TO.C,U4*%
X234707880Y-116704603D03*
D35*
X233207880Y-118554603D03*
D34*
X231707880Y-116704603D03*
X231707880Y-120404603D03*
X234707880Y-120404603D03*
%TD*%
D20*
%TO.C,R20*%
X225816200Y-110032800D03*
X226456200Y-110032800D03*
%TD*%
D36*
%TO.C,C4*%
X245463000Y-125349000D03*
X244503000Y-125349000D03*
%TD*%
D37*
%TO.C,C9*%
X234984480Y-122381203D03*
X234984480Y-123931203D03*
%TD*%
D21*
%TO.C,L6*%
X221187495Y-127638994D03*
X221857495Y-127638994D03*
X221857495Y-126968994D03*
X221187495Y-126968994D03*
%TD*%
D38*
%TO.C,C14*%
X237923800Y-136050400D03*
X236023800Y-136050400D03*
%TD*%
D21*
%TO.C,L1*%
X267682598Y-129231960D03*
X268352598Y-129231960D03*
X268352598Y-128561960D03*
X267682598Y-128561960D03*
%TD*%
D39*
%TO.C,REF\u002A\u002A*%
X217212283Y-106146600D03*
%TD*%
D19*
%TO.C,R27*%
X238597400Y-110617000D03*
X237957400Y-110617000D03*
%TD*%
D40*
%TO.C,REF\u002A\u002A*%
X226111100Y-154531000D03*
%TD*%
D21*
%TO.C,L9*%
X209126401Y-64053023D03*
X209796401Y-64053023D03*
X209796401Y-63383023D03*
X209126401Y-63383023D03*
%TD*%
D40*
%TO.C,REF\u002A\u002A*%
X226111100Y-157031000D03*
%TD*%
D41*
%TO.C,C12*%
X231121600Y-142832200D03*
X233021600Y-142832200D03*
%TD*%
D42*
%TO.C,C1*%
X254727000Y-119982700D03*
X254727000Y-119022700D03*
%TD*%
D43*
%TO.C,Q2*%
X229484000Y-111734600D03*
X229484000Y-111084600D03*
X229484000Y-110434600D03*
X227584000Y-110434600D03*
X227584000Y-111084600D03*
X227584000Y-111734600D03*
%TD*%
%TO.C,Q4*%
X245054200Y-144170400D03*
X245054200Y-143520400D03*
X245054200Y-142870400D03*
X243154200Y-142870400D03*
X243154200Y-143520400D03*
X243154200Y-144170400D03*
%TD*%
D44*
%TO.C,Y1*%
X240706200Y-114054700D03*
X240706200Y-115254700D03*
X240706200Y-116454700D03*
%TD*%
D21*
%TO.C,L5*%
X245873790Y-152846496D03*
X246543790Y-152846496D03*
X246543790Y-152176496D03*
X245873790Y-152176496D03*
%TD*%
D26*
%TO.C,TP2*%
X220954600Y-72263000D03*
%TD*%
D22*
%TO.C,TP11*%
X282346400Y-126974600D03*
%TD*%
D45*
%TO.C,U1*%
X254728407Y-111964693D03*
X254228407Y-111964693D03*
X253728407Y-111964693D03*
X253228407Y-111964693D03*
X253228407Y-114364693D03*
X253728407Y-114364693D03*
X254228407Y-114364693D03*
X254728407Y-114364693D03*
D46*
X253978407Y-113164693D03*
%TD*%
D26*
%TO.C,TP8*%
X220954600Y-75844400D03*
%TD*%
D20*
%TO.C,R7*%
X260080800Y-120065800D03*
X260720800Y-120065800D03*
%TD*%
D27*
%TO.C,R1*%
X241427000Y-117790000D03*
X241427000Y-118430000D03*
%TD*%
D40*
%TO.C,REF\u002A\u002A*%
X226111100Y-159531000D03*
%TD*%
%TO.C,REF\u002A\u002A*%
X208811100Y-154531000D03*
%TD*%
D19*
%TO.C,R2*%
X254996200Y-116505500D03*
X254356200Y-116505500D03*
%TD*%
D26*
%TO.C,TP1*%
X220954600Y-68681600D03*
%TD*%
D47*
%TO.C,AE1*%
X253959200Y-139566400D03*
X257109200Y-139566400D03*
%TD*%
D26*
%TO.C,TP9*%
X220903800Y-62839600D03*
%TD*%
D48*
%TO.C,C8*%
X241615000Y-136622600D03*
X241615000Y-137582600D03*
%TD*%
D49*
%TO.C,R18*%
X245476000Y-131749800D03*
X245476000Y-131109800D03*
%TD*%
D20*
%TO.C,R19*%
X225841600Y-112115600D03*
X226481600Y-112115600D03*
%TD*%
%TO.C,R8*%
X237288800Y-141833600D03*
X237928800Y-141833600D03*
%TD*%
D40*
%TO.C,REF\u002A\u002A*%
X226111100Y-162031000D03*
%TD*%
D50*
%TO.C,REF\u002A\u002A*%
X208051400Y-67564000D03*
%TD*%
D20*
%TO.C,R21*%
X225826400Y-115011200D03*
X226466400Y-115011200D03*
%TD*%
D36*
%TO.C,C7*%
X248155400Y-111074200D03*
X247195400Y-111074200D03*
%TD*%
D40*
%TO.C,REF\u002A\u002A*%
X208811100Y-157031000D03*
%TD*%
D49*
%TO.C,R17*%
X246873000Y-131749800D03*
X246873000Y-131109800D03*
%TD*%
%TO.C,C2*%
X255531807Y-114367493D03*
X255531807Y-113727493D03*
%TD*%
D51*
%TO.C,J1*%
X271976600Y-115523100D03*
X267976600Y-115523100D03*
D52*
X271276600Y-116208100D03*
X270626600Y-116208100D03*
X269976600Y-116208100D03*
X269326600Y-116208100D03*
X268676600Y-116208100D03*
D53*
X273189100Y-115733100D03*
X266764100Y-115733100D03*
D54*
X273246600Y-113373100D03*
X266706600Y-113373100D03*
%TD*%
D20*
%TO.C,R23*%
X241395215Y-144183415D03*
X242035215Y-144183415D03*
%TD*%
D55*
%TO.C,U3*%
X243604600Y-135566400D03*
X243604600Y-136566400D03*
X243604600Y-137566400D03*
X243604600Y-138566400D03*
X243604600Y-139566400D03*
X249104600Y-139566400D03*
X249104600Y-138566400D03*
X249104600Y-137566400D03*
X249104600Y-136566400D03*
X249104600Y-135566400D03*
D56*
X246354600Y-137566400D03*
%TD*%
D20*
%TO.C,R22*%
X225826400Y-112903000D03*
X226466400Y-112903000D03*
%TD*%
D22*
%TO.C,TP13*%
X278765000Y-130556000D03*
%TD*%
D43*
%TO.C,Q3*%
X229484000Y-114604800D03*
X229484000Y-113954800D03*
X229484000Y-113304800D03*
X227584000Y-113304800D03*
X227584000Y-113954800D03*
X227584000Y-114604800D03*
%TD*%
D19*
%TO.C,R12*%
X231256800Y-110032800D03*
X230616800Y-110032800D03*
%TD*%
D31*
%TO.C,C10*%
X250802200Y-138582400D03*
X251762200Y-138582400D03*
%TD*%
D20*
%TO.C,R25*%
X212887600Y-143103600D03*
X213527600Y-143103600D03*
%TD*%
D19*
%TO.C,R16*%
X246835815Y-142862615D03*
X246195815Y-142862615D03*
%TD*%
D36*
%TO.C,C6*%
X253718000Y-121005600D03*
X252758000Y-121005600D03*
%TD*%
D40*
%TO.C,REF\u002A\u002A*%
X208811100Y-159531000D03*
%TD*%
D36*
%TO.C,C5*%
X245463000Y-124358400D03*
X244503000Y-124358400D03*
%TD*%
M02*
