%TF.GenerationSoftware,KiCad,Pcbnew,7.0.6*%
%TF.CreationDate,2024-03-31T21:54:29-07:00*%
%TF.ProjectId,retroglowplus_gbc,72657472-6f67-46c6-9f77-706c75735f67,rev?*%
%TF.SameCoordinates,Original*%
%TF.FileFunction,Legend,Top*%
%TF.FilePolarity,Positive*%
%FSLAX46Y46*%
G04 Gerber Fmt 4.6, Leading zero omitted, Abs format (unit mm)*
G04 Created by KiCad (PCBNEW 7.0.6) date 2024-03-31 21:54:29*
%MOMM*%
%LPD*%
G01*
G04 APERTURE LIST*
%ADD10C,0.150000*%
%ADD11C,0.100000*%
%ADD12C,0.350000*%
%ADD13C,0.120000*%
%ADD14C,0.127000*%
%ADD15C,0.200000*%
G04 APERTURE END LIST*
D10*
X253746000Y-137261600D02*
X254558800Y-137261600D01*
X212737700Y-94919800D02*
X223075500Y-94919800D01*
X254152400Y-136372600D02*
X254152400Y-138150600D01*
X212699600Y-94665800D02*
X223050100Y-94665800D01*
X253441200Y-136372600D02*
X257606800Y-136372600D01*
X257606800Y-138201400D01*
X253441200Y-138201400D01*
X253441200Y-136372600D01*
D11*
X231241971Y-140087313D02*
X230641971Y-140087313D01*
X231241971Y-139487314D02*
X231241971Y-139830171D01*
X231241971Y-139658742D02*
X230641971Y-139658742D01*
X230641971Y-139658742D02*
X230727685Y-139715885D01*
X230727685Y-139715885D02*
X230784828Y-139773028D01*
X230784828Y-139773028D02*
X230813400Y-139830171D01*
X232490914Y-111055828D02*
X232690914Y-111341542D01*
X232833771Y-111055828D02*
X232833771Y-111655828D01*
X232833771Y-111655828D02*
X232605200Y-111655828D01*
X232605200Y-111655828D02*
X232548057Y-111627257D01*
X232548057Y-111627257D02*
X232519486Y-111598685D01*
X232519486Y-111598685D02*
X232490914Y-111541542D01*
X232490914Y-111541542D02*
X232490914Y-111455828D01*
X232490914Y-111455828D02*
X232519486Y-111398685D01*
X232519486Y-111398685D02*
X232548057Y-111370114D01*
X232548057Y-111370114D02*
X232605200Y-111341542D01*
X232605200Y-111341542D02*
X232833771Y-111341542D01*
X231919486Y-111055828D02*
X232262343Y-111055828D01*
X232090914Y-111055828D02*
X232090914Y-111655828D01*
X232090914Y-111655828D02*
X232148057Y-111570114D01*
X232148057Y-111570114D02*
X232205200Y-111512971D01*
X232205200Y-111512971D02*
X232262343Y-111484400D01*
X231348057Y-111055828D02*
X231690914Y-111055828D01*
X231519485Y-111055828D02*
X231519485Y-111655828D01*
X231519485Y-111655828D02*
X231576628Y-111570114D01*
X231576628Y-111570114D02*
X231633771Y-111512971D01*
X231633771Y-111512971D02*
X231690914Y-111484400D01*
X246977729Y-144698443D02*
X247177729Y-144984157D01*
X247320586Y-144698443D02*
X247320586Y-145298443D01*
X247320586Y-145298443D02*
X247092015Y-145298443D01*
X247092015Y-145298443D02*
X247034872Y-145269872D01*
X247034872Y-145269872D02*
X247006301Y-145241300D01*
X247006301Y-145241300D02*
X246977729Y-145184157D01*
X246977729Y-145184157D02*
X246977729Y-145098443D01*
X246977729Y-145098443D02*
X247006301Y-145041300D01*
X247006301Y-145041300D02*
X247034872Y-145012729D01*
X247034872Y-145012729D02*
X247092015Y-144984157D01*
X247092015Y-144984157D02*
X247320586Y-144984157D01*
X246406301Y-144698443D02*
X246749158Y-144698443D01*
X246577729Y-144698443D02*
X246577729Y-145298443D01*
X246577729Y-145298443D02*
X246634872Y-145212729D01*
X246634872Y-145212729D02*
X246692015Y-145155586D01*
X246692015Y-145155586D02*
X246749158Y-145127015D01*
X245863443Y-145298443D02*
X246149157Y-145298443D01*
X246149157Y-145298443D02*
X246177729Y-145012729D01*
X246177729Y-145012729D02*
X246149157Y-145041300D01*
X246149157Y-145041300D02*
X246092015Y-145069872D01*
X246092015Y-145069872D02*
X245949157Y-145069872D01*
X245949157Y-145069872D02*
X245892015Y-145041300D01*
X245892015Y-145041300D02*
X245863443Y-145012729D01*
X245863443Y-145012729D02*
X245834872Y-144955586D01*
X245834872Y-144955586D02*
X245834872Y-144812729D01*
X245834872Y-144812729D02*
X245863443Y-144755586D01*
X245863443Y-144755586D02*
X245892015Y-144727015D01*
X245892015Y-144727015D02*
X245949157Y-144698443D01*
X245949157Y-144698443D02*
X246092015Y-144698443D01*
X246092015Y-144698443D02*
X246149157Y-144727015D01*
X246149157Y-144727015D02*
X246177729Y-144755586D01*
X234926200Y-114572371D02*
X234726200Y-114286657D01*
X234583343Y-114572371D02*
X234583343Y-113972371D01*
X234583343Y-113972371D02*
X234811914Y-113972371D01*
X234811914Y-113972371D02*
X234869057Y-114000942D01*
X234869057Y-114000942D02*
X234897628Y-114029514D01*
X234897628Y-114029514D02*
X234926200Y-114086657D01*
X234926200Y-114086657D02*
X234926200Y-114172371D01*
X234926200Y-114172371D02*
X234897628Y-114229514D01*
X234897628Y-114229514D02*
X234869057Y-114258085D01*
X234869057Y-114258085D02*
X234811914Y-114286657D01*
X234811914Y-114286657D02*
X234583343Y-114286657D01*
X235440486Y-113972371D02*
X235326200Y-113972371D01*
X235326200Y-113972371D02*
X235269057Y-114000942D01*
X235269057Y-114000942D02*
X235240486Y-114029514D01*
X235240486Y-114029514D02*
X235183343Y-114115228D01*
X235183343Y-114115228D02*
X235154771Y-114229514D01*
X235154771Y-114229514D02*
X235154771Y-114458085D01*
X235154771Y-114458085D02*
X235183343Y-114515228D01*
X235183343Y-114515228D02*
X235211914Y-114543800D01*
X235211914Y-114543800D02*
X235269057Y-114572371D01*
X235269057Y-114572371D02*
X235383343Y-114572371D01*
X235383343Y-114572371D02*
X235440486Y-114543800D01*
X235440486Y-114543800D02*
X235469057Y-114515228D01*
X235469057Y-114515228D02*
X235497628Y-114458085D01*
X235497628Y-114458085D02*
X235497628Y-114315228D01*
X235497628Y-114315228D02*
X235469057Y-114258085D01*
X235469057Y-114258085D02*
X235440486Y-114229514D01*
X235440486Y-114229514D02*
X235383343Y-114200942D01*
X235383343Y-114200942D02*
X235269057Y-114200942D01*
X235269057Y-114200942D02*
X235211914Y-114229514D01*
X235211914Y-114229514D02*
X235183343Y-114258085D01*
X235183343Y-114258085D02*
X235154771Y-114315228D01*
X216079400Y-128720171D02*
X215793686Y-128720171D01*
X215793686Y-128720171D02*
X215793686Y-128120171D01*
X216250828Y-128177314D02*
X216279400Y-128148742D01*
X216279400Y-128148742D02*
X216336543Y-128120171D01*
X216336543Y-128120171D02*
X216479400Y-128120171D01*
X216479400Y-128120171D02*
X216536543Y-128148742D01*
X216536543Y-128148742D02*
X216565114Y-128177314D01*
X216565114Y-128177314D02*
X216593685Y-128234457D01*
X216593685Y-128234457D02*
X216593685Y-128291600D01*
X216593685Y-128291600D02*
X216565114Y-128377314D01*
X216565114Y-128377314D02*
X216222257Y-128720171D01*
X216222257Y-128720171D02*
X216593685Y-128720171D01*
X256397007Y-111576664D02*
X256197007Y-111290950D01*
X256054150Y-111576664D02*
X256054150Y-110976664D01*
X256054150Y-110976664D02*
X256282721Y-110976664D01*
X256282721Y-110976664D02*
X256339864Y-111005235D01*
X256339864Y-111005235D02*
X256368435Y-111033807D01*
X256368435Y-111033807D02*
X256397007Y-111090950D01*
X256397007Y-111090950D02*
X256397007Y-111176664D01*
X256397007Y-111176664D02*
X256368435Y-111233807D01*
X256368435Y-111233807D02*
X256339864Y-111262378D01*
X256339864Y-111262378D02*
X256282721Y-111290950D01*
X256282721Y-111290950D02*
X256054150Y-111290950D01*
X256911293Y-111176664D02*
X256911293Y-111576664D01*
X256768435Y-110948093D02*
X256625578Y-111376664D01*
X256625578Y-111376664D02*
X256997007Y-111376664D01*
X253038828Y-115277857D02*
X252553114Y-115277857D01*
X252553114Y-115277857D02*
X252495971Y-115306428D01*
X252495971Y-115306428D02*
X252467400Y-115335000D01*
X252467400Y-115335000D02*
X252438828Y-115392142D01*
X252438828Y-115392142D02*
X252438828Y-115506428D01*
X252438828Y-115506428D02*
X252467400Y-115563571D01*
X252467400Y-115563571D02*
X252495971Y-115592142D01*
X252495971Y-115592142D02*
X252553114Y-115620714D01*
X252553114Y-115620714D02*
X253038828Y-115620714D01*
X252981685Y-115877856D02*
X253010257Y-115906428D01*
X253010257Y-115906428D02*
X253038828Y-115963571D01*
X253038828Y-115963571D02*
X253038828Y-116106428D01*
X253038828Y-116106428D02*
X253010257Y-116163571D01*
X253010257Y-116163571D02*
X252981685Y-116192142D01*
X252981685Y-116192142D02*
X252924542Y-116220713D01*
X252924542Y-116220713D02*
X252867400Y-116220713D01*
X252867400Y-116220713D02*
X252781685Y-116192142D01*
X252781685Y-116192142D02*
X252438828Y-115849285D01*
X252438828Y-115849285D02*
X252438828Y-116220713D01*
X244050228Y-126563485D02*
X244335942Y-126363485D01*
X244050228Y-126220628D02*
X244650228Y-126220628D01*
X244650228Y-126220628D02*
X244650228Y-126449199D01*
X244650228Y-126449199D02*
X244621657Y-126506342D01*
X244621657Y-126506342D02*
X244593085Y-126534913D01*
X244593085Y-126534913D02*
X244535942Y-126563485D01*
X244535942Y-126563485D02*
X244450228Y-126563485D01*
X244450228Y-126563485D02*
X244393085Y-126534913D01*
X244393085Y-126534913D02*
X244364514Y-126506342D01*
X244364514Y-126506342D02*
X244335942Y-126449199D01*
X244335942Y-126449199D02*
X244335942Y-126220628D01*
X244050228Y-127134913D02*
X244050228Y-126792056D01*
X244050228Y-126963485D02*
X244650228Y-126963485D01*
X244650228Y-126963485D02*
X244564514Y-126906342D01*
X244564514Y-126906342D02*
X244507371Y-126849199D01*
X244507371Y-126849199D02*
X244478800Y-126792056D01*
X244650228Y-127506342D02*
X244650228Y-127563485D01*
X244650228Y-127563485D02*
X244621657Y-127620628D01*
X244621657Y-127620628D02*
X244593085Y-127649200D01*
X244593085Y-127649200D02*
X244535942Y-127677771D01*
X244535942Y-127677771D02*
X244421657Y-127706342D01*
X244421657Y-127706342D02*
X244278800Y-127706342D01*
X244278800Y-127706342D02*
X244164514Y-127677771D01*
X244164514Y-127677771D02*
X244107371Y-127649200D01*
X244107371Y-127649200D02*
X244078800Y-127620628D01*
X244078800Y-127620628D02*
X244050228Y-127563485D01*
X244050228Y-127563485D02*
X244050228Y-127506342D01*
X244050228Y-127506342D02*
X244078800Y-127449200D01*
X244078800Y-127449200D02*
X244107371Y-127420628D01*
X244107371Y-127420628D02*
X244164514Y-127392057D01*
X244164514Y-127392057D02*
X244278800Y-127363485D01*
X244278800Y-127363485D02*
X244421657Y-127363485D01*
X244421657Y-127363485D02*
X244535942Y-127392057D01*
X244535942Y-127392057D02*
X244593085Y-127420628D01*
X244593085Y-127420628D02*
X244621657Y-127449200D01*
X244621657Y-127449200D02*
X244650228Y-127506342D01*
X243236714Y-141465942D02*
X243236714Y-141180228D01*
X243436714Y-141780228D02*
X243236714Y-141465942D01*
X243236714Y-141465942D02*
X243036714Y-141780228D01*
X242865285Y-141723085D02*
X242836713Y-141751657D01*
X242836713Y-141751657D02*
X242779571Y-141780228D01*
X242779571Y-141780228D02*
X242636713Y-141780228D01*
X242636713Y-141780228D02*
X242579571Y-141751657D01*
X242579571Y-141751657D02*
X242550999Y-141723085D01*
X242550999Y-141723085D02*
X242522428Y-141665942D01*
X242522428Y-141665942D02*
X242522428Y-141608800D01*
X242522428Y-141608800D02*
X242550999Y-141523085D01*
X242550999Y-141523085D02*
X242893856Y-141180228D01*
X242893856Y-141180228D02*
X242522428Y-141180228D01*
X232363914Y-113392628D02*
X232563914Y-113678342D01*
X232706771Y-113392628D02*
X232706771Y-113992628D01*
X232706771Y-113992628D02*
X232478200Y-113992628D01*
X232478200Y-113992628D02*
X232421057Y-113964057D01*
X232421057Y-113964057D02*
X232392486Y-113935485D01*
X232392486Y-113935485D02*
X232363914Y-113878342D01*
X232363914Y-113878342D02*
X232363914Y-113792628D01*
X232363914Y-113792628D02*
X232392486Y-113735485D01*
X232392486Y-113735485D02*
X232421057Y-113706914D01*
X232421057Y-113706914D02*
X232478200Y-113678342D01*
X232478200Y-113678342D02*
X232706771Y-113678342D01*
X231792486Y-113392628D02*
X232135343Y-113392628D01*
X231963914Y-113392628D02*
X231963914Y-113992628D01*
X231963914Y-113992628D02*
X232021057Y-113906914D01*
X232021057Y-113906914D02*
X232078200Y-113849771D01*
X232078200Y-113849771D02*
X232135343Y-113821200D01*
X231278200Y-113792628D02*
X231278200Y-113392628D01*
X231421057Y-114021200D02*
X231563914Y-113592628D01*
X231563914Y-113592628D02*
X231192485Y-113592628D01*
X216631885Y-142639371D02*
X216431885Y-142353657D01*
X216289028Y-142639371D02*
X216289028Y-142039371D01*
X216289028Y-142039371D02*
X216517599Y-142039371D01*
X216517599Y-142039371D02*
X216574742Y-142067942D01*
X216574742Y-142067942D02*
X216603313Y-142096514D01*
X216603313Y-142096514D02*
X216631885Y-142153657D01*
X216631885Y-142153657D02*
X216631885Y-142239371D01*
X216631885Y-142239371D02*
X216603313Y-142296514D01*
X216603313Y-142296514D02*
X216574742Y-142325085D01*
X216574742Y-142325085D02*
X216517599Y-142353657D01*
X216517599Y-142353657D02*
X216289028Y-142353657D01*
X216860456Y-142096514D02*
X216889028Y-142067942D01*
X216889028Y-142067942D02*
X216946171Y-142039371D01*
X216946171Y-142039371D02*
X217089028Y-142039371D01*
X217089028Y-142039371D02*
X217146171Y-142067942D01*
X217146171Y-142067942D02*
X217174742Y-142096514D01*
X217174742Y-142096514D02*
X217203313Y-142153657D01*
X217203313Y-142153657D02*
X217203313Y-142210800D01*
X217203313Y-142210800D02*
X217174742Y-142296514D01*
X217174742Y-142296514D02*
X216831885Y-142639371D01*
X216831885Y-142639371D02*
X217203313Y-142639371D01*
X217717600Y-142039371D02*
X217603314Y-142039371D01*
X217603314Y-142039371D02*
X217546171Y-142067942D01*
X217546171Y-142067942D02*
X217517600Y-142096514D01*
X217517600Y-142096514D02*
X217460457Y-142182228D01*
X217460457Y-142182228D02*
X217431885Y-142296514D01*
X217431885Y-142296514D02*
X217431885Y-142525085D01*
X217431885Y-142525085D02*
X217460457Y-142582228D01*
X217460457Y-142582228D02*
X217489028Y-142610800D01*
X217489028Y-142610800D02*
X217546171Y-142639371D01*
X217546171Y-142639371D02*
X217660457Y-142639371D01*
X217660457Y-142639371D02*
X217717600Y-142610800D01*
X217717600Y-142610800D02*
X217746171Y-142582228D01*
X217746171Y-142582228D02*
X217774742Y-142525085D01*
X217774742Y-142525085D02*
X217774742Y-142382228D01*
X217774742Y-142382228D02*
X217746171Y-142325085D01*
X217746171Y-142325085D02*
X217717600Y-142296514D01*
X217717600Y-142296514D02*
X217660457Y-142267942D01*
X217660457Y-142267942D02*
X217546171Y-142267942D01*
X217546171Y-142267942D02*
X217489028Y-142296514D01*
X217489028Y-142296514D02*
X217460457Y-142325085D01*
X217460457Y-142325085D02*
X217431885Y-142382228D01*
X263588599Y-116169400D02*
X263674314Y-116197971D01*
X263674314Y-116197971D02*
X263817171Y-116197971D01*
X263817171Y-116197971D02*
X263874314Y-116169400D01*
X263874314Y-116169400D02*
X263902885Y-116140828D01*
X263902885Y-116140828D02*
X263931456Y-116083685D01*
X263931456Y-116083685D02*
X263931456Y-116026542D01*
X263931456Y-116026542D02*
X263902885Y-115969400D01*
X263902885Y-115969400D02*
X263874314Y-115940828D01*
X263874314Y-115940828D02*
X263817171Y-115912257D01*
X263817171Y-115912257D02*
X263702885Y-115883685D01*
X263702885Y-115883685D02*
X263645742Y-115855114D01*
X263645742Y-115855114D02*
X263617171Y-115826542D01*
X263617171Y-115826542D02*
X263588599Y-115769400D01*
X263588599Y-115769400D02*
X263588599Y-115712257D01*
X263588599Y-115712257D02*
X263617171Y-115655114D01*
X263617171Y-115655114D02*
X263645742Y-115626542D01*
X263645742Y-115626542D02*
X263702885Y-115597971D01*
X263702885Y-115597971D02*
X263845742Y-115597971D01*
X263845742Y-115597971D02*
X263931456Y-115626542D01*
X264131457Y-115597971D02*
X264274314Y-116197971D01*
X264274314Y-116197971D02*
X264388600Y-115769400D01*
X264388600Y-115769400D02*
X264502885Y-116197971D01*
X264502885Y-116197971D02*
X264645743Y-115597971D01*
X265188599Y-116197971D02*
X264845742Y-116197971D01*
X265017171Y-116197971D02*
X265017171Y-115597971D01*
X265017171Y-115597971D02*
X264960028Y-115683685D01*
X264960028Y-115683685D02*
X264902885Y-115740828D01*
X264902885Y-115740828D02*
X264845742Y-115769400D01*
X253138000Y-119044828D02*
X253109428Y-119073400D01*
X253109428Y-119073400D02*
X253023714Y-119101971D01*
X253023714Y-119101971D02*
X252966571Y-119101971D01*
X252966571Y-119101971D02*
X252880857Y-119073400D01*
X252880857Y-119073400D02*
X252823714Y-119016257D01*
X252823714Y-119016257D02*
X252795143Y-118959114D01*
X252795143Y-118959114D02*
X252766571Y-118844828D01*
X252766571Y-118844828D02*
X252766571Y-118759114D01*
X252766571Y-118759114D02*
X252795143Y-118644828D01*
X252795143Y-118644828D02*
X252823714Y-118587685D01*
X252823714Y-118587685D02*
X252880857Y-118530542D01*
X252880857Y-118530542D02*
X252966571Y-118501971D01*
X252966571Y-118501971D02*
X253023714Y-118501971D01*
X253023714Y-118501971D02*
X253109428Y-118530542D01*
X253109428Y-118530542D02*
X253138000Y-118559114D01*
X253338000Y-118501971D02*
X253709428Y-118501971D01*
X253709428Y-118501971D02*
X253509428Y-118730542D01*
X253509428Y-118730542D02*
X253595143Y-118730542D01*
X253595143Y-118730542D02*
X253652286Y-118759114D01*
X253652286Y-118759114D02*
X253680857Y-118787685D01*
X253680857Y-118787685D02*
X253709428Y-118844828D01*
X253709428Y-118844828D02*
X253709428Y-118987685D01*
X253709428Y-118987685D02*
X253680857Y-119044828D01*
X253680857Y-119044828D02*
X253652286Y-119073400D01*
X253652286Y-119073400D02*
X253595143Y-119101971D01*
X253595143Y-119101971D02*
X253423714Y-119101971D01*
X253423714Y-119101971D02*
X253366571Y-119073400D01*
X253366571Y-119073400D02*
X253338000Y-119044828D01*
X236446695Y-153491373D02*
X236160981Y-153491373D01*
X236160981Y-153491373D02*
X236160981Y-152891373D01*
X236589552Y-152891373D02*
X236989552Y-152891373D01*
X236989552Y-152891373D02*
X236732409Y-153491373D01*
X232963314Y-114677628D02*
X233163314Y-114963342D01*
X233306171Y-114677628D02*
X233306171Y-115277628D01*
X233306171Y-115277628D02*
X233077600Y-115277628D01*
X233077600Y-115277628D02*
X233020457Y-115249057D01*
X233020457Y-115249057D02*
X232991886Y-115220485D01*
X232991886Y-115220485D02*
X232963314Y-115163342D01*
X232963314Y-115163342D02*
X232963314Y-115077628D01*
X232963314Y-115077628D02*
X232991886Y-115020485D01*
X232991886Y-115020485D02*
X233020457Y-114991914D01*
X233020457Y-114991914D02*
X233077600Y-114963342D01*
X233077600Y-114963342D02*
X233306171Y-114963342D01*
X232391886Y-114677628D02*
X232734743Y-114677628D01*
X232563314Y-114677628D02*
X232563314Y-115277628D01*
X232563314Y-115277628D02*
X232620457Y-115191914D01*
X232620457Y-115191914D02*
X232677600Y-115134771D01*
X232677600Y-115134771D02*
X232734743Y-115106200D01*
X232191885Y-115277628D02*
X231820457Y-115277628D01*
X231820457Y-115277628D02*
X232020457Y-115049057D01*
X232020457Y-115049057D02*
X231934742Y-115049057D01*
X231934742Y-115049057D02*
X231877600Y-115020485D01*
X231877600Y-115020485D02*
X231849028Y-114991914D01*
X231849028Y-114991914D02*
X231820457Y-114934771D01*
X231820457Y-114934771D02*
X231820457Y-114791914D01*
X231820457Y-114791914D02*
X231849028Y-114734771D01*
X231849028Y-114734771D02*
X231877600Y-114706200D01*
X231877600Y-114706200D02*
X231934742Y-114677628D01*
X231934742Y-114677628D02*
X232106171Y-114677628D01*
X232106171Y-114677628D02*
X232163314Y-114706200D01*
X232163314Y-114706200D02*
X232191885Y-114734771D01*
X219577097Y-130993305D02*
X219291383Y-130993305D01*
X219291383Y-130993305D02*
X219291383Y-130393305D01*
X219862811Y-130650448D02*
X219805668Y-130621876D01*
X219805668Y-130621876D02*
X219777097Y-130593305D01*
X219777097Y-130593305D02*
X219748525Y-130536162D01*
X219748525Y-130536162D02*
X219748525Y-130507591D01*
X219748525Y-130507591D02*
X219777097Y-130450448D01*
X219777097Y-130450448D02*
X219805668Y-130421876D01*
X219805668Y-130421876D02*
X219862811Y-130393305D01*
X219862811Y-130393305D02*
X219977097Y-130393305D01*
X219977097Y-130393305D02*
X220034240Y-130421876D01*
X220034240Y-130421876D02*
X220062811Y-130450448D01*
X220062811Y-130450448D02*
X220091382Y-130507591D01*
X220091382Y-130507591D02*
X220091382Y-130536162D01*
X220091382Y-130536162D02*
X220062811Y-130593305D01*
X220062811Y-130593305D02*
X220034240Y-130621876D01*
X220034240Y-130621876D02*
X219977097Y-130650448D01*
X219977097Y-130650448D02*
X219862811Y-130650448D01*
X219862811Y-130650448D02*
X219805668Y-130679019D01*
X219805668Y-130679019D02*
X219777097Y-130707591D01*
X219777097Y-130707591D02*
X219748525Y-130764734D01*
X219748525Y-130764734D02*
X219748525Y-130879019D01*
X219748525Y-130879019D02*
X219777097Y-130936162D01*
X219777097Y-130936162D02*
X219805668Y-130964734D01*
X219805668Y-130964734D02*
X219862811Y-130993305D01*
X219862811Y-130993305D02*
X219977097Y-130993305D01*
X219977097Y-130993305D02*
X220034240Y-130964734D01*
X220034240Y-130964734D02*
X220062811Y-130936162D01*
X220062811Y-130936162D02*
X220091382Y-130879019D01*
X220091382Y-130879019D02*
X220091382Y-130764734D01*
X220091382Y-130764734D02*
X220062811Y-130707591D01*
X220062811Y-130707591D02*
X220034240Y-130679019D01*
X220034240Y-130679019D02*
X219977097Y-130650448D01*
X255637499Y-134185231D02*
X255351785Y-134185231D01*
X255351785Y-134185231D02*
X255351785Y-133585231D01*
X255780356Y-133585231D02*
X256151784Y-133585231D01*
X256151784Y-133585231D02*
X255951784Y-133813802D01*
X255951784Y-133813802D02*
X256037499Y-133813802D01*
X256037499Y-133813802D02*
X256094642Y-133842374D01*
X256094642Y-133842374D02*
X256123213Y-133870945D01*
X256123213Y-133870945D02*
X256151784Y-133928088D01*
X256151784Y-133928088D02*
X256151784Y-134070945D01*
X256151784Y-134070945D02*
X256123213Y-134128088D01*
X256123213Y-134128088D02*
X256094642Y-134156660D01*
X256094642Y-134156660D02*
X256037499Y-134185231D01*
X256037499Y-134185231D02*
X255866070Y-134185231D01*
X255866070Y-134185231D02*
X255808927Y-134156660D01*
X255808927Y-134156660D02*
X255780356Y-134128088D01*
X239136285Y-143096571D02*
X238936285Y-142810857D01*
X238793428Y-143096571D02*
X238793428Y-142496571D01*
X238793428Y-142496571D02*
X239021999Y-142496571D01*
X239021999Y-142496571D02*
X239079142Y-142525142D01*
X239079142Y-142525142D02*
X239107713Y-142553714D01*
X239107713Y-142553714D02*
X239136285Y-142610857D01*
X239136285Y-142610857D02*
X239136285Y-142696571D01*
X239136285Y-142696571D02*
X239107713Y-142753714D01*
X239107713Y-142753714D02*
X239079142Y-142782285D01*
X239079142Y-142782285D02*
X239021999Y-142810857D01*
X239021999Y-142810857D02*
X238793428Y-142810857D01*
X239364856Y-142553714D02*
X239393428Y-142525142D01*
X239393428Y-142525142D02*
X239450571Y-142496571D01*
X239450571Y-142496571D02*
X239593428Y-142496571D01*
X239593428Y-142496571D02*
X239650571Y-142525142D01*
X239650571Y-142525142D02*
X239679142Y-142553714D01*
X239679142Y-142553714D02*
X239707713Y-142610857D01*
X239707713Y-142610857D02*
X239707713Y-142668000D01*
X239707713Y-142668000D02*
X239679142Y-142753714D01*
X239679142Y-142753714D02*
X239336285Y-143096571D01*
X239336285Y-143096571D02*
X239707713Y-143096571D01*
X240222000Y-142696571D02*
X240222000Y-143096571D01*
X240079142Y-142468000D02*
X239936285Y-142896571D01*
X239936285Y-142896571D02*
X240307714Y-142896571D01*
X237843028Y-116659500D02*
X238128742Y-116459500D01*
X237843028Y-116316643D02*
X238443028Y-116316643D01*
X238443028Y-116316643D02*
X238443028Y-116545214D01*
X238443028Y-116545214D02*
X238414457Y-116602357D01*
X238414457Y-116602357D02*
X238385885Y-116630928D01*
X238385885Y-116630928D02*
X238328742Y-116659500D01*
X238328742Y-116659500D02*
X238243028Y-116659500D01*
X238243028Y-116659500D02*
X238185885Y-116630928D01*
X238185885Y-116630928D02*
X238157314Y-116602357D01*
X238157314Y-116602357D02*
X238128742Y-116545214D01*
X238128742Y-116545214D02*
X238128742Y-116316643D01*
X238443028Y-117202357D02*
X238443028Y-116916643D01*
X238443028Y-116916643D02*
X238157314Y-116888071D01*
X238157314Y-116888071D02*
X238185885Y-116916643D01*
X238185885Y-116916643D02*
X238214457Y-116973786D01*
X238214457Y-116973786D02*
X238214457Y-117116643D01*
X238214457Y-117116643D02*
X238185885Y-117173786D01*
X238185885Y-117173786D02*
X238157314Y-117202357D01*
X238157314Y-117202357D02*
X238100171Y-117230928D01*
X238100171Y-117230928D02*
X237957314Y-117230928D01*
X237957314Y-117230928D02*
X237900171Y-117202357D01*
X237900171Y-117202357D02*
X237871600Y-117173786D01*
X237871600Y-117173786D02*
X237843028Y-117116643D01*
X237843028Y-117116643D02*
X237843028Y-116973786D01*
X237843028Y-116973786D02*
X237871600Y-116916643D01*
X237871600Y-116916643D02*
X237900171Y-116888071D01*
X247857685Y-128934257D02*
X247886257Y-128877114D01*
X247886257Y-128877114D02*
X247943400Y-128819971D01*
X247943400Y-128819971D02*
X248029114Y-128734257D01*
X248029114Y-128734257D02*
X248057685Y-128677114D01*
X248057685Y-128677114D02*
X248057685Y-128619971D01*
X247914828Y-128648542D02*
X247943400Y-128591400D01*
X247943400Y-128591400D02*
X248000542Y-128534257D01*
X248000542Y-128534257D02*
X248114828Y-128505685D01*
X248114828Y-128505685D02*
X248314828Y-128505685D01*
X248314828Y-128505685D02*
X248429114Y-128534257D01*
X248429114Y-128534257D02*
X248486257Y-128591400D01*
X248486257Y-128591400D02*
X248514828Y-128648542D01*
X248514828Y-128648542D02*
X248514828Y-128762828D01*
X248514828Y-128762828D02*
X248486257Y-128819971D01*
X248486257Y-128819971D02*
X248429114Y-128877114D01*
X248429114Y-128877114D02*
X248314828Y-128905685D01*
X248314828Y-128905685D02*
X248114828Y-128905685D01*
X248114828Y-128905685D02*
X248000542Y-128877114D01*
X248000542Y-128877114D02*
X247943400Y-128819971D01*
X247943400Y-128819971D02*
X247914828Y-128762828D01*
X247914828Y-128762828D02*
X247914828Y-128648542D01*
X247914828Y-129477113D02*
X247914828Y-129134256D01*
X247914828Y-129305685D02*
X248514828Y-129305685D01*
X248514828Y-129305685D02*
X248429114Y-129248542D01*
X248429114Y-129248542D02*
X248371971Y-129191399D01*
X248371971Y-129191399D02*
X248343400Y-129134256D01*
X219559200Y-125316571D02*
X219273486Y-125316571D01*
X219273486Y-125316571D02*
X219273486Y-124716571D01*
X220016343Y-124916571D02*
X220016343Y-125316571D01*
X219873485Y-124688000D02*
X219730628Y-125116571D01*
X219730628Y-125116571D02*
X220102057Y-125116571D01*
X254786399Y-117830728D02*
X254986399Y-118116442D01*
X255129256Y-117830728D02*
X255129256Y-118430728D01*
X255129256Y-118430728D02*
X254900685Y-118430728D01*
X254900685Y-118430728D02*
X254843542Y-118402157D01*
X254843542Y-118402157D02*
X254814971Y-118373585D01*
X254814971Y-118373585D02*
X254786399Y-118316442D01*
X254786399Y-118316442D02*
X254786399Y-118230728D01*
X254786399Y-118230728D02*
X254814971Y-118173585D01*
X254814971Y-118173585D02*
X254843542Y-118145014D01*
X254843542Y-118145014D02*
X254900685Y-118116442D01*
X254900685Y-118116442D02*
X255129256Y-118116442D01*
X254586399Y-118430728D02*
X254214971Y-118430728D01*
X254214971Y-118430728D02*
X254414971Y-118202157D01*
X254414971Y-118202157D02*
X254329256Y-118202157D01*
X254329256Y-118202157D02*
X254272114Y-118173585D01*
X254272114Y-118173585D02*
X254243542Y-118145014D01*
X254243542Y-118145014D02*
X254214971Y-118087871D01*
X254214971Y-118087871D02*
X254214971Y-117945014D01*
X254214971Y-117945014D02*
X254243542Y-117887871D01*
X254243542Y-117887871D02*
X254272114Y-117859300D01*
X254272114Y-117859300D02*
X254329256Y-117830728D01*
X254329256Y-117830728D02*
X254500685Y-117830728D01*
X254500685Y-117830728D02*
X254557828Y-117859300D01*
X254557828Y-117859300D02*
X254586399Y-117887871D01*
X247413428Y-126478400D02*
X247699142Y-126278400D01*
X247413428Y-126135543D02*
X248013428Y-126135543D01*
X248013428Y-126135543D02*
X248013428Y-126364114D01*
X248013428Y-126364114D02*
X247984857Y-126421257D01*
X247984857Y-126421257D02*
X247956285Y-126449828D01*
X247956285Y-126449828D02*
X247899142Y-126478400D01*
X247899142Y-126478400D02*
X247813428Y-126478400D01*
X247813428Y-126478400D02*
X247756285Y-126449828D01*
X247756285Y-126449828D02*
X247727714Y-126421257D01*
X247727714Y-126421257D02*
X247699142Y-126364114D01*
X247699142Y-126364114D02*
X247699142Y-126135543D01*
X247413428Y-126764114D02*
X247413428Y-126878400D01*
X247413428Y-126878400D02*
X247442000Y-126935543D01*
X247442000Y-126935543D02*
X247470571Y-126964114D01*
X247470571Y-126964114D02*
X247556285Y-127021257D01*
X247556285Y-127021257D02*
X247670571Y-127049828D01*
X247670571Y-127049828D02*
X247899142Y-127049828D01*
X247899142Y-127049828D02*
X247956285Y-127021257D01*
X247956285Y-127021257D02*
X247984857Y-126992686D01*
X247984857Y-126992686D02*
X248013428Y-126935543D01*
X248013428Y-126935543D02*
X248013428Y-126821257D01*
X248013428Y-126821257D02*
X247984857Y-126764114D01*
X247984857Y-126764114D02*
X247956285Y-126735543D01*
X247956285Y-126735543D02*
X247899142Y-126706971D01*
X247899142Y-126706971D02*
X247756285Y-126706971D01*
X247756285Y-126706971D02*
X247699142Y-126735543D01*
X247699142Y-126735543D02*
X247670571Y-126764114D01*
X247670571Y-126764114D02*
X247642000Y-126821257D01*
X247642000Y-126821257D02*
X247642000Y-126935543D01*
X247642000Y-126935543D02*
X247670571Y-126992686D01*
X247670571Y-126992686D02*
X247699142Y-127021257D01*
X247699142Y-127021257D02*
X247756285Y-127049828D01*
X232846514Y-123381171D02*
X232875086Y-123352600D01*
X232875086Y-123352600D02*
X232960800Y-123324028D01*
X232960800Y-123324028D02*
X233017943Y-123324028D01*
X233017943Y-123324028D02*
X233103657Y-123352600D01*
X233103657Y-123352600D02*
X233160800Y-123409742D01*
X233160800Y-123409742D02*
X233189371Y-123466885D01*
X233189371Y-123466885D02*
X233217943Y-123581171D01*
X233217943Y-123581171D02*
X233217943Y-123666885D01*
X233217943Y-123666885D02*
X233189371Y-123781171D01*
X233189371Y-123781171D02*
X233160800Y-123838314D01*
X233160800Y-123838314D02*
X233103657Y-123895457D01*
X233103657Y-123895457D02*
X233017943Y-123924028D01*
X233017943Y-123924028D02*
X232960800Y-123924028D01*
X232960800Y-123924028D02*
X232875086Y-123895457D01*
X232875086Y-123895457D02*
X232846514Y-123866885D01*
X232275086Y-123324028D02*
X232617943Y-123324028D01*
X232446514Y-123324028D02*
X232446514Y-123924028D01*
X232446514Y-123924028D02*
X232503657Y-123838314D01*
X232503657Y-123838314D02*
X232560800Y-123781171D01*
X232560800Y-123781171D02*
X232617943Y-123752600D01*
X231703657Y-123324028D02*
X232046514Y-123324028D01*
X231875085Y-123324028D02*
X231875085Y-123924028D01*
X231875085Y-123924028D02*
X231932228Y-123838314D01*
X231932228Y-123838314D02*
X231989371Y-123781171D01*
X231989371Y-123781171D02*
X232046514Y-123752600D01*
X238671771Y-139568285D02*
X238643200Y-139539713D01*
X238643200Y-139539713D02*
X238614628Y-139453999D01*
X238614628Y-139453999D02*
X238614628Y-139396856D01*
X238614628Y-139396856D02*
X238643200Y-139311142D01*
X238643200Y-139311142D02*
X238700342Y-139253999D01*
X238700342Y-139253999D02*
X238757485Y-139225428D01*
X238757485Y-139225428D02*
X238871771Y-139196856D01*
X238871771Y-139196856D02*
X238957485Y-139196856D01*
X238957485Y-139196856D02*
X239071771Y-139225428D01*
X239071771Y-139225428D02*
X239128914Y-139253999D01*
X239128914Y-139253999D02*
X239186057Y-139311142D01*
X239186057Y-139311142D02*
X239214628Y-139396856D01*
X239214628Y-139396856D02*
X239214628Y-139453999D01*
X239214628Y-139453999D02*
X239186057Y-139539713D01*
X239186057Y-139539713D02*
X239157485Y-139568285D01*
X238614628Y-140139713D02*
X238614628Y-139796856D01*
X238614628Y-139968285D02*
X239214628Y-139968285D01*
X239214628Y-139968285D02*
X239128914Y-139911142D01*
X239128914Y-139911142D02*
X239071771Y-139853999D01*
X239071771Y-139853999D02*
X239043200Y-139796856D01*
X239214628Y-140339714D02*
X239214628Y-140711142D01*
X239214628Y-140711142D02*
X238986057Y-140511142D01*
X238986057Y-140511142D02*
X238986057Y-140596857D01*
X238986057Y-140596857D02*
X238957485Y-140654000D01*
X238957485Y-140654000D02*
X238928914Y-140682571D01*
X238928914Y-140682571D02*
X238871771Y-140711142D01*
X238871771Y-140711142D02*
X238728914Y-140711142D01*
X238728914Y-140711142D02*
X238671771Y-140682571D01*
X238671771Y-140682571D02*
X238643200Y-140654000D01*
X238643200Y-140654000D02*
X238614628Y-140596857D01*
X238614628Y-140596857D02*
X238614628Y-140425428D01*
X238614628Y-140425428D02*
X238643200Y-140368285D01*
X238643200Y-140368285D02*
X238671771Y-140339714D01*
X236471428Y-118033857D02*
X235985714Y-118033857D01*
X235985714Y-118033857D02*
X235928571Y-118062428D01*
X235928571Y-118062428D02*
X235900000Y-118091000D01*
X235900000Y-118091000D02*
X235871428Y-118148142D01*
X235871428Y-118148142D02*
X235871428Y-118262428D01*
X235871428Y-118262428D02*
X235900000Y-118319571D01*
X235900000Y-118319571D02*
X235928571Y-118348142D01*
X235928571Y-118348142D02*
X235985714Y-118376714D01*
X235985714Y-118376714D02*
X236471428Y-118376714D01*
X236271428Y-118919571D02*
X235871428Y-118919571D01*
X236500000Y-118776713D02*
X236071428Y-118633856D01*
X236071428Y-118633856D02*
X236071428Y-119005285D01*
X224906514Y-109724628D02*
X225106514Y-110010342D01*
X225249371Y-109724628D02*
X225249371Y-110324628D01*
X225249371Y-110324628D02*
X225020800Y-110324628D01*
X225020800Y-110324628D02*
X224963657Y-110296057D01*
X224963657Y-110296057D02*
X224935086Y-110267485D01*
X224935086Y-110267485D02*
X224906514Y-110210342D01*
X224906514Y-110210342D02*
X224906514Y-110124628D01*
X224906514Y-110124628D02*
X224935086Y-110067485D01*
X224935086Y-110067485D02*
X224963657Y-110038914D01*
X224963657Y-110038914D02*
X225020800Y-110010342D01*
X225020800Y-110010342D02*
X225249371Y-110010342D01*
X224677943Y-110267485D02*
X224649371Y-110296057D01*
X224649371Y-110296057D02*
X224592229Y-110324628D01*
X224592229Y-110324628D02*
X224449371Y-110324628D01*
X224449371Y-110324628D02*
X224392229Y-110296057D01*
X224392229Y-110296057D02*
X224363657Y-110267485D01*
X224363657Y-110267485D02*
X224335086Y-110210342D01*
X224335086Y-110210342D02*
X224335086Y-110153200D01*
X224335086Y-110153200D02*
X224363657Y-110067485D01*
X224363657Y-110067485D02*
X224706514Y-109724628D01*
X224706514Y-109724628D02*
X224335086Y-109724628D01*
X223963657Y-110324628D02*
X223906514Y-110324628D01*
X223906514Y-110324628D02*
X223849371Y-110296057D01*
X223849371Y-110296057D02*
X223820800Y-110267485D01*
X223820800Y-110267485D02*
X223792228Y-110210342D01*
X223792228Y-110210342D02*
X223763657Y-110096057D01*
X223763657Y-110096057D02*
X223763657Y-109953200D01*
X223763657Y-109953200D02*
X223792228Y-109838914D01*
X223792228Y-109838914D02*
X223820800Y-109781771D01*
X223820800Y-109781771D02*
X223849371Y-109753200D01*
X223849371Y-109753200D02*
X223906514Y-109724628D01*
X223906514Y-109724628D02*
X223963657Y-109724628D01*
X223963657Y-109724628D02*
X224020800Y-109753200D01*
X224020800Y-109753200D02*
X224049371Y-109781771D01*
X224049371Y-109781771D02*
X224077942Y-109838914D01*
X224077942Y-109838914D02*
X224106514Y-109953200D01*
X224106514Y-109953200D02*
X224106514Y-110096057D01*
X224106514Y-110096057D02*
X224077942Y-110210342D01*
X224077942Y-110210342D02*
X224049371Y-110267485D01*
X224049371Y-110267485D02*
X224020800Y-110296057D01*
X224020800Y-110296057D02*
X223963657Y-110324628D01*
X246632399Y-125057571D02*
X246660971Y-125029000D01*
X246660971Y-125029000D02*
X246746685Y-125000428D01*
X246746685Y-125000428D02*
X246803828Y-125000428D01*
X246803828Y-125000428D02*
X246889542Y-125029000D01*
X246889542Y-125029000D02*
X246946685Y-125086142D01*
X246946685Y-125086142D02*
X246975256Y-125143285D01*
X246975256Y-125143285D02*
X247003828Y-125257571D01*
X247003828Y-125257571D02*
X247003828Y-125343285D01*
X247003828Y-125343285D02*
X246975256Y-125457571D01*
X246975256Y-125457571D02*
X246946685Y-125514714D01*
X246946685Y-125514714D02*
X246889542Y-125571857D01*
X246889542Y-125571857D02*
X246803828Y-125600428D01*
X246803828Y-125600428D02*
X246746685Y-125600428D01*
X246746685Y-125600428D02*
X246660971Y-125571857D01*
X246660971Y-125571857D02*
X246632399Y-125543285D01*
X246118114Y-125400428D02*
X246118114Y-125000428D01*
X246260971Y-125629000D02*
X246403828Y-125200428D01*
X246403828Y-125200428D02*
X246032399Y-125200428D01*
X235928571Y-123056203D02*
X235900000Y-123027631D01*
X235900000Y-123027631D02*
X235871428Y-122941917D01*
X235871428Y-122941917D02*
X235871428Y-122884774D01*
X235871428Y-122884774D02*
X235900000Y-122799060D01*
X235900000Y-122799060D02*
X235957142Y-122741917D01*
X235957142Y-122741917D02*
X236014285Y-122713346D01*
X236014285Y-122713346D02*
X236128571Y-122684774D01*
X236128571Y-122684774D02*
X236214285Y-122684774D01*
X236214285Y-122684774D02*
X236328571Y-122713346D01*
X236328571Y-122713346D02*
X236385714Y-122741917D01*
X236385714Y-122741917D02*
X236442857Y-122799060D01*
X236442857Y-122799060D02*
X236471428Y-122884774D01*
X236471428Y-122884774D02*
X236471428Y-122941917D01*
X236471428Y-122941917D02*
X236442857Y-123027631D01*
X236442857Y-123027631D02*
X236414285Y-123056203D01*
X235871428Y-123341917D02*
X235871428Y-123456203D01*
X235871428Y-123456203D02*
X235900000Y-123513346D01*
X235900000Y-123513346D02*
X235928571Y-123541917D01*
X235928571Y-123541917D02*
X236014285Y-123599060D01*
X236014285Y-123599060D02*
X236128571Y-123627631D01*
X236128571Y-123627631D02*
X236357142Y-123627631D01*
X236357142Y-123627631D02*
X236414285Y-123599060D01*
X236414285Y-123599060D02*
X236442857Y-123570489D01*
X236442857Y-123570489D02*
X236471428Y-123513346D01*
X236471428Y-123513346D02*
X236471428Y-123399060D01*
X236471428Y-123399060D02*
X236442857Y-123341917D01*
X236442857Y-123341917D02*
X236414285Y-123313346D01*
X236414285Y-123313346D02*
X236357142Y-123284774D01*
X236357142Y-123284774D02*
X236214285Y-123284774D01*
X236214285Y-123284774D02*
X236157142Y-123313346D01*
X236157142Y-123313346D02*
X236128571Y-123341917D01*
X236128571Y-123341917D02*
X236100000Y-123399060D01*
X236100000Y-123399060D02*
X236100000Y-123513346D01*
X236100000Y-123513346D02*
X236128571Y-123570489D01*
X236128571Y-123570489D02*
X236157142Y-123599060D01*
X236157142Y-123599060D02*
X236214285Y-123627631D01*
X222099200Y-129101171D02*
X221813486Y-129101171D01*
X221813486Y-129101171D02*
X221813486Y-128501171D01*
X222556343Y-128501171D02*
X222442057Y-128501171D01*
X222442057Y-128501171D02*
X222384914Y-128529742D01*
X222384914Y-128529742D02*
X222356343Y-128558314D01*
X222356343Y-128558314D02*
X222299200Y-128644028D01*
X222299200Y-128644028D02*
X222270628Y-128758314D01*
X222270628Y-128758314D02*
X222270628Y-128986885D01*
X222270628Y-128986885D02*
X222299200Y-129044028D01*
X222299200Y-129044028D02*
X222327771Y-129072600D01*
X222327771Y-129072600D02*
X222384914Y-129101171D01*
X222384914Y-129101171D02*
X222499200Y-129101171D01*
X222499200Y-129101171D02*
X222556343Y-129072600D01*
X222556343Y-129072600D02*
X222584914Y-129044028D01*
X222584914Y-129044028D02*
X222613485Y-128986885D01*
X222613485Y-128986885D02*
X222613485Y-128844028D01*
X222613485Y-128844028D02*
X222584914Y-128786885D01*
X222584914Y-128786885D02*
X222556343Y-128758314D01*
X222556343Y-128758314D02*
X222499200Y-128729742D01*
X222499200Y-128729742D02*
X222384914Y-128729742D01*
X222384914Y-128729742D02*
X222327771Y-128758314D01*
X222327771Y-128758314D02*
X222299200Y-128786885D01*
X222299200Y-128786885D02*
X222270628Y-128844028D01*
X236257885Y-134894028D02*
X236229313Y-134922600D01*
X236229313Y-134922600D02*
X236143599Y-134951171D01*
X236143599Y-134951171D02*
X236086456Y-134951171D01*
X236086456Y-134951171D02*
X236000742Y-134922600D01*
X236000742Y-134922600D02*
X235943599Y-134865457D01*
X235943599Y-134865457D02*
X235915028Y-134808314D01*
X235915028Y-134808314D02*
X235886456Y-134694028D01*
X235886456Y-134694028D02*
X235886456Y-134608314D01*
X235886456Y-134608314D02*
X235915028Y-134494028D01*
X235915028Y-134494028D02*
X235943599Y-134436885D01*
X235943599Y-134436885D02*
X236000742Y-134379742D01*
X236000742Y-134379742D02*
X236086456Y-134351171D01*
X236086456Y-134351171D02*
X236143599Y-134351171D01*
X236143599Y-134351171D02*
X236229313Y-134379742D01*
X236229313Y-134379742D02*
X236257885Y-134408314D01*
X236829313Y-134951171D02*
X236486456Y-134951171D01*
X236657885Y-134951171D02*
X236657885Y-134351171D01*
X236657885Y-134351171D02*
X236600742Y-134436885D01*
X236600742Y-134436885D02*
X236543599Y-134494028D01*
X236543599Y-134494028D02*
X236486456Y-134522600D01*
X237343600Y-134551171D02*
X237343600Y-134951171D01*
X237200742Y-134322600D02*
X237057885Y-134751171D01*
X237057885Y-134751171D02*
X237429314Y-134751171D01*
X269571800Y-129888571D02*
X269286086Y-129888571D01*
X269286086Y-129888571D02*
X269286086Y-129288571D01*
X270086085Y-129888571D02*
X269743228Y-129888571D01*
X269914657Y-129888571D02*
X269914657Y-129288571D01*
X269914657Y-129288571D02*
X269857514Y-129374285D01*
X269857514Y-129374285D02*
X269800371Y-129431428D01*
X269800371Y-129431428D02*
X269743228Y-129460000D01*
X236266085Y-110889371D02*
X236066085Y-110603657D01*
X235923228Y-110889371D02*
X235923228Y-110289371D01*
X235923228Y-110289371D02*
X236151799Y-110289371D01*
X236151799Y-110289371D02*
X236208942Y-110317942D01*
X236208942Y-110317942D02*
X236237513Y-110346514D01*
X236237513Y-110346514D02*
X236266085Y-110403657D01*
X236266085Y-110403657D02*
X236266085Y-110489371D01*
X236266085Y-110489371D02*
X236237513Y-110546514D01*
X236237513Y-110546514D02*
X236208942Y-110575085D01*
X236208942Y-110575085D02*
X236151799Y-110603657D01*
X236151799Y-110603657D02*
X235923228Y-110603657D01*
X236494656Y-110346514D02*
X236523228Y-110317942D01*
X236523228Y-110317942D02*
X236580371Y-110289371D01*
X236580371Y-110289371D02*
X236723228Y-110289371D01*
X236723228Y-110289371D02*
X236780371Y-110317942D01*
X236780371Y-110317942D02*
X236808942Y-110346514D01*
X236808942Y-110346514D02*
X236837513Y-110403657D01*
X236837513Y-110403657D02*
X236837513Y-110460800D01*
X236837513Y-110460800D02*
X236808942Y-110546514D01*
X236808942Y-110546514D02*
X236466085Y-110889371D01*
X236466085Y-110889371D02*
X236837513Y-110889371D01*
X237037514Y-110289371D02*
X237437514Y-110289371D01*
X237437514Y-110289371D02*
X237180371Y-110889371D01*
X211050200Y-64737571D02*
X210764486Y-64737571D01*
X210764486Y-64737571D02*
X210764486Y-64137571D01*
X211278771Y-64737571D02*
X211393057Y-64737571D01*
X211393057Y-64737571D02*
X211450200Y-64709000D01*
X211450200Y-64709000D02*
X211478771Y-64680428D01*
X211478771Y-64680428D02*
X211535914Y-64594714D01*
X211535914Y-64594714D02*
X211564485Y-64480428D01*
X211564485Y-64480428D02*
X211564485Y-64251857D01*
X211564485Y-64251857D02*
X211535914Y-64194714D01*
X211535914Y-64194714D02*
X211507343Y-64166142D01*
X211507343Y-64166142D02*
X211450200Y-64137571D01*
X211450200Y-64137571D02*
X211335914Y-64137571D01*
X211335914Y-64137571D02*
X211278771Y-64166142D01*
X211278771Y-64166142D02*
X211250200Y-64194714D01*
X211250200Y-64194714D02*
X211221628Y-64251857D01*
X211221628Y-64251857D02*
X211221628Y-64394714D01*
X211221628Y-64394714D02*
X211250200Y-64451857D01*
X211250200Y-64451857D02*
X211278771Y-64480428D01*
X211278771Y-64480428D02*
X211335914Y-64509000D01*
X211335914Y-64509000D02*
X211450200Y-64509000D01*
X211450200Y-64509000D02*
X211507343Y-64480428D01*
X211507343Y-64480428D02*
X211535914Y-64451857D01*
X211535914Y-64451857D02*
X211564485Y-64394714D01*
X231685885Y-144495228D02*
X231657313Y-144523800D01*
X231657313Y-144523800D02*
X231571599Y-144552371D01*
X231571599Y-144552371D02*
X231514456Y-144552371D01*
X231514456Y-144552371D02*
X231428742Y-144523800D01*
X231428742Y-144523800D02*
X231371599Y-144466657D01*
X231371599Y-144466657D02*
X231343028Y-144409514D01*
X231343028Y-144409514D02*
X231314456Y-144295228D01*
X231314456Y-144295228D02*
X231314456Y-144209514D01*
X231314456Y-144209514D02*
X231343028Y-144095228D01*
X231343028Y-144095228D02*
X231371599Y-144038085D01*
X231371599Y-144038085D02*
X231428742Y-143980942D01*
X231428742Y-143980942D02*
X231514456Y-143952371D01*
X231514456Y-143952371D02*
X231571599Y-143952371D01*
X231571599Y-143952371D02*
X231657313Y-143980942D01*
X231657313Y-143980942D02*
X231685885Y-144009514D01*
X232257313Y-144552371D02*
X231914456Y-144552371D01*
X232085885Y-144552371D02*
X232085885Y-143952371D01*
X232085885Y-143952371D02*
X232028742Y-144038085D01*
X232028742Y-144038085D02*
X231971599Y-144095228D01*
X231971599Y-144095228D02*
X231914456Y-144123800D01*
X232485885Y-144009514D02*
X232514457Y-143980942D01*
X232514457Y-143980942D02*
X232571600Y-143952371D01*
X232571600Y-143952371D02*
X232714457Y-143952371D01*
X232714457Y-143952371D02*
X232771600Y-143980942D01*
X232771600Y-143980942D02*
X232800171Y-144009514D01*
X232800171Y-144009514D02*
X232828742Y-144066657D01*
X232828742Y-144066657D02*
X232828742Y-144123800D01*
X232828742Y-144123800D02*
X232800171Y-144209514D01*
X232800171Y-144209514D02*
X232457314Y-144552371D01*
X232457314Y-144552371D02*
X232828742Y-144552371D01*
X255400771Y-119402700D02*
X255372200Y-119374128D01*
X255372200Y-119374128D02*
X255343628Y-119288414D01*
X255343628Y-119288414D02*
X255343628Y-119231271D01*
X255343628Y-119231271D02*
X255372200Y-119145557D01*
X255372200Y-119145557D02*
X255429342Y-119088414D01*
X255429342Y-119088414D02*
X255486485Y-119059843D01*
X255486485Y-119059843D02*
X255600771Y-119031271D01*
X255600771Y-119031271D02*
X255686485Y-119031271D01*
X255686485Y-119031271D02*
X255800771Y-119059843D01*
X255800771Y-119059843D02*
X255857914Y-119088414D01*
X255857914Y-119088414D02*
X255915057Y-119145557D01*
X255915057Y-119145557D02*
X255943628Y-119231271D01*
X255943628Y-119231271D02*
X255943628Y-119288414D01*
X255943628Y-119288414D02*
X255915057Y-119374128D01*
X255915057Y-119374128D02*
X255886485Y-119402700D01*
X255343628Y-119974128D02*
X255343628Y-119631271D01*
X255343628Y-119802700D02*
X255943628Y-119802700D01*
X255943628Y-119802700D02*
X255857914Y-119745557D01*
X255857914Y-119745557D02*
X255800771Y-119688414D01*
X255800771Y-119688414D02*
X255772200Y-119631271D01*
X228878714Y-111182142D02*
X228850142Y-111239285D01*
X228850142Y-111239285D02*
X228793000Y-111296428D01*
X228793000Y-111296428D02*
X228707285Y-111382142D01*
X228707285Y-111382142D02*
X228678714Y-111439285D01*
X228678714Y-111439285D02*
X228678714Y-111496428D01*
X228821571Y-111467857D02*
X228793000Y-111525000D01*
X228793000Y-111525000D02*
X228735857Y-111582142D01*
X228735857Y-111582142D02*
X228621571Y-111610714D01*
X228621571Y-111610714D02*
X228421571Y-111610714D01*
X228421571Y-111610714D02*
X228307285Y-111582142D01*
X228307285Y-111582142D02*
X228250142Y-111525000D01*
X228250142Y-111525000D02*
X228221571Y-111467857D01*
X228221571Y-111467857D02*
X228221571Y-111353571D01*
X228221571Y-111353571D02*
X228250142Y-111296428D01*
X228250142Y-111296428D02*
X228307285Y-111239285D01*
X228307285Y-111239285D02*
X228421571Y-111210714D01*
X228421571Y-111210714D02*
X228621571Y-111210714D01*
X228621571Y-111210714D02*
X228735857Y-111239285D01*
X228735857Y-111239285D02*
X228793000Y-111296428D01*
X228793000Y-111296428D02*
X228821571Y-111353571D01*
X228821571Y-111353571D02*
X228821571Y-111467857D01*
X228278714Y-110982143D02*
X228250142Y-110953571D01*
X228250142Y-110953571D02*
X228221571Y-110896429D01*
X228221571Y-110896429D02*
X228221571Y-110753571D01*
X228221571Y-110753571D02*
X228250142Y-110696429D01*
X228250142Y-110696429D02*
X228278714Y-110667857D01*
X228278714Y-110667857D02*
X228335857Y-110639286D01*
X228335857Y-110639286D02*
X228393000Y-110639286D01*
X228393000Y-110639286D02*
X228478714Y-110667857D01*
X228478714Y-110667857D02*
X228821571Y-111010714D01*
X228821571Y-111010714D02*
X228821571Y-110639286D01*
X244159957Y-145047700D02*
X244217100Y-145076272D01*
X244217100Y-145076272D02*
X244274243Y-145133415D01*
X244274243Y-145133415D02*
X244359957Y-145219129D01*
X244359957Y-145219129D02*
X244417100Y-145247700D01*
X244417100Y-145247700D02*
X244474243Y-145247700D01*
X244445672Y-145104843D02*
X244502815Y-145133415D01*
X244502815Y-145133415D02*
X244559957Y-145190557D01*
X244559957Y-145190557D02*
X244588529Y-145304843D01*
X244588529Y-145304843D02*
X244588529Y-145504843D01*
X244588529Y-145504843D02*
X244559957Y-145619129D01*
X244559957Y-145619129D02*
X244502815Y-145676272D01*
X244502815Y-145676272D02*
X244445672Y-145704843D01*
X244445672Y-145704843D02*
X244331386Y-145704843D01*
X244331386Y-145704843D02*
X244274243Y-145676272D01*
X244274243Y-145676272D02*
X244217100Y-145619129D01*
X244217100Y-145619129D02*
X244188529Y-145504843D01*
X244188529Y-145504843D02*
X244188529Y-145304843D01*
X244188529Y-145304843D02*
X244217100Y-145190557D01*
X244217100Y-145190557D02*
X244274243Y-145133415D01*
X244274243Y-145133415D02*
X244331386Y-145104843D01*
X244331386Y-145104843D02*
X244445672Y-145104843D01*
X243674244Y-145504843D02*
X243674244Y-145104843D01*
X243817101Y-145733415D02*
X243959958Y-145304843D01*
X243959958Y-145304843D02*
X243588529Y-145304843D01*
X241668942Y-112363285D02*
X241383228Y-112363285D01*
X241983228Y-112163285D02*
X241668942Y-112363285D01*
X241668942Y-112363285D02*
X241983228Y-112563285D01*
X241383228Y-113077571D02*
X241383228Y-112734714D01*
X241383228Y-112906143D02*
X241983228Y-112906143D01*
X241983228Y-112906143D02*
X241897514Y-112849000D01*
X241897514Y-112849000D02*
X241840371Y-112791857D01*
X241840371Y-112791857D02*
X241811800Y-112734714D01*
X247753200Y-154018571D02*
X247467486Y-154018571D01*
X247467486Y-154018571D02*
X247467486Y-153418571D01*
X248238914Y-153418571D02*
X247953200Y-153418571D01*
X247953200Y-153418571D02*
X247924628Y-153704285D01*
X247924628Y-153704285D02*
X247953200Y-153675714D01*
X247953200Y-153675714D02*
X248010343Y-153647142D01*
X248010343Y-153647142D02*
X248153200Y-153647142D01*
X248153200Y-153647142D02*
X248210343Y-153675714D01*
X248210343Y-153675714D02*
X248238914Y-153704285D01*
X248238914Y-153704285D02*
X248267485Y-153761428D01*
X248267485Y-153761428D02*
X248267485Y-153904285D01*
X248267485Y-153904285D02*
X248238914Y-153961428D01*
X248238914Y-153961428D02*
X248210343Y-153990000D01*
X248210343Y-153990000D02*
X248153200Y-154018571D01*
X248153200Y-154018571D02*
X248010343Y-154018571D01*
X248010343Y-154018571D02*
X247953200Y-153990000D01*
X247953200Y-153990000D02*
X247924628Y-153961428D01*
X234137257Y-136578371D02*
X234137257Y-137064085D01*
X234137257Y-137064085D02*
X234165828Y-137121228D01*
X234165828Y-137121228D02*
X234194400Y-137149800D01*
X234194400Y-137149800D02*
X234251542Y-137178371D01*
X234251542Y-137178371D02*
X234365828Y-137178371D01*
X234365828Y-137178371D02*
X234422971Y-137149800D01*
X234422971Y-137149800D02*
X234451542Y-137121228D01*
X234451542Y-137121228D02*
X234480114Y-137064085D01*
X234480114Y-137064085D02*
X234480114Y-136578371D01*
X235051542Y-136578371D02*
X234765828Y-136578371D01*
X234765828Y-136578371D02*
X234737256Y-136864085D01*
X234737256Y-136864085D02*
X234765828Y-136835514D01*
X234765828Y-136835514D02*
X234822971Y-136806942D01*
X234822971Y-136806942D02*
X234965828Y-136806942D01*
X234965828Y-136806942D02*
X235022971Y-136835514D01*
X235022971Y-136835514D02*
X235051542Y-136864085D01*
X235051542Y-136864085D02*
X235080113Y-136921228D01*
X235080113Y-136921228D02*
X235080113Y-137064085D01*
X235080113Y-137064085D02*
X235051542Y-137121228D01*
X235051542Y-137121228D02*
X235022971Y-137149800D01*
X235022971Y-137149800D02*
X234965828Y-137178371D01*
X234965828Y-137178371D02*
X234822971Y-137178371D01*
X234822971Y-137178371D02*
X234765828Y-137149800D01*
X234765828Y-137149800D02*
X234737256Y-137121228D01*
X253751235Y-110466150D02*
X253265521Y-110466150D01*
X253265521Y-110466150D02*
X253208378Y-110494721D01*
X253208378Y-110494721D02*
X253179807Y-110523293D01*
X253179807Y-110523293D02*
X253151235Y-110580435D01*
X253151235Y-110580435D02*
X253151235Y-110694721D01*
X253151235Y-110694721D02*
X253179807Y-110751864D01*
X253179807Y-110751864D02*
X253208378Y-110780435D01*
X253208378Y-110780435D02*
X253265521Y-110809007D01*
X253265521Y-110809007D02*
X253751235Y-110809007D01*
X253151235Y-111409006D02*
X253151235Y-111066149D01*
X253151235Y-111237578D02*
X253751235Y-111237578D01*
X253751235Y-111237578D02*
X253665521Y-111180435D01*
X253665521Y-111180435D02*
X253608378Y-111123292D01*
X253608378Y-111123292D02*
X253579807Y-111066149D01*
X258853000Y-120414371D02*
X258653000Y-120128657D01*
X258510143Y-120414371D02*
X258510143Y-119814371D01*
X258510143Y-119814371D02*
X258738714Y-119814371D01*
X258738714Y-119814371D02*
X258795857Y-119842942D01*
X258795857Y-119842942D02*
X258824428Y-119871514D01*
X258824428Y-119871514D02*
X258853000Y-119928657D01*
X258853000Y-119928657D02*
X258853000Y-120014371D01*
X258853000Y-120014371D02*
X258824428Y-120071514D01*
X258824428Y-120071514D02*
X258795857Y-120100085D01*
X258795857Y-120100085D02*
X258738714Y-120128657D01*
X258738714Y-120128657D02*
X258510143Y-120128657D01*
X259053000Y-119814371D02*
X259453000Y-119814371D01*
X259453000Y-119814371D02*
X259195857Y-120414371D01*
X241942028Y-117984600D02*
X242227742Y-117784600D01*
X241942028Y-117641743D02*
X242542028Y-117641743D01*
X242542028Y-117641743D02*
X242542028Y-117870314D01*
X242542028Y-117870314D02*
X242513457Y-117927457D01*
X242513457Y-117927457D02*
X242484885Y-117956028D01*
X242484885Y-117956028D02*
X242427742Y-117984600D01*
X242427742Y-117984600D02*
X242342028Y-117984600D01*
X242342028Y-117984600D02*
X242284885Y-117956028D01*
X242284885Y-117956028D02*
X242256314Y-117927457D01*
X242256314Y-117927457D02*
X242227742Y-117870314D01*
X242227742Y-117870314D02*
X242227742Y-117641743D01*
X241942028Y-118556028D02*
X241942028Y-118213171D01*
X241942028Y-118384600D02*
X242542028Y-118384600D01*
X242542028Y-118384600D02*
X242456314Y-118327457D01*
X242456314Y-118327457D02*
X242399171Y-118270314D01*
X242399171Y-118270314D02*
X242370600Y-118213171D01*
X254776199Y-115318728D02*
X254976199Y-115604442D01*
X255119056Y-115318728D02*
X255119056Y-115918728D01*
X255119056Y-115918728D02*
X254890485Y-115918728D01*
X254890485Y-115918728D02*
X254833342Y-115890157D01*
X254833342Y-115890157D02*
X254804771Y-115861585D01*
X254804771Y-115861585D02*
X254776199Y-115804442D01*
X254776199Y-115804442D02*
X254776199Y-115718728D01*
X254776199Y-115718728D02*
X254804771Y-115661585D01*
X254804771Y-115661585D02*
X254833342Y-115633014D01*
X254833342Y-115633014D02*
X254890485Y-115604442D01*
X254890485Y-115604442D02*
X255119056Y-115604442D01*
X254547628Y-115861585D02*
X254519056Y-115890157D01*
X254519056Y-115890157D02*
X254461914Y-115918728D01*
X254461914Y-115918728D02*
X254319056Y-115918728D01*
X254319056Y-115918728D02*
X254261914Y-115890157D01*
X254261914Y-115890157D02*
X254233342Y-115861585D01*
X254233342Y-115861585D02*
X254204771Y-115804442D01*
X254204771Y-115804442D02*
X254204771Y-115747300D01*
X254204771Y-115747300D02*
X254233342Y-115661585D01*
X254233342Y-115661585D02*
X254576199Y-115318728D01*
X254576199Y-115318728D02*
X254204771Y-115318728D01*
X253198399Y-141401142D02*
X253484114Y-141401142D01*
X253141256Y-141572571D02*
X253341256Y-140972571D01*
X253341256Y-140972571D02*
X253541256Y-141572571D01*
X253741257Y-141258285D02*
X253941257Y-141258285D01*
X254026971Y-141572571D02*
X253741257Y-141572571D01*
X253741257Y-141572571D02*
X253741257Y-140972571D01*
X253741257Y-140972571D02*
X254026971Y-140972571D01*
X254598399Y-141572571D02*
X254255542Y-141572571D01*
X254426971Y-141572571D02*
X254426971Y-140972571D01*
X254426971Y-140972571D02*
X254369828Y-141058285D01*
X254369828Y-141058285D02*
X254312685Y-141115428D01*
X254312685Y-141115428D02*
X254255542Y-141144000D01*
X240890428Y-137202599D02*
X240919000Y-137231171D01*
X240919000Y-137231171D02*
X240947571Y-137316885D01*
X240947571Y-137316885D02*
X240947571Y-137374028D01*
X240947571Y-137374028D02*
X240919000Y-137459742D01*
X240919000Y-137459742D02*
X240861857Y-137516885D01*
X240861857Y-137516885D02*
X240804714Y-137545456D01*
X240804714Y-137545456D02*
X240690428Y-137574028D01*
X240690428Y-137574028D02*
X240604714Y-137574028D01*
X240604714Y-137574028D02*
X240490428Y-137545456D01*
X240490428Y-137545456D02*
X240433285Y-137516885D01*
X240433285Y-137516885D02*
X240376142Y-137459742D01*
X240376142Y-137459742D02*
X240347571Y-137374028D01*
X240347571Y-137374028D02*
X240347571Y-137316885D01*
X240347571Y-137316885D02*
X240376142Y-137231171D01*
X240376142Y-137231171D02*
X240404714Y-137202599D01*
X240604714Y-136859742D02*
X240576142Y-136916885D01*
X240576142Y-136916885D02*
X240547571Y-136945456D01*
X240547571Y-136945456D02*
X240490428Y-136974028D01*
X240490428Y-136974028D02*
X240461857Y-136974028D01*
X240461857Y-136974028D02*
X240404714Y-136945456D01*
X240404714Y-136945456D02*
X240376142Y-136916885D01*
X240376142Y-136916885D02*
X240347571Y-136859742D01*
X240347571Y-136859742D02*
X240347571Y-136745456D01*
X240347571Y-136745456D02*
X240376142Y-136688314D01*
X240376142Y-136688314D02*
X240404714Y-136659742D01*
X240404714Y-136659742D02*
X240461857Y-136631171D01*
X240461857Y-136631171D02*
X240490428Y-136631171D01*
X240490428Y-136631171D02*
X240547571Y-136659742D01*
X240547571Y-136659742D02*
X240576142Y-136688314D01*
X240576142Y-136688314D02*
X240604714Y-136745456D01*
X240604714Y-136745456D02*
X240604714Y-136859742D01*
X240604714Y-136859742D02*
X240633285Y-136916885D01*
X240633285Y-136916885D02*
X240661857Y-136945456D01*
X240661857Y-136945456D02*
X240719000Y-136974028D01*
X240719000Y-136974028D02*
X240833285Y-136974028D01*
X240833285Y-136974028D02*
X240890428Y-136945456D01*
X240890428Y-136945456D02*
X240919000Y-136916885D01*
X240919000Y-136916885D02*
X240947571Y-136859742D01*
X240947571Y-136859742D02*
X240947571Y-136745456D01*
X240947571Y-136745456D02*
X240919000Y-136688314D01*
X240919000Y-136688314D02*
X240890428Y-136659742D01*
X240890428Y-136659742D02*
X240833285Y-136631171D01*
X240833285Y-136631171D02*
X240719000Y-136631171D01*
X240719000Y-136631171D02*
X240661857Y-136659742D01*
X240661857Y-136659742D02*
X240633285Y-136688314D01*
X240633285Y-136688314D02*
X240604714Y-136745456D01*
X244390828Y-131094885D02*
X244676542Y-130894885D01*
X244390828Y-130752028D02*
X244990828Y-130752028D01*
X244990828Y-130752028D02*
X244990828Y-130980599D01*
X244990828Y-130980599D02*
X244962257Y-131037742D01*
X244962257Y-131037742D02*
X244933685Y-131066313D01*
X244933685Y-131066313D02*
X244876542Y-131094885D01*
X244876542Y-131094885D02*
X244790828Y-131094885D01*
X244790828Y-131094885D02*
X244733685Y-131066313D01*
X244733685Y-131066313D02*
X244705114Y-131037742D01*
X244705114Y-131037742D02*
X244676542Y-130980599D01*
X244676542Y-130980599D02*
X244676542Y-130752028D01*
X244390828Y-131666313D02*
X244390828Y-131323456D01*
X244390828Y-131494885D02*
X244990828Y-131494885D01*
X244990828Y-131494885D02*
X244905114Y-131437742D01*
X244905114Y-131437742D02*
X244847971Y-131380599D01*
X244847971Y-131380599D02*
X244819400Y-131323456D01*
X244733685Y-132009171D02*
X244762257Y-131952028D01*
X244762257Y-131952028D02*
X244790828Y-131923457D01*
X244790828Y-131923457D02*
X244847971Y-131894885D01*
X244847971Y-131894885D02*
X244876542Y-131894885D01*
X244876542Y-131894885D02*
X244933685Y-131923457D01*
X244933685Y-131923457D02*
X244962257Y-131952028D01*
X244962257Y-131952028D02*
X244990828Y-132009171D01*
X244990828Y-132009171D02*
X244990828Y-132123457D01*
X244990828Y-132123457D02*
X244962257Y-132180600D01*
X244962257Y-132180600D02*
X244933685Y-132209171D01*
X244933685Y-132209171D02*
X244876542Y-132237742D01*
X244876542Y-132237742D02*
X244847971Y-132237742D01*
X244847971Y-132237742D02*
X244790828Y-132209171D01*
X244790828Y-132209171D02*
X244762257Y-132180600D01*
X244762257Y-132180600D02*
X244733685Y-132123457D01*
X244733685Y-132123457D02*
X244733685Y-132009171D01*
X244733685Y-132009171D02*
X244705114Y-131952028D01*
X244705114Y-131952028D02*
X244676542Y-131923457D01*
X244676542Y-131923457D02*
X244619400Y-131894885D01*
X244619400Y-131894885D02*
X244505114Y-131894885D01*
X244505114Y-131894885D02*
X244447971Y-131923457D01*
X244447971Y-131923457D02*
X244419400Y-131952028D01*
X244419400Y-131952028D02*
X244390828Y-132009171D01*
X244390828Y-132009171D02*
X244390828Y-132123457D01*
X244390828Y-132123457D02*
X244419400Y-132180600D01*
X244419400Y-132180600D02*
X244447971Y-132209171D01*
X244447971Y-132209171D02*
X244505114Y-132237742D01*
X244505114Y-132237742D02*
X244619400Y-132237742D01*
X244619400Y-132237742D02*
X244676542Y-132209171D01*
X244676542Y-132209171D02*
X244705114Y-132180600D01*
X244705114Y-132180600D02*
X244733685Y-132123457D01*
X226471114Y-111005028D02*
X226671114Y-111290742D01*
X226813971Y-111005028D02*
X226813971Y-111605028D01*
X226813971Y-111605028D02*
X226585400Y-111605028D01*
X226585400Y-111605028D02*
X226528257Y-111576457D01*
X226528257Y-111576457D02*
X226499686Y-111547885D01*
X226499686Y-111547885D02*
X226471114Y-111490742D01*
X226471114Y-111490742D02*
X226471114Y-111405028D01*
X226471114Y-111405028D02*
X226499686Y-111347885D01*
X226499686Y-111347885D02*
X226528257Y-111319314D01*
X226528257Y-111319314D02*
X226585400Y-111290742D01*
X226585400Y-111290742D02*
X226813971Y-111290742D01*
X225899686Y-111005028D02*
X226242543Y-111005028D01*
X226071114Y-111005028D02*
X226071114Y-111605028D01*
X226071114Y-111605028D02*
X226128257Y-111519314D01*
X226128257Y-111519314D02*
X226185400Y-111462171D01*
X226185400Y-111462171D02*
X226242543Y-111433600D01*
X225613971Y-111005028D02*
X225499685Y-111005028D01*
X225499685Y-111005028D02*
X225442542Y-111033600D01*
X225442542Y-111033600D02*
X225413971Y-111062171D01*
X225413971Y-111062171D02*
X225356828Y-111147885D01*
X225356828Y-111147885D02*
X225328257Y-111262171D01*
X225328257Y-111262171D02*
X225328257Y-111490742D01*
X225328257Y-111490742D02*
X225356828Y-111547885D01*
X225356828Y-111547885D02*
X225385400Y-111576457D01*
X225385400Y-111576457D02*
X225442542Y-111605028D01*
X225442542Y-111605028D02*
X225556828Y-111605028D01*
X225556828Y-111605028D02*
X225613971Y-111576457D01*
X225613971Y-111576457D02*
X225642542Y-111547885D01*
X225642542Y-111547885D02*
X225671114Y-111490742D01*
X225671114Y-111490742D02*
X225671114Y-111347885D01*
X225671114Y-111347885D02*
X225642542Y-111290742D01*
X225642542Y-111290742D02*
X225613971Y-111262171D01*
X225613971Y-111262171D02*
X225556828Y-111233600D01*
X225556828Y-111233600D02*
X225442542Y-111233600D01*
X225442542Y-111233600D02*
X225385400Y-111262171D01*
X225385400Y-111262171D02*
X225356828Y-111290742D01*
X225356828Y-111290742D02*
X225328257Y-111347885D01*
X236145400Y-142156771D02*
X235945400Y-141871057D01*
X235802543Y-142156771D02*
X235802543Y-141556771D01*
X235802543Y-141556771D02*
X236031114Y-141556771D01*
X236031114Y-141556771D02*
X236088257Y-141585342D01*
X236088257Y-141585342D02*
X236116828Y-141613914D01*
X236116828Y-141613914D02*
X236145400Y-141671057D01*
X236145400Y-141671057D02*
X236145400Y-141756771D01*
X236145400Y-141756771D02*
X236116828Y-141813914D01*
X236116828Y-141813914D02*
X236088257Y-141842485D01*
X236088257Y-141842485D02*
X236031114Y-141871057D01*
X236031114Y-141871057D02*
X235802543Y-141871057D01*
X236488257Y-141813914D02*
X236431114Y-141785342D01*
X236431114Y-141785342D02*
X236402543Y-141756771D01*
X236402543Y-141756771D02*
X236373971Y-141699628D01*
X236373971Y-141699628D02*
X236373971Y-141671057D01*
X236373971Y-141671057D02*
X236402543Y-141613914D01*
X236402543Y-141613914D02*
X236431114Y-141585342D01*
X236431114Y-141585342D02*
X236488257Y-141556771D01*
X236488257Y-141556771D02*
X236602543Y-141556771D01*
X236602543Y-141556771D02*
X236659686Y-141585342D01*
X236659686Y-141585342D02*
X236688257Y-141613914D01*
X236688257Y-141613914D02*
X236716828Y-141671057D01*
X236716828Y-141671057D02*
X236716828Y-141699628D01*
X236716828Y-141699628D02*
X236688257Y-141756771D01*
X236688257Y-141756771D02*
X236659686Y-141785342D01*
X236659686Y-141785342D02*
X236602543Y-141813914D01*
X236602543Y-141813914D02*
X236488257Y-141813914D01*
X236488257Y-141813914D02*
X236431114Y-141842485D01*
X236431114Y-141842485D02*
X236402543Y-141871057D01*
X236402543Y-141871057D02*
X236373971Y-141928200D01*
X236373971Y-141928200D02*
X236373971Y-142042485D01*
X236373971Y-142042485D02*
X236402543Y-142099628D01*
X236402543Y-142099628D02*
X236431114Y-142128200D01*
X236431114Y-142128200D02*
X236488257Y-142156771D01*
X236488257Y-142156771D02*
X236602543Y-142156771D01*
X236602543Y-142156771D02*
X236659686Y-142128200D01*
X236659686Y-142128200D02*
X236688257Y-142099628D01*
X236688257Y-142099628D02*
X236716828Y-142042485D01*
X236716828Y-142042485D02*
X236716828Y-141928200D01*
X236716828Y-141928200D02*
X236688257Y-141871057D01*
X236688257Y-141871057D02*
X236659686Y-141842485D01*
X236659686Y-141842485D02*
X236602543Y-141813914D01*
X224891314Y-114698428D02*
X225091314Y-114984142D01*
X225234171Y-114698428D02*
X225234171Y-115298428D01*
X225234171Y-115298428D02*
X225005600Y-115298428D01*
X225005600Y-115298428D02*
X224948457Y-115269857D01*
X224948457Y-115269857D02*
X224919886Y-115241285D01*
X224919886Y-115241285D02*
X224891314Y-115184142D01*
X224891314Y-115184142D02*
X224891314Y-115098428D01*
X224891314Y-115098428D02*
X224919886Y-115041285D01*
X224919886Y-115041285D02*
X224948457Y-115012714D01*
X224948457Y-115012714D02*
X225005600Y-114984142D01*
X225005600Y-114984142D02*
X225234171Y-114984142D01*
X224662743Y-115241285D02*
X224634171Y-115269857D01*
X224634171Y-115269857D02*
X224577029Y-115298428D01*
X224577029Y-115298428D02*
X224434171Y-115298428D01*
X224434171Y-115298428D02*
X224377029Y-115269857D01*
X224377029Y-115269857D02*
X224348457Y-115241285D01*
X224348457Y-115241285D02*
X224319886Y-115184142D01*
X224319886Y-115184142D02*
X224319886Y-115127000D01*
X224319886Y-115127000D02*
X224348457Y-115041285D01*
X224348457Y-115041285D02*
X224691314Y-114698428D01*
X224691314Y-114698428D02*
X224319886Y-114698428D01*
X223748457Y-114698428D02*
X224091314Y-114698428D01*
X223919885Y-114698428D02*
X223919885Y-115298428D01*
X223919885Y-115298428D02*
X223977028Y-115212714D01*
X223977028Y-115212714D02*
X224034171Y-115155571D01*
X224034171Y-115155571D02*
X224091314Y-115127000D01*
X246026000Y-111264028D02*
X245997428Y-111292600D01*
X245997428Y-111292600D02*
X245911714Y-111321171D01*
X245911714Y-111321171D02*
X245854571Y-111321171D01*
X245854571Y-111321171D02*
X245768857Y-111292600D01*
X245768857Y-111292600D02*
X245711714Y-111235457D01*
X245711714Y-111235457D02*
X245683143Y-111178314D01*
X245683143Y-111178314D02*
X245654571Y-111064028D01*
X245654571Y-111064028D02*
X245654571Y-110978314D01*
X245654571Y-110978314D02*
X245683143Y-110864028D01*
X245683143Y-110864028D02*
X245711714Y-110806885D01*
X245711714Y-110806885D02*
X245768857Y-110749742D01*
X245768857Y-110749742D02*
X245854571Y-110721171D01*
X245854571Y-110721171D02*
X245911714Y-110721171D01*
X245911714Y-110721171D02*
X245997428Y-110749742D01*
X245997428Y-110749742D02*
X246026000Y-110778314D01*
X246226000Y-110721171D02*
X246626000Y-110721171D01*
X246626000Y-110721171D02*
X246368857Y-111321171D01*
X247362628Y-131094885D02*
X247648342Y-130894885D01*
X247362628Y-130752028D02*
X247962628Y-130752028D01*
X247962628Y-130752028D02*
X247962628Y-130980599D01*
X247962628Y-130980599D02*
X247934057Y-131037742D01*
X247934057Y-131037742D02*
X247905485Y-131066313D01*
X247905485Y-131066313D02*
X247848342Y-131094885D01*
X247848342Y-131094885D02*
X247762628Y-131094885D01*
X247762628Y-131094885D02*
X247705485Y-131066313D01*
X247705485Y-131066313D02*
X247676914Y-131037742D01*
X247676914Y-131037742D02*
X247648342Y-130980599D01*
X247648342Y-130980599D02*
X247648342Y-130752028D01*
X247362628Y-131666313D02*
X247362628Y-131323456D01*
X247362628Y-131494885D02*
X247962628Y-131494885D01*
X247962628Y-131494885D02*
X247876914Y-131437742D01*
X247876914Y-131437742D02*
X247819771Y-131380599D01*
X247819771Y-131380599D02*
X247791200Y-131323456D01*
X247962628Y-131866314D02*
X247962628Y-132266314D01*
X247962628Y-132266314D02*
X247362628Y-132009171D01*
X256121571Y-114479400D02*
X256093000Y-114450828D01*
X256093000Y-114450828D02*
X256064428Y-114365114D01*
X256064428Y-114365114D02*
X256064428Y-114307971D01*
X256064428Y-114307971D02*
X256093000Y-114222257D01*
X256093000Y-114222257D02*
X256150142Y-114165114D01*
X256150142Y-114165114D02*
X256207285Y-114136543D01*
X256207285Y-114136543D02*
X256321571Y-114107971D01*
X256321571Y-114107971D02*
X256407285Y-114107971D01*
X256407285Y-114107971D02*
X256521571Y-114136543D01*
X256521571Y-114136543D02*
X256578714Y-114165114D01*
X256578714Y-114165114D02*
X256635857Y-114222257D01*
X256635857Y-114222257D02*
X256664428Y-114307971D01*
X256664428Y-114307971D02*
X256664428Y-114365114D01*
X256664428Y-114365114D02*
X256635857Y-114450828D01*
X256635857Y-114450828D02*
X256607285Y-114479400D01*
X256607285Y-114707971D02*
X256635857Y-114736543D01*
X256635857Y-114736543D02*
X256664428Y-114793686D01*
X256664428Y-114793686D02*
X256664428Y-114936543D01*
X256664428Y-114936543D02*
X256635857Y-114993686D01*
X256635857Y-114993686D02*
X256607285Y-115022257D01*
X256607285Y-115022257D02*
X256550142Y-115050828D01*
X256550142Y-115050828D02*
X256493000Y-115050828D01*
X256493000Y-115050828D02*
X256407285Y-115022257D01*
X256407285Y-115022257D02*
X256064428Y-114679400D01*
X256064428Y-114679400D02*
X256064428Y-115050828D01*
X274627999Y-117096571D02*
X274627999Y-117525142D01*
X274627999Y-117525142D02*
X274599428Y-117610857D01*
X274599428Y-117610857D02*
X274542285Y-117668000D01*
X274542285Y-117668000D02*
X274456571Y-117696571D01*
X274456571Y-117696571D02*
X274399428Y-117696571D01*
X275227999Y-117696571D02*
X274885142Y-117696571D01*
X275056571Y-117696571D02*
X275056571Y-117096571D01*
X275056571Y-117096571D02*
X274999428Y-117182285D01*
X274999428Y-117182285D02*
X274942285Y-117239428D01*
X274942285Y-117239428D02*
X274885142Y-117268000D01*
X242041314Y-144685428D02*
X242241314Y-144971142D01*
X242384171Y-144685428D02*
X242384171Y-145285428D01*
X242384171Y-145285428D02*
X242155600Y-145285428D01*
X242155600Y-145285428D02*
X242098457Y-145256857D01*
X242098457Y-145256857D02*
X242069886Y-145228285D01*
X242069886Y-145228285D02*
X242041314Y-145171142D01*
X242041314Y-145171142D02*
X242041314Y-145085428D01*
X242041314Y-145085428D02*
X242069886Y-145028285D01*
X242069886Y-145028285D02*
X242098457Y-144999714D01*
X242098457Y-144999714D02*
X242155600Y-144971142D01*
X242155600Y-144971142D02*
X242384171Y-144971142D01*
X241812743Y-145228285D02*
X241784171Y-145256857D01*
X241784171Y-145256857D02*
X241727029Y-145285428D01*
X241727029Y-145285428D02*
X241584171Y-145285428D01*
X241584171Y-145285428D02*
X241527029Y-145256857D01*
X241527029Y-145256857D02*
X241498457Y-145228285D01*
X241498457Y-145228285D02*
X241469886Y-145171142D01*
X241469886Y-145171142D02*
X241469886Y-145114000D01*
X241469886Y-145114000D02*
X241498457Y-145028285D01*
X241498457Y-145028285D02*
X241841314Y-144685428D01*
X241841314Y-144685428D02*
X241469886Y-144685428D01*
X241269885Y-145285428D02*
X240898457Y-145285428D01*
X240898457Y-145285428D02*
X241098457Y-145056857D01*
X241098457Y-145056857D02*
X241012742Y-145056857D01*
X241012742Y-145056857D02*
X240955600Y-145028285D01*
X240955600Y-145028285D02*
X240927028Y-144999714D01*
X240927028Y-144999714D02*
X240898457Y-144942571D01*
X240898457Y-144942571D02*
X240898457Y-144799714D01*
X240898457Y-144799714D02*
X240927028Y-144742571D01*
X240927028Y-144742571D02*
X240955600Y-144714000D01*
X240955600Y-144714000D02*
X241012742Y-144685428D01*
X241012742Y-144685428D02*
X241184171Y-144685428D01*
X241184171Y-144685428D02*
X241241314Y-144714000D01*
X241241314Y-144714000D02*
X241269885Y-144742571D01*
X224972514Y-112554428D02*
X225172514Y-112840142D01*
X225315371Y-112554428D02*
X225315371Y-113154428D01*
X225315371Y-113154428D02*
X225086800Y-113154428D01*
X225086800Y-113154428D02*
X225029657Y-113125857D01*
X225029657Y-113125857D02*
X225001086Y-113097285D01*
X225001086Y-113097285D02*
X224972514Y-113040142D01*
X224972514Y-113040142D02*
X224972514Y-112954428D01*
X224972514Y-112954428D02*
X225001086Y-112897285D01*
X225001086Y-112897285D02*
X225029657Y-112868714D01*
X225029657Y-112868714D02*
X225086800Y-112840142D01*
X225086800Y-112840142D02*
X225315371Y-112840142D01*
X224743943Y-113097285D02*
X224715371Y-113125857D01*
X224715371Y-113125857D02*
X224658229Y-113154428D01*
X224658229Y-113154428D02*
X224515371Y-113154428D01*
X224515371Y-113154428D02*
X224458229Y-113125857D01*
X224458229Y-113125857D02*
X224429657Y-113097285D01*
X224429657Y-113097285D02*
X224401086Y-113040142D01*
X224401086Y-113040142D02*
X224401086Y-112983000D01*
X224401086Y-112983000D02*
X224429657Y-112897285D01*
X224429657Y-112897285D02*
X224772514Y-112554428D01*
X224772514Y-112554428D02*
X224401086Y-112554428D01*
X224172514Y-113097285D02*
X224143942Y-113125857D01*
X224143942Y-113125857D02*
X224086800Y-113154428D01*
X224086800Y-113154428D02*
X223943942Y-113154428D01*
X223943942Y-113154428D02*
X223886800Y-113125857D01*
X223886800Y-113125857D02*
X223858228Y-113097285D01*
X223858228Y-113097285D02*
X223829657Y-113040142D01*
X223829657Y-113040142D02*
X223829657Y-112983000D01*
X223829657Y-112983000D02*
X223858228Y-112897285D01*
X223858228Y-112897285D02*
X224201085Y-112554428D01*
X224201085Y-112554428D02*
X223829657Y-112554428D01*
X228873714Y-114047742D02*
X228845142Y-114104885D01*
X228845142Y-114104885D02*
X228788000Y-114162028D01*
X228788000Y-114162028D02*
X228702285Y-114247742D01*
X228702285Y-114247742D02*
X228673714Y-114304885D01*
X228673714Y-114304885D02*
X228673714Y-114362028D01*
X228816571Y-114333457D02*
X228788000Y-114390600D01*
X228788000Y-114390600D02*
X228730857Y-114447742D01*
X228730857Y-114447742D02*
X228616571Y-114476314D01*
X228616571Y-114476314D02*
X228416571Y-114476314D01*
X228416571Y-114476314D02*
X228302285Y-114447742D01*
X228302285Y-114447742D02*
X228245142Y-114390600D01*
X228245142Y-114390600D02*
X228216571Y-114333457D01*
X228216571Y-114333457D02*
X228216571Y-114219171D01*
X228216571Y-114219171D02*
X228245142Y-114162028D01*
X228245142Y-114162028D02*
X228302285Y-114104885D01*
X228302285Y-114104885D02*
X228416571Y-114076314D01*
X228416571Y-114076314D02*
X228616571Y-114076314D01*
X228616571Y-114076314D02*
X228730857Y-114104885D01*
X228730857Y-114104885D02*
X228788000Y-114162028D01*
X228788000Y-114162028D02*
X228816571Y-114219171D01*
X228816571Y-114219171D02*
X228816571Y-114333457D01*
X228216571Y-113876314D02*
X228216571Y-113504886D01*
X228216571Y-113504886D02*
X228445142Y-113704886D01*
X228445142Y-113704886D02*
X228445142Y-113619171D01*
X228445142Y-113619171D02*
X228473714Y-113562029D01*
X228473714Y-113562029D02*
X228502285Y-113533457D01*
X228502285Y-113533457D02*
X228559428Y-113504886D01*
X228559428Y-113504886D02*
X228702285Y-113504886D01*
X228702285Y-113504886D02*
X228759428Y-113533457D01*
X228759428Y-113533457D02*
X228788000Y-113562029D01*
X228788000Y-113562029D02*
X228816571Y-113619171D01*
X228816571Y-113619171D02*
X228816571Y-113790600D01*
X228816571Y-113790600D02*
X228788000Y-113847743D01*
X228788000Y-113847743D02*
X228759428Y-113876314D01*
X232958314Y-109760428D02*
X233158314Y-110046142D01*
X233301171Y-109760428D02*
X233301171Y-110360428D01*
X233301171Y-110360428D02*
X233072600Y-110360428D01*
X233072600Y-110360428D02*
X233015457Y-110331857D01*
X233015457Y-110331857D02*
X232986886Y-110303285D01*
X232986886Y-110303285D02*
X232958314Y-110246142D01*
X232958314Y-110246142D02*
X232958314Y-110160428D01*
X232958314Y-110160428D02*
X232986886Y-110103285D01*
X232986886Y-110103285D02*
X233015457Y-110074714D01*
X233015457Y-110074714D02*
X233072600Y-110046142D01*
X233072600Y-110046142D02*
X233301171Y-110046142D01*
X232386886Y-109760428D02*
X232729743Y-109760428D01*
X232558314Y-109760428D02*
X232558314Y-110360428D01*
X232558314Y-110360428D02*
X232615457Y-110274714D01*
X232615457Y-110274714D02*
X232672600Y-110217571D01*
X232672600Y-110217571D02*
X232729743Y-110189000D01*
X232158314Y-110303285D02*
X232129742Y-110331857D01*
X232129742Y-110331857D02*
X232072600Y-110360428D01*
X232072600Y-110360428D02*
X231929742Y-110360428D01*
X231929742Y-110360428D02*
X231872600Y-110331857D01*
X231872600Y-110331857D02*
X231844028Y-110303285D01*
X231844028Y-110303285D02*
X231815457Y-110246142D01*
X231815457Y-110246142D02*
X231815457Y-110189000D01*
X231815457Y-110189000D02*
X231844028Y-110103285D01*
X231844028Y-110103285D02*
X232186885Y-109760428D01*
X232186885Y-109760428D02*
X231815457Y-109760428D01*
X250921885Y-137934028D02*
X250893313Y-137962600D01*
X250893313Y-137962600D02*
X250807599Y-137991171D01*
X250807599Y-137991171D02*
X250750456Y-137991171D01*
X250750456Y-137991171D02*
X250664742Y-137962600D01*
X250664742Y-137962600D02*
X250607599Y-137905457D01*
X250607599Y-137905457D02*
X250579028Y-137848314D01*
X250579028Y-137848314D02*
X250550456Y-137734028D01*
X250550456Y-137734028D02*
X250550456Y-137648314D01*
X250550456Y-137648314D02*
X250579028Y-137534028D01*
X250579028Y-137534028D02*
X250607599Y-137476885D01*
X250607599Y-137476885D02*
X250664742Y-137419742D01*
X250664742Y-137419742D02*
X250750456Y-137391171D01*
X250750456Y-137391171D02*
X250807599Y-137391171D01*
X250807599Y-137391171D02*
X250893313Y-137419742D01*
X250893313Y-137419742D02*
X250921885Y-137448314D01*
X251493313Y-137991171D02*
X251150456Y-137991171D01*
X251321885Y-137991171D02*
X251321885Y-137391171D01*
X251321885Y-137391171D02*
X251264742Y-137476885D01*
X251264742Y-137476885D02*
X251207599Y-137534028D01*
X251207599Y-137534028D02*
X251150456Y-137562600D01*
X251864742Y-137391171D02*
X251921885Y-137391171D01*
X251921885Y-137391171D02*
X251979028Y-137419742D01*
X251979028Y-137419742D02*
X252007600Y-137448314D01*
X252007600Y-137448314D02*
X252036171Y-137505457D01*
X252036171Y-137505457D02*
X252064742Y-137619742D01*
X252064742Y-137619742D02*
X252064742Y-137762600D01*
X252064742Y-137762600D02*
X252036171Y-137876885D01*
X252036171Y-137876885D02*
X252007600Y-137934028D01*
X252007600Y-137934028D02*
X251979028Y-137962600D01*
X251979028Y-137962600D02*
X251921885Y-137991171D01*
X251921885Y-137991171D02*
X251864742Y-137991171D01*
X251864742Y-137991171D02*
X251807600Y-137962600D01*
X251807600Y-137962600D02*
X251779028Y-137934028D01*
X251779028Y-137934028D02*
X251750457Y-137876885D01*
X251750457Y-137876885D02*
X251721885Y-137762600D01*
X251721885Y-137762600D02*
X251721885Y-137619742D01*
X251721885Y-137619742D02*
X251750457Y-137505457D01*
X251750457Y-137505457D02*
X251779028Y-137448314D01*
X251779028Y-137448314D02*
X251807600Y-137419742D01*
X251807600Y-137419742D02*
X251864742Y-137391171D01*
X211069285Y-142486971D02*
X210869285Y-142201257D01*
X210726428Y-142486971D02*
X210726428Y-141886971D01*
X210726428Y-141886971D02*
X210954999Y-141886971D01*
X210954999Y-141886971D02*
X211012142Y-141915542D01*
X211012142Y-141915542D02*
X211040713Y-141944114D01*
X211040713Y-141944114D02*
X211069285Y-142001257D01*
X211069285Y-142001257D02*
X211069285Y-142086971D01*
X211069285Y-142086971D02*
X211040713Y-142144114D01*
X211040713Y-142144114D02*
X211012142Y-142172685D01*
X211012142Y-142172685D02*
X210954999Y-142201257D01*
X210954999Y-142201257D02*
X210726428Y-142201257D01*
X211297856Y-141944114D02*
X211326428Y-141915542D01*
X211326428Y-141915542D02*
X211383571Y-141886971D01*
X211383571Y-141886971D02*
X211526428Y-141886971D01*
X211526428Y-141886971D02*
X211583571Y-141915542D01*
X211583571Y-141915542D02*
X211612142Y-141944114D01*
X211612142Y-141944114D02*
X211640713Y-142001257D01*
X211640713Y-142001257D02*
X211640713Y-142058400D01*
X211640713Y-142058400D02*
X211612142Y-142144114D01*
X211612142Y-142144114D02*
X211269285Y-142486971D01*
X211269285Y-142486971D02*
X211640713Y-142486971D01*
X212183571Y-141886971D02*
X211897857Y-141886971D01*
X211897857Y-141886971D02*
X211869285Y-142172685D01*
X211869285Y-142172685D02*
X211897857Y-142144114D01*
X211897857Y-142144114D02*
X211955000Y-142115542D01*
X211955000Y-142115542D02*
X212097857Y-142115542D01*
X212097857Y-142115542D02*
X212155000Y-142144114D01*
X212155000Y-142144114D02*
X212183571Y-142172685D01*
X212183571Y-142172685D02*
X212212142Y-142229828D01*
X212212142Y-142229828D02*
X212212142Y-142372685D01*
X212212142Y-142372685D02*
X212183571Y-142429828D01*
X212183571Y-142429828D02*
X212155000Y-142458400D01*
X212155000Y-142458400D02*
X212097857Y-142486971D01*
X212097857Y-142486971D02*
X211955000Y-142486971D01*
X211955000Y-142486971D02*
X211897857Y-142458400D01*
X211897857Y-142458400D02*
X211869285Y-142429828D01*
X246952329Y-141802843D02*
X247152329Y-142088557D01*
X247295186Y-141802843D02*
X247295186Y-142402843D01*
X247295186Y-142402843D02*
X247066615Y-142402843D01*
X247066615Y-142402843D02*
X247009472Y-142374272D01*
X247009472Y-142374272D02*
X246980901Y-142345700D01*
X246980901Y-142345700D02*
X246952329Y-142288557D01*
X246952329Y-142288557D02*
X246952329Y-142202843D01*
X246952329Y-142202843D02*
X246980901Y-142145700D01*
X246980901Y-142145700D02*
X247009472Y-142117129D01*
X247009472Y-142117129D02*
X247066615Y-142088557D01*
X247066615Y-142088557D02*
X247295186Y-142088557D01*
X246380901Y-141802843D02*
X246723758Y-141802843D01*
X246552329Y-141802843D02*
X246552329Y-142402843D01*
X246552329Y-142402843D02*
X246609472Y-142317129D01*
X246609472Y-142317129D02*
X246666615Y-142259986D01*
X246666615Y-142259986D02*
X246723758Y-142231415D01*
X245866615Y-142402843D02*
X245980900Y-142402843D01*
X245980900Y-142402843D02*
X246038043Y-142374272D01*
X246038043Y-142374272D02*
X246066615Y-142345700D01*
X246066615Y-142345700D02*
X246123757Y-142259986D01*
X246123757Y-142259986D02*
X246152329Y-142145700D01*
X246152329Y-142145700D02*
X246152329Y-141917129D01*
X246152329Y-141917129D02*
X246123757Y-141859986D01*
X246123757Y-141859986D02*
X246095186Y-141831415D01*
X246095186Y-141831415D02*
X246038043Y-141802843D01*
X246038043Y-141802843D02*
X245923757Y-141802843D01*
X245923757Y-141802843D02*
X245866615Y-141831415D01*
X245866615Y-141831415D02*
X245838043Y-141859986D01*
X245838043Y-141859986D02*
X245809472Y-141917129D01*
X245809472Y-141917129D02*
X245809472Y-142059986D01*
X245809472Y-142059986D02*
X245838043Y-142117129D01*
X245838043Y-142117129D02*
X245866615Y-142145700D01*
X245866615Y-142145700D02*
X245923757Y-142174272D01*
X245923757Y-142174272D02*
X246038043Y-142174272D01*
X246038043Y-142174272D02*
X246095186Y-142145700D01*
X246095186Y-142145700D02*
X246123757Y-142117129D01*
X246123757Y-142117129D02*
X246152329Y-142059986D01*
X253337999Y-121950371D02*
X253366571Y-121921800D01*
X253366571Y-121921800D02*
X253452285Y-121893228D01*
X253452285Y-121893228D02*
X253509428Y-121893228D01*
X253509428Y-121893228D02*
X253595142Y-121921800D01*
X253595142Y-121921800D02*
X253652285Y-121978942D01*
X253652285Y-121978942D02*
X253680856Y-122036085D01*
X253680856Y-122036085D02*
X253709428Y-122150371D01*
X253709428Y-122150371D02*
X253709428Y-122236085D01*
X253709428Y-122236085D02*
X253680856Y-122350371D01*
X253680856Y-122350371D02*
X253652285Y-122407514D01*
X253652285Y-122407514D02*
X253595142Y-122464657D01*
X253595142Y-122464657D02*
X253509428Y-122493228D01*
X253509428Y-122493228D02*
X253452285Y-122493228D01*
X253452285Y-122493228D02*
X253366571Y-122464657D01*
X253366571Y-122464657D02*
X253337999Y-122436085D01*
X252823714Y-122493228D02*
X252937999Y-122493228D01*
X252937999Y-122493228D02*
X252995142Y-122464657D01*
X252995142Y-122464657D02*
X253023714Y-122436085D01*
X253023714Y-122436085D02*
X253080856Y-122350371D01*
X253080856Y-122350371D02*
X253109428Y-122236085D01*
X253109428Y-122236085D02*
X253109428Y-122007514D01*
X253109428Y-122007514D02*
X253080856Y-121950371D01*
X253080856Y-121950371D02*
X253052285Y-121921800D01*
X253052285Y-121921800D02*
X252995142Y-121893228D01*
X252995142Y-121893228D02*
X252880856Y-121893228D01*
X252880856Y-121893228D02*
X252823714Y-121921800D01*
X252823714Y-121921800D02*
X252795142Y-121950371D01*
X252795142Y-121950371D02*
X252766571Y-122007514D01*
X252766571Y-122007514D02*
X252766571Y-122150371D01*
X252766571Y-122150371D02*
X252795142Y-122207514D01*
X252795142Y-122207514D02*
X252823714Y-122236085D01*
X252823714Y-122236085D02*
X252880856Y-122264657D01*
X252880856Y-122264657D02*
X252995142Y-122264657D01*
X252995142Y-122264657D02*
X253052285Y-122236085D01*
X253052285Y-122236085D02*
X253080856Y-122207514D01*
X253080856Y-122207514D02*
X253109428Y-122150371D01*
X246632399Y-124117771D02*
X246660971Y-124089200D01*
X246660971Y-124089200D02*
X246746685Y-124060628D01*
X246746685Y-124060628D02*
X246803828Y-124060628D01*
X246803828Y-124060628D02*
X246889542Y-124089200D01*
X246889542Y-124089200D02*
X246946685Y-124146342D01*
X246946685Y-124146342D02*
X246975256Y-124203485D01*
X246975256Y-124203485D02*
X247003828Y-124317771D01*
X247003828Y-124317771D02*
X247003828Y-124403485D01*
X247003828Y-124403485D02*
X246975256Y-124517771D01*
X246975256Y-124517771D02*
X246946685Y-124574914D01*
X246946685Y-124574914D02*
X246889542Y-124632057D01*
X246889542Y-124632057D02*
X246803828Y-124660628D01*
X246803828Y-124660628D02*
X246746685Y-124660628D01*
X246746685Y-124660628D02*
X246660971Y-124632057D01*
X246660971Y-124632057D02*
X246632399Y-124603485D01*
X246089542Y-124660628D02*
X246375256Y-124660628D01*
X246375256Y-124660628D02*
X246403828Y-124374914D01*
X246403828Y-124374914D02*
X246375256Y-124403485D01*
X246375256Y-124403485D02*
X246318114Y-124432057D01*
X246318114Y-124432057D02*
X246175256Y-124432057D01*
X246175256Y-124432057D02*
X246118114Y-124403485D01*
X246118114Y-124403485D02*
X246089542Y-124374914D01*
X246089542Y-124374914D02*
X246060971Y-124317771D01*
X246060971Y-124317771D02*
X246060971Y-124174914D01*
X246060971Y-124174914D02*
X246089542Y-124117771D01*
X246089542Y-124117771D02*
X246118114Y-124089200D01*
X246118114Y-124089200D02*
X246175256Y-124060628D01*
X246175256Y-124060628D02*
X246318114Y-124060628D01*
X246318114Y-124060628D02*
X246375256Y-124089200D01*
X246375256Y-124089200D02*
X246403828Y-124117771D01*
D10*
%TO.C,I1*%
X231909600Y-140062852D02*
X231909600Y-139540348D01*
X234129600Y-140062852D02*
X234129600Y-139540348D01*
%TO.C,L2*%
X213472495Y-126303994D02*
X215472495Y-126303994D01*
X213472495Y-128303994D02*
X213472495Y-126303994D01*
X215472495Y-126303994D02*
X215472495Y-128303994D01*
X215472495Y-128303994D02*
X213472495Y-128303994D01*
X213100229Y-128827994D02*
G75*
G03*
X213100229Y-128827994I-151734J0D01*
G01*
%TO.C,REF\u002A\u002A*%
D12*
X274763060Y-140435270D02*
X274763060Y-143137721D01*
X269363685Y-143137721D01*
X267512800Y-141312448D01*
X267512800Y-138125200D01*
X272480622Y-138125200D01*
X274763060Y-140435270D01*
D13*
%TO.C,TP10*%
X283796400Y-129131400D02*
X283796400Y-132031400D01*
X280896400Y-129131400D02*
X283796400Y-129131400D01*
X283796400Y-132031400D02*
X280896400Y-132031400D01*
X280896400Y-132031400D02*
X280896400Y-129131400D01*
D10*
%TO.C,U2*%
X244281200Y-112125000D02*
X244931200Y-112125000D01*
X251501200Y-112775000D02*
X251501200Y-112125000D01*
X244281200Y-112775000D02*
X244281200Y-112125000D01*
X251501200Y-118695000D02*
X251501200Y-119345000D01*
X244281200Y-118695000D02*
X244281200Y-119345000D01*
X251501200Y-119345000D02*
X250851200Y-119345000D01*
X244281200Y-119345000D02*
X244931200Y-119345000D01*
D13*
%TO.C,TP7*%
X219504600Y-77975800D02*
X222404600Y-77975800D01*
X219504600Y-80875800D02*
X219504600Y-77975800D01*
X222404600Y-77975800D02*
X222404600Y-80875800D01*
X222404600Y-80875800D02*
X219504600Y-80875800D01*
D10*
%TO.C,Y2*%
X242378600Y-142187200D02*
X239593600Y-142187200D01*
X242378600Y-141987200D02*
X242378600Y-142187200D01*
X239593600Y-138517200D02*
X242193600Y-138517200D01*
%TO.C,SW1*%
X265287000Y-114436400D02*
X263185400Y-114436400D01*
X263185400Y-114436400D02*
X263185400Y-112538000D01*
X263185400Y-112538000D02*
X265287000Y-112538000D01*
X265287000Y-112538000D02*
X265287000Y-114436400D01*
D13*
%TO.C,TP3*%
X208354000Y-102359800D02*
X211254000Y-102359800D01*
X208354000Y-105259800D02*
X208354000Y-102359800D01*
X211254000Y-102359800D02*
X211254000Y-105259800D01*
X211254000Y-105259800D02*
X208354000Y-105259800D01*
D10*
%TO.C,C3*%
X253130164Y-119629600D02*
X253345836Y-119629600D01*
X253130164Y-120349600D02*
X253345836Y-120349600D01*
%TO.C,L7*%
X233808790Y-151511496D02*
X235808790Y-151511496D01*
X233808790Y-153511496D02*
X233808790Y-151511496D01*
X235808790Y-151511496D02*
X235808790Y-153511496D01*
X235808790Y-153511496D02*
X233808790Y-153511496D01*
X233436524Y-154035496D02*
G75*
G03*
X233436524Y-154035496I-151734J0D01*
G01*
%TO.C,L8*%
X216997495Y-129891494D02*
X218997495Y-129891494D01*
X216997495Y-131891494D02*
X216997495Y-129891494D01*
X218997495Y-129891494D02*
X218997495Y-131891494D01*
X218997495Y-131891494D02*
X216997495Y-131891494D01*
X216625229Y-132415494D02*
G75*
G03*
X216625229Y-132415494I-151734J0D01*
G01*
%TO.C,L3*%
X253024994Y-132399554D02*
X255024994Y-132399554D01*
X253024994Y-134399554D02*
X253024994Y-132399554D01*
X255024994Y-132399554D02*
X255024994Y-134399554D01*
X255024994Y-134399554D02*
X253024994Y-134399554D01*
X252652728Y-134923554D02*
G75*
G03*
X252652728Y-134923554I-151734J0D01*
G01*
%TO.C,Q1*%
X245027200Y-128291400D02*
X245027200Y-129691400D01*
X247347200Y-129691400D02*
X247347200Y-127791400D01*
D13*
%TO.C,TP12*%
X280215000Y-125524600D02*
X280215000Y-128424600D01*
X277315000Y-125524600D02*
X280215000Y-125524600D01*
X280215000Y-128424600D02*
X277315000Y-128424600D01*
X277315000Y-128424600D02*
X277315000Y-125524600D01*
D10*
%TO.C,L4*%
X216997495Y-122716494D02*
X218997495Y-122716494D01*
X216997495Y-124716494D02*
X216997495Y-122716494D01*
X218997495Y-122716494D02*
X218997495Y-124716494D01*
X218997495Y-124716494D02*
X216997495Y-124716494D01*
X216625229Y-125240494D02*
G75*
G03*
X216625229Y-125240494I-151734J0D01*
G01*
%TO.C,C11*%
X232610460Y-122904203D02*
X232329300Y-122904203D01*
X232610460Y-121884203D02*
X232329300Y-121884203D01*
%TO.C,U4*%
X235237880Y-116014603D02*
X235237880Y-117194603D01*
X235567880Y-117194603D02*
X235237880Y-117194603D01*
X235567880Y-117194603D02*
X235567880Y-119914603D01*
X230847880Y-117194603D02*
X231177880Y-117194603D01*
X235567880Y-119914603D02*
X235237880Y-119914603D01*
X231177880Y-119914603D02*
X230847880Y-119914603D01*
X230847880Y-119914603D02*
X230847880Y-117194603D01*
%TO.C,C4*%
X245090836Y-125709000D02*
X244875164Y-125709000D01*
X245090836Y-124989000D02*
X244875164Y-124989000D01*
%TO.C,C9*%
X235494480Y-123015623D02*
X235494480Y-123296783D01*
X234474480Y-123015623D02*
X234474480Y-123296783D01*
%TO.C,L6*%
X220522495Y-126303994D02*
X222522495Y-126303994D01*
X220522495Y-128303994D02*
X220522495Y-126303994D01*
X222522495Y-126303994D02*
X222522495Y-128303994D01*
X222522495Y-128303994D02*
X220522495Y-128303994D01*
X220150229Y-128827994D02*
G75*
G03*
X220150229Y-128827994I-151734J0D01*
G01*
%TO.C,C14*%
X237235052Y-136785400D02*
X236712548Y-136785400D01*
X237235052Y-135315400D02*
X236712548Y-135315400D01*
%TO.C,L1*%
X267017598Y-127896960D02*
X269017598Y-127896960D01*
X267017598Y-129896960D02*
X267017598Y-127896960D01*
X269017598Y-127896960D02*
X269017598Y-129896960D01*
X269017598Y-129896960D02*
X267017598Y-129896960D01*
X266645332Y-130420960D02*
G75*
G03*
X266645332Y-130420960I-151734J0D01*
G01*
D13*
%TO.C,L9*%
X208461401Y-62718023D02*
X210461401Y-62718023D01*
X208461401Y-64718023D02*
X208461401Y-62718023D01*
X210461401Y-62718023D02*
X210461401Y-64718023D01*
X210461401Y-64718023D02*
X208461401Y-64718023D01*
X208089135Y-65242023D02*
G75*
G03*
X208089135Y-65242023I-151734J0D01*
G01*
D10*
%TO.C,C12*%
X231810348Y-142097200D02*
X232332852Y-142097200D01*
X231810348Y-143567200D02*
X232332852Y-143567200D01*
%TO.C,C1*%
X254367000Y-119610536D02*
X254367000Y-119394864D01*
X255087000Y-119610536D02*
X255087000Y-119394864D01*
%TO.C,Q2*%
X229234000Y-109924600D02*
X227834000Y-109924600D01*
X227834000Y-112244600D02*
X229734000Y-112244600D01*
%TO.C,Q4*%
X244804200Y-142360400D02*
X243404200Y-142360400D01*
X243404200Y-144680400D02*
X245304200Y-144680400D01*
%TO.C,Y1*%
X241906200Y-113254700D02*
X239906200Y-113254700D01*
X239906200Y-113254700D02*
X239506200Y-113254700D01*
X241906200Y-113454700D02*
X241906200Y-114454700D01*
X239906200Y-113454700D02*
X241906200Y-113454700D01*
X239906200Y-113454700D02*
X239506200Y-113454700D01*
X239506200Y-114454700D02*
X239506200Y-113454700D01*
X239506200Y-114454700D02*
X239106200Y-114454700D01*
X241906200Y-116254700D02*
X241906200Y-117054700D01*
X241906200Y-117054700D02*
X239906200Y-117054700D01*
X239906200Y-117054700D02*
X239506200Y-117054700D01*
X239506200Y-117054700D02*
X239506200Y-116254700D01*
%TO.C,L5*%
X245208790Y-151511496D02*
X247208790Y-151511496D01*
X245208790Y-153511496D02*
X245208790Y-151511496D01*
X247208790Y-151511496D02*
X247208790Y-153511496D01*
X247208790Y-153511496D02*
X245208790Y-153511496D01*
X244836524Y-154035496D02*
G75*
G03*
X244836524Y-154035496I-151734J0D01*
G01*
D13*
%TO.C,TP2*%
X219504600Y-70813000D02*
X222404600Y-70813000D01*
X219504600Y-73713000D02*
X219504600Y-70813000D01*
X222404600Y-70813000D02*
X222404600Y-73713000D01*
X222404600Y-73713000D02*
X219504600Y-73713000D01*
D10*
%TO.C,U5*%
X235021800Y-137979400D02*
X235826800Y-137979400D01*
X235021800Y-140979400D02*
X235826800Y-140979400D01*
X237216800Y-137979400D02*
X238021800Y-137979400D01*
X237216800Y-140979400D02*
X238021800Y-140979400D01*
X234226800Y-138279400D02*
G75*
G03*
X234226800Y-138279400I-100000J0D01*
G01*
D13*
%TO.C,TP11*%
X283796400Y-125524600D02*
X283796400Y-128424600D01*
X280896400Y-125524600D02*
X283796400Y-125524600D01*
X283796400Y-128424600D02*
X280896400Y-128424600D01*
X280896400Y-128424600D02*
X280896400Y-125524600D01*
D10*
%TO.C,U1*%
X254994407Y-111640693D02*
X252962407Y-111640693D01*
X252962407Y-111640693D02*
X252962407Y-114688693D01*
X252962407Y-114688693D02*
X254994407Y-114688693D01*
X254994407Y-114688693D02*
X254994407Y-111640693D01*
X255526392Y-111335893D02*
G75*
G03*
X255526392Y-111335893I-227185J0D01*
G01*
D13*
%TO.C,TP8*%
X219504600Y-74394400D02*
X222404600Y-74394400D01*
X219504600Y-77294400D02*
X219504600Y-74394400D01*
X222404600Y-74394400D02*
X222404600Y-77294400D01*
X222404600Y-77294400D02*
X219504600Y-77294400D01*
%TO.C,TP1*%
X219504600Y-67231600D02*
X222404600Y-67231600D01*
X219504600Y-70131600D02*
X219504600Y-67231600D01*
X222404600Y-67231600D02*
X222404600Y-70131600D01*
X222404600Y-70131600D02*
X219504600Y-70131600D01*
D10*
%TO.C,AE1*%
X254698958Y-138656400D02*
X256369442Y-138656400D01*
X254698958Y-140476400D02*
X256369442Y-140476400D01*
D13*
%TO.C,TP9*%
X219453800Y-61389600D02*
X222353800Y-61389600D01*
X219453800Y-64289600D02*
X219453800Y-61389600D01*
X222353800Y-61389600D02*
X222353800Y-64289600D01*
X222353800Y-64289600D02*
X219453800Y-64289600D01*
D10*
%TO.C,C8*%
X241975000Y-136994764D02*
X241975000Y-137210436D01*
X241255000Y-136994764D02*
X241255000Y-137210436D01*
%TO.C,C7*%
X247783236Y-111434200D02*
X247567564Y-111434200D01*
X247783236Y-110714200D02*
X247567564Y-110714200D01*
D14*
%TO.C,J1*%
X273776600Y-111673100D02*
X273776600Y-112403100D01*
X266176600Y-111673100D02*
X273776600Y-111673100D01*
X266176600Y-111673100D02*
X266176600Y-112403100D01*
D15*
X271376600Y-117733100D02*
G75*
G03*
X271376600Y-117733100I-100000J0D01*
G01*
D10*
%TO.C,U3*%
X242544600Y-135026400D02*
X250164600Y-135026400D01*
X250164600Y-135026400D02*
X250164600Y-140106400D01*
X250164600Y-140106400D02*
X242544600Y-140106400D01*
X242544600Y-140106400D02*
X242544600Y-135026400D01*
X242343205Y-134645400D02*
G75*
G03*
X242343205Y-134645400I-179605J0D01*
G01*
D13*
%TO.C,TP13*%
X280215000Y-129106000D02*
X280215000Y-132006000D01*
X277315000Y-129106000D02*
X280215000Y-129106000D01*
X280215000Y-132006000D02*
X277315000Y-132006000D01*
X277315000Y-132006000D02*
X277315000Y-129106000D01*
D10*
%TO.C,Q3*%
X229234000Y-112794800D02*
X227834000Y-112794800D01*
X227834000Y-115114800D02*
X229734000Y-115114800D01*
%TO.C,C10*%
X251174364Y-138222400D02*
X251390036Y-138222400D01*
X251174364Y-138942400D02*
X251390036Y-138942400D01*
%TO.C,C6*%
X253345836Y-121365600D02*
X253130164Y-121365600D01*
X253345836Y-120645600D02*
X253130164Y-120645600D01*
%TO.C,C5*%
X245090836Y-124718400D02*
X244875164Y-124718400D01*
X245090836Y-123998400D02*
X244875164Y-123998400D01*
%TD*%
M02*
