%TF.GenerationSoftware,KiCad,Pcbnew,7.0.6*%
%TF.CreationDate,2024-03-31T21:54:28-07:00*%
%TF.ProjectId,retroglowplus_gbc,72657472-6f67-46c6-9f77-706c75735f67,rev?*%
%TF.SameCoordinates,Original*%
%TF.FileFunction,Drillmap*%
%TF.FilePolarity,Positive*%
%FSLAX45Y45*%
G04 Gerber Fmt 4.5, Leading zero omitted, Abs format (unit mm)*
G04 Created by KiCad (PCBNEW 7.0.6) date 2024-03-31 21:54:28*
%MOMM*%
%LPD*%
G01*
G04 APERTURE LIST*
%ADD10C,0.001000*%
%ADD11C,0.200000*%
%ADD12C,0.050000*%
G04 APERTURE END LIST*
D10*
X20756908Y-11747862D02*
G75*
G03*
X20631913Y-11622862I-124998J2D01*
G01*
X20546060Y-16239746D02*
X20546060Y-14097741D01*
X26106810Y-14213900D02*
G75*
G03*
X26226807Y-14333900I120000J0D01*
G01*
X26681810Y-13878900D02*
G75*
G03*
X26561807Y-13758900I-120000J0D01*
G01*
X26423370Y-11119040D02*
G75*
G03*
X26323370Y-11219040I-10J-99990D01*
G01*
X26512637Y-14676307D02*
G75*
G03*
X25634139Y-15307493I3J-926953D01*
G01*
X22611106Y-14640600D02*
X22453764Y-14483258D01*
X20946461Y-14103961D02*
G75*
G03*
X20946461Y-14103961I-150000J0D01*
G01*
X21274423Y-6856361D02*
X21274423Y-9575529D01*
X21746314Y-8395786D02*
G75*
G03*
X21646308Y-8295786I-100004J-4D01*
G01*
X20546060Y-11622862D02*
X20631913Y-11622862D01*
X21009659Y-9902867D02*
X21009659Y-9775529D01*
X27546060Y-13390189D02*
G75*
G03*
X27521060Y-13346888I-50000J-1D01*
G01*
X26561807Y-14333907D02*
G75*
G03*
X26681807Y-14213900I-7J120007D01*
G01*
X20756913Y-11747862D02*
X20756913Y-11756031D01*
X23113601Y-13731049D02*
G75*
G03*
X23113601Y-13731049I-150000J0D01*
G01*
X20881106Y-15390600D02*
X20881106Y-14640600D01*
X27446060Y-14676310D02*
G75*
G03*
X27546060Y-14576308I-10J100010D01*
G01*
X22867263Y-16486043D02*
G75*
G03*
X22967263Y-16386044I-3J100003D01*
G01*
X20654424Y-6070404D02*
X22195865Y-6070404D01*
X27589356Y-13278590D02*
G75*
G03*
X27632662Y-13303587I43304J25010D01*
G01*
X20742703Y-11085396D02*
X20742703Y-10102867D01*
X23167263Y-15443683D02*
G75*
G03*
X22967263Y-15643678I-3J-199997D01*
G01*
X22611106Y-16386044D02*
G75*
G03*
X22711106Y-16486044I100004J4D01*
G01*
X26226807Y-13758907D02*
G75*
G03*
X26106807Y-13878900I-7J-119993D01*
G01*
X22611106Y-15390600D02*
X22611106Y-14640600D01*
X28396060Y-12534276D02*
X28396060Y-13253587D01*
X27446060Y-14676308D02*
X26512637Y-14676308D01*
X20631913Y-11881033D02*
G75*
G03*
X20756913Y-11756031I-3J125003D01*
G01*
X21505074Y-9032726D02*
G75*
G03*
X21605070Y-9132726I99996J-4D01*
G01*
X21038447Y-14483258D02*
X22453764Y-14483258D01*
X25748376Y-11056254D02*
G75*
G03*
X25648370Y-10956254I-99996J4D01*
G01*
X21605070Y-8295790D02*
G75*
G03*
X21505070Y-8395786I0J-100000D01*
G01*
X26226807Y-13758900D02*
X26561807Y-13758900D01*
X21721228Y-10460298D02*
G75*
G03*
X21646228Y-10535305I2J-75002D01*
G01*
X20881106Y-15390600D02*
X20881106Y-16386044D01*
X27546060Y-13390189D02*
X27546060Y-14097741D01*
X20781106Y-16486036D02*
G75*
G03*
X20881106Y-16386044I4J99996D01*
G01*
X21821228Y-10956254D02*
X25648370Y-10956254D01*
X22295856Y-6170404D02*
G75*
G03*
X22195865Y-6070404I-99996J4D01*
G01*
X26561807Y-14333900D02*
X26226807Y-14333900D01*
X20546060Y-14097741D02*
X20546060Y-11881031D01*
X21746308Y-8395786D02*
X21746308Y-9032726D01*
X27521060Y-12440975D02*
G75*
G03*
X27546060Y-12397673I-24990J43295D01*
G01*
X20842703Y-10002867D02*
X20909659Y-10002867D01*
X21646308Y-9132726D02*
X21605070Y-9132726D01*
X21646225Y-10695305D02*
G75*
G03*
X21721228Y-10770305I75005J5D01*
G01*
X21646228Y-10535305D02*
X21646228Y-10695305D01*
X27459963Y-13619835D02*
G75*
G03*
X27459963Y-13619835I-150000J0D01*
G01*
X22611106Y-16386044D02*
X22611106Y-15390600D01*
X25748373Y-11764926D02*
G75*
G03*
X25868370Y-11884926I120007J7D01*
G01*
X20654424Y-6070403D02*
G75*
G03*
X20554424Y-6170404I-4J-99997D01*
G01*
X21209659Y-9575529D02*
X21274423Y-9575529D01*
X21605070Y-8295786D02*
X21646308Y-8295786D01*
X21646308Y-9132728D02*
G75*
G03*
X21746308Y-9032726I2J99998D01*
G01*
X20554424Y-6656361D02*
X20554424Y-6170404D01*
X21721228Y-10770305D02*
X21721228Y-10856254D01*
X26106807Y-14213900D02*
X26106807Y-13878900D01*
X21721226Y-10856254D02*
G75*
G03*
X21821228Y-10956254I100004J4D01*
G01*
X23652944Y-12906940D02*
G75*
G03*
X23652944Y-12906940I-150000J0D01*
G01*
X25577154Y-14412652D02*
G75*
G03*
X25577154Y-14412652I-150000J0D01*
G01*
X22095867Y-10460317D02*
G75*
G03*
X22295867Y-10260310I-7J200007D01*
G01*
X20646060Y-11185396D02*
X20642703Y-11185396D01*
X20546062Y-16239746D02*
G75*
G03*
X20608499Y-16462075I427048J-4D01*
G01*
X20842703Y-10002873D02*
G75*
G03*
X20742703Y-10102867I-3J-99997D01*
G01*
X20554419Y-6656361D02*
G75*
G03*
X20654424Y-6756361I100002J2D01*
G01*
X25855795Y-12232080D02*
G75*
G03*
X25855795Y-12232080I-150000J0D01*
G01*
X26451679Y-13344213D02*
G75*
G03*
X26451679Y-13344213I-200000J0D01*
G01*
X22867263Y-16486044D02*
X22711106Y-16486044D01*
X22928588Y-14315756D02*
G75*
G03*
X22928588Y-14315756I-150000J0D01*
G01*
X20546060Y-11369040D02*
X20546060Y-11622862D01*
X28346060Y-13303580D02*
G75*
G03*
X28396060Y-13253587I0J50000D01*
G01*
X28346060Y-13303587D02*
X27632662Y-13303587D01*
X20881106Y-14640600D02*
X21038447Y-14483258D01*
X21505070Y-9032726D02*
X21505070Y-8395786D01*
X20781106Y-16486044D02*
X20651188Y-16486044D01*
X20631913Y-11881031D02*
X20546060Y-11881031D01*
X20646060Y-11185400D02*
G75*
G03*
X20546060Y-11285396I0J-100000D01*
G01*
X20546060Y-11369040D02*
X20546060Y-11285396D01*
X26323370Y-11429926D02*
X26323370Y-11219040D01*
X28396064Y-12534276D02*
G75*
G03*
X28346060Y-12484276I-49994J6D01*
G01*
X26323370Y-11764926D02*
X26323370Y-11429926D01*
X25748370Y-11056254D02*
X25748370Y-11219040D01*
X20608498Y-16462075D02*
G75*
G03*
X20651188Y-16486044I42692J26035D01*
G01*
X25748370Y-11429926D02*
X25748370Y-11764926D01*
X27546060Y-11369040D02*
X27546060Y-12397673D01*
X20654424Y-6756361D02*
X21174423Y-6756361D01*
X22967263Y-15643678D02*
X22967263Y-16386044D01*
X27521056Y-12440968D02*
G75*
G03*
X27589361Y-12509276I25004J-43302D01*
G01*
X25444593Y-15443675D02*
G75*
G03*
X25634139Y-15307493I-3J200005D01*
G01*
X27632662Y-12484276D02*
X28346060Y-12484276D01*
X26203370Y-11884920D02*
G75*
G03*
X26323370Y-11764926I0J120000D01*
G01*
X25868370Y-11884926D02*
X26203370Y-11884926D01*
X26681807Y-13878900D02*
X26681807Y-14213900D01*
X27632662Y-12484275D02*
G75*
G03*
X27589361Y-12509276I-3J-49995D01*
G01*
X20909659Y-10002869D02*
G75*
G03*
X21009659Y-9902867I1J99999D01*
G01*
X22295865Y-6170404D02*
X22295867Y-10260310D01*
X25748370Y-11219040D02*
X25748370Y-11429926D01*
X20642703Y-11185403D02*
G75*
G03*
X20742703Y-11085396I-3J100003D01*
G01*
X23874793Y-14359062D02*
G75*
G03*
X23874793Y-14359062I-125000J0D01*
G01*
X21209659Y-9575529D02*
G75*
G03*
X21009659Y-9775529I1J-200001D01*
G01*
X27589358Y-13278589D02*
G75*
G03*
X27521060Y-13346888I-43298J-25001D01*
G01*
X27546060Y-14097741D02*
X27546060Y-14576308D01*
X26423370Y-11119040D02*
X27296060Y-11119040D01*
X27546060Y-11369040D02*
G75*
G03*
X27296060Y-11119040I-250000J0D01*
G01*
X25444593Y-15443678D02*
X23167263Y-15443678D01*
X21274419Y-6856361D02*
G75*
G03*
X21174423Y-6756361I-99999J2D01*
G01*
X22095865Y-10460305D02*
X21721228Y-10460305D01*
D11*
D12*
X26772660Y-11527310D02*
X26822660Y-11577310D01*
X26822660Y-11527310D02*
X26772660Y-11577310D01*
X27172660Y-11527310D02*
X27222660Y-11577310D01*
X27222660Y-11527310D02*
X27172660Y-11577310D01*
D11*
X20806787Y-16797578D02*
X20806787Y-16597578D01*
X20806787Y-16597578D02*
X20854406Y-16597578D01*
X20854406Y-16597578D02*
X20882977Y-16607102D01*
X20882977Y-16607102D02*
X20902025Y-16626149D01*
X20902025Y-16626149D02*
X20911549Y-16645197D01*
X20911549Y-16645197D02*
X20921073Y-16683292D01*
X20921073Y-16683292D02*
X20921073Y-16711863D01*
X20921073Y-16711863D02*
X20911549Y-16749959D01*
X20911549Y-16749959D02*
X20902025Y-16769006D01*
X20902025Y-16769006D02*
X20882977Y-16788054D01*
X20882977Y-16788054D02*
X20854406Y-16797578D01*
X20854406Y-16797578D02*
X20806787Y-16797578D01*
X21006787Y-16797578D02*
X21006787Y-16664244D01*
X21006787Y-16702340D02*
X21016311Y-16683292D01*
X21016311Y-16683292D02*
X21025834Y-16673768D01*
X21025834Y-16673768D02*
X21044882Y-16664244D01*
X21044882Y-16664244D02*
X21063930Y-16664244D01*
X21130596Y-16797578D02*
X21130596Y-16664244D01*
X21130596Y-16597578D02*
X21121073Y-16607102D01*
X21121073Y-16607102D02*
X21130596Y-16616625D01*
X21130596Y-16616625D02*
X21140120Y-16607102D01*
X21140120Y-16607102D02*
X21130596Y-16597578D01*
X21130596Y-16597578D02*
X21130596Y-16616625D01*
X21254406Y-16797578D02*
X21235358Y-16788054D01*
X21235358Y-16788054D02*
X21225834Y-16769006D01*
X21225834Y-16769006D02*
X21225834Y-16597578D01*
X21359168Y-16797578D02*
X21340120Y-16788054D01*
X21340120Y-16788054D02*
X21330596Y-16769006D01*
X21330596Y-16769006D02*
X21330596Y-16597578D01*
X21587739Y-16797578D02*
X21587739Y-16597578D01*
X21587739Y-16597578D02*
X21654406Y-16740435D01*
X21654406Y-16740435D02*
X21721073Y-16597578D01*
X21721073Y-16597578D02*
X21721073Y-16797578D01*
X21902025Y-16797578D02*
X21902025Y-16692816D01*
X21902025Y-16692816D02*
X21892501Y-16673768D01*
X21892501Y-16673768D02*
X21873454Y-16664244D01*
X21873454Y-16664244D02*
X21835358Y-16664244D01*
X21835358Y-16664244D02*
X21816311Y-16673768D01*
X21902025Y-16788054D02*
X21882977Y-16797578D01*
X21882977Y-16797578D02*
X21835358Y-16797578D01*
X21835358Y-16797578D02*
X21816311Y-16788054D01*
X21816311Y-16788054D02*
X21806787Y-16769006D01*
X21806787Y-16769006D02*
X21806787Y-16749959D01*
X21806787Y-16749959D02*
X21816311Y-16730911D01*
X21816311Y-16730911D02*
X21835358Y-16721387D01*
X21835358Y-16721387D02*
X21882977Y-16721387D01*
X21882977Y-16721387D02*
X21902025Y-16711863D01*
X21997263Y-16664244D02*
X21997263Y-16864244D01*
X21997263Y-16673768D02*
X22016311Y-16664244D01*
X22016311Y-16664244D02*
X22054406Y-16664244D01*
X22054406Y-16664244D02*
X22073454Y-16673768D01*
X22073454Y-16673768D02*
X22082977Y-16683292D01*
X22082977Y-16683292D02*
X22092501Y-16702340D01*
X22092501Y-16702340D02*
X22092501Y-16759482D01*
X22092501Y-16759482D02*
X22082977Y-16778530D01*
X22082977Y-16778530D02*
X22073454Y-16788054D01*
X22073454Y-16788054D02*
X22054406Y-16797578D01*
X22054406Y-16797578D02*
X22016311Y-16797578D01*
X22016311Y-16797578D02*
X21997263Y-16788054D01*
X22178215Y-16778530D02*
X22187739Y-16788054D01*
X22187739Y-16788054D02*
X22178215Y-16797578D01*
X22178215Y-16797578D02*
X22168692Y-16788054D01*
X22168692Y-16788054D02*
X22178215Y-16778530D01*
X22178215Y-16778530D02*
X22178215Y-16797578D01*
X22178215Y-16673768D02*
X22187739Y-16683292D01*
X22187739Y-16683292D02*
X22178215Y-16692816D01*
X22178215Y-16692816D02*
X22168692Y-16683292D01*
X22168692Y-16683292D02*
X22178215Y-16673768D01*
X22178215Y-16673768D02*
X22178215Y-16692816D01*
D12*
X20496010Y-17101094D02*
X20546010Y-17151094D01*
X20546010Y-17101094D02*
X20496010Y-17151094D01*
D11*
X20844882Y-17017578D02*
X20863930Y-17017578D01*
X20863930Y-17017578D02*
X20882977Y-17027102D01*
X20882977Y-17027102D02*
X20892501Y-17036625D01*
X20892501Y-17036625D02*
X20902025Y-17055673D01*
X20902025Y-17055673D02*
X20911549Y-17093768D01*
X20911549Y-17093768D02*
X20911549Y-17141387D01*
X20911549Y-17141387D02*
X20902025Y-17179483D01*
X20902025Y-17179483D02*
X20892501Y-17198530D01*
X20892501Y-17198530D02*
X20882977Y-17208054D01*
X20882977Y-17208054D02*
X20863930Y-17217578D01*
X20863930Y-17217578D02*
X20844882Y-17217578D01*
X20844882Y-17217578D02*
X20825834Y-17208054D01*
X20825834Y-17208054D02*
X20816311Y-17198530D01*
X20816311Y-17198530D02*
X20806787Y-17179483D01*
X20806787Y-17179483D02*
X20797263Y-17141387D01*
X20797263Y-17141387D02*
X20797263Y-17093768D01*
X20797263Y-17093768D02*
X20806787Y-17055673D01*
X20806787Y-17055673D02*
X20816311Y-17036625D01*
X20816311Y-17036625D02*
X20825834Y-17027102D01*
X20825834Y-17027102D02*
X20844882Y-17017578D01*
X20997263Y-17198530D02*
X21006787Y-17208054D01*
X21006787Y-17208054D02*
X20997263Y-17217578D01*
X20997263Y-17217578D02*
X20987739Y-17208054D01*
X20987739Y-17208054D02*
X20997263Y-17198530D01*
X20997263Y-17198530D02*
X20997263Y-17217578D01*
X21187739Y-17017578D02*
X21092501Y-17017578D01*
X21092501Y-17017578D02*
X21082977Y-17112816D01*
X21082977Y-17112816D02*
X21092501Y-17103292D01*
X21092501Y-17103292D02*
X21111549Y-17093768D01*
X21111549Y-17093768D02*
X21159168Y-17093768D01*
X21159168Y-17093768D02*
X21178215Y-17103292D01*
X21178215Y-17103292D02*
X21187739Y-17112816D01*
X21187739Y-17112816D02*
X21197263Y-17131864D01*
X21197263Y-17131864D02*
X21197263Y-17179483D01*
X21197263Y-17179483D02*
X21187739Y-17198530D01*
X21187739Y-17198530D02*
X21178215Y-17208054D01*
X21178215Y-17208054D02*
X21159168Y-17217578D01*
X21159168Y-17217578D02*
X21111549Y-17217578D01*
X21111549Y-17217578D02*
X21092501Y-17208054D01*
X21092501Y-17208054D02*
X21082977Y-17198530D01*
X21321073Y-17017578D02*
X21340120Y-17017578D01*
X21340120Y-17017578D02*
X21359168Y-17027102D01*
X21359168Y-17027102D02*
X21368692Y-17036625D01*
X21368692Y-17036625D02*
X21378215Y-17055673D01*
X21378215Y-17055673D02*
X21387739Y-17093768D01*
X21387739Y-17093768D02*
X21387739Y-17141387D01*
X21387739Y-17141387D02*
X21378215Y-17179483D01*
X21378215Y-17179483D02*
X21368692Y-17198530D01*
X21368692Y-17198530D02*
X21359168Y-17208054D01*
X21359168Y-17208054D02*
X21340120Y-17217578D01*
X21340120Y-17217578D02*
X21321073Y-17217578D01*
X21321073Y-17217578D02*
X21302025Y-17208054D01*
X21302025Y-17208054D02*
X21292501Y-17198530D01*
X21292501Y-17198530D02*
X21282977Y-17179483D01*
X21282977Y-17179483D02*
X21273454Y-17141387D01*
X21273454Y-17141387D02*
X21273454Y-17093768D01*
X21273454Y-17093768D02*
X21282977Y-17055673D01*
X21282977Y-17055673D02*
X21292501Y-17036625D01*
X21292501Y-17036625D02*
X21302025Y-17027102D01*
X21302025Y-17027102D02*
X21321073Y-17017578D01*
X21511549Y-17017578D02*
X21530596Y-17017578D01*
X21530596Y-17017578D02*
X21549644Y-17027102D01*
X21549644Y-17027102D02*
X21559168Y-17036625D01*
X21559168Y-17036625D02*
X21568692Y-17055673D01*
X21568692Y-17055673D02*
X21578215Y-17093768D01*
X21578215Y-17093768D02*
X21578215Y-17141387D01*
X21578215Y-17141387D02*
X21568692Y-17179483D01*
X21568692Y-17179483D02*
X21559168Y-17198530D01*
X21559168Y-17198530D02*
X21549644Y-17208054D01*
X21549644Y-17208054D02*
X21530596Y-17217578D01*
X21530596Y-17217578D02*
X21511549Y-17217578D01*
X21511549Y-17217578D02*
X21492501Y-17208054D01*
X21492501Y-17208054D02*
X21482977Y-17198530D01*
X21482977Y-17198530D02*
X21473454Y-17179483D01*
X21473454Y-17179483D02*
X21463930Y-17141387D01*
X21463930Y-17141387D02*
X21463930Y-17093768D01*
X21463930Y-17093768D02*
X21473454Y-17055673D01*
X21473454Y-17055673D02*
X21482977Y-17036625D01*
X21482977Y-17036625D02*
X21492501Y-17027102D01*
X21492501Y-17027102D02*
X21511549Y-17017578D01*
X21663930Y-17217578D02*
X21663930Y-17084244D01*
X21663930Y-17103292D02*
X21673454Y-17093768D01*
X21673454Y-17093768D02*
X21692501Y-17084244D01*
X21692501Y-17084244D02*
X21721073Y-17084244D01*
X21721073Y-17084244D02*
X21740120Y-17093768D01*
X21740120Y-17093768D02*
X21749644Y-17112816D01*
X21749644Y-17112816D02*
X21749644Y-17217578D01*
X21749644Y-17112816D02*
X21759168Y-17093768D01*
X21759168Y-17093768D02*
X21778215Y-17084244D01*
X21778215Y-17084244D02*
X21806787Y-17084244D01*
X21806787Y-17084244D02*
X21825835Y-17093768D01*
X21825835Y-17093768D02*
X21835358Y-17112816D01*
X21835358Y-17112816D02*
X21835358Y-17217578D01*
X21930596Y-17217578D02*
X21930596Y-17084244D01*
X21930596Y-17103292D02*
X21940120Y-17093768D01*
X21940120Y-17093768D02*
X21959168Y-17084244D01*
X21959168Y-17084244D02*
X21987739Y-17084244D01*
X21987739Y-17084244D02*
X22006787Y-17093768D01*
X22006787Y-17093768D02*
X22016311Y-17112816D01*
X22016311Y-17112816D02*
X22016311Y-17217578D01*
X22016311Y-17112816D02*
X22025835Y-17093768D01*
X22025835Y-17093768D02*
X22044882Y-17084244D01*
X22044882Y-17084244D02*
X22073454Y-17084244D01*
X22073454Y-17084244D02*
X22092501Y-17093768D01*
X22092501Y-17093768D02*
X22102025Y-17112816D01*
X22102025Y-17112816D02*
X22102025Y-17217578D01*
X22492501Y-17008054D02*
X22321073Y-17265197D01*
X22749644Y-17017578D02*
X22768692Y-17017578D01*
X22768692Y-17017578D02*
X22787739Y-17027102D01*
X22787739Y-17027102D02*
X22797263Y-17036625D01*
X22797263Y-17036625D02*
X22806787Y-17055673D01*
X22806787Y-17055673D02*
X22816311Y-17093768D01*
X22816311Y-17093768D02*
X22816311Y-17141387D01*
X22816311Y-17141387D02*
X22806787Y-17179483D01*
X22806787Y-17179483D02*
X22797263Y-17198530D01*
X22797263Y-17198530D02*
X22787739Y-17208054D01*
X22787739Y-17208054D02*
X22768692Y-17217578D01*
X22768692Y-17217578D02*
X22749644Y-17217578D01*
X22749644Y-17217578D02*
X22730596Y-17208054D01*
X22730596Y-17208054D02*
X22721073Y-17198530D01*
X22721073Y-17198530D02*
X22711549Y-17179483D01*
X22711549Y-17179483D02*
X22702025Y-17141387D01*
X22702025Y-17141387D02*
X22702025Y-17093768D01*
X22702025Y-17093768D02*
X22711549Y-17055673D01*
X22711549Y-17055673D02*
X22721073Y-17036625D01*
X22721073Y-17036625D02*
X22730596Y-17027102D01*
X22730596Y-17027102D02*
X22749644Y-17017578D01*
X22902025Y-17198530D02*
X22911549Y-17208054D01*
X22911549Y-17208054D02*
X22902025Y-17217578D01*
X22902025Y-17217578D02*
X22892501Y-17208054D01*
X22892501Y-17208054D02*
X22902025Y-17198530D01*
X22902025Y-17198530D02*
X22902025Y-17217578D01*
X23035358Y-17017578D02*
X23054406Y-17017578D01*
X23054406Y-17017578D02*
X23073454Y-17027102D01*
X23073454Y-17027102D02*
X23082977Y-17036625D01*
X23082977Y-17036625D02*
X23092501Y-17055673D01*
X23092501Y-17055673D02*
X23102025Y-17093768D01*
X23102025Y-17093768D02*
X23102025Y-17141387D01*
X23102025Y-17141387D02*
X23092501Y-17179483D01*
X23092501Y-17179483D02*
X23082977Y-17198530D01*
X23082977Y-17198530D02*
X23073454Y-17208054D01*
X23073454Y-17208054D02*
X23054406Y-17217578D01*
X23054406Y-17217578D02*
X23035358Y-17217578D01*
X23035358Y-17217578D02*
X23016311Y-17208054D01*
X23016311Y-17208054D02*
X23006787Y-17198530D01*
X23006787Y-17198530D02*
X22997263Y-17179483D01*
X22997263Y-17179483D02*
X22987739Y-17141387D01*
X22987739Y-17141387D02*
X22987739Y-17093768D01*
X22987739Y-17093768D02*
X22997263Y-17055673D01*
X22997263Y-17055673D02*
X23006787Y-17036625D01*
X23006787Y-17036625D02*
X23016311Y-17027102D01*
X23016311Y-17027102D02*
X23035358Y-17017578D01*
X23292501Y-17217578D02*
X23178216Y-17217578D01*
X23235358Y-17217578D02*
X23235358Y-17017578D01*
X23235358Y-17017578D02*
X23216311Y-17046149D01*
X23216311Y-17046149D02*
X23197263Y-17065197D01*
X23197263Y-17065197D02*
X23178216Y-17074721D01*
X23387739Y-17217578D02*
X23425835Y-17217578D01*
X23425835Y-17217578D02*
X23444882Y-17208054D01*
X23444882Y-17208054D02*
X23454406Y-17198530D01*
X23454406Y-17198530D02*
X23473454Y-17169959D01*
X23473454Y-17169959D02*
X23482977Y-17131864D01*
X23482977Y-17131864D02*
X23482977Y-17055673D01*
X23482977Y-17055673D02*
X23473454Y-17036625D01*
X23473454Y-17036625D02*
X23463930Y-17027102D01*
X23463930Y-17027102D02*
X23444882Y-17017578D01*
X23444882Y-17017578D02*
X23406787Y-17017578D01*
X23406787Y-17017578D02*
X23387739Y-17027102D01*
X23387739Y-17027102D02*
X23378216Y-17036625D01*
X23378216Y-17036625D02*
X23368692Y-17055673D01*
X23368692Y-17055673D02*
X23368692Y-17103292D01*
X23368692Y-17103292D02*
X23378216Y-17122340D01*
X23378216Y-17122340D02*
X23387739Y-17131864D01*
X23387739Y-17131864D02*
X23406787Y-17141387D01*
X23406787Y-17141387D02*
X23444882Y-17141387D01*
X23444882Y-17141387D02*
X23463930Y-17131864D01*
X23463930Y-17131864D02*
X23473454Y-17122340D01*
X23473454Y-17122340D02*
X23482977Y-17103292D01*
X23549644Y-17017578D02*
X23682977Y-17017578D01*
X23682977Y-17017578D02*
X23597263Y-17217578D01*
X23749644Y-17017578D02*
X23749644Y-17055673D01*
X23825835Y-17017578D02*
X23825835Y-17055673D01*
X24121073Y-17293768D02*
X24111549Y-17284244D01*
X24111549Y-17284244D02*
X24092501Y-17255673D01*
X24092501Y-17255673D02*
X24082978Y-17236625D01*
X24082978Y-17236625D02*
X24073454Y-17208054D01*
X24073454Y-17208054D02*
X24063930Y-17160435D01*
X24063930Y-17160435D02*
X24063930Y-17122340D01*
X24063930Y-17122340D02*
X24073454Y-17074721D01*
X24073454Y-17074721D02*
X24082978Y-17046149D01*
X24082978Y-17046149D02*
X24092501Y-17027102D01*
X24092501Y-17027102D02*
X24111549Y-16998530D01*
X24111549Y-16998530D02*
X24121073Y-16989006D01*
X24187739Y-17036625D02*
X24197263Y-17027102D01*
X24197263Y-17027102D02*
X24216311Y-17017578D01*
X24216311Y-17017578D02*
X24263930Y-17017578D01*
X24263930Y-17017578D02*
X24282978Y-17027102D01*
X24282978Y-17027102D02*
X24292501Y-17036625D01*
X24292501Y-17036625D02*
X24302025Y-17055673D01*
X24302025Y-17055673D02*
X24302025Y-17074721D01*
X24302025Y-17074721D02*
X24292501Y-17103292D01*
X24292501Y-17103292D02*
X24178216Y-17217578D01*
X24178216Y-17217578D02*
X24302025Y-17217578D01*
X24540120Y-17217578D02*
X24540120Y-17017578D01*
X24625835Y-17217578D02*
X24625835Y-17112816D01*
X24625835Y-17112816D02*
X24616311Y-17093768D01*
X24616311Y-17093768D02*
X24597263Y-17084244D01*
X24597263Y-17084244D02*
X24568692Y-17084244D01*
X24568692Y-17084244D02*
X24549644Y-17093768D01*
X24549644Y-17093768D02*
X24540120Y-17103292D01*
X24749644Y-17217578D02*
X24730597Y-17208054D01*
X24730597Y-17208054D02*
X24721073Y-17198530D01*
X24721073Y-17198530D02*
X24711549Y-17179483D01*
X24711549Y-17179483D02*
X24711549Y-17122340D01*
X24711549Y-17122340D02*
X24721073Y-17103292D01*
X24721073Y-17103292D02*
X24730597Y-17093768D01*
X24730597Y-17093768D02*
X24749644Y-17084244D01*
X24749644Y-17084244D02*
X24778216Y-17084244D01*
X24778216Y-17084244D02*
X24797263Y-17093768D01*
X24797263Y-17093768D02*
X24806787Y-17103292D01*
X24806787Y-17103292D02*
X24816311Y-17122340D01*
X24816311Y-17122340D02*
X24816311Y-17179483D01*
X24816311Y-17179483D02*
X24806787Y-17198530D01*
X24806787Y-17198530D02*
X24797263Y-17208054D01*
X24797263Y-17208054D02*
X24778216Y-17217578D01*
X24778216Y-17217578D02*
X24749644Y-17217578D01*
X24930597Y-17217578D02*
X24911549Y-17208054D01*
X24911549Y-17208054D02*
X24902025Y-17189006D01*
X24902025Y-17189006D02*
X24902025Y-17017578D01*
X25082978Y-17208054D02*
X25063930Y-17217578D01*
X25063930Y-17217578D02*
X25025835Y-17217578D01*
X25025835Y-17217578D02*
X25006787Y-17208054D01*
X25006787Y-17208054D02*
X24997263Y-17189006D01*
X24997263Y-17189006D02*
X24997263Y-17112816D01*
X24997263Y-17112816D02*
X25006787Y-17093768D01*
X25006787Y-17093768D02*
X25025835Y-17084244D01*
X25025835Y-17084244D02*
X25063930Y-17084244D01*
X25063930Y-17084244D02*
X25082978Y-17093768D01*
X25082978Y-17093768D02*
X25092501Y-17112816D01*
X25092501Y-17112816D02*
X25092501Y-17131864D01*
X25092501Y-17131864D02*
X24997263Y-17150911D01*
X25168692Y-17208054D02*
X25187740Y-17217578D01*
X25187740Y-17217578D02*
X25225835Y-17217578D01*
X25225835Y-17217578D02*
X25244882Y-17208054D01*
X25244882Y-17208054D02*
X25254406Y-17189006D01*
X25254406Y-17189006D02*
X25254406Y-17179483D01*
X25254406Y-17179483D02*
X25244882Y-17160435D01*
X25244882Y-17160435D02*
X25225835Y-17150911D01*
X25225835Y-17150911D02*
X25197263Y-17150911D01*
X25197263Y-17150911D02*
X25178216Y-17141387D01*
X25178216Y-17141387D02*
X25168692Y-17122340D01*
X25168692Y-17122340D02*
X25168692Y-17112816D01*
X25168692Y-17112816D02*
X25178216Y-17093768D01*
X25178216Y-17093768D02*
X25197263Y-17084244D01*
X25197263Y-17084244D02*
X25225835Y-17084244D01*
X25225835Y-17084244D02*
X25244882Y-17093768D01*
X25321073Y-17293768D02*
X25330597Y-17284244D01*
X25330597Y-17284244D02*
X25349644Y-17255673D01*
X25349644Y-17255673D02*
X25359168Y-17236625D01*
X25359168Y-17236625D02*
X25368692Y-17208054D01*
X25368692Y-17208054D02*
X25378216Y-17160435D01*
X25378216Y-17160435D02*
X25378216Y-17122340D01*
X25378216Y-17122340D02*
X25368692Y-17074721D01*
X25368692Y-17074721D02*
X25359168Y-17046149D01*
X25359168Y-17046149D02*
X25349644Y-17027102D01*
X25349644Y-17027102D02*
X25330597Y-16998530D01*
X25330597Y-16998530D02*
X25321073Y-16989006D01*
X25682978Y-17293768D02*
X25673454Y-17284244D01*
X25673454Y-17284244D02*
X25654406Y-17255673D01*
X25654406Y-17255673D02*
X25644882Y-17236625D01*
X25644882Y-17236625D02*
X25635359Y-17208054D01*
X25635359Y-17208054D02*
X25625835Y-17160435D01*
X25625835Y-17160435D02*
X25625835Y-17122340D01*
X25625835Y-17122340D02*
X25635359Y-17074721D01*
X25635359Y-17074721D02*
X25644882Y-17046149D01*
X25644882Y-17046149D02*
X25654406Y-17027102D01*
X25654406Y-17027102D02*
X25673454Y-16998530D01*
X25673454Y-16998530D02*
X25682978Y-16989006D01*
X25759168Y-17084244D02*
X25759168Y-17217578D01*
X25759168Y-17103292D02*
X25768692Y-17093768D01*
X25768692Y-17093768D02*
X25787740Y-17084244D01*
X25787740Y-17084244D02*
X25816311Y-17084244D01*
X25816311Y-17084244D02*
X25835359Y-17093768D01*
X25835359Y-17093768D02*
X25844882Y-17112816D01*
X25844882Y-17112816D02*
X25844882Y-17217578D01*
X25968692Y-17217578D02*
X25949644Y-17208054D01*
X25949644Y-17208054D02*
X25940121Y-17198530D01*
X25940121Y-17198530D02*
X25930597Y-17179483D01*
X25930597Y-17179483D02*
X25930597Y-17122340D01*
X25930597Y-17122340D02*
X25940121Y-17103292D01*
X25940121Y-17103292D02*
X25949644Y-17093768D01*
X25949644Y-17093768D02*
X25968692Y-17084244D01*
X25968692Y-17084244D02*
X25997263Y-17084244D01*
X25997263Y-17084244D02*
X26016311Y-17093768D01*
X26016311Y-17093768D02*
X26025835Y-17103292D01*
X26025835Y-17103292D02*
X26035359Y-17122340D01*
X26035359Y-17122340D02*
X26035359Y-17179483D01*
X26035359Y-17179483D02*
X26025835Y-17198530D01*
X26025835Y-17198530D02*
X26016311Y-17208054D01*
X26016311Y-17208054D02*
X25997263Y-17217578D01*
X25997263Y-17217578D02*
X25968692Y-17217578D01*
X26092502Y-17084244D02*
X26168692Y-17084244D01*
X26121073Y-17017578D02*
X26121073Y-17189006D01*
X26121073Y-17189006D02*
X26130597Y-17208054D01*
X26130597Y-17208054D02*
X26149644Y-17217578D01*
X26149644Y-17217578D02*
X26168692Y-17217578D01*
X26387740Y-17084244D02*
X26387740Y-17284244D01*
X26387740Y-17093768D02*
X26406787Y-17084244D01*
X26406787Y-17084244D02*
X26444883Y-17084244D01*
X26444883Y-17084244D02*
X26463930Y-17093768D01*
X26463930Y-17093768D02*
X26473454Y-17103292D01*
X26473454Y-17103292D02*
X26482978Y-17122340D01*
X26482978Y-17122340D02*
X26482978Y-17179483D01*
X26482978Y-17179483D02*
X26473454Y-17198530D01*
X26473454Y-17198530D02*
X26463930Y-17208054D01*
X26463930Y-17208054D02*
X26444883Y-17217578D01*
X26444883Y-17217578D02*
X26406787Y-17217578D01*
X26406787Y-17217578D02*
X26387740Y-17208054D01*
X26597263Y-17217578D02*
X26578216Y-17208054D01*
X26578216Y-17208054D02*
X26568692Y-17189006D01*
X26568692Y-17189006D02*
X26568692Y-17017578D01*
X26759168Y-17217578D02*
X26759168Y-17112816D01*
X26759168Y-17112816D02*
X26749644Y-17093768D01*
X26749644Y-17093768D02*
X26730597Y-17084244D01*
X26730597Y-17084244D02*
X26692502Y-17084244D01*
X26692502Y-17084244D02*
X26673454Y-17093768D01*
X26759168Y-17208054D02*
X26740121Y-17217578D01*
X26740121Y-17217578D02*
X26692502Y-17217578D01*
X26692502Y-17217578D02*
X26673454Y-17208054D01*
X26673454Y-17208054D02*
X26663930Y-17189006D01*
X26663930Y-17189006D02*
X26663930Y-17169959D01*
X26663930Y-17169959D02*
X26673454Y-17150911D01*
X26673454Y-17150911D02*
X26692502Y-17141387D01*
X26692502Y-17141387D02*
X26740121Y-17141387D01*
X26740121Y-17141387D02*
X26759168Y-17131864D01*
X26825835Y-17084244D02*
X26902025Y-17084244D01*
X26854406Y-17017578D02*
X26854406Y-17189006D01*
X26854406Y-17189006D02*
X26863930Y-17208054D01*
X26863930Y-17208054D02*
X26882978Y-17217578D01*
X26882978Y-17217578D02*
X26902025Y-17217578D01*
X27044883Y-17208054D02*
X27025835Y-17217578D01*
X27025835Y-17217578D02*
X26987740Y-17217578D01*
X26987740Y-17217578D02*
X26968692Y-17208054D01*
X26968692Y-17208054D02*
X26959168Y-17189006D01*
X26959168Y-17189006D02*
X26959168Y-17112816D01*
X26959168Y-17112816D02*
X26968692Y-17093768D01*
X26968692Y-17093768D02*
X26987740Y-17084244D01*
X26987740Y-17084244D02*
X27025835Y-17084244D01*
X27025835Y-17084244D02*
X27044883Y-17093768D01*
X27044883Y-17093768D02*
X27054406Y-17112816D01*
X27054406Y-17112816D02*
X27054406Y-17131864D01*
X27054406Y-17131864D02*
X26959168Y-17150911D01*
X27225835Y-17217578D02*
X27225835Y-17017578D01*
X27225835Y-17208054D02*
X27206787Y-17217578D01*
X27206787Y-17217578D02*
X27168692Y-17217578D01*
X27168692Y-17217578D02*
X27149644Y-17208054D01*
X27149644Y-17208054D02*
X27140121Y-17198530D01*
X27140121Y-17198530D02*
X27130597Y-17179483D01*
X27130597Y-17179483D02*
X27130597Y-17122340D01*
X27130597Y-17122340D02*
X27140121Y-17103292D01*
X27140121Y-17103292D02*
X27149644Y-17093768D01*
X27149644Y-17093768D02*
X27168692Y-17084244D01*
X27168692Y-17084244D02*
X27206787Y-17084244D01*
X27206787Y-17084244D02*
X27225835Y-17093768D01*
X27302025Y-17293768D02*
X27311549Y-17284244D01*
X27311549Y-17284244D02*
X27330597Y-17255673D01*
X27330597Y-17255673D02*
X27340121Y-17236625D01*
X27340121Y-17236625D02*
X27349644Y-17208054D01*
X27349644Y-17208054D02*
X27359168Y-17160435D01*
X27359168Y-17160435D02*
X27359168Y-17122340D01*
X27359168Y-17122340D02*
X27349644Y-17074721D01*
X27349644Y-17074721D02*
X27340121Y-17046149D01*
X27340121Y-17046149D02*
X27330597Y-17027102D01*
X27330597Y-17027102D02*
X27311549Y-16998530D01*
X27311549Y-16998530D02*
X27302025Y-16989006D01*
M02*
