M48
; DRILL file {KiCad 7.0.6} date Sun Mar 31 21:54:26 2024
; FORMAT={-:-/ absolute / inch / decimal}
; #@! TF.CreationDate,2024-03-31T21:54:26-07:00
; #@! TF.GenerationSoftware,Kicad,Pcbnew,7.0.6
; #@! TF.FileFunction,Plated,1,4,PTH
FMAT,2
INCH
; #@! TA.AperFunction,Plated,PTH,ViaDrill
T1C0.0138
; #@! TA.AperFunction,Plated,PTH,ViaDrill
T2C0.0157
; #@! TA.AperFunction,Plated,PTH,ViaDrill
T3C0.0197
; #@! TA.AperFunction,Plated,PTH,ComponentDrill
T4C0.0394
; #@! TA.AperFunction,Plated,PTH,ViaDrill
T5C0.0492
; #@! TA.AperFunction,Plated,PTH,ComponentDrill
T6C0.0492
; #@! TA.AperFunction,Plated,PTH,ComponentDrill
T7C0.0591
%
G90
G05
T1
X8.43Y-5.67
X8.456Y-4.448
X8.504Y-4.46
X8.516Y-5.166
X8.54Y-4.475
X8.582Y-5.496
X8.604Y-5.621
X8.709Y-4.427
X8.916Y-5.399
X8.956Y-5.469
X9.034Y-5.559
X9.055Y-4.596
X9.061Y-4.633
X9.061Y-4.741
X9.07Y-5.558
X9.095Y-4.925
X9.122Y-4.898
X9.143Y-4.877
X9.1925Y-6.0345
X9.311Y-4.533
X9.312Y-5.458
X9.312Y-5.524
X9.35Y-5.994
X9.368Y-4.394
X9.416Y-5.718
X9.425Y-5.808
X9.426Y-4.355
X9.4395Y-5.656
X9.457Y-4.708
X9.463Y-5.688
X9.475Y-5.6255
X9.476Y-4.737
X9.477Y-4.774
X9.482Y-4.81
X9.53Y-5.767
X9.548Y-4.468
X9.5508Y-4.5058
X9.551Y-4.433
X9.5593Y-4.5785
X9.577Y-4.407
X9.58Y-4.806
X9.59Y-4.997
X9.615Y-6.007
X9.617Y-5.142
X9.621Y-4.803
X9.645Y-5.579
X9.653Y-5.224
X9.667Y-4.579
X9.697Y-5.551
X9.706Y-5.737
X9.713Y-4.51
X9.73Y-4.914
X9.73Y-5.226
X9.755Y-4.461
X9.756Y-6.023
X9.774Y-5.013
X9.775Y-5.143
X9.777Y-5.265
X9.777Y-5.986
X9.79Y-4.465
X9.806Y-4.373
X9.807Y-4.603
X9.8239Y-4.4707
X9.8486Y-4.3649
X9.852Y-4.582
X9.8565Y-4.4603
X9.8665Y-4.7495
X9.871Y-5.817
X9.877Y-5.371
X9.884Y-5.775
X9.904Y-4.346
X9.905Y-5.394
X9.919Y-5.261
X10.068Y-4.644
X10.07Y-4.545
X10.085Y-4.587
X10.088Y-4.477
X10.092Y-5.282
X10.135Y-5.316
X10.24Y-4.76
X10.408Y-4.87
X10.561Y-5.198
X10.617Y-4.714
X10.619Y-5.148
X10.651Y-4.716
T2
X8.26Y-4.087
X8.375Y-2.527
X8.398Y-4.909
X8.405Y-5.264
X8.43Y-5.074
X8.507Y-5.101
X8.647Y-5.182
X8.648Y-4.84
X8.648Y-4.889
X8.697Y-5.114
X8.751Y-4.678
X8.77Y-5.118
X8.772Y-4.797
X8.777Y-4.339
X8.785Y-4.462
X8.813Y-4.361
X8.85Y-4.391
X8.889Y-4.569
X9.021Y-4.551
X9.183Y-4.463
X9.186Y-4.406
X9.215Y-4.492
X9.328Y-4.391
X9.411Y-6.018
X9.883Y-4.896
X9.915Y-4.754
T3
X8.697Y-2.474
X8.699Y-2.704
X8.699Y-2.845
X8.699Y-2.986
X8.699Y-3.127
X8.982Y-5.74
X9.027Y-5.74
X9.067Y-5.74
X9.182Y-5.36
X9.182Y-5.398
X9.343Y-4.786
X9.363Y-4.818
X9.388Y-4.786
X10.751Y-4.988
X10.752Y-5.024
X10.975Y-4.999
X10.976Y-5.14
X11.116Y-4.999
X11.116Y-5.141
T5
X8.2535Y-4.7803
X8.3497Y-4.5951
X8.4357Y-5.1552
X8.7208Y-4.8632
X9.2709Y-5.7496
X9.8125Y-5.5871
X9.9746Y-4.8907
X10.4617Y-4.7523
T6
X8.2209Y-6.0839
X8.2209Y-6.1823
X8.2209Y-6.2807
X8.902Y-6.0839
X8.902Y-6.1823
X8.902Y-6.2807
X8.902Y-6.3792
T4
G00X8.1753Y-2.66
M15
G01X8.2067Y-2.66
M16
G05
T7
G00X8.5517Y-4.2105
M15
G01X8.5517Y-4.1475
M16
G05
T0
M30
