M48
; DRILL file {KiCad 7.0.6} date Thu Apr  4 16:43:00 2024
; FORMAT={-:-/ absolute / inch / decimal}
; #@! TF.CreationDate,2024-04-04T16:43:00-07:00
; #@! TF.GenerationSoftware,Kicad,Pcbnew,7.0.6
; #@! TF.FileFunction,Plated,1,2,PTH
FMAT,2
INCH
; #@! TA.AperFunction,Plated,PTH,ViaDrill
T1C0.0118
; #@! TA.AperFunction,Plated,PTH,ViaDrill
T2C0.0138
; #@! TA.AperFunction,Plated,PTH,ViaDrill
T3C0.0157
; #@! TA.AperFunction,Plated,PTH,ViaDrill
T4C0.0197
; #@! TA.AperFunction,Plated,PTH,ComponentDrill
T5C0.0394
; #@! TA.AperFunction,Plated,PTH,ViaDrill
T6C0.0492
; #@! TA.AperFunction,Plated,PTH,ComponentDrill
T7C0.0492
; #@! TA.AperFunction,Plated,PTH,ComponentDrill
T8C0.0591
%
G90
G05
T1
X8.26Y-4.087
X8.4488Y-5.0692
X8.5011Y-4.9253
X8.6508Y-4.9654
X8.7467Y-5.0653
X8.7476Y-4.9561
X8.8719Y-4.5704
X8.8856Y-4.42
X9.1416Y-4.7589
X9.2224Y-4.5252
X9.3791Y-4.9724
X9.6226Y-6.0146
X9.664Y-5.0784
X9.753Y-6.0046
X9.7819Y-5.0726
X10.0056Y-5.3623
X10.1311Y-5.3867
X10.3Y-4.7484
X10.3512Y-4.7453
X10.6258Y-5.3117
X10.8067Y-5.0224
X10.8075Y-5.0642
T2
X8.3134Y-4.3547
X8.3146Y-4.4492
X8.3386Y-4.2469
X8.3457Y-4.8079
X8.3508Y-4.7228
X8.3512Y-4.4315
X8.3571Y-4.3189
X8.3811Y-4.3512
X8.387Y-4.4252
X8.4075Y-4.5331
X8.4264Y-4.6709
X8.4382Y-4.7469
X8.4449Y-4.8213
X8.4457Y-3.9606
X8.45Y-4.4839
X8.4933Y-4.8433
X8.5906Y-3.9319
X8.5921Y-3.8724
X8.6488Y-4.8496
X8.6764Y-3.9913
X8.6843Y-4.5106
X8.6953Y-3.9417
X8.7031Y-4.4055
X8.7106Y-4.487
X8.7374Y-4.7354
X8.7402Y-5.5791
X8.7854Y-4.7024
X8.8177Y-4.8618
X8.8437Y-4.3909
X8.8681Y-4.75
X8.9437Y-4.7642
X8.9516Y-4.6441
X8.9709Y-4.7413
X8.9929Y-4.6461
X9.1289Y-5.8474
X9.1787Y-4.561
X9.2016Y-4.411
X9.2823Y-4.4087
X9.2834Y-5.8443
X9.3118Y-4.4252
X9.312Y-6.0536
X9.312Y-5.458
X9.312Y-5.524
X9.335Y-5.2343
X9.3571Y-5.2618
X9.3604Y-5.9253
X9.4087Y-5.4323
X9.4358Y-5.4122
X9.4656Y-5.2608
X9.4717Y-5.6748
X9.4724Y-4.6016
X9.499Y-5.2569
X9.5024Y-5.9898
X9.5315Y-5.2667
X9.5443Y-5.4163
X9.5541Y-5.7608
X9.5563Y-4.5816
X9.565Y-5.2766
X9.5787Y-5.7844
X9.6185Y-4.7496
X9.6476Y-5.5778
X9.6476Y-5.7185
X9.6669Y-4.6512
X9.676Y-5.2972
X9.6929Y-5.7453
X9.7096Y-4.8228
X9.713Y-4.51
X9.7185Y-4.4644
X9.728Y-5.2969
X9.7452Y-4.3658
X9.7503Y-5.1883
X9.7583Y-5.6406
X9.7785Y-4.8848
X9.7862Y-4.3591
X9.7884Y-4.9675
X9.7917Y-5.9811
X9.807Y-4.603
X9.8157Y-4.9319
X9.8248Y-5.8331
X9.8299Y-5.7902
X9.8323Y-5.0051
X9.8496Y-5.1449
X9.8563Y-4.3445
X9.8579Y-4.7425
X9.8691Y-5.3829
X9.8862Y-4.8154
X9.8969Y-4.9213
X9.8986Y-4.3445
X9.9051Y-5.6909
X9.9161Y-5.5409
X9.9193Y-5.3957
X9.9465Y-5.7331
X9.948Y-5.9244
X9.9551Y-5.8902
X9.9567Y-5.4232
X9.9622Y-4.7437
X9.9626Y-4.3809
X10.0291Y-4.7957
X10.0299Y-4.3618
X10.0307Y-4.5551
X10.0331Y-4.9535
X10.0354Y-4.6978
X10.0606Y-4.4492
X10.1114Y-4.4453
X10.2035Y-4.8433
X10.2425Y-4.7488
X10.2669Y-4.9594
X10.272Y-4.9976
X10.2898Y-5.037
X10.2921Y-4.8004
X10.3465Y-4.8376
X10.3866Y-4.7094
X10.4055Y-4.5992
X10.4843Y-5.2372
X10.5728Y-4.7098
X10.5866Y-4.4697
X10.615Y-4.4984
X10.624Y-4.7411
X10.6449Y-4.474
X10.651Y-4.716
X10.672Y-5.034
X10.6831Y-4.4961
X10.6894Y-4.7244
X10.7146Y-4.8972
X10.7213Y-4.8311
X10.7496Y-4.7126
X10.7831Y-4.7445
X10.8043Y-4.785
T3
X8.4949Y-5.0933
X8.6166Y-4.934
X8.7737Y-4.4056
X8.9177Y-4.4453
T4
X8.4091Y-2.5425
X8.4185Y-2.5028
X8.4516Y-2.5366
X8.4925Y-2.6465
X8.5165Y-5.1339
X8.527Y-5.1845
X8.5287Y-2.6185
X8.5327Y-2.6602
X8.5799Y-5.0134
X8.6559Y-5.0378
X8.697Y-2.474
X8.699Y-2.704
X8.699Y-2.845
X8.699Y-2.986
X8.699Y-3.127
X8.7366Y-5.1504
X8.7933Y-4.4748
X8.9618Y-4.5638
X9.002Y-5.9567
X9.0516Y-4.6075
X9.085Y-4.7594
X9.124Y-4.9409
X9.124Y-4.9882
X9.1323Y-6.0024
X9.182Y-5.36
X9.182Y-5.398
X9.1906Y-4.6193
X9.2315Y-4.3579
X9.2533Y-4.7918
X9.2542Y-4.928
X9.2543Y-4.8543
X9.3354Y-4.6843
X9.3425Y-5.9854
X9.4094Y-5.3544
X9.5232Y-4.7398
X10.7244Y-5.0
X10.7254Y-5.036
X10.8107Y-4.9796
X10.975Y-4.999
X10.976Y-5.14
X11.116Y-4.999
X11.116Y-5.141
T6
X8.2535Y-4.7803
X8.3497Y-4.5951
X8.4357Y-5.1552
X8.7208Y-4.8632
X9.2709Y-5.7496
X9.8125Y-5.5871
X9.9746Y-4.8907
X10.4617Y-4.7523
T7
X8.2209Y-6.0839
X8.2209Y-6.1823
X8.2209Y-6.2807
X8.902Y-6.0839
X8.902Y-6.1823
X8.902Y-6.2807
X8.902Y-6.3792
T5
G00X8.1753Y-2.66
M15
G01X8.2067Y-2.66
M16
G05
T8
G00X8.5517Y-4.2105
M15
G01X8.5517Y-4.1475
M16
G05
T0
M30
