%TF.GenerationSoftware,KiCad,Pcbnew,7.0.6*%
%TF.CreationDate,2024-04-02T17:57:09-07:00*%
%TF.ProjectId,retroglowplus_gbc,72657472-6f67-46c6-9f77-706c75735f67,rev?*%
%TF.SameCoordinates,Original*%
%TF.FileFunction,Soldermask,Top*%
%TF.FilePolarity,Negative*%
%FSLAX46Y46*%
G04 Gerber Fmt 4.6, Leading zero omitted, Abs format (unit mm)*
G04 Created by KiCad (PCBNEW 7.0.6) date 2024-04-02 17:57:09*
%MOMM*%
%LPD*%
G01*
G04 APERTURE LIST*
G04 Aperture macros list*
%AMRoundRect*
0 Rectangle with rounded corners*
0 $1 Rounding radius*
0 $2 $3 $4 $5 $6 $7 $8 $9 X,Y pos of 4 corners*
0 Add a 4 corners polygon primitive as box body*
4,1,4,$2,$3,$4,$5,$6,$7,$8,$9,$2,$3,0*
0 Add four circle primitives for the rounded corners*
1,1,$1+$1,$2,$3*
1,1,$1+$1,$4,$5*
1,1,$1+$1,$6,$7*
1,1,$1+$1,$8,$9*
0 Add four rect primitives between the rounded corners*
20,1,$1+$1,$2,$3,$4,$5,0*
20,1,$1+$1,$4,$5,$6,$7,0*
20,1,$1+$1,$6,$7,$8,$9,0*
20,1,$1+$1,$8,$9,$2,$3,0*%
%AMFreePoly0*
4,1,33,0.458779,1.080902,0.470711,1.070711,0.941422,0.600000,2.600000,0.600000,2.658779,0.580902,2.695106,0.530902,2.700000,0.500000,2.700000,-0.500000,2.680902,-0.558779,2.630902,-0.595106,2.600000,-0.600000,0.941422,-0.600000,0.470711,-1.070711,0.415643,-1.098769,0.400000,-1.100000,-0.400000,-1.100000,-0.458779,-1.080902,-0.470711,-1.070711,-0.941422,-0.600000,-2.600000,-0.600000,
-2.658779,-0.580902,-2.695106,-0.530902,-2.700000,-0.500000,-2.700000,0.500000,-2.680902,0.558779,-2.630902,0.595106,-2.600000,0.600000,-0.941422,0.600000,-0.470711,1.070711,-0.415643,1.098769,-0.400000,1.100000,0.400000,1.100000,0.458779,1.080902,0.458779,1.080902,$1*%
G04 Aperture macros list end*
%ADD10C,1.022946*%
%ADD11C,0.200000*%
%ADD12C,0.300000*%
%ADD13C,0.100000*%
%ADD14C,3.150000*%
%ADD15C,2.956253*%
%ADD16C,0.010000*%
%ADD17C,0.025000*%
%ADD18RoundRect,0.240000X-0.170000X0.140000X-0.170000X-0.140000X0.170000X-0.140000X0.170000X0.140000X0*%
%ADD19O,3.700000X1.750000*%
%ADD20RoundRect,0.240000X0.140000X0.170000X-0.140000X0.170000X-0.140000X-0.170000X0.140000X-0.170000X0*%
%ADD21RoundRect,0.200000X0.130000X0.100000X-0.130000X0.100000X-0.130000X-0.100000X0.130000X-0.100000X0*%
%ADD22RoundRect,0.200000X-0.130000X-0.100000X0.130000X-0.100000X0.130000X0.100000X-0.130000X0.100000X0*%
%ADD23RoundRect,0.240000X-0.140000X-0.170000X0.140000X-0.170000X0.140000X0.170000X-0.140000X0.170000X0*%
%ADD24RoundRect,0.100000X0.325000X0.200000X-0.325000X0.200000X-0.325000X-0.200000X0.325000X-0.200000X0*%
%ADD25RoundRect,0.100000X-1.250000X1.250000X-1.250000X-1.250000X1.250000X-1.250000X1.250000X1.250000X0*%
%ADD26RoundRect,0.100000X-0.650000X-0.300000X0.650000X-0.300000X0.650000X0.300000X-0.650000X0.300000X0*%
%ADD27RoundRect,0.100000X-1.150000X-1.600000X1.150000X-1.600000X1.150000X1.600000X-1.150000X1.600000X0*%
%ADD28C,0.700000*%
%ADD29RoundRect,0.102000X0.200000X0.925000X-0.200000X0.925000X-0.200000X-0.925000X0.200000X-0.925000X0*%
%ADD30RoundRect,0.102000X0.812500X0.450000X-0.812500X0.450000X-0.812500X-0.450000X0.812500X-0.450000X0*%
%ADD31RoundRect,0.102000X0.845000X0.650000X-0.845000X0.650000X-0.845000X-0.650000X0.845000X-0.650000X0*%
%ADD32RoundRect,0.200000X0.100000X-0.130000X0.100000X0.130000X-0.100000X0.130000X-0.100000X-0.130000X0*%
%ADD33O,3.200000X2.200000*%
%ADD34RoundRect,0.100000X-1.250000X-1.250000X1.250000X-1.250000X1.250000X1.250000X-1.250000X1.250000X0*%
%ADD35RoundRect,0.350000X-0.275000X-0.700000X0.275000X-0.700000X0.275000X0.700000X-0.275000X0.700000X0*%
%ADD36RoundRect,0.200000X-0.100000X0.130000X-0.100000X-0.130000X0.100000X-0.130000X0.100000X0.130000X0*%
%ADD37RoundRect,0.100000X-0.150000X0.200000X-0.150000X-0.200000X0.150000X-0.200000X0.150000X0.200000X0*%
%ADD38RoundRect,0.100000X-0.800000X0.100000X-0.800000X-0.100000X0.800000X-0.100000X0.800000X0.100000X0*%
%ADD39RoundRect,0.100000X-0.185000X-0.185000X0.185000X-0.185000X0.185000X0.185000X-0.185000X0.185000X0*%
%ADD40RoundRect,0.100000X-0.950000X0.200000X-0.950000X-0.200000X0.950000X-0.200000X0.950000X0.200000X0*%
%ADD41RoundRect,0.350000X-0.250000X-0.475000X0.250000X-0.475000X0.250000X0.475000X-0.250000X0.475000X0*%
%ADD42O,3.200000X5.300000*%
%ADD43RoundRect,0.350000X0.250000X0.475000X-0.250000X0.475000X-0.250000X-0.475000X0.250000X-0.475000X0*%
%ADD44RoundRect,0.325000X0.250000X-0.225000X0.250000X0.225000X-0.250000X0.225000X-0.250000X-0.225000X0*%
%ADD45RoundRect,0.100000X-0.350000X0.750000X-0.350000X-0.750000X0.350000X-0.750000X0.350000X0.750000X0*%
%ADD46FreePoly0,270.000000*%
%ADD47RoundRect,0.325000X-0.250000X0.225000X-0.250000X-0.225000X0.250000X-0.225000X0.250000X0.225000X0*%
%ADD48RoundRect,0.100000X-0.200000X0.325000X-0.200000X-0.325000X0.200000X-0.325000X0.200000X0.325000X0*%
%ADD49RoundRect,0.100000X-0.250000X-0.275000X0.250000X-0.275000X0.250000X0.275000X-0.250000X0.275000X0*%
%ADD50RoundRect,0.100000X0.250000X0.275000X-0.250000X0.275000X-0.250000X-0.275000X0.250000X-0.275000X0*%
%ADD51RoundRect,0.100000X0.450000X-0.500000X0.450000X0.500000X-0.450000X0.500000X-0.450000X-0.500000X0*%
%ADD52RoundRect,0.150000X-0.050000X0.387500X-0.050000X-0.387500X0.050000X-0.387500X0.050000X0.387500X0*%
%ADD53RoundRect,0.150000X-0.387500X0.050000X-0.387500X-0.050000X0.387500X-0.050000X0.387500X0.050000X0*%
%ADD54RoundRect,0.100000X-1.600000X1.600000X-1.600000X-1.600000X1.600000X-1.600000X1.600000X1.600000X0*%
%ADD55RoundRect,0.350000X0.850000X-0.375000X0.850000X0.375000X-0.850000X0.375000X-0.850000X-0.375000X0*%
G04 APERTURE END LIST*
D10*
X210150421Y-121419369D02*
G75*
G03*
X210150421Y-121419369I-511473J0D01*
G01*
X222020509Y-123525544D02*
G75*
G03*
X222020509Y-123525544I-511473J0D01*
G01*
X235993544Y-146041107D02*
G75*
G03*
X235993544Y-146041107I-511473J0D01*
G01*
X266238261Y-120708386D02*
G75*
G03*
X266238261Y-120708386I-511473J0D01*
G01*
X253866029Y-124224638D02*
G75*
G03*
X253866029Y-124224638I-511473J0D01*
G01*
D11*
X218220008Y-126042850D02*
X218435672Y-126100637D01*
X218638025Y-126194996D01*
X218820918Y-126323059D01*
X218978795Y-126480936D01*
X219106858Y-126663830D01*
X219201217Y-126866182D01*
X219259004Y-127081846D01*
X219278463Y-127304268D01*
X219259004Y-127526690D01*
X219201217Y-127742354D01*
X219106858Y-127944707D01*
X218978795Y-128127600D01*
X218820918Y-128285477D01*
X218638025Y-128413540D01*
X218435672Y-128507899D01*
X218220008Y-128565686D01*
X217997586Y-128585145D01*
X217775164Y-128565686D01*
X217559500Y-128507899D01*
X217357147Y-128413540D01*
X217174254Y-128285477D01*
X217016377Y-128127600D01*
X216888314Y-127944707D01*
X216793955Y-127742354D01*
X216736168Y-127526690D01*
X216716709Y-127304268D01*
X216736168Y-127081846D01*
X216793955Y-126866182D01*
X216888314Y-126663830D01*
X217016377Y-126480936D01*
X217174254Y-126323059D01*
X217357148Y-126194996D01*
X217559500Y-126100637D01*
X217775164Y-126042850D01*
X217997586Y-126023391D01*
X218220008Y-126042850D01*
G36*
X218220008Y-126042850D02*
G01*
X218435672Y-126100637D01*
X218638025Y-126194996D01*
X218820918Y-126323059D01*
X218978795Y-126480936D01*
X219106858Y-126663830D01*
X219201217Y-126866182D01*
X219259004Y-127081846D01*
X219278463Y-127304268D01*
X219259004Y-127526690D01*
X219201217Y-127742354D01*
X219106858Y-127944707D01*
X218978795Y-128127600D01*
X218820918Y-128285477D01*
X218638025Y-128413540D01*
X218435672Y-128507899D01*
X218220008Y-128565686D01*
X217997586Y-128585145D01*
X217775164Y-128565686D01*
X217559500Y-128507899D01*
X217357147Y-128413540D01*
X217174254Y-128285477D01*
X217016377Y-128127600D01*
X216888314Y-127944707D01*
X216793955Y-127742354D01*
X216736168Y-127526690D01*
X216716709Y-127304268D01*
X216736168Y-127081846D01*
X216793955Y-126866182D01*
X216888314Y-126663830D01*
X217016377Y-126480936D01*
X217174254Y-126323059D01*
X217357148Y-126194996D01*
X217559500Y-126100637D01*
X217775164Y-126042850D01*
X217997586Y-126023391D01*
X218220008Y-126042850D01*
G37*
D10*
X212593726Y-116715094D02*
G75*
G03*
X212593726Y-116715094I-511473J0D01*
G01*
X214778600Y-130942607D02*
G75*
G03*
X214778600Y-130942607I-511473J0D01*
G01*
X249749143Y-141912784D02*
G75*
G03*
X249749143Y-141912784I-511473J0D01*
G01*
D12*
X218402310Y-72294114D02*
X218616596Y-72365542D01*
X218616596Y-72365542D02*
X218688025Y-72436971D01*
X218688025Y-72436971D02*
X218759453Y-72579828D01*
X218759453Y-72579828D02*
X218759453Y-72794114D01*
X218759453Y-72794114D02*
X218688025Y-72936971D01*
X218688025Y-72936971D02*
X218616596Y-73008400D01*
X218616596Y-73008400D02*
X218473739Y-73079828D01*
X218473739Y-73079828D02*
X217902310Y-73079828D01*
X217902310Y-73079828D02*
X217902310Y-71579828D01*
X217902310Y-71579828D02*
X218402310Y-71579828D01*
X218402310Y-71579828D02*
X218545168Y-71651257D01*
X218545168Y-71651257D02*
X218616596Y-71722685D01*
X218616596Y-71722685D02*
X218688025Y-71865542D01*
X218688025Y-71865542D02*
X218688025Y-72008400D01*
X218688025Y-72008400D02*
X218616596Y-72151257D01*
X218616596Y-72151257D02*
X218545168Y-72222685D01*
X218545168Y-72222685D02*
X218402310Y-72294114D01*
X218402310Y-72294114D02*
X217902310Y-72294114D01*
X217932482Y-69069857D02*
X218646768Y-69069857D01*
X217789625Y-69498428D02*
X218289625Y-67998428D01*
X218289625Y-67998428D02*
X218789625Y-69498428D01*
X215392482Y-80044200D02*
X215606768Y-80115628D01*
X215606768Y-80115628D02*
X215963910Y-80115628D01*
X215963910Y-80115628D02*
X216106768Y-80044200D01*
X216106768Y-80044200D02*
X216178196Y-79972771D01*
X216178196Y-79972771D02*
X216249625Y-79829914D01*
X216249625Y-79829914D02*
X216249625Y-79687057D01*
X216249625Y-79687057D02*
X216178196Y-79544200D01*
X216178196Y-79544200D02*
X216106768Y-79472771D01*
X216106768Y-79472771D02*
X215963910Y-79401342D01*
X215963910Y-79401342D02*
X215678196Y-79329914D01*
X215678196Y-79329914D02*
X215535339Y-79258485D01*
X215535339Y-79258485D02*
X215463910Y-79187057D01*
X215463910Y-79187057D02*
X215392482Y-79044200D01*
X215392482Y-79044200D02*
X215392482Y-78901342D01*
X215392482Y-78901342D02*
X215463910Y-78758485D01*
X215463910Y-78758485D02*
X215535339Y-78687057D01*
X215535339Y-78687057D02*
X215678196Y-78615628D01*
X215678196Y-78615628D02*
X216035339Y-78615628D01*
X216035339Y-78615628D02*
X216249625Y-78687057D01*
X216892481Y-79329914D02*
X217392481Y-79329914D01*
X217606767Y-80115628D02*
X216892481Y-80115628D01*
X216892481Y-80115628D02*
X216892481Y-78615628D01*
X216892481Y-78615628D02*
X217606767Y-78615628D01*
X218963910Y-80115628D02*
X218249624Y-80115628D01*
X218249624Y-80115628D02*
X218249624Y-78615628D01*
D13*
X269897068Y-144588752D02*
X269680401Y-144279228D01*
X269525639Y-144588752D02*
X269525639Y-143938752D01*
X269525639Y-143938752D02*
X269773258Y-143938752D01*
X269773258Y-143938752D02*
X269835163Y-143969704D01*
X269835163Y-143969704D02*
X269866116Y-144000657D01*
X269866116Y-144000657D02*
X269897068Y-144062561D01*
X269897068Y-144062561D02*
X269897068Y-144155419D01*
X269897068Y-144155419D02*
X269866116Y-144217323D01*
X269866116Y-144217323D02*
X269835163Y-144248276D01*
X269835163Y-144248276D02*
X269773258Y-144279228D01*
X269773258Y-144279228D02*
X269525639Y-144279228D01*
X270423258Y-144557800D02*
X270361354Y-144588752D01*
X270361354Y-144588752D02*
X270237544Y-144588752D01*
X270237544Y-144588752D02*
X270175639Y-144557800D01*
X270175639Y-144557800D02*
X270144687Y-144495895D01*
X270144687Y-144495895D02*
X270144687Y-144248276D01*
X270144687Y-144248276D02*
X270175639Y-144186371D01*
X270175639Y-144186371D02*
X270237544Y-144155419D01*
X270237544Y-144155419D02*
X270361354Y-144155419D01*
X270361354Y-144155419D02*
X270423258Y-144186371D01*
X270423258Y-144186371D02*
X270454211Y-144248276D01*
X270454211Y-144248276D02*
X270454211Y-144310180D01*
X270454211Y-144310180D02*
X270144687Y-144372085D01*
X270639925Y-144155419D02*
X270887544Y-144155419D01*
X270732782Y-143938752D02*
X270732782Y-144495895D01*
X270732782Y-144495895D02*
X270763735Y-144557800D01*
X270763735Y-144557800D02*
X270825640Y-144588752D01*
X270825640Y-144588752D02*
X270887544Y-144588752D01*
X271104211Y-144588752D02*
X271104211Y-144155419D01*
X271104211Y-144279228D02*
X271135164Y-144217323D01*
X271135164Y-144217323D02*
X271166116Y-144186371D01*
X271166116Y-144186371D02*
X271228021Y-144155419D01*
X271228021Y-144155419D02*
X271289926Y-144155419D01*
X271599450Y-144588752D02*
X271537545Y-144557800D01*
X271537545Y-144557800D02*
X271506592Y-144526847D01*
X271506592Y-144526847D02*
X271475640Y-144464942D01*
X271475640Y-144464942D02*
X271475640Y-144279228D01*
X271475640Y-144279228D02*
X271506592Y-144217323D01*
X271506592Y-144217323D02*
X271537545Y-144186371D01*
X271537545Y-144186371D02*
X271599450Y-144155419D01*
X271599450Y-144155419D02*
X271692307Y-144155419D01*
X271692307Y-144155419D02*
X271754211Y-144186371D01*
X271754211Y-144186371D02*
X271785164Y-144217323D01*
X271785164Y-144217323D02*
X271816116Y-144279228D01*
X271816116Y-144279228D02*
X271816116Y-144464942D01*
X271816116Y-144464942D02*
X271785164Y-144526847D01*
X271785164Y-144526847D02*
X271754211Y-144557800D01*
X271754211Y-144557800D02*
X271692307Y-144588752D01*
X271692307Y-144588752D02*
X271599450Y-144588752D01*
X272435164Y-143969704D02*
X272373259Y-143938752D01*
X272373259Y-143938752D02*
X272280402Y-143938752D01*
X272280402Y-143938752D02*
X272187545Y-143969704D01*
X272187545Y-143969704D02*
X272125640Y-144031609D01*
X272125640Y-144031609D02*
X272094687Y-144093514D01*
X272094687Y-144093514D02*
X272063735Y-144217323D01*
X272063735Y-144217323D02*
X272063735Y-144310180D01*
X272063735Y-144310180D02*
X272094687Y-144433990D01*
X272094687Y-144433990D02*
X272125640Y-144495895D01*
X272125640Y-144495895D02*
X272187545Y-144557800D01*
X272187545Y-144557800D02*
X272280402Y-144588752D01*
X272280402Y-144588752D02*
X272342306Y-144588752D01*
X272342306Y-144588752D02*
X272435164Y-144557800D01*
X272435164Y-144557800D02*
X272466116Y-144526847D01*
X272466116Y-144526847D02*
X272466116Y-144310180D01*
X272466116Y-144310180D02*
X272342306Y-144310180D01*
X272837545Y-144588752D02*
X272775640Y-144557800D01*
X272775640Y-144557800D02*
X272744687Y-144495895D01*
X272744687Y-144495895D02*
X272744687Y-143938752D01*
X273178021Y-144588752D02*
X273116116Y-144557800D01*
X273116116Y-144557800D02*
X273085163Y-144526847D01*
X273085163Y-144526847D02*
X273054211Y-144464942D01*
X273054211Y-144464942D02*
X273054211Y-144279228D01*
X273054211Y-144279228D02*
X273085163Y-144217323D01*
X273085163Y-144217323D02*
X273116116Y-144186371D01*
X273116116Y-144186371D02*
X273178021Y-144155419D01*
X273178021Y-144155419D02*
X273270878Y-144155419D01*
X273270878Y-144155419D02*
X273332782Y-144186371D01*
X273332782Y-144186371D02*
X273363735Y-144217323D01*
X273363735Y-144217323D02*
X273394687Y-144279228D01*
X273394687Y-144279228D02*
X273394687Y-144464942D01*
X273394687Y-144464942D02*
X273363735Y-144526847D01*
X273363735Y-144526847D02*
X273332782Y-144557800D01*
X273332782Y-144557800D02*
X273270878Y-144588752D01*
X273270878Y-144588752D02*
X273178021Y-144588752D01*
X273611354Y-144155419D02*
X273735163Y-144588752D01*
X273735163Y-144588752D02*
X273858973Y-144279228D01*
X273858973Y-144279228D02*
X273982782Y-144588752D01*
X273982782Y-144588752D02*
X274106592Y-144155419D01*
X274354210Y-144341133D02*
X274849449Y-144341133D01*
X274601829Y-144588752D02*
X274601829Y-144093514D01*
X266089925Y-145635252D02*
X266089925Y-144985252D01*
X266089925Y-144985252D02*
X266244687Y-144985252D01*
X266244687Y-144985252D02*
X266337544Y-145016204D01*
X266337544Y-145016204D02*
X266399449Y-145078109D01*
X266399449Y-145078109D02*
X266430402Y-145140014D01*
X266430402Y-145140014D02*
X266461354Y-145263823D01*
X266461354Y-145263823D02*
X266461354Y-145356680D01*
X266461354Y-145356680D02*
X266430402Y-145480490D01*
X266430402Y-145480490D02*
X266399449Y-145542395D01*
X266399449Y-145542395D02*
X266337544Y-145604300D01*
X266337544Y-145604300D02*
X266244687Y-145635252D01*
X266244687Y-145635252D02*
X266089925Y-145635252D01*
X266987544Y-145604300D02*
X266925640Y-145635252D01*
X266925640Y-145635252D02*
X266801830Y-145635252D01*
X266801830Y-145635252D02*
X266739925Y-145604300D01*
X266739925Y-145604300D02*
X266708973Y-145542395D01*
X266708973Y-145542395D02*
X266708973Y-145294776D01*
X266708973Y-145294776D02*
X266739925Y-145232871D01*
X266739925Y-145232871D02*
X266801830Y-145201919D01*
X266801830Y-145201919D02*
X266925640Y-145201919D01*
X266925640Y-145201919D02*
X266987544Y-145232871D01*
X266987544Y-145232871D02*
X267018497Y-145294776D01*
X267018497Y-145294776D02*
X267018497Y-145356680D01*
X267018497Y-145356680D02*
X266708973Y-145418585D01*
X267266116Y-145604300D02*
X267328021Y-145635252D01*
X267328021Y-145635252D02*
X267451830Y-145635252D01*
X267451830Y-145635252D02*
X267513735Y-145604300D01*
X267513735Y-145604300D02*
X267544687Y-145542395D01*
X267544687Y-145542395D02*
X267544687Y-145511442D01*
X267544687Y-145511442D02*
X267513735Y-145449538D01*
X267513735Y-145449538D02*
X267451830Y-145418585D01*
X267451830Y-145418585D02*
X267358973Y-145418585D01*
X267358973Y-145418585D02*
X267297068Y-145387633D01*
X267297068Y-145387633D02*
X267266116Y-145325728D01*
X267266116Y-145325728D02*
X267266116Y-145294776D01*
X267266116Y-145294776D02*
X267297068Y-145232871D01*
X267297068Y-145232871D02*
X267358973Y-145201919D01*
X267358973Y-145201919D02*
X267451830Y-145201919D01*
X267451830Y-145201919D02*
X267513735Y-145232871D01*
X267823258Y-145635252D02*
X267823258Y-145201919D01*
X267823258Y-144985252D02*
X267792306Y-145016204D01*
X267792306Y-145016204D02*
X267823258Y-145047157D01*
X267823258Y-145047157D02*
X267854211Y-145016204D01*
X267854211Y-145016204D02*
X267823258Y-144985252D01*
X267823258Y-144985252D02*
X267823258Y-145047157D01*
X268411354Y-145201919D02*
X268411354Y-145728109D01*
X268411354Y-145728109D02*
X268380401Y-145790014D01*
X268380401Y-145790014D02*
X268349449Y-145820966D01*
X268349449Y-145820966D02*
X268287544Y-145851919D01*
X268287544Y-145851919D02*
X268194687Y-145851919D01*
X268194687Y-145851919D02*
X268132782Y-145820966D01*
X268411354Y-145604300D02*
X268349449Y-145635252D01*
X268349449Y-145635252D02*
X268225640Y-145635252D01*
X268225640Y-145635252D02*
X268163735Y-145604300D01*
X268163735Y-145604300D02*
X268132782Y-145573347D01*
X268132782Y-145573347D02*
X268101830Y-145511442D01*
X268101830Y-145511442D02*
X268101830Y-145325728D01*
X268101830Y-145325728D02*
X268132782Y-145263823D01*
X268132782Y-145263823D02*
X268163735Y-145232871D01*
X268163735Y-145232871D02*
X268225640Y-145201919D01*
X268225640Y-145201919D02*
X268349449Y-145201919D01*
X268349449Y-145201919D02*
X268411354Y-145232871D01*
X268720877Y-145201919D02*
X268720877Y-145635252D01*
X268720877Y-145263823D02*
X268751830Y-145232871D01*
X268751830Y-145232871D02*
X268813735Y-145201919D01*
X268813735Y-145201919D02*
X268906592Y-145201919D01*
X268906592Y-145201919D02*
X268968496Y-145232871D01*
X268968496Y-145232871D02*
X268999449Y-145294776D01*
X268999449Y-145294776D02*
X268999449Y-145635252D01*
X269556591Y-145604300D02*
X269494687Y-145635252D01*
X269494687Y-145635252D02*
X269370877Y-145635252D01*
X269370877Y-145635252D02*
X269308972Y-145604300D01*
X269308972Y-145604300D02*
X269278020Y-145542395D01*
X269278020Y-145542395D02*
X269278020Y-145294776D01*
X269278020Y-145294776D02*
X269308972Y-145232871D01*
X269308972Y-145232871D02*
X269370877Y-145201919D01*
X269370877Y-145201919D02*
X269494687Y-145201919D01*
X269494687Y-145201919D02*
X269556591Y-145232871D01*
X269556591Y-145232871D02*
X269587544Y-145294776D01*
X269587544Y-145294776D02*
X269587544Y-145356680D01*
X269587544Y-145356680D02*
X269278020Y-145418585D01*
X270144687Y-145635252D02*
X270144687Y-144985252D01*
X270144687Y-145604300D02*
X270082782Y-145635252D01*
X270082782Y-145635252D02*
X269958973Y-145635252D01*
X269958973Y-145635252D02*
X269897068Y-145604300D01*
X269897068Y-145604300D02*
X269866115Y-145573347D01*
X269866115Y-145573347D02*
X269835163Y-145511442D01*
X269835163Y-145511442D02*
X269835163Y-145325728D01*
X269835163Y-145325728D02*
X269866115Y-145263823D01*
X269866115Y-145263823D02*
X269897068Y-145232871D01*
X269897068Y-145232871D02*
X269958973Y-145201919D01*
X269958973Y-145201919D02*
X270082782Y-145201919D01*
X270082782Y-145201919D02*
X270144687Y-145232871D01*
X271166115Y-145294776D02*
X271258972Y-145325728D01*
X271258972Y-145325728D02*
X271289925Y-145356680D01*
X271289925Y-145356680D02*
X271320877Y-145418585D01*
X271320877Y-145418585D02*
X271320877Y-145511442D01*
X271320877Y-145511442D02*
X271289925Y-145573347D01*
X271289925Y-145573347D02*
X271258972Y-145604300D01*
X271258972Y-145604300D02*
X271197067Y-145635252D01*
X271197067Y-145635252D02*
X270949448Y-145635252D01*
X270949448Y-145635252D02*
X270949448Y-144985252D01*
X270949448Y-144985252D02*
X271166115Y-144985252D01*
X271166115Y-144985252D02*
X271228020Y-145016204D01*
X271228020Y-145016204D02*
X271258972Y-145047157D01*
X271258972Y-145047157D02*
X271289925Y-145109061D01*
X271289925Y-145109061D02*
X271289925Y-145170966D01*
X271289925Y-145170966D02*
X271258972Y-145232871D01*
X271258972Y-145232871D02*
X271228020Y-145263823D01*
X271228020Y-145263823D02*
X271166115Y-145294776D01*
X271166115Y-145294776D02*
X270949448Y-145294776D01*
X271537544Y-145201919D02*
X271692306Y-145635252D01*
X271847067Y-145201919D02*
X271692306Y-145635252D01*
X271692306Y-145635252D02*
X271630401Y-145790014D01*
X271630401Y-145790014D02*
X271599448Y-145820966D01*
X271599448Y-145820966D02*
X271537544Y-145851919D01*
X272589924Y-145635252D02*
X272589924Y-144985252D01*
X272589924Y-144985252D02*
X272806591Y-145449538D01*
X272806591Y-145449538D02*
X273023258Y-144985252D01*
X273023258Y-144985252D02*
X273023258Y-145635252D01*
X273332781Y-145635252D02*
X273332781Y-145201919D01*
X273332781Y-144985252D02*
X273301829Y-145016204D01*
X273301829Y-145016204D02*
X273332781Y-145047157D01*
X273332781Y-145047157D02*
X273363734Y-145016204D01*
X273363734Y-145016204D02*
X273332781Y-144985252D01*
X273332781Y-144985252D02*
X273332781Y-145047157D01*
X273549448Y-145201919D02*
X273797067Y-145201919D01*
X273642305Y-144985252D02*
X273642305Y-145542395D01*
X273642305Y-145542395D02*
X273673258Y-145604300D01*
X273673258Y-145604300D02*
X273735163Y-145635252D01*
X273735163Y-145635252D02*
X273797067Y-145635252D01*
X274292306Y-145604300D02*
X274230401Y-145635252D01*
X274230401Y-145635252D02*
X274106592Y-145635252D01*
X274106592Y-145635252D02*
X274044687Y-145604300D01*
X274044687Y-145604300D02*
X274013734Y-145573347D01*
X274013734Y-145573347D02*
X273982782Y-145511442D01*
X273982782Y-145511442D02*
X273982782Y-145325728D01*
X273982782Y-145325728D02*
X274013734Y-145263823D01*
X274013734Y-145263823D02*
X274044687Y-145232871D01*
X274044687Y-145232871D02*
X274106592Y-145201919D01*
X274106592Y-145201919D02*
X274230401Y-145201919D01*
X274230401Y-145201919D02*
X274292306Y-145232871D01*
X274570877Y-145635252D02*
X274570877Y-144985252D01*
X274849449Y-145635252D02*
X274849449Y-145294776D01*
X274849449Y-145294776D02*
X274818496Y-145232871D01*
X274818496Y-145232871D02*
X274756592Y-145201919D01*
X274756592Y-145201919D02*
X274663735Y-145201919D01*
X274663735Y-145201919D02*
X274601830Y-145232871D01*
X274601830Y-145232871D02*
X274570877Y-145263823D01*
D12*
X216117853Y-63488171D02*
X216046425Y-63559600D01*
X216046425Y-63559600D02*
X215832139Y-63631028D01*
X215832139Y-63631028D02*
X215689282Y-63631028D01*
X215689282Y-63631028D02*
X215474996Y-63559600D01*
X215474996Y-63559600D02*
X215332139Y-63416742D01*
X215332139Y-63416742D02*
X215260710Y-63273885D01*
X215260710Y-63273885D02*
X215189282Y-62988171D01*
X215189282Y-62988171D02*
X215189282Y-62773885D01*
X215189282Y-62773885D02*
X215260710Y-62488171D01*
X215260710Y-62488171D02*
X215332139Y-62345314D01*
X215332139Y-62345314D02*
X215474996Y-62202457D01*
X215474996Y-62202457D02*
X215689282Y-62131028D01*
X215689282Y-62131028D02*
X215832139Y-62131028D01*
X215832139Y-62131028D02*
X216046425Y-62202457D01*
X216046425Y-62202457D02*
X216117853Y-62273885D01*
X217474996Y-63631028D02*
X216760710Y-63631028D01*
X216760710Y-63631028D02*
X216760710Y-62131028D01*
X217974996Y-63631028D02*
X217974996Y-62131028D01*
X218832139Y-63631028D02*
X218189282Y-62773885D01*
X218832139Y-62131028D02*
X217974996Y-62988171D01*
X216738682Y-76539000D02*
X216952968Y-76610428D01*
X216952968Y-76610428D02*
X217310110Y-76610428D01*
X217310110Y-76610428D02*
X217452968Y-76539000D01*
X217452968Y-76539000D02*
X217524396Y-76467571D01*
X217524396Y-76467571D02*
X217595825Y-76324714D01*
X217595825Y-76324714D02*
X217595825Y-76181857D01*
X217595825Y-76181857D02*
X217524396Y-76039000D01*
X217524396Y-76039000D02*
X217452968Y-75967571D01*
X217452968Y-75967571D02*
X217310110Y-75896142D01*
X217310110Y-75896142D02*
X217024396Y-75824714D01*
X217024396Y-75824714D02*
X216881539Y-75753285D01*
X216881539Y-75753285D02*
X216810110Y-75681857D01*
X216810110Y-75681857D02*
X216738682Y-75539000D01*
X216738682Y-75539000D02*
X216738682Y-75396142D01*
X216738682Y-75396142D02*
X216810110Y-75253285D01*
X216810110Y-75253285D02*
X216881539Y-75181857D01*
X216881539Y-75181857D02*
X217024396Y-75110428D01*
X217024396Y-75110428D02*
X217381539Y-75110428D01*
X217381539Y-75110428D02*
X217595825Y-75181857D01*
X218024396Y-75110428D02*
X218881539Y-75110428D01*
X218452967Y-76610428D02*
X218452967Y-75110428D01*
%TO.C,SWSTART1*%
D13*
X249993400Y-151314900D02*
X242424200Y-151314900D01*
X242424200Y-147708100D01*
X249993400Y-147708100D01*
X249993400Y-151314900D01*
G36*
X249993400Y-151314900D02*
G01*
X242424200Y-151314900D01*
X242424200Y-147708100D01*
X249993400Y-147708100D01*
X249993400Y-151314900D01*
G37*
%TO.C,SWDD1*%
D14*
X219572500Y-135241500D02*
G75*
G03*
X219572500Y-135241500I-1575000J0D01*
G01*
%TO.C,SWSEL1*%
D13*
X238593400Y-151314900D02*
X231024200Y-151314900D01*
X231024200Y-147708100D01*
X238593400Y-147708100D01*
X238593400Y-151314900D01*
G36*
X238593400Y-151314900D02*
G01*
X231024200Y-151314900D01*
X231024200Y-147708100D01*
X238593400Y-147708100D01*
X238593400Y-151314900D01*
G37*
%TO.C,SWA1*%
D15*
X269495726Y-125047000D02*
G75*
G03*
X269495726Y-125047000I-1478126J0D01*
G01*
%TO.C,SWDR1*%
D14*
X227447500Y-127304000D02*
G75*
G03*
X227447500Y-127304000I-1575000J0D01*
G01*
%TO.C,SWB1*%
D15*
X255503126Y-129549600D02*
G75*
G03*
X255503126Y-129549600I-1478126J0D01*
G01*
%TO.C,U5*%
D16*
X235491800Y-138669400D02*
X234751800Y-138669400D01*
X234751800Y-138289400D01*
X235491800Y-138289400D01*
X235491800Y-138669400D01*
G36*
X235491800Y-138669400D02*
G01*
X234751800Y-138669400D01*
X234751800Y-138289400D01*
X235491800Y-138289400D01*
X235491800Y-138669400D01*
G37*
X235491800Y-139169400D02*
X234751800Y-139169400D01*
X234751800Y-138789400D01*
X235491800Y-138789400D01*
X235491800Y-139169400D01*
G36*
X235491800Y-139169400D02*
G01*
X234751800Y-139169400D01*
X234751800Y-138789400D01*
X235491800Y-138789400D01*
X235491800Y-139169400D01*
G37*
X235491800Y-139669400D02*
X234751800Y-139669400D01*
X234751800Y-139289400D01*
X235491800Y-139289400D01*
X235491800Y-139669400D01*
G36*
X235491800Y-139669400D02*
G01*
X234751800Y-139669400D01*
X234751800Y-139289400D01*
X235491800Y-139289400D01*
X235491800Y-139669400D01*
G37*
X235491800Y-140169400D02*
X234751800Y-140169400D01*
X234751800Y-139789400D01*
X235491800Y-139789400D01*
X235491800Y-140169400D01*
G36*
X235491800Y-140169400D02*
G01*
X234751800Y-140169400D01*
X234751800Y-139789400D01*
X235491800Y-139789400D01*
X235491800Y-140169400D01*
G37*
X235491800Y-140669400D02*
X234751800Y-140669400D01*
X234751800Y-140289400D01*
X235491800Y-140289400D01*
X235491800Y-140669400D01*
G36*
X235491800Y-140669400D02*
G01*
X234751800Y-140669400D01*
X234751800Y-140289400D01*
X235491800Y-140289400D01*
X235491800Y-140669400D01*
G37*
X238291800Y-138669400D02*
X237551800Y-138669400D01*
X237551800Y-138289400D01*
X238291800Y-138289400D01*
X238291800Y-138669400D01*
G36*
X238291800Y-138669400D02*
G01*
X237551800Y-138669400D01*
X237551800Y-138289400D01*
X238291800Y-138289400D01*
X238291800Y-138669400D01*
G37*
X238291800Y-139169400D02*
X237551800Y-139169400D01*
X237551800Y-138789400D01*
X238291800Y-138789400D01*
X238291800Y-139169400D01*
G36*
X238291800Y-139169400D02*
G01*
X237551800Y-139169400D01*
X237551800Y-138789400D01*
X238291800Y-138789400D01*
X238291800Y-139169400D01*
G37*
X238291800Y-139669400D02*
X237551800Y-139669400D01*
X237551800Y-139289400D01*
X238291800Y-139289400D01*
X238291800Y-139669400D01*
G36*
X238291800Y-139669400D02*
G01*
X237551800Y-139669400D01*
X237551800Y-139289400D01*
X238291800Y-139289400D01*
X238291800Y-139669400D01*
G37*
X238291800Y-140169400D02*
X237551800Y-140169400D01*
X237551800Y-139789400D01*
X238291800Y-139789400D01*
X238291800Y-140169400D01*
G36*
X238291800Y-140169400D02*
G01*
X237551800Y-140169400D01*
X237551800Y-139789400D01*
X238291800Y-139789400D01*
X238291800Y-140169400D01*
G37*
X238291800Y-140669400D02*
X237551800Y-140669400D01*
X237551800Y-140289400D01*
X238291800Y-140289400D01*
X238291800Y-140669400D01*
G36*
X238291800Y-140669400D02*
G01*
X237551800Y-140669400D01*
X237551800Y-140289400D01*
X238291800Y-140289400D01*
X238291800Y-140669400D01*
G37*
X236466800Y-138209400D02*
X236576800Y-138209400D01*
X236576800Y-137709400D01*
X236966800Y-137709400D01*
X236966800Y-138209400D01*
X237416800Y-138209400D01*
X237416800Y-140749400D01*
X236966800Y-140749400D01*
X236966800Y-141249400D01*
X236576800Y-141249400D01*
X236576800Y-140749400D01*
X236466800Y-140749400D01*
X236466800Y-141249400D01*
X236076800Y-141249400D01*
X236076800Y-140749400D01*
X235626800Y-140749400D01*
X235626800Y-138209400D01*
X236076800Y-138209400D01*
X236076800Y-137709400D01*
X236466800Y-137709400D01*
X236466800Y-138209400D01*
G36*
X236466800Y-138209400D02*
G01*
X236576800Y-138209400D01*
X236576800Y-137709400D01*
X236966800Y-137709400D01*
X236966800Y-138209400D01*
X237416800Y-138209400D01*
X237416800Y-140749400D01*
X236966800Y-140749400D01*
X236966800Y-141249400D01*
X236576800Y-141249400D01*
X236576800Y-140749400D01*
X236466800Y-140749400D01*
X236466800Y-141249400D01*
X236076800Y-141249400D01*
X236076800Y-140749400D01*
X235626800Y-140749400D01*
X235626800Y-138209400D01*
X236076800Y-138209400D01*
X236076800Y-137709400D01*
X236466800Y-137709400D01*
X236466800Y-138209400D01*
G37*
%TO.C,SWDU1*%
D14*
X219572500Y-119366500D02*
G75*
G03*
X219572500Y-119366500I-1575000J0D01*
G01*
%TO.C,SWDL1*%
X211697500Y-127304000D02*
G75*
G03*
X211697500Y-127304000I-1575000J0D01*
G01*
%TO.C,LOGO*%
D17*
X272186400Y-140332898D02*
X273140355Y-140332898D01*
X273140355Y-141002267D01*
X271553741Y-141002267D01*
X271553741Y-138449095D01*
X272186400Y-138449095D01*
X272186400Y-140332898D01*
G36*
X272186400Y-140332898D02*
G01*
X273140355Y-140332898D01*
X273140355Y-141002267D01*
X271553741Y-141002267D01*
X271553741Y-138449095D01*
X272186400Y-138449095D01*
X272186400Y-140332898D01*
G37*
X269420266Y-141002267D02*
X268739405Y-141002267D01*
X268739405Y-140034145D01*
X268499749Y-140034145D01*
X268499749Y-141002267D01*
X267814449Y-141002267D01*
X267814449Y-138449615D01*
X268497463Y-138449095D01*
X268497463Y-139371897D01*
X268739405Y-139371897D01*
X268739405Y-138449095D01*
X269420266Y-138449095D01*
X269420266Y-141002267D01*
G36*
X269420266Y-141002267D02*
G01*
X268739405Y-141002267D01*
X268739405Y-140034145D01*
X268499749Y-140034145D01*
X268499749Y-141002267D01*
X267814449Y-141002267D01*
X267814449Y-138449615D01*
X268497463Y-138449095D01*
X268497463Y-139371897D01*
X268739405Y-139371897D01*
X268739405Y-138449095D01*
X269420266Y-138449095D01*
X269420266Y-141002267D01*
G37*
X271270266Y-141002267D02*
X270589405Y-141002267D01*
X270589405Y-140034145D01*
X270349749Y-140034145D01*
X270349749Y-141002267D01*
X269664449Y-141002267D01*
X269664449Y-138449615D01*
X270347463Y-138449095D01*
X270347463Y-139371897D01*
X270589405Y-139371897D01*
X270589405Y-138449095D01*
X271270266Y-138449095D01*
X271270266Y-141002267D01*
G36*
X271270266Y-141002267D02*
G01*
X270589405Y-141002267D01*
X270589405Y-140034145D01*
X270349749Y-140034145D01*
X270349749Y-141002267D01*
X269664449Y-141002267D01*
X269664449Y-138449615D01*
X270347463Y-138449095D01*
X270347463Y-139371897D01*
X270589405Y-139371897D01*
X270589405Y-138449095D01*
X271270266Y-138449095D01*
X271270266Y-141002267D01*
G37*
%TD*%
D18*
%TO.C,C5*%
X246634400Y-123095000D03*
X246634400Y-124055000D03*
%TD*%
D19*
%TO.C,G3*%
X208811100Y-159531000D03*
%TD*%
D20*
%TO.C,C6*%
X253505000Y-119600000D03*
X252545000Y-119600000D03*
%TD*%
D21*
%TO.C,R16*%
X246835800Y-142862600D03*
X246195800Y-142862600D03*
%TD*%
D22*
%TO.C,R25*%
X213060000Y-143050000D03*
X213700000Y-143050000D03*
%TD*%
D23*
%TO.C,C10*%
X250802200Y-138582400D03*
X251762200Y-138582400D03*
%TD*%
D21*
%TO.C,R12*%
X231220000Y-110690000D03*
X230580000Y-110690000D03*
%TD*%
D24*
%TO.C,Q3*%
X229484000Y-114604800D03*
X229484000Y-113954800D03*
X229484000Y-113304800D03*
X227584000Y-113304800D03*
X227584000Y-113954800D03*
X227584000Y-114604800D03*
%TD*%
D25*
%TO.C,TP13*%
X278765000Y-130556000D03*
%TD*%
D22*
%TO.C,R22*%
X225840000Y-113680000D03*
X226480000Y-113680000D03*
%TD*%
D26*
%TO.C,U3*%
X243604600Y-135566400D03*
X243604600Y-136566400D03*
X243604600Y-137566400D03*
X243604600Y-138566400D03*
X243604600Y-139566400D03*
X249104600Y-139566400D03*
X249104600Y-138566400D03*
X249104600Y-137566400D03*
X249104600Y-136566400D03*
X249104600Y-135566400D03*
D27*
X246354600Y-137566400D03*
%TD*%
D22*
%TO.C,R23*%
X241400000Y-144570000D03*
X242040000Y-144570000D03*
%TD*%
D28*
%TO.C,J1*%
X271976600Y-115523100D03*
X267976600Y-115523100D03*
D29*
X271276600Y-116208100D03*
X270626600Y-116208100D03*
X269976600Y-116208100D03*
X269326600Y-116208100D03*
X268676600Y-116208100D03*
D30*
X273189100Y-115733100D03*
X266764100Y-115733100D03*
D31*
X273246600Y-113373100D03*
X266706600Y-113373100D03*
%TD*%
D32*
%TO.C,C2*%
X255531800Y-114367500D03*
X255531800Y-113727500D03*
%TD*%
%TO.C,R17*%
X246873000Y-131749800D03*
X246873000Y-131109800D03*
%TD*%
D19*
%TO.C,NC4*%
X208811100Y-157031000D03*
%TD*%
D20*
%TO.C,C7*%
X251355000Y-111074200D03*
X250395000Y-111074200D03*
%TD*%
D22*
%TO.C,R21*%
X225840000Y-114450000D03*
X226480000Y-114450000D03*
%TD*%
D33*
%TO.C,G2*%
X208051400Y-67564000D03*
%TD*%
D19*
%TO.C,NC3*%
X226111100Y-162031000D03*
%TD*%
D22*
%TO.C,R8*%
X237288800Y-141833600D03*
X237928800Y-141833600D03*
%TD*%
%TO.C,R19*%
X225830000Y-111430000D03*
X226470000Y-111430000D03*
%TD*%
D32*
%TO.C,R18*%
X245476000Y-131749800D03*
X245476000Y-131109800D03*
%TD*%
D18*
%TO.C,C8*%
X241615000Y-136622600D03*
X241615000Y-137582600D03*
%TD*%
D34*
%TO.C,TP9*%
X220903800Y-62839600D03*
%TD*%
D35*
%TO.C,AE1*%
X253959200Y-139566400D03*
X257109200Y-139566400D03*
%TD*%
D34*
%TO.C,TP1*%
X220954600Y-68681600D03*
%TD*%
D21*
%TO.C,R2*%
X254996200Y-116505500D03*
X254356200Y-116505500D03*
%TD*%
D19*
%TO.C,BAT1*%
X208811100Y-154531000D03*
%TD*%
%TO.C,NC2*%
X226111100Y-159531000D03*
%TD*%
D36*
%TO.C,R1*%
X243275000Y-116375000D03*
X243275000Y-117015000D03*
%TD*%
D32*
%TO.C,R7*%
X267675000Y-133370000D03*
X267675000Y-132730000D03*
%TD*%
D34*
%TO.C,TP8*%
X220954600Y-75844400D03*
%TD*%
D37*
%TO.C,U1*%
X254728400Y-111964700D03*
X254228400Y-111964700D03*
X253728400Y-111964700D03*
X253228400Y-111964700D03*
X253228400Y-114364700D03*
X253728400Y-114364700D03*
X254228400Y-114364700D03*
X254728400Y-114364700D03*
D38*
X253978400Y-113164700D03*
%TD*%
D25*
%TO.C,TP11*%
X282346400Y-126974600D03*
%TD*%
D34*
%TO.C,TP2*%
X220954600Y-72263000D03*
%TD*%
D39*
%TO.C,L5*%
X245873800Y-152846500D03*
X246543800Y-152846500D03*
X246543800Y-152176500D03*
X245873800Y-152176500D03*
%TD*%
D40*
%TO.C,Y1*%
X240600000Y-115680000D03*
X240600000Y-116880000D03*
X240600000Y-118080000D03*
%TD*%
D24*
%TO.C,Q4*%
X245054200Y-144170400D03*
X245054200Y-143520400D03*
X245054200Y-142870400D03*
X243154200Y-142870400D03*
X243154200Y-143520400D03*
X243154200Y-144170400D03*
%TD*%
%TO.C,Q2*%
X229484000Y-111734600D03*
X229484000Y-111084600D03*
X229484000Y-110434600D03*
X227584000Y-110434600D03*
X227584000Y-111084600D03*
X227584000Y-111734600D03*
%TD*%
D20*
%TO.C,C1*%
X255530000Y-118175000D03*
X254570000Y-118175000D03*
%TD*%
D41*
%TO.C,C12*%
X231121600Y-142832200D03*
X233021600Y-142832200D03*
%TD*%
D19*
%TO.C,NC1*%
X226111100Y-157031000D03*
%TD*%
D39*
%TO.C,L9*%
X209126400Y-64053000D03*
X209796400Y-64053000D03*
X209796400Y-63383000D03*
X209126400Y-63383000D03*
%TD*%
D19*
%TO.C,VOUT1*%
X226111100Y-154531000D03*
%TD*%
D32*
%TO.C,R27*%
X209850000Y-111710000D03*
X209850000Y-111070000D03*
%TD*%
D42*
%TO.C,G1*%
X217212300Y-106146600D03*
%TD*%
D39*
%TO.C,L1*%
X267682600Y-129232000D03*
X268352600Y-129232000D03*
X268352600Y-128562000D03*
X267682600Y-128562000D03*
%TD*%
D43*
%TO.C,C14*%
X237923800Y-136050400D03*
X236023800Y-136050400D03*
%TD*%
D39*
%TO.C,L6*%
X221187500Y-127639000D03*
X221857500Y-127639000D03*
X221857500Y-126969000D03*
X221187500Y-126969000D03*
%TD*%
D44*
%TO.C,C9*%
X238510000Y-125135000D03*
X238510000Y-123585000D03*
%TD*%
D18*
%TO.C,C4*%
X247625000Y-123095000D03*
X247625000Y-124055000D03*
%TD*%
D22*
%TO.C,R20*%
X225830000Y-110660000D03*
X226470000Y-110660000D03*
%TD*%
D45*
%TO.C,U4*%
X236560000Y-121450000D03*
D46*
X235060000Y-123300000D03*
D45*
X233560000Y-121450000D03*
X233560000Y-125150000D03*
X236560000Y-125150000D03*
%TD*%
D36*
%TO.C,C13*%
X238912400Y-141259600D03*
X238912400Y-141899600D03*
%TD*%
D47*
%TO.C,C11*%
X231740000Y-122295000D03*
X231740000Y-123845000D03*
%TD*%
D36*
%TO.C,R9*%
X246923800Y-126258400D03*
X246923800Y-126898400D03*
%TD*%
D21*
%TO.C,R3*%
X254996200Y-117292900D03*
X254356200Y-117292900D03*
%TD*%
D39*
%TO.C,L4*%
X217662500Y-124051500D03*
X218332500Y-124051500D03*
X218332500Y-123381500D03*
X217662500Y-123381500D03*
%TD*%
D25*
%TO.C,TP12*%
X278765000Y-126974600D03*
%TD*%
D48*
%TO.C,Q1*%
X246837200Y-128041400D03*
X246187200Y-128041400D03*
X245537200Y-128041400D03*
X245537200Y-129941400D03*
X246187200Y-129941400D03*
X246837200Y-129941400D03*
%TD*%
D22*
%TO.C,R5*%
X239740000Y-119140000D03*
X240380000Y-119140000D03*
%TD*%
%TO.C,R24*%
X241394800Y-143796600D03*
X242034800Y-143796600D03*
%TD*%
D39*
%TO.C,L3*%
X253690000Y-133734600D03*
X254360000Y-133734600D03*
X254360000Y-133064600D03*
X253690000Y-133064600D03*
%TD*%
%TO.C,L8*%
X217662500Y-131226500D03*
X218332500Y-131226500D03*
X218332500Y-130556500D03*
X217662500Y-130556500D03*
%TD*%
D21*
%TO.C,R13*%
X231256800Y-115011200D03*
X230616800Y-115011200D03*
%TD*%
D39*
%TO.C,L7*%
X234473800Y-152846500D03*
X235143800Y-152846500D03*
X235143800Y-152176500D03*
X234473800Y-152176500D03*
%TD*%
D23*
%TO.C,C3*%
X252545000Y-118584000D03*
X253505000Y-118584000D03*
%TD*%
D34*
%TO.C,TP3*%
X209804000Y-103809800D03*
%TD*%
D49*
%TO.C,SW1*%
X263836200Y-114812200D03*
X264636200Y-114812200D03*
X263836200Y-112162200D03*
D50*
X264636200Y-112162200D03*
%TD*%
D22*
%TO.C,R26*%
X214528000Y-143050000D03*
X215168000Y-143050000D03*
%TD*%
D21*
%TO.C,R14*%
X231250000Y-113570000D03*
X230610000Y-113570000D03*
%TD*%
D51*
%TO.C,Y2*%
X241668600Y-141427200D03*
X241668600Y-139277200D03*
X240118600Y-139277200D03*
X240118600Y-141427200D03*
%TD*%
D36*
%TO.C,R10*%
X245450600Y-126283800D03*
X245450600Y-126923800D03*
%TD*%
D34*
%TO.C,TP7*%
X220954600Y-79425800D03*
%TD*%
D52*
%TO.C,U2*%
X250491200Y-112297500D03*
X250091200Y-112297500D03*
X249691200Y-112297500D03*
X249291200Y-112297500D03*
X248891200Y-112297500D03*
X248491200Y-112297500D03*
X248091200Y-112297500D03*
X247691200Y-112297500D03*
X247291200Y-112297500D03*
X246891200Y-112297500D03*
X246491200Y-112297500D03*
X246091200Y-112297500D03*
X245691200Y-112297500D03*
X245291200Y-112297500D03*
D53*
X244453700Y-113135000D03*
X244453700Y-113535000D03*
X244453700Y-113935000D03*
X244453700Y-114335000D03*
X244453700Y-114735000D03*
X244453700Y-115135000D03*
X244453700Y-115535000D03*
X244453700Y-115935000D03*
X244453700Y-116335000D03*
X244453700Y-116735000D03*
X244453700Y-117135000D03*
X244453700Y-117535000D03*
X244453700Y-117935000D03*
X244453700Y-118335000D03*
D52*
X245291200Y-119172500D03*
X245691200Y-119172500D03*
X246091200Y-119172500D03*
X246491200Y-119172500D03*
X246891200Y-119172500D03*
X247291200Y-119172500D03*
X247691200Y-119172500D03*
X248091200Y-119172500D03*
X248491200Y-119172500D03*
X248891200Y-119172500D03*
X249291200Y-119172500D03*
X249691200Y-119172500D03*
X250091200Y-119172500D03*
X250491200Y-119172500D03*
D53*
X251328700Y-118335000D03*
X251328700Y-117935000D03*
X251328700Y-117535000D03*
X251328700Y-117135000D03*
X251328700Y-116735000D03*
X251328700Y-116335000D03*
X251328700Y-115935000D03*
X251328700Y-115535000D03*
X251328700Y-115135000D03*
X251328700Y-114735000D03*
X251328700Y-114335000D03*
X251328700Y-113935000D03*
X251328700Y-113535000D03*
X251328700Y-113135000D03*
D54*
X247891200Y-115735000D03*
%TD*%
D21*
%TO.C,R4*%
X256207400Y-112066300D03*
X255567400Y-112066300D03*
%TD*%
D25*
%TO.C,TP10*%
X282346400Y-130581400D03*
%TD*%
D39*
%TO.C,L2*%
X214137500Y-127639000D03*
X214807500Y-127639000D03*
X214807500Y-126969000D03*
X214137500Y-126969000D03*
%TD*%
D21*
%TO.C,R6*%
X236940000Y-119990000D03*
X236300000Y-119990000D03*
%TD*%
%TO.C,R15*%
X246835800Y-144183400D03*
X246195800Y-144183400D03*
%TD*%
%TO.C,R11*%
X231220000Y-111800000D03*
X230580000Y-111800000D03*
%TD*%
D55*
%TO.C,I1*%
X233019600Y-140876600D03*
X233019600Y-138726600D03*
%TD*%
M02*
