%TF.GenerationSoftware,KiCad,Pcbnew,7.0.6*%
%TF.CreationDate,2024-04-02T17:57:09-07:00*%
%TF.ProjectId,retroglowplus_gbc,72657472-6f67-46c6-9f77-706c75735f67,rev?*%
%TF.SameCoordinates,Original*%
%TF.FileFunction,Paste,Top*%
%TF.FilePolarity,Positive*%
%FSLAX46Y46*%
G04 Gerber Fmt 4.6, Leading zero omitted, Abs format (unit mm)*
G04 Created by KiCad (PCBNEW 7.0.6) date 2024-04-02 17:57:09*
%MOMM*%
%LPD*%
G01*
G04 APERTURE LIST*
G04 Aperture macros list*
%AMRoundRect*
0 Rectangle with rounded corners*
0 $1 Rounding radius*
0 $2 $3 $4 $5 $6 $7 $8 $9 X,Y pos of 4 corners*
0 Add a 4 corners polygon primitive as box body*
4,1,4,$2,$3,$4,$5,$6,$7,$8,$9,$2,$3,0*
0 Add four circle primitives for the rounded corners*
1,1,$1+$1,$2,$3*
1,1,$1+$1,$4,$5*
1,1,$1+$1,$6,$7*
1,1,$1+$1,$8,$9*
0 Add four rect primitives between the rounded corners*
20,1,$1+$1,$2,$3,$4,$5,0*
20,1,$1+$1,$4,$5,$6,$7,0*
20,1,$1+$1,$6,$7,$8,$9,0*
20,1,$1+$1,$8,$9,$2,$3,0*%
%AMFreePoly0*
4,1,13,0.900000,0.500000,2.600000,0.500000,2.600000,-0.500000,0.900000,-0.500000,0.400000,-1.000000,-0.400000,-1.000000,-0.900000,-0.500000,-2.600000,-0.500000,-2.600000,0.500000,-0.900000,0.500000,-0.400000,1.000000,0.400000,1.000000,0.900000,0.500000,0.900000,0.500000,$1*%
G04 Aperture macros list end*
%ADD10C,0.010000*%
%ADD11RoundRect,0.140000X-0.170000X0.140000X-0.170000X-0.140000X0.170000X-0.140000X0.170000X0.140000X0*%
%ADD12RoundRect,0.140000X0.140000X0.170000X-0.140000X0.170000X-0.140000X-0.170000X0.140000X-0.170000X0*%
%ADD13RoundRect,0.079500X0.079500X0.100500X-0.079500X0.100500X-0.079500X-0.100500X0.079500X-0.100500X0*%
%ADD14RoundRect,0.079500X-0.079500X-0.100500X0.079500X-0.100500X0.079500X0.100500X-0.079500X0.100500X0*%
%ADD15RoundRect,0.140000X-0.140000X-0.170000X0.140000X-0.170000X0.140000X0.170000X-0.140000X0.170000X0*%
%ADD16R,0.650000X0.400000*%
%ADD17R,1.300000X0.600000*%
%ADD18R,2.300000X3.200000*%
%ADD19R,0.400000X1.850000*%
%ADD20R,1.625000X0.900000*%
%ADD21R,1.690000X1.300000*%
%ADD22RoundRect,0.079500X0.100500X-0.079500X0.100500X0.079500X-0.100500X0.079500X-0.100500X-0.079500X0*%
%ADD23RoundRect,0.250000X-0.275000X-0.700000X0.275000X-0.700000X0.275000X0.700000X-0.275000X0.700000X0*%
%ADD24RoundRect,0.079500X-0.100500X0.079500X-0.100500X-0.079500X0.100500X-0.079500X0.100500X0.079500X0*%
%ADD25R,0.300000X0.400000*%
%ADD26R,1.600000X0.200000*%
%ADD27RoundRect,0.007200X-0.292800X-0.112800X0.292800X-0.112800X0.292800X0.112800X-0.292800X0.112800X0*%
%ADD28R,0.370000X0.370000*%
%ADD29R,1.900000X0.400000*%
%ADD30RoundRect,0.250000X-0.250000X-0.475000X0.250000X-0.475000X0.250000X0.475000X-0.250000X0.475000X0*%
%ADD31RoundRect,0.250000X0.250000X0.475000X-0.250000X0.475000X-0.250000X-0.475000X0.250000X-0.475000X0*%
%ADD32RoundRect,0.225000X0.250000X-0.225000X0.250000X0.225000X-0.250000X0.225000X-0.250000X-0.225000X0*%
%ADD33R,0.700000X1.500000*%
%ADD34FreePoly0,270.000000*%
%ADD35RoundRect,0.225000X-0.250000X0.225000X-0.250000X-0.225000X0.250000X-0.225000X0.250000X0.225000X0*%
%ADD36R,0.400000X0.650000*%
%ADD37R,0.500000X0.550000*%
%ADD38R,0.900000X1.000000*%
%ADD39RoundRect,0.249999X-0.395001X0.395001X-0.395001X-0.395001X0.395001X-0.395001X0.395001X0.395001X0*%
%ADD40RoundRect,0.050000X-0.050000X0.387500X-0.050000X-0.387500X0.050000X-0.387500X0.050000X0.387500X0*%
%ADD41RoundRect,0.050000X-0.387500X0.050000X-0.387500X-0.050000X0.387500X-0.050000X0.387500X0.050000X0*%
%ADD42RoundRect,0.250000X0.850000X-0.375000X0.850000X0.375000X-0.850000X0.375000X-0.850000X-0.375000X0*%
G04 APERTURE END LIST*
%TO.C,U5*%
D10*
X237271800Y-139379400D02*
X235771800Y-139379400D01*
X235771800Y-138319400D01*
X237271800Y-138319400D01*
X237271800Y-139379400D01*
G36*
X237271800Y-139379400D02*
G01*
X235771800Y-139379400D01*
X235771800Y-138319400D01*
X237271800Y-138319400D01*
X237271800Y-139379400D01*
G37*
X237271800Y-140639400D02*
X235771800Y-140639400D01*
X235771800Y-139579400D01*
X237271800Y-139579400D01*
X237271800Y-140639400D01*
G36*
X237271800Y-140639400D02*
G01*
X235771800Y-140639400D01*
X235771800Y-139579400D01*
X237271800Y-139579400D01*
X237271800Y-140639400D01*
G37*
X236396800Y-138119400D02*
X236146800Y-138119400D01*
X236146800Y-137779400D01*
X236396800Y-137779400D01*
X236396800Y-138119400D01*
G36*
X236396800Y-138119400D02*
G01*
X236146800Y-138119400D01*
X236146800Y-137779400D01*
X236396800Y-137779400D01*
X236396800Y-138119400D01*
G37*
X236396800Y-141179400D02*
X236146800Y-141179400D01*
X236146800Y-140839400D01*
X236396800Y-140839400D01*
X236396800Y-141179400D01*
G36*
X236396800Y-141179400D02*
G01*
X236146800Y-141179400D01*
X236146800Y-140839400D01*
X236396800Y-140839400D01*
X236396800Y-141179400D01*
G37*
X236896800Y-138119400D02*
X236646800Y-138119400D01*
X236646800Y-137779400D01*
X236896800Y-137779400D01*
X236896800Y-138119400D01*
G36*
X236896800Y-138119400D02*
G01*
X236646800Y-138119400D01*
X236646800Y-137779400D01*
X236896800Y-137779400D01*
X236896800Y-138119400D01*
G37*
X236896800Y-141179400D02*
X236646800Y-141179400D01*
X236646800Y-140839400D01*
X236896800Y-140839400D01*
X236896800Y-141179400D01*
G36*
X236896800Y-141179400D02*
G01*
X236646800Y-141179400D01*
X236646800Y-140839400D01*
X236896800Y-140839400D01*
X236896800Y-141179400D01*
G37*
%TD*%
D11*
%TO.C,C5*%
X246634400Y-123095000D03*
X246634400Y-124055000D03*
%TD*%
D12*
%TO.C,C6*%
X253505000Y-119600000D03*
X252545000Y-119600000D03*
%TD*%
D13*
%TO.C,R16*%
X246860800Y-142862600D03*
X246170800Y-142862600D03*
%TD*%
D14*
%TO.C,R25*%
X213035000Y-143050000D03*
X213725000Y-143050000D03*
%TD*%
D15*
%TO.C,C10*%
X250802200Y-138582400D03*
X251762200Y-138582400D03*
%TD*%
D13*
%TO.C,R12*%
X231245000Y-110690000D03*
X230555000Y-110690000D03*
%TD*%
D16*
%TO.C,Q3*%
X229484000Y-114604800D03*
X229484000Y-113954800D03*
X229484000Y-113304800D03*
X227584000Y-113304800D03*
X227584000Y-113954800D03*
X227584000Y-114604800D03*
%TD*%
D14*
%TO.C,R22*%
X225815000Y-113680000D03*
X226505000Y-113680000D03*
%TD*%
D17*
%TO.C,U3*%
X243604600Y-135566400D03*
X243604600Y-136566400D03*
X243604600Y-137566400D03*
X243604600Y-138566400D03*
X243604600Y-139566400D03*
X249104600Y-139566400D03*
X249104600Y-138566400D03*
X249104600Y-137566400D03*
X249104600Y-136566400D03*
X249104600Y-135566400D03*
D18*
X246354600Y-137566400D03*
%TD*%
D14*
%TO.C,R23*%
X241375000Y-144570000D03*
X242065000Y-144570000D03*
%TD*%
D19*
%TO.C,J1*%
X271276600Y-116208100D03*
X270626600Y-116208100D03*
X269976600Y-116208100D03*
X269326600Y-116208100D03*
X268676600Y-116208100D03*
D20*
X273189100Y-115733100D03*
X266764100Y-115733100D03*
D21*
X273246600Y-113373100D03*
X266706600Y-113373100D03*
%TD*%
D22*
%TO.C,C2*%
X255531800Y-114392500D03*
X255531800Y-113702500D03*
%TD*%
%TO.C,R17*%
X246873000Y-131774800D03*
X246873000Y-131084800D03*
%TD*%
D12*
%TO.C,C7*%
X251355000Y-111074200D03*
X250395000Y-111074200D03*
%TD*%
D14*
%TO.C,R21*%
X225815000Y-114450000D03*
X226505000Y-114450000D03*
%TD*%
%TO.C,R8*%
X237263800Y-141833600D03*
X237953800Y-141833600D03*
%TD*%
%TO.C,R19*%
X225805000Y-111430000D03*
X226495000Y-111430000D03*
%TD*%
D22*
%TO.C,R18*%
X245476000Y-131774800D03*
X245476000Y-131084800D03*
%TD*%
D11*
%TO.C,C8*%
X241615000Y-136622600D03*
X241615000Y-137582600D03*
%TD*%
D23*
%TO.C,AE1*%
X253959200Y-139566400D03*
X257109200Y-139566400D03*
%TD*%
D13*
%TO.C,R2*%
X255021200Y-116505500D03*
X254331200Y-116505500D03*
%TD*%
D24*
%TO.C,R1*%
X243275000Y-116350000D03*
X243275000Y-117040000D03*
%TD*%
D22*
%TO.C,R7*%
X267675000Y-133395000D03*
X267675000Y-132705000D03*
%TD*%
D25*
%TO.C,U1*%
X254728400Y-111964700D03*
X254228400Y-111964700D03*
X253728400Y-111964700D03*
X253228400Y-111964700D03*
X253228400Y-114364700D03*
X253728400Y-114364700D03*
X254228400Y-114364700D03*
X254728400Y-114364700D03*
D26*
X253978400Y-113164700D03*
%TD*%
D27*
%TO.C,U5*%
X235121800Y-138479400D03*
X235121800Y-138979400D03*
X235121800Y-139479400D03*
X235121800Y-139979400D03*
X235121800Y-140479400D03*
X237921800Y-140479400D03*
X237921800Y-139979400D03*
X237921800Y-139479400D03*
X237921800Y-138979400D03*
X237921800Y-138479400D03*
%TD*%
D28*
%TO.C,L5*%
X245873800Y-152846500D03*
X246543800Y-152846500D03*
X246543800Y-152176500D03*
X245873800Y-152176500D03*
%TD*%
D29*
%TO.C,Y1*%
X240600000Y-115680000D03*
X240600000Y-116880000D03*
X240600000Y-118080000D03*
%TD*%
D16*
%TO.C,Q4*%
X245054200Y-144170400D03*
X245054200Y-143520400D03*
X245054200Y-142870400D03*
X243154200Y-142870400D03*
X243154200Y-143520400D03*
X243154200Y-144170400D03*
%TD*%
%TO.C,Q2*%
X229484000Y-111734600D03*
X229484000Y-111084600D03*
X229484000Y-110434600D03*
X227584000Y-110434600D03*
X227584000Y-111084600D03*
X227584000Y-111734600D03*
%TD*%
D12*
%TO.C,C1*%
X255530000Y-118175000D03*
X254570000Y-118175000D03*
%TD*%
D30*
%TO.C,C12*%
X231121600Y-142832200D03*
X233021600Y-142832200D03*
%TD*%
D28*
%TO.C,L9*%
X209126400Y-64053000D03*
X209796400Y-64053000D03*
X209796400Y-63383000D03*
X209126400Y-63383000D03*
%TD*%
D22*
%TO.C,R27*%
X209850000Y-111735000D03*
X209850000Y-111045000D03*
%TD*%
D28*
%TO.C,L1*%
X267682600Y-129232000D03*
X268352600Y-129232000D03*
X268352600Y-128562000D03*
X267682600Y-128562000D03*
%TD*%
D31*
%TO.C,C14*%
X237923800Y-136050400D03*
X236023800Y-136050400D03*
%TD*%
D28*
%TO.C,L6*%
X221187500Y-127639000D03*
X221857500Y-127639000D03*
X221857500Y-126969000D03*
X221187500Y-126969000D03*
%TD*%
D32*
%TO.C,C9*%
X238510000Y-125135000D03*
X238510000Y-123585000D03*
%TD*%
D11*
%TO.C,C4*%
X247625000Y-123095000D03*
X247625000Y-124055000D03*
%TD*%
D14*
%TO.C,R20*%
X225805000Y-110660000D03*
X226495000Y-110660000D03*
%TD*%
D33*
%TO.C,U4*%
X236560000Y-121450000D03*
D34*
X235060000Y-123300000D03*
D33*
X233560000Y-121450000D03*
X233560000Y-125150000D03*
X236560000Y-125150000D03*
%TD*%
D24*
%TO.C,C13*%
X238912400Y-141234600D03*
X238912400Y-141924600D03*
%TD*%
D35*
%TO.C,C11*%
X231740000Y-122295000D03*
X231740000Y-123845000D03*
%TD*%
D24*
%TO.C,R9*%
X246923800Y-126233400D03*
X246923800Y-126923400D03*
%TD*%
D13*
%TO.C,R3*%
X255021200Y-117292900D03*
X254331200Y-117292900D03*
%TD*%
D28*
%TO.C,L4*%
X217662500Y-124051500D03*
X218332500Y-124051500D03*
X218332500Y-123381500D03*
X217662500Y-123381500D03*
%TD*%
D36*
%TO.C,Q1*%
X246837200Y-128041400D03*
X246187200Y-128041400D03*
X245537200Y-128041400D03*
X245537200Y-129941400D03*
X246187200Y-129941400D03*
X246837200Y-129941400D03*
%TD*%
D14*
%TO.C,R5*%
X239715000Y-119140000D03*
X240405000Y-119140000D03*
%TD*%
%TO.C,R24*%
X241369800Y-143796600D03*
X242059800Y-143796600D03*
%TD*%
D28*
%TO.C,L3*%
X253690000Y-133734600D03*
X254360000Y-133734600D03*
X254360000Y-133064600D03*
X253690000Y-133064600D03*
%TD*%
%TO.C,L8*%
X217662500Y-131226500D03*
X218332500Y-131226500D03*
X218332500Y-130556500D03*
X217662500Y-130556500D03*
%TD*%
D13*
%TO.C,R13*%
X231281800Y-115011200D03*
X230591800Y-115011200D03*
%TD*%
D28*
%TO.C,L7*%
X234473800Y-152846500D03*
X235143800Y-152846500D03*
X235143800Y-152176500D03*
X234473800Y-152176500D03*
%TD*%
D15*
%TO.C,C3*%
X252545000Y-118584000D03*
X253505000Y-118584000D03*
%TD*%
D37*
%TO.C,SW1*%
X263836200Y-114812200D03*
X264636200Y-114812200D03*
X263836200Y-112162200D03*
X264636200Y-112162200D03*
%TD*%
D14*
%TO.C,R26*%
X214503000Y-143050000D03*
X215193000Y-143050000D03*
%TD*%
D13*
%TO.C,R14*%
X231275000Y-113570000D03*
X230585000Y-113570000D03*
%TD*%
D38*
%TO.C,Y2*%
X241668600Y-141427200D03*
X241668600Y-139277200D03*
X240118600Y-139277200D03*
X240118600Y-141427200D03*
%TD*%
D24*
%TO.C,R10*%
X245450600Y-126258800D03*
X245450600Y-126948800D03*
%TD*%
D39*
%TO.C,U2*%
X248691200Y-114935000D03*
X247091200Y-114935000D03*
X248691200Y-116535000D03*
X247091200Y-116535000D03*
D40*
X250491200Y-112297500D03*
X250091200Y-112297500D03*
X249691200Y-112297500D03*
X249291200Y-112297500D03*
X248891200Y-112297500D03*
X248491200Y-112297500D03*
X248091200Y-112297500D03*
X247691200Y-112297500D03*
X247291200Y-112297500D03*
X246891200Y-112297500D03*
X246491200Y-112297500D03*
X246091200Y-112297500D03*
X245691200Y-112297500D03*
X245291200Y-112297500D03*
D41*
X244453700Y-113135000D03*
X244453700Y-113535000D03*
X244453700Y-113935000D03*
X244453700Y-114335000D03*
X244453700Y-114735000D03*
X244453700Y-115135000D03*
X244453700Y-115535000D03*
X244453700Y-115935000D03*
X244453700Y-116335000D03*
X244453700Y-116735000D03*
X244453700Y-117135000D03*
X244453700Y-117535000D03*
X244453700Y-117935000D03*
X244453700Y-118335000D03*
D40*
X245291200Y-119172500D03*
X245691200Y-119172500D03*
X246091200Y-119172500D03*
X246491200Y-119172500D03*
X246891200Y-119172500D03*
X247291200Y-119172500D03*
X247691200Y-119172500D03*
X248091200Y-119172500D03*
X248491200Y-119172500D03*
X248891200Y-119172500D03*
X249291200Y-119172500D03*
X249691200Y-119172500D03*
X250091200Y-119172500D03*
X250491200Y-119172500D03*
D41*
X251328700Y-118335000D03*
X251328700Y-117935000D03*
X251328700Y-117535000D03*
X251328700Y-117135000D03*
X251328700Y-116735000D03*
X251328700Y-116335000D03*
X251328700Y-115935000D03*
X251328700Y-115535000D03*
X251328700Y-115135000D03*
X251328700Y-114735000D03*
X251328700Y-114335000D03*
X251328700Y-113935000D03*
X251328700Y-113535000D03*
X251328700Y-113135000D03*
%TD*%
D13*
%TO.C,R4*%
X256232400Y-112066300D03*
X255542400Y-112066300D03*
%TD*%
D28*
%TO.C,L2*%
X214137500Y-127639000D03*
X214807500Y-127639000D03*
X214807500Y-126969000D03*
X214137500Y-126969000D03*
%TD*%
D13*
%TO.C,R6*%
X236965000Y-119990000D03*
X236275000Y-119990000D03*
%TD*%
%TO.C,R15*%
X246860800Y-144183400D03*
X246170800Y-144183400D03*
%TD*%
%TO.C,R11*%
X231245000Y-111800000D03*
X230555000Y-111800000D03*
%TD*%
D42*
%TO.C,I1*%
X233019600Y-140876600D03*
X233019600Y-138726600D03*
%TD*%
M02*
