%TF.GenerationSoftware,KiCad,Pcbnew,7.0.6*%
%TF.CreationDate,2024-04-04T16:43:01-07:00*%
%TF.ProjectId,retroglowplus_gbc,72657472-6f67-46c6-9f77-706c75735f67,rev?*%
%TF.SameCoordinates,Original*%
%TF.FileFunction,Drillmap*%
%TF.FilePolarity,Positive*%
%FSLAX45Y45*%
G04 Gerber Fmt 4.5, Leading zero omitted, Abs format (unit mm)*
G04 Created by KiCad (PCBNEW 7.0.6) date 2024-04-04 16:43:01*
%MOMM*%
%LPD*%
G01*
G04 APERTURE LIST*
%ADD10C,0.001000*%
%ADD11C,0.200000*%
%ADD12C,0.030000*%
%ADD13C,0.035000*%
%ADD14C,0.040000*%
%ADD15C,0.050000*%
%ADD16C,0.100000*%
%ADD17C,0.125000*%
%ADD18C,0.150000*%
G04 APERTURE END LIST*
D10*
X20756908Y-11747862D02*
G75*
G03*
X20631913Y-11622862I-124998J2D01*
G01*
X20546060Y-16239746D02*
X20546060Y-14097741D01*
X26106810Y-14213900D02*
G75*
G03*
X26226807Y-14333900I120000J0D01*
G01*
X26681810Y-13878900D02*
G75*
G03*
X26561807Y-13758900I-120000J0D01*
G01*
X26423370Y-11119040D02*
G75*
G03*
X26323370Y-11219040I-10J-99990D01*
G01*
X26512637Y-14676307D02*
G75*
G03*
X25634139Y-15307493I3J-926953D01*
G01*
X22611106Y-14640600D02*
X22453764Y-14483258D01*
X20946461Y-14103961D02*
G75*
G03*
X20946461Y-14103961I-150000J0D01*
G01*
X21274423Y-6856361D02*
X21274423Y-9575529D01*
X21746314Y-8395786D02*
G75*
G03*
X21646308Y-8295786I-100004J-4D01*
G01*
X20546060Y-11622862D02*
X20631913Y-11622862D01*
X21009659Y-9902867D02*
X21009659Y-9775529D01*
X27546060Y-13390189D02*
G75*
G03*
X27521060Y-13346888I-50000J-1D01*
G01*
X26561807Y-14333907D02*
G75*
G03*
X26681807Y-14213900I-7J120007D01*
G01*
X20756913Y-11747862D02*
X20756913Y-11756031D01*
X23113601Y-13731049D02*
G75*
G03*
X23113601Y-13731049I-150000J0D01*
G01*
X20881106Y-15390600D02*
X20881106Y-14640600D01*
X27446060Y-14676310D02*
G75*
G03*
X27546060Y-14576308I-10J100010D01*
G01*
X22867263Y-16486043D02*
G75*
G03*
X22967263Y-16386044I-3J100003D01*
G01*
X20654424Y-6070404D02*
X22195865Y-6070404D01*
X27589356Y-13278590D02*
G75*
G03*
X27632662Y-13303587I43304J25010D01*
G01*
X20742703Y-11085396D02*
X20742703Y-10102867D01*
X23167263Y-15443683D02*
G75*
G03*
X22967263Y-15643678I-3J-199997D01*
G01*
X22611106Y-16386044D02*
G75*
G03*
X22711106Y-16486044I100004J4D01*
G01*
X26226807Y-13758907D02*
G75*
G03*
X26106807Y-13878900I-7J-119993D01*
G01*
X22611106Y-15390600D02*
X22611106Y-14640600D01*
X28396060Y-12534276D02*
X28396060Y-13253587D01*
X27446060Y-14676308D02*
X26512637Y-14676308D01*
X20631913Y-11881033D02*
G75*
G03*
X20756913Y-11756031I-3J125003D01*
G01*
X21505074Y-9032726D02*
G75*
G03*
X21605070Y-9132726I99996J-4D01*
G01*
X21038447Y-14483258D02*
X22453764Y-14483258D01*
X25748376Y-11056254D02*
G75*
G03*
X25648370Y-10956254I-99996J4D01*
G01*
X21605070Y-8295790D02*
G75*
G03*
X21505070Y-8395786I0J-100000D01*
G01*
X26226807Y-13758900D02*
X26561807Y-13758900D01*
X21721228Y-10460298D02*
G75*
G03*
X21646228Y-10535305I2J-75002D01*
G01*
X20881106Y-15390600D02*
X20881106Y-16386044D01*
X27546060Y-13390189D02*
X27546060Y-14097741D01*
X20781106Y-16486036D02*
G75*
G03*
X20881106Y-16386044I4J99996D01*
G01*
X21821228Y-10956254D02*
X25648370Y-10956254D01*
X22295856Y-6170404D02*
G75*
G03*
X22195865Y-6070404I-99996J4D01*
G01*
X26561807Y-14333900D02*
X26226807Y-14333900D01*
X20546060Y-14097741D02*
X20546060Y-11881031D01*
X21746308Y-8395786D02*
X21746308Y-9032726D01*
X27521060Y-12440975D02*
G75*
G03*
X27546060Y-12397673I-24990J43295D01*
G01*
X20842703Y-10002867D02*
X20909659Y-10002867D01*
X21646308Y-9132726D02*
X21605070Y-9132726D01*
X21646225Y-10695305D02*
G75*
G03*
X21721228Y-10770305I75005J5D01*
G01*
X21646228Y-10535305D02*
X21646228Y-10695305D01*
X27459963Y-13619835D02*
G75*
G03*
X27459963Y-13619835I-150000J0D01*
G01*
X22611106Y-16386044D02*
X22611106Y-15390600D01*
X25748373Y-11764926D02*
G75*
G03*
X25868370Y-11884926I120007J7D01*
G01*
X20654424Y-6070403D02*
G75*
G03*
X20554424Y-6170404I-4J-99997D01*
G01*
X21209659Y-9575529D02*
X21274423Y-9575529D01*
X21605070Y-8295786D02*
X21646308Y-8295786D01*
X21646308Y-9132728D02*
G75*
G03*
X21746308Y-9032726I2J99998D01*
G01*
X20554424Y-6656361D02*
X20554424Y-6170404D01*
X21721228Y-10770305D02*
X21721228Y-10856254D01*
X26106807Y-14213900D02*
X26106807Y-13878900D01*
X21721226Y-10856254D02*
G75*
G03*
X21821228Y-10956254I100004J4D01*
G01*
X23652944Y-12906940D02*
G75*
G03*
X23652944Y-12906940I-150000J0D01*
G01*
X25577154Y-14412652D02*
G75*
G03*
X25577154Y-14412652I-150000J0D01*
G01*
X22095867Y-10460317D02*
G75*
G03*
X22295867Y-10260310I-7J200007D01*
G01*
X20646060Y-11185396D02*
X20642703Y-11185396D01*
X20546062Y-16239746D02*
G75*
G03*
X20608499Y-16462075I427048J-4D01*
G01*
X20842703Y-10002873D02*
G75*
G03*
X20742703Y-10102867I-3J-99997D01*
G01*
X20554419Y-6656361D02*
G75*
G03*
X20654424Y-6756361I100002J2D01*
G01*
X25855795Y-12232080D02*
G75*
G03*
X25855795Y-12232080I-150000J0D01*
G01*
X26451679Y-13344213D02*
G75*
G03*
X26451679Y-13344213I-200000J0D01*
G01*
X22867263Y-16486044D02*
X22711106Y-16486044D01*
X22928588Y-14315756D02*
G75*
G03*
X22928588Y-14315756I-150000J0D01*
G01*
X20546060Y-11369040D02*
X20546060Y-11622862D01*
X28346060Y-13303580D02*
G75*
G03*
X28396060Y-13253587I0J50000D01*
G01*
X28346060Y-13303587D02*
X27632662Y-13303587D01*
X20881106Y-14640600D02*
X21038447Y-14483258D01*
X21505070Y-9032726D02*
X21505070Y-8395786D01*
X20781106Y-16486044D02*
X20651188Y-16486044D01*
X20631913Y-11881031D02*
X20546060Y-11881031D01*
X20646060Y-11185400D02*
G75*
G03*
X20546060Y-11285396I0J-100000D01*
G01*
X20546060Y-11369040D02*
X20546060Y-11285396D01*
X26323370Y-11429926D02*
X26323370Y-11219040D01*
X28396064Y-12534276D02*
G75*
G03*
X28346060Y-12484276I-49994J6D01*
G01*
X26323370Y-11764926D02*
X26323370Y-11429926D01*
X25748370Y-11056254D02*
X25748370Y-11219040D01*
X20608498Y-16462075D02*
G75*
G03*
X20651188Y-16486044I42692J26035D01*
G01*
X25748370Y-11429926D02*
X25748370Y-11764926D01*
X27546060Y-11369040D02*
X27546060Y-12397673D01*
X20654424Y-6756361D02*
X21174423Y-6756361D01*
X22967263Y-15643678D02*
X22967263Y-16386044D01*
X27521056Y-12440968D02*
G75*
G03*
X27589361Y-12509276I25004J-43302D01*
G01*
X25444593Y-15443675D02*
G75*
G03*
X25634139Y-15307493I-3J200005D01*
G01*
X27632662Y-12484276D02*
X28346060Y-12484276D01*
X26203370Y-11884920D02*
G75*
G03*
X26323370Y-11764926I0J120000D01*
G01*
X25868370Y-11884926D02*
X26203370Y-11884926D01*
X26681807Y-13878900D02*
X26681807Y-14213900D01*
X27632662Y-12484275D02*
G75*
G03*
X27589361Y-12509276I-3J-49995D01*
G01*
X20909659Y-10002869D02*
G75*
G03*
X21009659Y-9902867I1J99999D01*
G01*
X22295865Y-6170404D02*
X22295867Y-10260310D01*
X25748370Y-11219040D02*
X25748370Y-11429926D01*
X20642703Y-11185403D02*
G75*
G03*
X20742703Y-11085396I-3J100003D01*
G01*
X23874793Y-14359062D02*
G75*
G03*
X23874793Y-14359062I-125000J0D01*
G01*
X21209659Y-9575529D02*
G75*
G03*
X21009659Y-9775529I1J-200001D01*
G01*
X27589358Y-13278589D02*
G75*
G03*
X27521060Y-13346888I-43298J-25001D01*
G01*
X27546060Y-14097741D02*
X27546060Y-14576308D01*
X26423370Y-11119040D02*
X27296060Y-11119040D01*
X27546060Y-11369040D02*
G75*
G03*
X27296060Y-11119040I-250000J0D01*
G01*
X25444593Y-15443678D02*
X23167263Y-15443678D01*
X21274419Y-6856361D02*
G75*
G03*
X21174423Y-6756361I-99999J2D01*
G01*
X22095865Y-10460305D02*
X21721228Y-10460305D01*
D11*
D12*
X20965400Y-10366000D02*
X20995400Y-10396000D01*
X20995400Y-10366000D02*
X20965400Y-10396000D01*
X21444850Y-12860850D02*
X21474850Y-12890850D01*
X21474850Y-12860850D02*
X21444850Y-12890850D01*
X21577850Y-12495370D02*
X21607850Y-12525370D01*
X21607850Y-12495370D02*
X21577850Y-12525370D01*
X21958000Y-12596990D02*
X21988000Y-12626990D01*
X21988000Y-12596990D02*
X21958000Y-12626990D01*
X22201590Y-12850870D02*
X22231590Y-12880870D01*
X22231590Y-12850870D02*
X22201590Y-12880870D01*
X22203850Y-12573510D02*
X22233850Y-12603510D01*
X22233850Y-12573510D02*
X22203850Y-12603510D01*
X22519530Y-11593720D02*
X22549530Y-11623720D01*
X22549530Y-11593720D02*
X22519530Y-11623720D01*
X22554420Y-11211840D02*
X22584420Y-11241840D01*
X22584420Y-11211840D02*
X22554420Y-11241840D01*
X23204630Y-12072500D02*
X23234630Y-12102500D01*
X23234630Y-12072500D02*
X23204630Y-12102500D01*
X23410000Y-11479000D02*
X23440000Y-11509000D01*
X23440000Y-11479000D02*
X23410000Y-11509000D01*
X23808000Y-12614850D02*
X23838000Y-12644850D01*
X23838000Y-12614850D02*
X23808000Y-12644850D01*
X24426290Y-15262190D02*
X24456290Y-15292190D01*
X24456290Y-15262190D02*
X24426290Y-15292190D01*
X24531630Y-12884140D02*
X24561630Y-12914140D01*
X24561630Y-12884140D02*
X24531630Y-12914140D01*
X24757700Y-15236590D02*
X24787700Y-15266590D01*
X24787700Y-15236590D02*
X24757700Y-15266590D01*
X24830990Y-12869490D02*
X24860990Y-12899490D01*
X24860990Y-12869490D02*
X24830990Y-12899490D01*
X25399280Y-13605130D02*
X25429280Y-13635130D01*
X25429280Y-13605130D02*
X25399280Y-13635130D01*
X25717890Y-13667250D02*
X25747890Y-13697250D01*
X25747890Y-13667250D02*
X25717890Y-13697250D01*
X26147000Y-12046000D02*
X26177000Y-12076000D01*
X26177000Y-12046000D02*
X26147000Y-12076000D01*
X26277000Y-12038000D02*
X26307000Y-12068000D01*
X26307000Y-12038000D02*
X26277000Y-12068000D01*
X26974500Y-13476720D02*
X27004500Y-13506720D01*
X27004500Y-13476720D02*
X26974500Y-13506720D01*
X27434000Y-12742000D02*
X27464000Y-12772000D01*
X27464000Y-12742000D02*
X27434000Y-12772000D01*
X27436100Y-12848100D02*
X27466100Y-12878100D01*
X27466100Y-12848100D02*
X27436100Y-12878100D01*
D13*
X21133500Y-11061000D02*
G75*
G03*
X21133500Y-11061000I-17500J0D01*
G01*
X21136500Y-11301000D02*
G75*
G03*
X21136500Y-11301000I-17500J0D01*
G01*
X21197500Y-10787000D02*
G75*
G03*
X21197500Y-10787000I-17500J0D01*
G01*
X21215500Y-12212000D02*
G75*
G03*
X21215500Y-12212000I-17500J0D01*
G01*
X21228500Y-11996000D02*
G75*
G03*
X21228500Y-11996000I-17500J0D01*
G01*
X21229500Y-11256000D02*
G75*
G03*
X21229500Y-11256000I-17500J0D01*
G01*
X21244500Y-10970000D02*
G75*
G03*
X21244500Y-10970000I-17500J0D01*
G01*
X21305500Y-11052000D02*
G75*
G03*
X21305500Y-11052000I-17500J0D01*
G01*
X21320500Y-11240000D02*
G75*
G03*
X21320500Y-11240000I-17500J0D01*
G01*
X21372500Y-11514000D02*
G75*
G03*
X21372500Y-11514000I-17500J0D01*
G01*
X21420500Y-11864000D02*
G75*
G03*
X21420500Y-11864000I-17500J0D01*
G01*
X21450500Y-12057000D02*
G75*
G03*
X21450500Y-12057000I-17500J0D01*
G01*
X21467500Y-12246000D02*
G75*
G03*
X21467500Y-12246000I-17500J0D01*
G01*
X21469500Y-10060000D02*
G75*
G03*
X21469500Y-10060000I-17500J0D01*
G01*
X21480500Y-11389000D02*
G75*
G03*
X21480500Y-11389000I-17500J0D01*
G01*
X21590500Y-12302000D02*
G75*
G03*
X21590500Y-12302000I-17500J0D01*
G01*
X21837500Y-9987000D02*
G75*
G03*
X21837500Y-9987000I-17500J0D01*
G01*
X21841500Y-9836000D02*
G75*
G03*
X21841500Y-9836000I-17500J0D01*
G01*
X21985500Y-12318000D02*
G75*
G03*
X21985500Y-12318000I-17500J0D01*
G01*
X22055500Y-10138000D02*
G75*
G03*
X22055500Y-10138000I-17500J0D01*
G01*
X22075500Y-11457000D02*
G75*
G03*
X22075500Y-11457000I-17500J0D01*
G01*
X22103500Y-10012000D02*
G75*
G03*
X22103500Y-10012000I-17500J0D01*
G01*
X22123500Y-11190000D02*
G75*
G03*
X22123500Y-11190000I-17500J0D01*
G01*
X22142500Y-11397000D02*
G75*
G03*
X22142500Y-11397000I-17500J0D01*
G01*
X22210500Y-12028000D02*
G75*
G03*
X22210500Y-12028000I-17500J0D01*
G01*
X22217500Y-14171000D02*
G75*
G03*
X22217500Y-14171000I-17500J0D01*
G01*
X22332500Y-11944000D02*
G75*
G03*
X22332500Y-11944000I-17500J0D01*
G01*
X22414500Y-12349000D02*
G75*
G03*
X22414500Y-12349000I-17500J0D01*
G01*
X22480570Y-11152943D02*
G75*
G03*
X22480570Y-11152943I-17500J0D01*
G01*
X22542500Y-12065000D02*
G75*
G03*
X22542500Y-12065000I-17500J0D01*
G01*
X22734500Y-12101000D02*
G75*
G03*
X22734500Y-12101000I-17500J0D01*
G01*
X22754500Y-11796000D02*
G75*
G03*
X22754500Y-11796000I-17500J0D01*
G01*
X22803500Y-12043000D02*
G75*
G03*
X22803500Y-12043000I-17500J0D01*
G01*
X22859500Y-11801000D02*
G75*
G03*
X22859500Y-11801000I-17500J0D01*
G01*
X23205000Y-14852500D02*
G75*
G03*
X23205000Y-14852500I-17500J0D01*
G01*
X23331500Y-11585000D02*
G75*
G03*
X23331500Y-11585000I-17500J0D01*
G01*
X23389500Y-11204000D02*
G75*
G03*
X23389500Y-11204000I-17500J0D01*
G01*
X23594500Y-11198000D02*
G75*
G03*
X23594500Y-11198000I-17500J0D01*
G01*
X23597400Y-14844500D02*
G75*
G03*
X23597400Y-14844500I-17500J0D01*
G01*
X23669500Y-11240000D02*
G75*
G03*
X23669500Y-11240000I-17500J0D01*
G01*
X23669865Y-15376229D02*
G75*
G03*
X23669865Y-15376229I-17500J0D01*
G01*
X23670000Y-13863300D02*
G75*
G03*
X23670000Y-13863300I-17500J0D01*
G01*
X23670000Y-14031000D02*
G75*
G03*
X23670000Y-14031000I-17500J0D01*
G01*
X23728500Y-13295000D02*
G75*
G03*
X23728500Y-13295000I-17500J0D01*
G01*
X23784500Y-13365000D02*
G75*
G03*
X23784500Y-13365000I-17500J0D01*
G01*
X23793000Y-15050200D02*
G75*
G03*
X23793000Y-15050200I-17500J0D01*
G01*
X23915500Y-13798000D02*
G75*
G03*
X23915500Y-13798000I-17500J0D01*
G01*
X23984500Y-13747000D02*
G75*
G03*
X23984500Y-13747000I-17500J0D01*
G01*
X24060000Y-13362500D02*
G75*
G03*
X24060000Y-13362500I-17500J0D01*
G01*
X24075500Y-14414000D02*
G75*
G03*
X24075500Y-14414000I-17500J0D01*
G01*
X24077500Y-11688000D02*
G75*
G03*
X24077500Y-11688000I-17500J0D01*
G01*
X24145000Y-13352500D02*
G75*
G03*
X24145000Y-13352500I-17500J0D01*
G01*
X24153500Y-15214000D02*
G75*
G03*
X24153500Y-15214000I-17500J0D01*
G01*
X24227500Y-13377500D02*
G75*
G03*
X24227500Y-13377500I-17500J0D01*
G01*
X24260000Y-13757500D02*
G75*
G03*
X24260000Y-13757500I-17500J0D01*
G01*
X24285000Y-14632500D02*
G75*
G03*
X24285000Y-14632500I-17500J0D01*
G01*
X24290600Y-11637300D02*
G75*
G03*
X24290600Y-11637300I-17500J0D01*
G01*
X24312500Y-13402500D02*
G75*
G03*
X24312500Y-13402500I-17500J0D01*
G01*
X24347500Y-14692500D02*
G75*
G03*
X24347500Y-14692500I-17500J0D01*
G01*
X24448500Y-12064000D02*
G75*
G03*
X24448500Y-12064000I-17500J0D01*
G01*
X24522500Y-14167500D02*
G75*
G03*
X24522500Y-14167500I-17500J0D01*
G01*
X24522500Y-14525000D02*
G75*
G03*
X24522500Y-14525000I-17500J0D01*
G01*
X24571500Y-11814000D02*
G75*
G03*
X24571500Y-11814000I-17500J0D01*
G01*
X24594500Y-13455000D02*
G75*
G03*
X24594500Y-13455000I-17500J0D01*
G01*
X24637500Y-14593000D02*
G75*
G03*
X24637500Y-14593000I-17500J0D01*
G01*
X24680000Y-12250000D02*
G75*
G03*
X24680000Y-12250000I-17500J0D01*
G01*
X24688500Y-11455400D02*
G75*
G03*
X24688500Y-11455400I-17500J0D01*
G01*
X24702555Y-11339480D02*
G75*
G03*
X24702555Y-11339480I-17500J0D01*
G01*
X24726500Y-13454000D02*
G75*
G03*
X24726500Y-13454000I-17500J0D01*
G01*
X24770200Y-11089200D02*
G75*
G03*
X24770200Y-11089200I-17500J0D01*
G01*
X24783300Y-13178300D02*
G75*
G03*
X24783300Y-13178300I-17500J0D01*
G01*
X24803500Y-14327000D02*
G75*
G03*
X24803500Y-14327000I-17500J0D01*
G01*
X24855000Y-12407500D02*
G75*
G03*
X24855000Y-12407500I-17500J0D01*
G01*
X24874500Y-11072000D02*
G75*
G03*
X24874500Y-11072000I-17500J0D01*
G01*
X24880000Y-12617500D02*
G75*
G03*
X24880000Y-12617500I-17500J0D01*
G01*
X24888500Y-15192000D02*
G75*
G03*
X24888500Y-15192000I-17500J0D01*
G01*
X24927300Y-11691600D02*
G75*
G03*
X24927300Y-11691600I-17500J0D01*
G01*
X24949500Y-12527000D02*
G75*
G03*
X24949500Y-12527000I-17500J0D01*
G01*
X24972500Y-14816000D02*
G75*
G03*
X24972500Y-14816000I-17500J0D01*
G01*
X24985500Y-14707000D02*
G75*
G03*
X24985500Y-14707000I-17500J0D01*
G01*
X24991500Y-12713000D02*
G75*
G03*
X24991500Y-12713000I-17500J0D01*
G01*
X25035500Y-13068000D02*
G75*
G03*
X25035500Y-13068000I-17500J0D01*
G01*
X25052500Y-11035000D02*
G75*
G03*
X25052500Y-11035000I-17500J0D01*
G01*
X25056500Y-12046000D02*
G75*
G03*
X25056500Y-12046000I-17500J0D01*
G01*
X25085000Y-13672500D02*
G75*
G03*
X25085000Y-13672500I-17500J0D01*
G01*
X25128500Y-12231000D02*
G75*
G03*
X25128500Y-12231000I-17500J0D01*
G01*
X25155500Y-12500000D02*
G75*
G03*
X25155500Y-12500000I-17500J0D01*
G01*
X25160000Y-11035000D02*
G75*
G03*
X25160000Y-11035000I-17500J0D01*
G01*
X25176500Y-14455000D02*
G75*
G03*
X25176500Y-14455000I-17500J0D01*
G01*
X25204500Y-14074000D02*
G75*
G03*
X25204500Y-14074000I-17500J0D01*
G01*
X25212500Y-13705000D02*
G75*
G03*
X25212500Y-13705000I-17500J0D01*
G01*
X25281500Y-14562000D02*
G75*
G03*
X25281500Y-14562000I-17500J0D01*
G01*
X25285500Y-15048000D02*
G75*
G03*
X25285500Y-15048000I-17500J0D01*
G01*
X25303500Y-14961000D02*
G75*
G03*
X25303500Y-14961000I-17500J0D01*
G01*
X25307500Y-13775000D02*
G75*
G03*
X25307500Y-13775000I-17500J0D01*
G01*
X25321500Y-12049000D02*
G75*
G03*
X25321500Y-12049000I-17500J0D01*
G01*
X25322500Y-11127500D02*
G75*
G03*
X25322500Y-11127500I-17500J0D01*
G01*
X25491500Y-12181000D02*
G75*
G03*
X25491500Y-12181000I-17500J0D01*
G01*
X25493500Y-11079000D02*
G75*
G03*
X25493500Y-11079000I-17500J0D01*
G01*
X25495500Y-11570000D02*
G75*
G03*
X25495500Y-11570000I-17500J0D01*
G01*
X25501500Y-12582000D02*
G75*
G03*
X25501500Y-12582000I-17500J0D01*
G01*
X25507500Y-11932500D02*
G75*
G03*
X25507500Y-11932500I-17500J0D01*
G01*
X25571500Y-11301000D02*
G75*
G03*
X25571500Y-11301000I-17500J0D01*
G01*
X25700500Y-11291000D02*
G75*
G03*
X25700500Y-11291000I-17500J0D01*
G01*
X25934500Y-12302000D02*
G75*
G03*
X25934500Y-12302000I-17500J0D01*
G01*
X26033500Y-12062000D02*
G75*
G03*
X26033500Y-12062000I-17500J0D01*
G01*
X26095500Y-12597000D02*
G75*
G03*
X26095500Y-12597000I-17500J0D01*
G01*
X26108500Y-12694000D02*
G75*
G03*
X26108500Y-12694000I-17500J0D01*
G01*
X26153500Y-12794000D02*
G75*
G03*
X26153500Y-12794000I-17500J0D01*
G01*
X26159500Y-12193000D02*
G75*
G03*
X26159500Y-12193000I-17500J0D01*
G01*
X26297500Y-12287500D02*
G75*
G03*
X26297500Y-12287500I-17500J0D01*
G01*
X26399500Y-11962000D02*
G75*
G03*
X26399500Y-11962000I-17500J0D01*
G01*
X26447500Y-11682000D02*
G75*
G03*
X26447500Y-11682000I-17500J0D01*
G01*
X26647500Y-13302500D02*
G75*
G03*
X26647500Y-13302500I-17500J0D01*
G01*
X26872500Y-11963000D02*
G75*
G03*
X26872500Y-11963000I-17500J0D01*
G01*
X26907500Y-11353000D02*
G75*
G03*
X26907500Y-11353000I-17500J0D01*
G01*
X26979500Y-11426000D02*
G75*
G03*
X26979500Y-11426000I-17500J0D01*
G01*
X27002500Y-12042500D02*
G75*
G03*
X27002500Y-12042500I-17500J0D01*
G01*
X27055500Y-11364000D02*
G75*
G03*
X27055500Y-11364000I-17500J0D01*
G01*
X27071000Y-11978600D02*
G75*
G03*
X27071000Y-11978600I-17500J0D01*
G01*
X27124380Y-12786360D02*
G75*
G03*
X27124380Y-12786360I-17500J0D01*
G01*
X27152500Y-11420000D02*
G75*
G03*
X27152500Y-11420000I-17500J0D01*
G01*
X27168500Y-12000000D02*
G75*
G03*
X27168500Y-12000000I-17500J0D01*
G01*
X27232500Y-12439000D02*
G75*
G03*
X27232500Y-12439000I-17500J0D01*
G01*
X27249500Y-12271000D02*
G75*
G03*
X27249500Y-12271000I-17500J0D01*
G01*
X27321500Y-11970000D02*
G75*
G03*
X27321500Y-11970000I-17500J0D01*
G01*
X27406500Y-12051000D02*
G75*
G03*
X27406500Y-12051000I-17500J0D01*
G01*
X27460500Y-12154000D02*
G75*
G03*
X27460500Y-12154000I-17500J0D01*
G01*
D14*
X21577000Y-12917000D02*
X21577000Y-12957000D01*
X21557000Y-12937000D02*
X21597000Y-12937000D01*
X21886189Y-12512343D02*
X21886189Y-12552343D01*
X21866189Y-12532343D02*
X21906189Y-12532343D01*
X22285170Y-11170169D02*
X22285170Y-11210169D01*
X22265170Y-11190169D02*
X22305170Y-11190169D01*
X22651055Y-11271013D02*
X22651055Y-11311013D01*
X22631055Y-11291013D02*
X22671055Y-11291013D01*
D15*
X21376678Y-6475678D02*
X21376678Y-6440322D01*
X21341322Y-6440322D01*
X21341322Y-6475678D01*
X21376678Y-6475678D01*
X21400678Y-6374678D02*
X21400678Y-6339322D01*
X21365322Y-6339322D01*
X21365322Y-6374678D01*
X21400678Y-6374678D01*
X21484678Y-6460678D02*
X21484678Y-6425322D01*
X21449322Y-6425322D01*
X21449322Y-6460678D01*
X21484678Y-6460678D01*
X21588678Y-6739678D02*
X21588678Y-6704322D01*
X21553322Y-6704322D01*
X21553322Y-6739678D01*
X21588678Y-6739678D01*
X21649678Y-13057678D02*
X21649678Y-13022322D01*
X21614322Y-13022322D01*
X21614322Y-13057678D01*
X21649678Y-13057678D01*
X21676179Y-13186266D02*
X21676179Y-13150911D01*
X21640823Y-13150911D01*
X21640823Y-13186266D01*
X21676179Y-13186266D01*
X21680678Y-6668678D02*
X21680678Y-6633322D01*
X21645322Y-6633322D01*
X21645322Y-6668678D01*
X21680678Y-6668678D01*
X21690678Y-6774678D02*
X21690678Y-6739322D01*
X21655322Y-6739322D01*
X21655322Y-6774678D01*
X21690678Y-6774678D01*
X21810678Y-12751678D02*
X21810678Y-12716322D01*
X21775322Y-12716322D01*
X21775322Y-12751678D01*
X21810678Y-12751678D01*
X22003678Y-12813678D02*
X22003678Y-12778322D01*
X21968322Y-12778322D01*
X21968322Y-12813678D01*
X22003678Y-12813678D01*
X22108078Y-6301638D02*
X22108078Y-6266282D01*
X22072722Y-6266282D01*
X22072722Y-6301638D01*
X22108078Y-6301638D01*
X22113178Y-6885838D02*
X22113178Y-6850482D01*
X22077822Y-6850482D01*
X22077822Y-6885838D01*
X22113178Y-6885838D01*
X22113178Y-7243978D02*
X22113178Y-7208622D01*
X22077822Y-7208622D01*
X22077822Y-7243978D01*
X22113178Y-7243978D01*
X22113178Y-7602118D02*
X22113178Y-7566762D01*
X22077822Y-7566762D01*
X22077822Y-7602118D01*
X22113178Y-7602118D01*
X22113178Y-7960258D02*
X22113178Y-7924902D01*
X22077822Y-7924902D01*
X22077822Y-7960258D01*
X22113178Y-7960258D01*
X22208678Y-13099678D02*
X22208678Y-13064322D01*
X22173322Y-13064322D01*
X22173322Y-13099678D01*
X22208678Y-13099678D01*
X22352678Y-11383678D02*
X22352678Y-11348322D01*
X22317322Y-11348322D01*
X22317322Y-11383678D01*
X22352678Y-11383678D01*
X22780678Y-11609678D02*
X22780678Y-11574322D01*
X22745322Y-11574322D01*
X22745322Y-11609678D01*
X22780678Y-11609678D01*
X22882678Y-15147678D02*
X22882678Y-15112322D01*
X22847322Y-15112322D01*
X22847322Y-15147678D01*
X22882678Y-15147678D01*
X23008678Y-11720678D02*
X23008678Y-11685322D01*
X22973322Y-11685322D01*
X22973322Y-11720678D01*
X23008678Y-11720678D01*
X23093678Y-12106678D02*
X23093678Y-12071322D01*
X23058322Y-12071322D01*
X23058322Y-12106678D01*
X23093678Y-12106678D01*
X23192678Y-12567678D02*
X23192678Y-12532322D01*
X23157322Y-12532322D01*
X23157322Y-12567678D01*
X23192678Y-12567678D01*
X23192678Y-12687678D02*
X23192678Y-12652322D01*
X23157322Y-12652322D01*
X23157322Y-12687678D01*
X23192678Y-12687678D01*
X23213678Y-15263678D02*
X23213678Y-15228322D01*
X23178322Y-15228322D01*
X23178322Y-15263678D01*
X23213678Y-15263678D01*
X23339978Y-13632078D02*
X23339978Y-13596722D01*
X23304622Y-13596722D01*
X23304622Y-13632078D01*
X23339978Y-13632078D01*
X23339978Y-13728578D02*
X23339978Y-13693222D01*
X23304622Y-13693222D01*
X23304622Y-13728578D01*
X23339978Y-13728578D01*
X23361678Y-11750678D02*
X23361678Y-11715322D01*
X23326322Y-11715322D01*
X23326322Y-11750678D01*
X23361678Y-11750678D01*
X23465678Y-11086678D02*
X23465678Y-11051322D01*
X23430322Y-11051322D01*
X23430322Y-11086678D01*
X23465678Y-11086678D01*
X23521178Y-12188778D02*
X23521178Y-12153422D01*
X23485822Y-12153422D01*
X23485822Y-12188778D01*
X23521178Y-12188778D01*
X23523378Y-12534678D02*
X23523378Y-12499322D01*
X23488022Y-12499322D01*
X23488022Y-12534678D01*
X23523378Y-12534678D01*
X23523678Y-12347678D02*
X23523678Y-12312322D01*
X23488322Y-12312322D01*
X23488322Y-12347678D01*
X23523678Y-12347678D01*
X23729678Y-11915678D02*
X23729678Y-11880322D01*
X23694322Y-11880322D01*
X23694322Y-11915678D01*
X23729678Y-11915678D01*
X23747678Y-15220678D02*
X23747678Y-15185322D01*
X23712322Y-15185322D01*
X23712322Y-15220678D01*
X23747678Y-15220678D01*
X23917478Y-13617878D02*
X23917478Y-13582522D01*
X23882122Y-13582522D01*
X23882122Y-13617878D01*
X23917478Y-13617878D01*
X24206678Y-12056678D02*
X24206678Y-12021322D01*
X24171322Y-12021322D01*
X24171322Y-12056678D01*
X24206678Y-12056678D01*
X27257678Y-12717678D02*
X27257678Y-12682322D01*
X27222322Y-12682322D01*
X27222322Y-12717678D01*
X27257678Y-12717678D01*
X27260178Y-12809078D02*
X27260178Y-12773722D01*
X27224822Y-12773722D01*
X27224822Y-12809078D01*
X27260178Y-12809078D01*
X27476778Y-12665878D02*
X27476778Y-12630522D01*
X27441422Y-12630522D01*
X27441422Y-12665878D01*
X27476778Y-12665878D01*
X27894178Y-12715178D02*
X27894178Y-12679822D01*
X27858822Y-12679822D01*
X27858822Y-12715178D01*
X27894178Y-12715178D01*
X27896678Y-13073278D02*
X27896678Y-13037922D01*
X27861322Y-13037922D01*
X27861322Y-13073278D01*
X27896678Y-13073278D01*
X28252278Y-12715178D02*
X28252278Y-12679822D01*
X28216922Y-12679822D01*
X28216922Y-12715178D01*
X28252278Y-12715178D01*
X28252278Y-13075778D02*
X28252278Y-13040422D01*
X28216922Y-13040422D01*
X28216922Y-13075778D01*
X28252278Y-13075778D01*
D16*
X20805140Y-6806400D02*
X20855140Y-6756400D01*
X20805140Y-6706400D01*
X20755140Y-6756400D01*
X20805140Y-6806400D01*
D11*
X20765140Y-6806400D02*
X20845140Y-6806400D01*
X20845140Y-6806400D02*
G75*
G03*
X20845140Y-6706400I0J50000D01*
G01*
X20845140Y-6706400D02*
X20765140Y-6706400D01*
X20765140Y-6706400D02*
G75*
G03*
X20765140Y-6806400I0J-50000D01*
G01*
D17*
X20901400Y-12079400D02*
X21026400Y-12204400D01*
X21026400Y-12079400D02*
X20901400Y-12204400D01*
X21026400Y-12141900D02*
G75*
G03*
X21026400Y-12141900I-62500J0D01*
G01*
X21145700Y-11609000D02*
X21270700Y-11734000D01*
X21270700Y-11609000D02*
X21145700Y-11734000D01*
X21270700Y-11671500D02*
G75*
G03*
X21270700Y-11671500I-62500J0D01*
G01*
X21364200Y-13031800D02*
X21489200Y-13156800D01*
X21489200Y-13031800D02*
X21364200Y-13156800D01*
X21489200Y-13094300D02*
G75*
G03*
X21489200Y-13094300I-62500J0D01*
G01*
X22088400Y-12290100D02*
X22213400Y-12415100D01*
X22213400Y-12290100D02*
X22088400Y-12415100D01*
X22213400Y-12352600D02*
G75*
G03*
X22213400Y-12352600I-62500J0D01*
G01*
X23485700Y-14541600D02*
X23610700Y-14666600D01*
X23610700Y-14541600D02*
X23485700Y-14666600D01*
X23610700Y-14604100D02*
G75*
G03*
X23610700Y-14604100I-62500J0D01*
G01*
X24861300Y-14128800D02*
X24986300Y-14253800D01*
X24986300Y-14128800D02*
X24861300Y-14253800D01*
X24986300Y-14191300D02*
G75*
G03*
X24986300Y-14191300I-62500J0D01*
G01*
X25273000Y-12360000D02*
X25398000Y-12485000D01*
X25398000Y-12360000D02*
X25273000Y-12485000D01*
X25398000Y-12422500D02*
G75*
G03*
X25398000Y-12422500I-62500J0D01*
G01*
X26510200Y-12008300D02*
X26635200Y-12133300D01*
X26635200Y-12008300D02*
X26510200Y-12133300D01*
X26635200Y-12070800D02*
G75*
G03*
X26635200Y-12070800I-62500J0D01*
G01*
X20818610Y-15390600D02*
X20943610Y-15515600D01*
X20943610Y-15390600D02*
X20818610Y-15515600D01*
X20881110Y-15390600D02*
X20881110Y-15515600D01*
X20818610Y-15453100D02*
X20943610Y-15453100D01*
X20818610Y-15640600D02*
X20943610Y-15765600D01*
X20943610Y-15640600D02*
X20818610Y-15765600D01*
X20881110Y-15640600D02*
X20881110Y-15765600D01*
X20818610Y-15703100D02*
X20943610Y-15703100D01*
X20818610Y-15890600D02*
X20943610Y-16015600D01*
X20943610Y-15890600D02*
X20818610Y-16015600D01*
X20881110Y-15890600D02*
X20881110Y-16015600D01*
X20818610Y-15953100D02*
X20943610Y-15953100D01*
X22548610Y-15390600D02*
X22673610Y-15515600D01*
X22673610Y-15390600D02*
X22548610Y-15515600D01*
X22611110Y-15390600D02*
X22611110Y-15515600D01*
X22548610Y-15453100D02*
X22673610Y-15453100D01*
X22548610Y-15640600D02*
X22673610Y-15765600D01*
X22673610Y-15640600D02*
X22548610Y-15765600D01*
X22611110Y-15640600D02*
X22611110Y-15765600D01*
X22548610Y-15703100D02*
X22673610Y-15703100D01*
X22548610Y-15890600D02*
X22673610Y-16015600D01*
X22673610Y-15890600D02*
X22548610Y-16015600D01*
X22611110Y-15890600D02*
X22611110Y-16015600D01*
X22548610Y-15953100D02*
X22673610Y-15953100D01*
X22548610Y-16140600D02*
X22673610Y-16265600D01*
X22673610Y-16140600D02*
X22548610Y-16265600D01*
X22611110Y-16140600D02*
X22611110Y-16265600D01*
X22548610Y-16203100D02*
X22673610Y-16203100D01*
D18*
X21646230Y-10539660D02*
X21796230Y-10689660D01*
X21796230Y-10539660D02*
X21646230Y-10689660D01*
X21774264Y-10667694D02*
X21774264Y-10561627D01*
X21668197Y-10561627D01*
X21668197Y-10667694D01*
X21774264Y-10667694D01*
D11*
X21796230Y-10694660D02*
X21796230Y-10534660D01*
X21796230Y-10534660D02*
G75*
G03*
X21646230Y-10534660I-75000J0D01*
G01*
X21646230Y-10534660D02*
X21646230Y-10694660D01*
X21646230Y-10694660D02*
G75*
G03*
X21796230Y-10694660I75000J0D01*
G01*
X20806787Y-16797578D02*
X20806787Y-16597578D01*
X20806787Y-16597578D02*
X20854406Y-16597578D01*
X20854406Y-16597578D02*
X20882977Y-16607102D01*
X20882977Y-16607102D02*
X20902025Y-16626149D01*
X20902025Y-16626149D02*
X20911549Y-16645197D01*
X20911549Y-16645197D02*
X20921073Y-16683292D01*
X20921073Y-16683292D02*
X20921073Y-16711863D01*
X20921073Y-16711863D02*
X20911549Y-16749959D01*
X20911549Y-16749959D02*
X20902025Y-16769006D01*
X20902025Y-16769006D02*
X20882977Y-16788054D01*
X20882977Y-16788054D02*
X20854406Y-16797578D01*
X20854406Y-16797578D02*
X20806787Y-16797578D01*
X21006787Y-16797578D02*
X21006787Y-16664244D01*
X21006787Y-16702340D02*
X21016311Y-16683292D01*
X21016311Y-16683292D02*
X21025834Y-16673768D01*
X21025834Y-16673768D02*
X21044882Y-16664244D01*
X21044882Y-16664244D02*
X21063930Y-16664244D01*
X21130596Y-16797578D02*
X21130596Y-16664244D01*
X21130596Y-16597578D02*
X21121073Y-16607102D01*
X21121073Y-16607102D02*
X21130596Y-16616625D01*
X21130596Y-16616625D02*
X21140120Y-16607102D01*
X21140120Y-16607102D02*
X21130596Y-16597578D01*
X21130596Y-16597578D02*
X21130596Y-16616625D01*
X21254406Y-16797578D02*
X21235358Y-16788054D01*
X21235358Y-16788054D02*
X21225834Y-16769006D01*
X21225834Y-16769006D02*
X21225834Y-16597578D01*
X21359168Y-16797578D02*
X21340120Y-16788054D01*
X21340120Y-16788054D02*
X21330596Y-16769006D01*
X21330596Y-16769006D02*
X21330596Y-16597578D01*
X21587739Y-16797578D02*
X21587739Y-16597578D01*
X21587739Y-16597578D02*
X21654406Y-16740435D01*
X21654406Y-16740435D02*
X21721073Y-16597578D01*
X21721073Y-16597578D02*
X21721073Y-16797578D01*
X21902025Y-16797578D02*
X21902025Y-16692816D01*
X21902025Y-16692816D02*
X21892501Y-16673768D01*
X21892501Y-16673768D02*
X21873454Y-16664244D01*
X21873454Y-16664244D02*
X21835358Y-16664244D01*
X21835358Y-16664244D02*
X21816311Y-16673768D01*
X21902025Y-16788054D02*
X21882977Y-16797578D01*
X21882977Y-16797578D02*
X21835358Y-16797578D01*
X21835358Y-16797578D02*
X21816311Y-16788054D01*
X21816311Y-16788054D02*
X21806787Y-16769006D01*
X21806787Y-16769006D02*
X21806787Y-16749959D01*
X21806787Y-16749959D02*
X21816311Y-16730911D01*
X21816311Y-16730911D02*
X21835358Y-16721387D01*
X21835358Y-16721387D02*
X21882977Y-16721387D01*
X21882977Y-16721387D02*
X21902025Y-16711863D01*
X21997263Y-16664244D02*
X21997263Y-16864244D01*
X21997263Y-16673768D02*
X22016311Y-16664244D01*
X22016311Y-16664244D02*
X22054406Y-16664244D01*
X22054406Y-16664244D02*
X22073454Y-16673768D01*
X22073454Y-16673768D02*
X22082977Y-16683292D01*
X22082977Y-16683292D02*
X22092501Y-16702340D01*
X22092501Y-16702340D02*
X22092501Y-16759482D01*
X22092501Y-16759482D02*
X22082977Y-16778530D01*
X22082977Y-16778530D02*
X22073454Y-16788054D01*
X22073454Y-16788054D02*
X22054406Y-16797578D01*
X22054406Y-16797578D02*
X22016311Y-16797578D01*
X22016311Y-16797578D02*
X21997263Y-16788054D01*
X22178215Y-16778530D02*
X22187739Y-16788054D01*
X22187739Y-16788054D02*
X22178215Y-16797578D01*
X22178215Y-16797578D02*
X22168692Y-16788054D01*
X22168692Y-16788054D02*
X22178215Y-16778530D01*
X22178215Y-16778530D02*
X22178215Y-16797578D01*
X22178215Y-16673768D02*
X22187739Y-16683292D01*
X22187739Y-16683292D02*
X22178215Y-16692816D01*
X22178215Y-16692816D02*
X22168692Y-16683292D01*
X22168692Y-16683292D02*
X22178215Y-16673768D01*
X22178215Y-16673768D02*
X22178215Y-16692816D01*
D12*
X20516010Y-17111094D02*
X20546010Y-17141094D01*
X20546010Y-17111094D02*
X20516010Y-17141094D01*
D11*
X20844882Y-17017578D02*
X20863930Y-17017578D01*
X20863930Y-17017578D02*
X20882977Y-17027102D01*
X20882977Y-17027102D02*
X20892501Y-17036625D01*
X20892501Y-17036625D02*
X20902025Y-17055673D01*
X20902025Y-17055673D02*
X20911549Y-17093768D01*
X20911549Y-17093768D02*
X20911549Y-17141387D01*
X20911549Y-17141387D02*
X20902025Y-17179483D01*
X20902025Y-17179483D02*
X20892501Y-17198530D01*
X20892501Y-17198530D02*
X20882977Y-17208054D01*
X20882977Y-17208054D02*
X20863930Y-17217578D01*
X20863930Y-17217578D02*
X20844882Y-17217578D01*
X20844882Y-17217578D02*
X20825834Y-17208054D01*
X20825834Y-17208054D02*
X20816311Y-17198530D01*
X20816311Y-17198530D02*
X20806787Y-17179483D01*
X20806787Y-17179483D02*
X20797263Y-17141387D01*
X20797263Y-17141387D02*
X20797263Y-17093768D01*
X20797263Y-17093768D02*
X20806787Y-17055673D01*
X20806787Y-17055673D02*
X20816311Y-17036625D01*
X20816311Y-17036625D02*
X20825834Y-17027102D01*
X20825834Y-17027102D02*
X20844882Y-17017578D01*
X20997263Y-17198530D02*
X21006787Y-17208054D01*
X21006787Y-17208054D02*
X20997263Y-17217578D01*
X20997263Y-17217578D02*
X20987739Y-17208054D01*
X20987739Y-17208054D02*
X20997263Y-17198530D01*
X20997263Y-17198530D02*
X20997263Y-17217578D01*
X21073454Y-17017578D02*
X21197263Y-17017578D01*
X21197263Y-17017578D02*
X21130596Y-17093768D01*
X21130596Y-17093768D02*
X21159168Y-17093768D01*
X21159168Y-17093768D02*
X21178215Y-17103292D01*
X21178215Y-17103292D02*
X21187739Y-17112816D01*
X21187739Y-17112816D02*
X21197263Y-17131864D01*
X21197263Y-17131864D02*
X21197263Y-17179483D01*
X21197263Y-17179483D02*
X21187739Y-17198530D01*
X21187739Y-17198530D02*
X21178215Y-17208054D01*
X21178215Y-17208054D02*
X21159168Y-17217578D01*
X21159168Y-17217578D02*
X21102025Y-17217578D01*
X21102025Y-17217578D02*
X21082977Y-17208054D01*
X21082977Y-17208054D02*
X21073454Y-17198530D01*
X21321073Y-17017578D02*
X21340120Y-17017578D01*
X21340120Y-17017578D02*
X21359168Y-17027102D01*
X21359168Y-17027102D02*
X21368692Y-17036625D01*
X21368692Y-17036625D02*
X21378215Y-17055673D01*
X21378215Y-17055673D02*
X21387739Y-17093768D01*
X21387739Y-17093768D02*
X21387739Y-17141387D01*
X21387739Y-17141387D02*
X21378215Y-17179483D01*
X21378215Y-17179483D02*
X21368692Y-17198530D01*
X21368692Y-17198530D02*
X21359168Y-17208054D01*
X21359168Y-17208054D02*
X21340120Y-17217578D01*
X21340120Y-17217578D02*
X21321073Y-17217578D01*
X21321073Y-17217578D02*
X21302025Y-17208054D01*
X21302025Y-17208054D02*
X21292501Y-17198530D01*
X21292501Y-17198530D02*
X21282977Y-17179483D01*
X21282977Y-17179483D02*
X21273454Y-17141387D01*
X21273454Y-17141387D02*
X21273454Y-17093768D01*
X21273454Y-17093768D02*
X21282977Y-17055673D01*
X21282977Y-17055673D02*
X21292501Y-17036625D01*
X21292501Y-17036625D02*
X21302025Y-17027102D01*
X21302025Y-17027102D02*
X21321073Y-17017578D01*
X21511549Y-17017578D02*
X21530596Y-17017578D01*
X21530596Y-17017578D02*
X21549644Y-17027102D01*
X21549644Y-17027102D02*
X21559168Y-17036625D01*
X21559168Y-17036625D02*
X21568692Y-17055673D01*
X21568692Y-17055673D02*
X21578215Y-17093768D01*
X21578215Y-17093768D02*
X21578215Y-17141387D01*
X21578215Y-17141387D02*
X21568692Y-17179483D01*
X21568692Y-17179483D02*
X21559168Y-17198530D01*
X21559168Y-17198530D02*
X21549644Y-17208054D01*
X21549644Y-17208054D02*
X21530596Y-17217578D01*
X21530596Y-17217578D02*
X21511549Y-17217578D01*
X21511549Y-17217578D02*
X21492501Y-17208054D01*
X21492501Y-17208054D02*
X21482977Y-17198530D01*
X21482977Y-17198530D02*
X21473454Y-17179483D01*
X21473454Y-17179483D02*
X21463930Y-17141387D01*
X21463930Y-17141387D02*
X21463930Y-17093768D01*
X21463930Y-17093768D02*
X21473454Y-17055673D01*
X21473454Y-17055673D02*
X21482977Y-17036625D01*
X21482977Y-17036625D02*
X21492501Y-17027102D01*
X21492501Y-17027102D02*
X21511549Y-17017578D01*
X21663930Y-17217578D02*
X21663930Y-17084244D01*
X21663930Y-17103292D02*
X21673454Y-17093768D01*
X21673454Y-17093768D02*
X21692501Y-17084244D01*
X21692501Y-17084244D02*
X21721073Y-17084244D01*
X21721073Y-17084244D02*
X21740120Y-17093768D01*
X21740120Y-17093768D02*
X21749644Y-17112816D01*
X21749644Y-17112816D02*
X21749644Y-17217578D01*
X21749644Y-17112816D02*
X21759168Y-17093768D01*
X21759168Y-17093768D02*
X21778215Y-17084244D01*
X21778215Y-17084244D02*
X21806787Y-17084244D01*
X21806787Y-17084244D02*
X21825835Y-17093768D01*
X21825835Y-17093768D02*
X21835358Y-17112816D01*
X21835358Y-17112816D02*
X21835358Y-17217578D01*
X21930596Y-17217578D02*
X21930596Y-17084244D01*
X21930596Y-17103292D02*
X21940120Y-17093768D01*
X21940120Y-17093768D02*
X21959168Y-17084244D01*
X21959168Y-17084244D02*
X21987739Y-17084244D01*
X21987739Y-17084244D02*
X22006787Y-17093768D01*
X22006787Y-17093768D02*
X22016311Y-17112816D01*
X22016311Y-17112816D02*
X22016311Y-17217578D01*
X22016311Y-17112816D02*
X22025835Y-17093768D01*
X22025835Y-17093768D02*
X22044882Y-17084244D01*
X22044882Y-17084244D02*
X22073454Y-17084244D01*
X22073454Y-17084244D02*
X22092501Y-17093768D01*
X22092501Y-17093768D02*
X22102025Y-17112816D01*
X22102025Y-17112816D02*
X22102025Y-17217578D01*
X22492501Y-17008054D02*
X22321073Y-17265197D01*
X22749644Y-17017578D02*
X22768692Y-17017578D01*
X22768692Y-17017578D02*
X22787739Y-17027102D01*
X22787739Y-17027102D02*
X22797263Y-17036625D01*
X22797263Y-17036625D02*
X22806787Y-17055673D01*
X22806787Y-17055673D02*
X22816311Y-17093768D01*
X22816311Y-17093768D02*
X22816311Y-17141387D01*
X22816311Y-17141387D02*
X22806787Y-17179483D01*
X22806787Y-17179483D02*
X22797263Y-17198530D01*
X22797263Y-17198530D02*
X22787739Y-17208054D01*
X22787739Y-17208054D02*
X22768692Y-17217578D01*
X22768692Y-17217578D02*
X22749644Y-17217578D01*
X22749644Y-17217578D02*
X22730596Y-17208054D01*
X22730596Y-17208054D02*
X22721073Y-17198530D01*
X22721073Y-17198530D02*
X22711549Y-17179483D01*
X22711549Y-17179483D02*
X22702025Y-17141387D01*
X22702025Y-17141387D02*
X22702025Y-17093768D01*
X22702025Y-17093768D02*
X22711549Y-17055673D01*
X22711549Y-17055673D02*
X22721073Y-17036625D01*
X22721073Y-17036625D02*
X22730596Y-17027102D01*
X22730596Y-17027102D02*
X22749644Y-17017578D01*
X22902025Y-17198530D02*
X22911549Y-17208054D01*
X22911549Y-17208054D02*
X22902025Y-17217578D01*
X22902025Y-17217578D02*
X22892501Y-17208054D01*
X22892501Y-17208054D02*
X22902025Y-17198530D01*
X22902025Y-17198530D02*
X22902025Y-17217578D01*
X23035358Y-17017578D02*
X23054406Y-17017578D01*
X23054406Y-17017578D02*
X23073454Y-17027102D01*
X23073454Y-17027102D02*
X23082977Y-17036625D01*
X23082977Y-17036625D02*
X23092501Y-17055673D01*
X23092501Y-17055673D02*
X23102025Y-17093768D01*
X23102025Y-17093768D02*
X23102025Y-17141387D01*
X23102025Y-17141387D02*
X23092501Y-17179483D01*
X23092501Y-17179483D02*
X23082977Y-17198530D01*
X23082977Y-17198530D02*
X23073454Y-17208054D01*
X23073454Y-17208054D02*
X23054406Y-17217578D01*
X23054406Y-17217578D02*
X23035358Y-17217578D01*
X23035358Y-17217578D02*
X23016311Y-17208054D01*
X23016311Y-17208054D02*
X23006787Y-17198530D01*
X23006787Y-17198530D02*
X22997263Y-17179483D01*
X22997263Y-17179483D02*
X22987739Y-17141387D01*
X22987739Y-17141387D02*
X22987739Y-17093768D01*
X22987739Y-17093768D02*
X22997263Y-17055673D01*
X22997263Y-17055673D02*
X23006787Y-17036625D01*
X23006787Y-17036625D02*
X23016311Y-17027102D01*
X23016311Y-17027102D02*
X23035358Y-17017578D01*
X23292501Y-17217578D02*
X23178216Y-17217578D01*
X23235358Y-17217578D02*
X23235358Y-17017578D01*
X23235358Y-17017578D02*
X23216311Y-17046149D01*
X23216311Y-17046149D02*
X23197263Y-17065197D01*
X23197263Y-17065197D02*
X23178216Y-17074721D01*
X23482977Y-17217578D02*
X23368692Y-17217578D01*
X23425835Y-17217578D02*
X23425835Y-17017578D01*
X23425835Y-17017578D02*
X23406787Y-17046149D01*
X23406787Y-17046149D02*
X23387739Y-17065197D01*
X23387739Y-17065197D02*
X23368692Y-17074721D01*
X23597263Y-17103292D02*
X23578216Y-17093768D01*
X23578216Y-17093768D02*
X23568692Y-17084244D01*
X23568692Y-17084244D02*
X23559168Y-17065197D01*
X23559168Y-17065197D02*
X23559168Y-17055673D01*
X23559168Y-17055673D02*
X23568692Y-17036625D01*
X23568692Y-17036625D02*
X23578216Y-17027102D01*
X23578216Y-17027102D02*
X23597263Y-17017578D01*
X23597263Y-17017578D02*
X23635358Y-17017578D01*
X23635358Y-17017578D02*
X23654406Y-17027102D01*
X23654406Y-17027102D02*
X23663930Y-17036625D01*
X23663930Y-17036625D02*
X23673454Y-17055673D01*
X23673454Y-17055673D02*
X23673454Y-17065197D01*
X23673454Y-17065197D02*
X23663930Y-17084244D01*
X23663930Y-17084244D02*
X23654406Y-17093768D01*
X23654406Y-17093768D02*
X23635358Y-17103292D01*
X23635358Y-17103292D02*
X23597263Y-17103292D01*
X23597263Y-17103292D02*
X23578216Y-17112816D01*
X23578216Y-17112816D02*
X23568692Y-17122340D01*
X23568692Y-17122340D02*
X23559168Y-17141387D01*
X23559168Y-17141387D02*
X23559168Y-17179483D01*
X23559168Y-17179483D02*
X23568692Y-17198530D01*
X23568692Y-17198530D02*
X23578216Y-17208054D01*
X23578216Y-17208054D02*
X23597263Y-17217578D01*
X23597263Y-17217578D02*
X23635358Y-17217578D01*
X23635358Y-17217578D02*
X23654406Y-17208054D01*
X23654406Y-17208054D02*
X23663930Y-17198530D01*
X23663930Y-17198530D02*
X23673454Y-17179483D01*
X23673454Y-17179483D02*
X23673454Y-17141387D01*
X23673454Y-17141387D02*
X23663930Y-17122340D01*
X23663930Y-17122340D02*
X23654406Y-17112816D01*
X23654406Y-17112816D02*
X23635358Y-17103292D01*
X23749644Y-17017578D02*
X23749644Y-17055673D01*
X23825835Y-17017578D02*
X23825835Y-17055673D01*
X24121073Y-17293768D02*
X24111549Y-17284244D01*
X24111549Y-17284244D02*
X24092501Y-17255673D01*
X24092501Y-17255673D02*
X24082978Y-17236625D01*
X24082978Y-17236625D02*
X24073454Y-17208054D01*
X24073454Y-17208054D02*
X24063930Y-17160435D01*
X24063930Y-17160435D02*
X24063930Y-17122340D01*
X24063930Y-17122340D02*
X24073454Y-17074721D01*
X24073454Y-17074721D02*
X24082978Y-17046149D01*
X24082978Y-17046149D02*
X24092501Y-17027102D01*
X24092501Y-17027102D02*
X24111549Y-16998530D01*
X24111549Y-16998530D02*
X24121073Y-16989006D01*
X24187739Y-17036625D02*
X24197263Y-17027102D01*
X24197263Y-17027102D02*
X24216311Y-17017578D01*
X24216311Y-17017578D02*
X24263930Y-17017578D01*
X24263930Y-17017578D02*
X24282978Y-17027102D01*
X24282978Y-17027102D02*
X24292501Y-17036625D01*
X24292501Y-17036625D02*
X24302025Y-17055673D01*
X24302025Y-17055673D02*
X24302025Y-17074721D01*
X24302025Y-17074721D02*
X24292501Y-17103292D01*
X24292501Y-17103292D02*
X24178216Y-17217578D01*
X24178216Y-17217578D02*
X24302025Y-17217578D01*
X24378216Y-17036625D02*
X24387739Y-17027102D01*
X24387739Y-17027102D02*
X24406787Y-17017578D01*
X24406787Y-17017578D02*
X24454406Y-17017578D01*
X24454406Y-17017578D02*
X24473454Y-17027102D01*
X24473454Y-17027102D02*
X24482978Y-17036625D01*
X24482978Y-17036625D02*
X24492501Y-17055673D01*
X24492501Y-17055673D02*
X24492501Y-17074721D01*
X24492501Y-17074721D02*
X24482978Y-17103292D01*
X24482978Y-17103292D02*
X24368692Y-17217578D01*
X24368692Y-17217578D02*
X24492501Y-17217578D01*
X24730597Y-17217578D02*
X24730597Y-17017578D01*
X24816311Y-17217578D02*
X24816311Y-17112816D01*
X24816311Y-17112816D02*
X24806787Y-17093768D01*
X24806787Y-17093768D02*
X24787740Y-17084244D01*
X24787740Y-17084244D02*
X24759168Y-17084244D01*
X24759168Y-17084244D02*
X24740120Y-17093768D01*
X24740120Y-17093768D02*
X24730597Y-17103292D01*
X24940120Y-17217578D02*
X24921073Y-17208054D01*
X24921073Y-17208054D02*
X24911549Y-17198530D01*
X24911549Y-17198530D02*
X24902025Y-17179483D01*
X24902025Y-17179483D02*
X24902025Y-17122340D01*
X24902025Y-17122340D02*
X24911549Y-17103292D01*
X24911549Y-17103292D02*
X24921073Y-17093768D01*
X24921073Y-17093768D02*
X24940120Y-17084244D01*
X24940120Y-17084244D02*
X24968692Y-17084244D01*
X24968692Y-17084244D02*
X24987740Y-17093768D01*
X24987740Y-17093768D02*
X24997263Y-17103292D01*
X24997263Y-17103292D02*
X25006787Y-17122340D01*
X25006787Y-17122340D02*
X25006787Y-17179483D01*
X25006787Y-17179483D02*
X24997263Y-17198530D01*
X24997263Y-17198530D02*
X24987740Y-17208054D01*
X24987740Y-17208054D02*
X24968692Y-17217578D01*
X24968692Y-17217578D02*
X24940120Y-17217578D01*
X25121073Y-17217578D02*
X25102025Y-17208054D01*
X25102025Y-17208054D02*
X25092501Y-17189006D01*
X25092501Y-17189006D02*
X25092501Y-17017578D01*
X25273454Y-17208054D02*
X25254406Y-17217578D01*
X25254406Y-17217578D02*
X25216311Y-17217578D01*
X25216311Y-17217578D02*
X25197263Y-17208054D01*
X25197263Y-17208054D02*
X25187740Y-17189006D01*
X25187740Y-17189006D02*
X25187740Y-17112816D01*
X25187740Y-17112816D02*
X25197263Y-17093768D01*
X25197263Y-17093768D02*
X25216311Y-17084244D01*
X25216311Y-17084244D02*
X25254406Y-17084244D01*
X25254406Y-17084244D02*
X25273454Y-17093768D01*
X25273454Y-17093768D02*
X25282978Y-17112816D01*
X25282978Y-17112816D02*
X25282978Y-17131864D01*
X25282978Y-17131864D02*
X25187740Y-17150911D01*
X25359168Y-17208054D02*
X25378216Y-17217578D01*
X25378216Y-17217578D02*
X25416311Y-17217578D01*
X25416311Y-17217578D02*
X25435359Y-17208054D01*
X25435359Y-17208054D02*
X25444882Y-17189006D01*
X25444882Y-17189006D02*
X25444882Y-17179483D01*
X25444882Y-17179483D02*
X25435359Y-17160435D01*
X25435359Y-17160435D02*
X25416311Y-17150911D01*
X25416311Y-17150911D02*
X25387740Y-17150911D01*
X25387740Y-17150911D02*
X25368692Y-17141387D01*
X25368692Y-17141387D02*
X25359168Y-17122340D01*
X25359168Y-17122340D02*
X25359168Y-17112816D01*
X25359168Y-17112816D02*
X25368692Y-17093768D01*
X25368692Y-17093768D02*
X25387740Y-17084244D01*
X25387740Y-17084244D02*
X25416311Y-17084244D01*
X25416311Y-17084244D02*
X25435359Y-17093768D01*
X25511549Y-17293768D02*
X25521073Y-17284244D01*
X25521073Y-17284244D02*
X25540121Y-17255673D01*
X25540121Y-17255673D02*
X25549644Y-17236625D01*
X25549644Y-17236625D02*
X25559168Y-17208054D01*
X25559168Y-17208054D02*
X25568692Y-17160435D01*
X25568692Y-17160435D02*
X25568692Y-17122340D01*
X25568692Y-17122340D02*
X25559168Y-17074721D01*
X25559168Y-17074721D02*
X25549644Y-17046149D01*
X25549644Y-17046149D02*
X25540121Y-17027102D01*
X25540121Y-17027102D02*
X25521073Y-16998530D01*
X25521073Y-16998530D02*
X25511549Y-16989006D01*
D13*
X20546010Y-17390094D02*
G75*
G03*
X20546010Y-17390094I-17500J0D01*
G01*
D11*
X20844882Y-17281578D02*
X20863930Y-17281578D01*
X20863930Y-17281578D02*
X20882977Y-17291102D01*
X20882977Y-17291102D02*
X20892501Y-17300625D01*
X20892501Y-17300625D02*
X20902025Y-17319673D01*
X20902025Y-17319673D02*
X20911549Y-17357768D01*
X20911549Y-17357768D02*
X20911549Y-17405387D01*
X20911549Y-17405387D02*
X20902025Y-17443483D01*
X20902025Y-17443483D02*
X20892501Y-17462530D01*
X20892501Y-17462530D02*
X20882977Y-17472054D01*
X20882977Y-17472054D02*
X20863930Y-17481578D01*
X20863930Y-17481578D02*
X20844882Y-17481578D01*
X20844882Y-17481578D02*
X20825834Y-17472054D01*
X20825834Y-17472054D02*
X20816311Y-17462530D01*
X20816311Y-17462530D02*
X20806787Y-17443483D01*
X20806787Y-17443483D02*
X20797263Y-17405387D01*
X20797263Y-17405387D02*
X20797263Y-17357768D01*
X20797263Y-17357768D02*
X20806787Y-17319673D01*
X20806787Y-17319673D02*
X20816311Y-17300625D01*
X20816311Y-17300625D02*
X20825834Y-17291102D01*
X20825834Y-17291102D02*
X20844882Y-17281578D01*
X20997263Y-17462530D02*
X21006787Y-17472054D01*
X21006787Y-17472054D02*
X20997263Y-17481578D01*
X20997263Y-17481578D02*
X20987739Y-17472054D01*
X20987739Y-17472054D02*
X20997263Y-17462530D01*
X20997263Y-17462530D02*
X20997263Y-17481578D01*
X21073454Y-17281578D02*
X21197263Y-17281578D01*
X21197263Y-17281578D02*
X21130596Y-17357768D01*
X21130596Y-17357768D02*
X21159168Y-17357768D01*
X21159168Y-17357768D02*
X21178215Y-17367292D01*
X21178215Y-17367292D02*
X21187739Y-17376816D01*
X21187739Y-17376816D02*
X21197263Y-17395864D01*
X21197263Y-17395864D02*
X21197263Y-17443483D01*
X21197263Y-17443483D02*
X21187739Y-17462530D01*
X21187739Y-17462530D02*
X21178215Y-17472054D01*
X21178215Y-17472054D02*
X21159168Y-17481578D01*
X21159168Y-17481578D02*
X21102025Y-17481578D01*
X21102025Y-17481578D02*
X21082977Y-17472054D01*
X21082977Y-17472054D02*
X21073454Y-17462530D01*
X21378215Y-17281578D02*
X21282977Y-17281578D01*
X21282977Y-17281578D02*
X21273454Y-17376816D01*
X21273454Y-17376816D02*
X21282977Y-17367292D01*
X21282977Y-17367292D02*
X21302025Y-17357768D01*
X21302025Y-17357768D02*
X21349644Y-17357768D01*
X21349644Y-17357768D02*
X21368692Y-17367292D01*
X21368692Y-17367292D02*
X21378215Y-17376816D01*
X21378215Y-17376816D02*
X21387739Y-17395864D01*
X21387739Y-17395864D02*
X21387739Y-17443483D01*
X21387739Y-17443483D02*
X21378215Y-17462530D01*
X21378215Y-17462530D02*
X21368692Y-17472054D01*
X21368692Y-17472054D02*
X21349644Y-17481578D01*
X21349644Y-17481578D02*
X21302025Y-17481578D01*
X21302025Y-17481578D02*
X21282977Y-17472054D01*
X21282977Y-17472054D02*
X21273454Y-17462530D01*
X21511549Y-17281578D02*
X21530596Y-17281578D01*
X21530596Y-17281578D02*
X21549644Y-17291102D01*
X21549644Y-17291102D02*
X21559168Y-17300625D01*
X21559168Y-17300625D02*
X21568692Y-17319673D01*
X21568692Y-17319673D02*
X21578215Y-17357768D01*
X21578215Y-17357768D02*
X21578215Y-17405387D01*
X21578215Y-17405387D02*
X21568692Y-17443483D01*
X21568692Y-17443483D02*
X21559168Y-17462530D01*
X21559168Y-17462530D02*
X21549644Y-17472054D01*
X21549644Y-17472054D02*
X21530596Y-17481578D01*
X21530596Y-17481578D02*
X21511549Y-17481578D01*
X21511549Y-17481578D02*
X21492501Y-17472054D01*
X21492501Y-17472054D02*
X21482977Y-17462530D01*
X21482977Y-17462530D02*
X21473454Y-17443483D01*
X21473454Y-17443483D02*
X21463930Y-17405387D01*
X21463930Y-17405387D02*
X21463930Y-17357768D01*
X21463930Y-17357768D02*
X21473454Y-17319673D01*
X21473454Y-17319673D02*
X21482977Y-17300625D01*
X21482977Y-17300625D02*
X21492501Y-17291102D01*
X21492501Y-17291102D02*
X21511549Y-17281578D01*
X21663930Y-17481578D02*
X21663930Y-17348244D01*
X21663930Y-17367292D02*
X21673454Y-17357768D01*
X21673454Y-17357768D02*
X21692501Y-17348244D01*
X21692501Y-17348244D02*
X21721073Y-17348244D01*
X21721073Y-17348244D02*
X21740120Y-17357768D01*
X21740120Y-17357768D02*
X21749644Y-17376816D01*
X21749644Y-17376816D02*
X21749644Y-17481578D01*
X21749644Y-17376816D02*
X21759168Y-17357768D01*
X21759168Y-17357768D02*
X21778215Y-17348244D01*
X21778215Y-17348244D02*
X21806787Y-17348244D01*
X21806787Y-17348244D02*
X21825835Y-17357768D01*
X21825835Y-17357768D02*
X21835358Y-17376816D01*
X21835358Y-17376816D02*
X21835358Y-17481578D01*
X21930596Y-17481578D02*
X21930596Y-17348244D01*
X21930596Y-17367292D02*
X21940120Y-17357768D01*
X21940120Y-17357768D02*
X21959168Y-17348244D01*
X21959168Y-17348244D02*
X21987739Y-17348244D01*
X21987739Y-17348244D02*
X22006787Y-17357768D01*
X22006787Y-17357768D02*
X22016311Y-17376816D01*
X22016311Y-17376816D02*
X22016311Y-17481578D01*
X22016311Y-17376816D02*
X22025835Y-17357768D01*
X22025835Y-17357768D02*
X22044882Y-17348244D01*
X22044882Y-17348244D02*
X22073454Y-17348244D01*
X22073454Y-17348244D02*
X22092501Y-17357768D01*
X22092501Y-17357768D02*
X22102025Y-17376816D01*
X22102025Y-17376816D02*
X22102025Y-17481578D01*
X22492501Y-17272054D02*
X22321073Y-17529197D01*
X22749644Y-17281578D02*
X22768692Y-17281578D01*
X22768692Y-17281578D02*
X22787739Y-17291102D01*
X22787739Y-17291102D02*
X22797263Y-17300625D01*
X22797263Y-17300625D02*
X22806787Y-17319673D01*
X22806787Y-17319673D02*
X22816311Y-17357768D01*
X22816311Y-17357768D02*
X22816311Y-17405387D01*
X22816311Y-17405387D02*
X22806787Y-17443483D01*
X22806787Y-17443483D02*
X22797263Y-17462530D01*
X22797263Y-17462530D02*
X22787739Y-17472054D01*
X22787739Y-17472054D02*
X22768692Y-17481578D01*
X22768692Y-17481578D02*
X22749644Y-17481578D01*
X22749644Y-17481578D02*
X22730596Y-17472054D01*
X22730596Y-17472054D02*
X22721073Y-17462530D01*
X22721073Y-17462530D02*
X22711549Y-17443483D01*
X22711549Y-17443483D02*
X22702025Y-17405387D01*
X22702025Y-17405387D02*
X22702025Y-17357768D01*
X22702025Y-17357768D02*
X22711549Y-17319673D01*
X22711549Y-17319673D02*
X22721073Y-17300625D01*
X22721073Y-17300625D02*
X22730596Y-17291102D01*
X22730596Y-17291102D02*
X22749644Y-17281578D01*
X22902025Y-17462530D02*
X22911549Y-17472054D01*
X22911549Y-17472054D02*
X22902025Y-17481578D01*
X22902025Y-17481578D02*
X22892501Y-17472054D01*
X22892501Y-17472054D02*
X22902025Y-17462530D01*
X22902025Y-17462530D02*
X22902025Y-17481578D01*
X23035358Y-17281578D02*
X23054406Y-17281578D01*
X23054406Y-17281578D02*
X23073454Y-17291102D01*
X23073454Y-17291102D02*
X23082977Y-17300625D01*
X23082977Y-17300625D02*
X23092501Y-17319673D01*
X23092501Y-17319673D02*
X23102025Y-17357768D01*
X23102025Y-17357768D02*
X23102025Y-17405387D01*
X23102025Y-17405387D02*
X23092501Y-17443483D01*
X23092501Y-17443483D02*
X23082977Y-17462530D01*
X23082977Y-17462530D02*
X23073454Y-17472054D01*
X23073454Y-17472054D02*
X23054406Y-17481578D01*
X23054406Y-17481578D02*
X23035358Y-17481578D01*
X23035358Y-17481578D02*
X23016311Y-17472054D01*
X23016311Y-17472054D02*
X23006787Y-17462530D01*
X23006787Y-17462530D02*
X22997263Y-17443483D01*
X22997263Y-17443483D02*
X22987739Y-17405387D01*
X22987739Y-17405387D02*
X22987739Y-17357768D01*
X22987739Y-17357768D02*
X22997263Y-17319673D01*
X22997263Y-17319673D02*
X23006787Y-17300625D01*
X23006787Y-17300625D02*
X23016311Y-17291102D01*
X23016311Y-17291102D02*
X23035358Y-17281578D01*
X23292501Y-17481578D02*
X23178216Y-17481578D01*
X23235358Y-17481578D02*
X23235358Y-17281578D01*
X23235358Y-17281578D02*
X23216311Y-17310149D01*
X23216311Y-17310149D02*
X23197263Y-17329197D01*
X23197263Y-17329197D02*
X23178216Y-17338721D01*
X23359168Y-17281578D02*
X23482977Y-17281578D01*
X23482977Y-17281578D02*
X23416311Y-17357768D01*
X23416311Y-17357768D02*
X23444882Y-17357768D01*
X23444882Y-17357768D02*
X23463930Y-17367292D01*
X23463930Y-17367292D02*
X23473454Y-17376816D01*
X23473454Y-17376816D02*
X23482977Y-17395864D01*
X23482977Y-17395864D02*
X23482977Y-17443483D01*
X23482977Y-17443483D02*
X23473454Y-17462530D01*
X23473454Y-17462530D02*
X23463930Y-17472054D01*
X23463930Y-17472054D02*
X23444882Y-17481578D01*
X23444882Y-17481578D02*
X23387739Y-17481578D01*
X23387739Y-17481578D02*
X23368692Y-17472054D01*
X23368692Y-17472054D02*
X23359168Y-17462530D01*
X23597263Y-17367292D02*
X23578216Y-17357768D01*
X23578216Y-17357768D02*
X23568692Y-17348244D01*
X23568692Y-17348244D02*
X23559168Y-17329197D01*
X23559168Y-17329197D02*
X23559168Y-17319673D01*
X23559168Y-17319673D02*
X23568692Y-17300625D01*
X23568692Y-17300625D02*
X23578216Y-17291102D01*
X23578216Y-17291102D02*
X23597263Y-17281578D01*
X23597263Y-17281578D02*
X23635358Y-17281578D01*
X23635358Y-17281578D02*
X23654406Y-17291102D01*
X23654406Y-17291102D02*
X23663930Y-17300625D01*
X23663930Y-17300625D02*
X23673454Y-17319673D01*
X23673454Y-17319673D02*
X23673454Y-17329197D01*
X23673454Y-17329197D02*
X23663930Y-17348244D01*
X23663930Y-17348244D02*
X23654406Y-17357768D01*
X23654406Y-17357768D02*
X23635358Y-17367292D01*
X23635358Y-17367292D02*
X23597263Y-17367292D01*
X23597263Y-17367292D02*
X23578216Y-17376816D01*
X23578216Y-17376816D02*
X23568692Y-17386340D01*
X23568692Y-17386340D02*
X23559168Y-17405387D01*
X23559168Y-17405387D02*
X23559168Y-17443483D01*
X23559168Y-17443483D02*
X23568692Y-17462530D01*
X23568692Y-17462530D02*
X23578216Y-17472054D01*
X23578216Y-17472054D02*
X23597263Y-17481578D01*
X23597263Y-17481578D02*
X23635358Y-17481578D01*
X23635358Y-17481578D02*
X23654406Y-17472054D01*
X23654406Y-17472054D02*
X23663930Y-17462530D01*
X23663930Y-17462530D02*
X23673454Y-17443483D01*
X23673454Y-17443483D02*
X23673454Y-17405387D01*
X23673454Y-17405387D02*
X23663930Y-17386340D01*
X23663930Y-17386340D02*
X23654406Y-17376816D01*
X23654406Y-17376816D02*
X23635358Y-17367292D01*
X23749644Y-17281578D02*
X23749644Y-17319673D01*
X23825835Y-17281578D02*
X23825835Y-17319673D01*
X24121073Y-17557768D02*
X24111549Y-17548244D01*
X24111549Y-17548244D02*
X24092501Y-17519673D01*
X24092501Y-17519673D02*
X24082978Y-17500625D01*
X24082978Y-17500625D02*
X24073454Y-17472054D01*
X24073454Y-17472054D02*
X24063930Y-17424435D01*
X24063930Y-17424435D02*
X24063930Y-17386340D01*
X24063930Y-17386340D02*
X24073454Y-17338721D01*
X24073454Y-17338721D02*
X24082978Y-17310149D01*
X24082978Y-17310149D02*
X24092501Y-17291102D01*
X24092501Y-17291102D02*
X24111549Y-17262530D01*
X24111549Y-17262530D02*
X24121073Y-17253006D01*
X24302025Y-17481578D02*
X24187739Y-17481578D01*
X24244882Y-17481578D02*
X24244882Y-17281578D01*
X24244882Y-17281578D02*
X24225835Y-17310149D01*
X24225835Y-17310149D02*
X24206787Y-17329197D01*
X24206787Y-17329197D02*
X24187739Y-17338721D01*
X24378216Y-17300625D02*
X24387739Y-17291102D01*
X24387739Y-17291102D02*
X24406787Y-17281578D01*
X24406787Y-17281578D02*
X24454406Y-17281578D01*
X24454406Y-17281578D02*
X24473454Y-17291102D01*
X24473454Y-17291102D02*
X24482978Y-17300625D01*
X24482978Y-17300625D02*
X24492501Y-17319673D01*
X24492501Y-17319673D02*
X24492501Y-17338721D01*
X24492501Y-17338721D02*
X24482978Y-17367292D01*
X24482978Y-17367292D02*
X24368692Y-17481578D01*
X24368692Y-17481578D02*
X24492501Y-17481578D01*
X24606787Y-17367292D02*
X24587739Y-17357768D01*
X24587739Y-17357768D02*
X24578216Y-17348244D01*
X24578216Y-17348244D02*
X24568692Y-17329197D01*
X24568692Y-17329197D02*
X24568692Y-17319673D01*
X24568692Y-17319673D02*
X24578216Y-17300625D01*
X24578216Y-17300625D02*
X24587739Y-17291102D01*
X24587739Y-17291102D02*
X24606787Y-17281578D01*
X24606787Y-17281578D02*
X24644882Y-17281578D01*
X24644882Y-17281578D02*
X24663930Y-17291102D01*
X24663930Y-17291102D02*
X24673454Y-17300625D01*
X24673454Y-17300625D02*
X24682978Y-17319673D01*
X24682978Y-17319673D02*
X24682978Y-17329197D01*
X24682978Y-17329197D02*
X24673454Y-17348244D01*
X24673454Y-17348244D02*
X24663930Y-17357768D01*
X24663930Y-17357768D02*
X24644882Y-17367292D01*
X24644882Y-17367292D02*
X24606787Y-17367292D01*
X24606787Y-17367292D02*
X24587739Y-17376816D01*
X24587739Y-17376816D02*
X24578216Y-17386340D01*
X24578216Y-17386340D02*
X24568692Y-17405387D01*
X24568692Y-17405387D02*
X24568692Y-17443483D01*
X24568692Y-17443483D02*
X24578216Y-17462530D01*
X24578216Y-17462530D02*
X24587739Y-17472054D01*
X24587739Y-17472054D02*
X24606787Y-17481578D01*
X24606787Y-17481578D02*
X24644882Y-17481578D01*
X24644882Y-17481578D02*
X24663930Y-17472054D01*
X24663930Y-17472054D02*
X24673454Y-17462530D01*
X24673454Y-17462530D02*
X24682978Y-17443483D01*
X24682978Y-17443483D02*
X24682978Y-17405387D01*
X24682978Y-17405387D02*
X24673454Y-17386340D01*
X24673454Y-17386340D02*
X24663930Y-17376816D01*
X24663930Y-17376816D02*
X24644882Y-17367292D01*
X24921073Y-17481578D02*
X24921073Y-17281578D01*
X25006787Y-17481578D02*
X25006787Y-17376816D01*
X25006787Y-17376816D02*
X24997263Y-17357768D01*
X24997263Y-17357768D02*
X24978216Y-17348244D01*
X24978216Y-17348244D02*
X24949644Y-17348244D01*
X24949644Y-17348244D02*
X24930597Y-17357768D01*
X24930597Y-17357768D02*
X24921073Y-17367292D01*
X25130597Y-17481578D02*
X25111549Y-17472054D01*
X25111549Y-17472054D02*
X25102025Y-17462530D01*
X25102025Y-17462530D02*
X25092501Y-17443483D01*
X25092501Y-17443483D02*
X25092501Y-17386340D01*
X25092501Y-17386340D02*
X25102025Y-17367292D01*
X25102025Y-17367292D02*
X25111549Y-17357768D01*
X25111549Y-17357768D02*
X25130597Y-17348244D01*
X25130597Y-17348244D02*
X25159168Y-17348244D01*
X25159168Y-17348244D02*
X25178216Y-17357768D01*
X25178216Y-17357768D02*
X25187740Y-17367292D01*
X25187740Y-17367292D02*
X25197263Y-17386340D01*
X25197263Y-17386340D02*
X25197263Y-17443483D01*
X25197263Y-17443483D02*
X25187740Y-17462530D01*
X25187740Y-17462530D02*
X25178216Y-17472054D01*
X25178216Y-17472054D02*
X25159168Y-17481578D01*
X25159168Y-17481578D02*
X25130597Y-17481578D01*
X25311549Y-17481578D02*
X25292501Y-17472054D01*
X25292501Y-17472054D02*
X25282978Y-17453006D01*
X25282978Y-17453006D02*
X25282978Y-17281578D01*
X25463930Y-17472054D02*
X25444882Y-17481578D01*
X25444882Y-17481578D02*
X25406787Y-17481578D01*
X25406787Y-17481578D02*
X25387740Y-17472054D01*
X25387740Y-17472054D02*
X25378216Y-17453006D01*
X25378216Y-17453006D02*
X25378216Y-17376816D01*
X25378216Y-17376816D02*
X25387740Y-17357768D01*
X25387740Y-17357768D02*
X25406787Y-17348244D01*
X25406787Y-17348244D02*
X25444882Y-17348244D01*
X25444882Y-17348244D02*
X25463930Y-17357768D01*
X25463930Y-17357768D02*
X25473454Y-17376816D01*
X25473454Y-17376816D02*
X25473454Y-17395864D01*
X25473454Y-17395864D02*
X25378216Y-17414911D01*
X25549644Y-17472054D02*
X25568692Y-17481578D01*
X25568692Y-17481578D02*
X25606787Y-17481578D01*
X25606787Y-17481578D02*
X25625835Y-17472054D01*
X25625835Y-17472054D02*
X25635359Y-17453006D01*
X25635359Y-17453006D02*
X25635359Y-17443483D01*
X25635359Y-17443483D02*
X25625835Y-17424435D01*
X25625835Y-17424435D02*
X25606787Y-17414911D01*
X25606787Y-17414911D02*
X25578216Y-17414911D01*
X25578216Y-17414911D02*
X25559168Y-17405387D01*
X25559168Y-17405387D02*
X25549644Y-17386340D01*
X25549644Y-17386340D02*
X25549644Y-17376816D01*
X25549644Y-17376816D02*
X25559168Y-17357768D01*
X25559168Y-17357768D02*
X25578216Y-17348244D01*
X25578216Y-17348244D02*
X25606787Y-17348244D01*
X25606787Y-17348244D02*
X25625835Y-17357768D01*
X25702025Y-17557768D02*
X25711549Y-17548244D01*
X25711549Y-17548244D02*
X25730597Y-17519673D01*
X25730597Y-17519673D02*
X25740121Y-17500625D01*
X25740121Y-17500625D02*
X25749644Y-17472054D01*
X25749644Y-17472054D02*
X25759168Y-17424435D01*
X25759168Y-17424435D02*
X25759168Y-17386340D01*
X25759168Y-17386340D02*
X25749644Y-17338721D01*
X25749644Y-17338721D02*
X25740121Y-17310149D01*
X25740121Y-17310149D02*
X25730597Y-17291102D01*
X25730597Y-17291102D02*
X25711549Y-17262530D01*
X25711549Y-17262530D02*
X25702025Y-17253006D01*
D14*
X20526010Y-17634094D02*
X20526010Y-17674094D01*
X20506010Y-17654094D02*
X20546010Y-17654094D01*
D11*
X20844882Y-17545578D02*
X20863930Y-17545578D01*
X20863930Y-17545578D02*
X20882977Y-17555102D01*
X20882977Y-17555102D02*
X20892501Y-17564625D01*
X20892501Y-17564625D02*
X20902025Y-17583673D01*
X20902025Y-17583673D02*
X20911549Y-17621768D01*
X20911549Y-17621768D02*
X20911549Y-17669387D01*
X20911549Y-17669387D02*
X20902025Y-17707483D01*
X20902025Y-17707483D02*
X20892501Y-17726530D01*
X20892501Y-17726530D02*
X20882977Y-17736054D01*
X20882977Y-17736054D02*
X20863930Y-17745578D01*
X20863930Y-17745578D02*
X20844882Y-17745578D01*
X20844882Y-17745578D02*
X20825834Y-17736054D01*
X20825834Y-17736054D02*
X20816311Y-17726530D01*
X20816311Y-17726530D02*
X20806787Y-17707483D01*
X20806787Y-17707483D02*
X20797263Y-17669387D01*
X20797263Y-17669387D02*
X20797263Y-17621768D01*
X20797263Y-17621768D02*
X20806787Y-17583673D01*
X20806787Y-17583673D02*
X20816311Y-17564625D01*
X20816311Y-17564625D02*
X20825834Y-17555102D01*
X20825834Y-17555102D02*
X20844882Y-17545578D01*
X20997263Y-17726530D02*
X21006787Y-17736054D01*
X21006787Y-17736054D02*
X20997263Y-17745578D01*
X20997263Y-17745578D02*
X20987739Y-17736054D01*
X20987739Y-17736054D02*
X20997263Y-17726530D01*
X20997263Y-17726530D02*
X20997263Y-17745578D01*
X21178215Y-17612244D02*
X21178215Y-17745578D01*
X21130596Y-17536054D02*
X21082977Y-17678911D01*
X21082977Y-17678911D02*
X21206787Y-17678911D01*
X21321073Y-17545578D02*
X21340120Y-17545578D01*
X21340120Y-17545578D02*
X21359168Y-17555102D01*
X21359168Y-17555102D02*
X21368692Y-17564625D01*
X21368692Y-17564625D02*
X21378215Y-17583673D01*
X21378215Y-17583673D02*
X21387739Y-17621768D01*
X21387739Y-17621768D02*
X21387739Y-17669387D01*
X21387739Y-17669387D02*
X21378215Y-17707483D01*
X21378215Y-17707483D02*
X21368692Y-17726530D01*
X21368692Y-17726530D02*
X21359168Y-17736054D01*
X21359168Y-17736054D02*
X21340120Y-17745578D01*
X21340120Y-17745578D02*
X21321073Y-17745578D01*
X21321073Y-17745578D02*
X21302025Y-17736054D01*
X21302025Y-17736054D02*
X21292501Y-17726530D01*
X21292501Y-17726530D02*
X21282977Y-17707483D01*
X21282977Y-17707483D02*
X21273454Y-17669387D01*
X21273454Y-17669387D02*
X21273454Y-17621768D01*
X21273454Y-17621768D02*
X21282977Y-17583673D01*
X21282977Y-17583673D02*
X21292501Y-17564625D01*
X21292501Y-17564625D02*
X21302025Y-17555102D01*
X21302025Y-17555102D02*
X21321073Y-17545578D01*
X21511549Y-17545578D02*
X21530596Y-17545578D01*
X21530596Y-17545578D02*
X21549644Y-17555102D01*
X21549644Y-17555102D02*
X21559168Y-17564625D01*
X21559168Y-17564625D02*
X21568692Y-17583673D01*
X21568692Y-17583673D02*
X21578215Y-17621768D01*
X21578215Y-17621768D02*
X21578215Y-17669387D01*
X21578215Y-17669387D02*
X21568692Y-17707483D01*
X21568692Y-17707483D02*
X21559168Y-17726530D01*
X21559168Y-17726530D02*
X21549644Y-17736054D01*
X21549644Y-17736054D02*
X21530596Y-17745578D01*
X21530596Y-17745578D02*
X21511549Y-17745578D01*
X21511549Y-17745578D02*
X21492501Y-17736054D01*
X21492501Y-17736054D02*
X21482977Y-17726530D01*
X21482977Y-17726530D02*
X21473454Y-17707483D01*
X21473454Y-17707483D02*
X21463930Y-17669387D01*
X21463930Y-17669387D02*
X21463930Y-17621768D01*
X21463930Y-17621768D02*
X21473454Y-17583673D01*
X21473454Y-17583673D02*
X21482977Y-17564625D01*
X21482977Y-17564625D02*
X21492501Y-17555102D01*
X21492501Y-17555102D02*
X21511549Y-17545578D01*
X21663930Y-17745578D02*
X21663930Y-17612244D01*
X21663930Y-17631292D02*
X21673454Y-17621768D01*
X21673454Y-17621768D02*
X21692501Y-17612244D01*
X21692501Y-17612244D02*
X21721073Y-17612244D01*
X21721073Y-17612244D02*
X21740120Y-17621768D01*
X21740120Y-17621768D02*
X21749644Y-17640816D01*
X21749644Y-17640816D02*
X21749644Y-17745578D01*
X21749644Y-17640816D02*
X21759168Y-17621768D01*
X21759168Y-17621768D02*
X21778215Y-17612244D01*
X21778215Y-17612244D02*
X21806787Y-17612244D01*
X21806787Y-17612244D02*
X21825835Y-17621768D01*
X21825835Y-17621768D02*
X21835358Y-17640816D01*
X21835358Y-17640816D02*
X21835358Y-17745578D01*
X21930596Y-17745578D02*
X21930596Y-17612244D01*
X21930596Y-17631292D02*
X21940120Y-17621768D01*
X21940120Y-17621768D02*
X21959168Y-17612244D01*
X21959168Y-17612244D02*
X21987739Y-17612244D01*
X21987739Y-17612244D02*
X22006787Y-17621768D01*
X22006787Y-17621768D02*
X22016311Y-17640816D01*
X22016311Y-17640816D02*
X22016311Y-17745578D01*
X22016311Y-17640816D02*
X22025835Y-17621768D01*
X22025835Y-17621768D02*
X22044882Y-17612244D01*
X22044882Y-17612244D02*
X22073454Y-17612244D01*
X22073454Y-17612244D02*
X22092501Y-17621768D01*
X22092501Y-17621768D02*
X22102025Y-17640816D01*
X22102025Y-17640816D02*
X22102025Y-17745578D01*
X22492501Y-17536054D02*
X22321073Y-17793197D01*
X22749644Y-17545578D02*
X22768692Y-17545578D01*
X22768692Y-17545578D02*
X22787739Y-17555102D01*
X22787739Y-17555102D02*
X22797263Y-17564625D01*
X22797263Y-17564625D02*
X22806787Y-17583673D01*
X22806787Y-17583673D02*
X22816311Y-17621768D01*
X22816311Y-17621768D02*
X22816311Y-17669387D01*
X22816311Y-17669387D02*
X22806787Y-17707483D01*
X22806787Y-17707483D02*
X22797263Y-17726530D01*
X22797263Y-17726530D02*
X22787739Y-17736054D01*
X22787739Y-17736054D02*
X22768692Y-17745578D01*
X22768692Y-17745578D02*
X22749644Y-17745578D01*
X22749644Y-17745578D02*
X22730596Y-17736054D01*
X22730596Y-17736054D02*
X22721073Y-17726530D01*
X22721073Y-17726530D02*
X22711549Y-17707483D01*
X22711549Y-17707483D02*
X22702025Y-17669387D01*
X22702025Y-17669387D02*
X22702025Y-17621768D01*
X22702025Y-17621768D02*
X22711549Y-17583673D01*
X22711549Y-17583673D02*
X22721073Y-17564625D01*
X22721073Y-17564625D02*
X22730596Y-17555102D01*
X22730596Y-17555102D02*
X22749644Y-17545578D01*
X22902025Y-17726530D02*
X22911549Y-17736054D01*
X22911549Y-17736054D02*
X22902025Y-17745578D01*
X22902025Y-17745578D02*
X22892501Y-17736054D01*
X22892501Y-17736054D02*
X22902025Y-17726530D01*
X22902025Y-17726530D02*
X22902025Y-17745578D01*
X23035358Y-17545578D02*
X23054406Y-17545578D01*
X23054406Y-17545578D02*
X23073454Y-17555102D01*
X23073454Y-17555102D02*
X23082977Y-17564625D01*
X23082977Y-17564625D02*
X23092501Y-17583673D01*
X23092501Y-17583673D02*
X23102025Y-17621768D01*
X23102025Y-17621768D02*
X23102025Y-17669387D01*
X23102025Y-17669387D02*
X23092501Y-17707483D01*
X23092501Y-17707483D02*
X23082977Y-17726530D01*
X23082977Y-17726530D02*
X23073454Y-17736054D01*
X23073454Y-17736054D02*
X23054406Y-17745578D01*
X23054406Y-17745578D02*
X23035358Y-17745578D01*
X23035358Y-17745578D02*
X23016311Y-17736054D01*
X23016311Y-17736054D02*
X23006787Y-17726530D01*
X23006787Y-17726530D02*
X22997263Y-17707483D01*
X22997263Y-17707483D02*
X22987739Y-17669387D01*
X22987739Y-17669387D02*
X22987739Y-17621768D01*
X22987739Y-17621768D02*
X22997263Y-17583673D01*
X22997263Y-17583673D02*
X23006787Y-17564625D01*
X23006787Y-17564625D02*
X23016311Y-17555102D01*
X23016311Y-17555102D02*
X23035358Y-17545578D01*
X23292501Y-17745578D02*
X23178216Y-17745578D01*
X23235358Y-17745578D02*
X23235358Y-17545578D01*
X23235358Y-17545578D02*
X23216311Y-17574149D01*
X23216311Y-17574149D02*
X23197263Y-17593197D01*
X23197263Y-17593197D02*
X23178216Y-17602721D01*
X23473454Y-17545578D02*
X23378216Y-17545578D01*
X23378216Y-17545578D02*
X23368692Y-17640816D01*
X23368692Y-17640816D02*
X23378216Y-17631292D01*
X23378216Y-17631292D02*
X23397263Y-17621768D01*
X23397263Y-17621768D02*
X23444882Y-17621768D01*
X23444882Y-17621768D02*
X23463930Y-17631292D01*
X23463930Y-17631292D02*
X23473454Y-17640816D01*
X23473454Y-17640816D02*
X23482977Y-17659864D01*
X23482977Y-17659864D02*
X23482977Y-17707483D01*
X23482977Y-17707483D02*
X23473454Y-17726530D01*
X23473454Y-17726530D02*
X23463930Y-17736054D01*
X23463930Y-17736054D02*
X23444882Y-17745578D01*
X23444882Y-17745578D02*
X23397263Y-17745578D01*
X23397263Y-17745578D02*
X23378216Y-17736054D01*
X23378216Y-17736054D02*
X23368692Y-17726530D01*
X23549644Y-17545578D02*
X23682977Y-17545578D01*
X23682977Y-17545578D02*
X23597263Y-17745578D01*
X23749644Y-17545578D02*
X23749644Y-17583673D01*
X23825835Y-17545578D02*
X23825835Y-17583673D01*
X24121073Y-17821768D02*
X24111549Y-17812244D01*
X24111549Y-17812244D02*
X24092501Y-17783673D01*
X24092501Y-17783673D02*
X24082978Y-17764625D01*
X24082978Y-17764625D02*
X24073454Y-17736054D01*
X24073454Y-17736054D02*
X24063930Y-17688435D01*
X24063930Y-17688435D02*
X24063930Y-17650340D01*
X24063930Y-17650340D02*
X24073454Y-17602721D01*
X24073454Y-17602721D02*
X24082978Y-17574149D01*
X24082978Y-17574149D02*
X24092501Y-17555102D01*
X24092501Y-17555102D02*
X24111549Y-17526530D01*
X24111549Y-17526530D02*
X24121073Y-17517006D01*
X24282978Y-17612244D02*
X24282978Y-17745578D01*
X24235358Y-17536054D02*
X24187739Y-17678911D01*
X24187739Y-17678911D02*
X24311549Y-17678911D01*
X24540120Y-17745578D02*
X24540120Y-17545578D01*
X24625835Y-17745578D02*
X24625835Y-17640816D01*
X24625835Y-17640816D02*
X24616311Y-17621768D01*
X24616311Y-17621768D02*
X24597263Y-17612244D01*
X24597263Y-17612244D02*
X24568692Y-17612244D01*
X24568692Y-17612244D02*
X24549644Y-17621768D01*
X24549644Y-17621768D02*
X24540120Y-17631292D01*
X24749644Y-17745578D02*
X24730597Y-17736054D01*
X24730597Y-17736054D02*
X24721073Y-17726530D01*
X24721073Y-17726530D02*
X24711549Y-17707483D01*
X24711549Y-17707483D02*
X24711549Y-17650340D01*
X24711549Y-17650340D02*
X24721073Y-17631292D01*
X24721073Y-17631292D02*
X24730597Y-17621768D01*
X24730597Y-17621768D02*
X24749644Y-17612244D01*
X24749644Y-17612244D02*
X24778216Y-17612244D01*
X24778216Y-17612244D02*
X24797263Y-17621768D01*
X24797263Y-17621768D02*
X24806787Y-17631292D01*
X24806787Y-17631292D02*
X24816311Y-17650340D01*
X24816311Y-17650340D02*
X24816311Y-17707483D01*
X24816311Y-17707483D02*
X24806787Y-17726530D01*
X24806787Y-17726530D02*
X24797263Y-17736054D01*
X24797263Y-17736054D02*
X24778216Y-17745578D01*
X24778216Y-17745578D02*
X24749644Y-17745578D01*
X24930597Y-17745578D02*
X24911549Y-17736054D01*
X24911549Y-17736054D02*
X24902025Y-17717006D01*
X24902025Y-17717006D02*
X24902025Y-17545578D01*
X25082978Y-17736054D02*
X25063930Y-17745578D01*
X25063930Y-17745578D02*
X25025835Y-17745578D01*
X25025835Y-17745578D02*
X25006787Y-17736054D01*
X25006787Y-17736054D02*
X24997263Y-17717006D01*
X24997263Y-17717006D02*
X24997263Y-17640816D01*
X24997263Y-17640816D02*
X25006787Y-17621768D01*
X25006787Y-17621768D02*
X25025835Y-17612244D01*
X25025835Y-17612244D02*
X25063930Y-17612244D01*
X25063930Y-17612244D02*
X25082978Y-17621768D01*
X25082978Y-17621768D02*
X25092501Y-17640816D01*
X25092501Y-17640816D02*
X25092501Y-17659864D01*
X25092501Y-17659864D02*
X24997263Y-17678911D01*
X25168692Y-17736054D02*
X25187740Y-17745578D01*
X25187740Y-17745578D02*
X25225835Y-17745578D01*
X25225835Y-17745578D02*
X25244882Y-17736054D01*
X25244882Y-17736054D02*
X25254406Y-17717006D01*
X25254406Y-17717006D02*
X25254406Y-17707483D01*
X25254406Y-17707483D02*
X25244882Y-17688435D01*
X25244882Y-17688435D02*
X25225835Y-17678911D01*
X25225835Y-17678911D02*
X25197263Y-17678911D01*
X25197263Y-17678911D02*
X25178216Y-17669387D01*
X25178216Y-17669387D02*
X25168692Y-17650340D01*
X25168692Y-17650340D02*
X25168692Y-17640816D01*
X25168692Y-17640816D02*
X25178216Y-17621768D01*
X25178216Y-17621768D02*
X25197263Y-17612244D01*
X25197263Y-17612244D02*
X25225835Y-17612244D01*
X25225835Y-17612244D02*
X25244882Y-17621768D01*
X25321073Y-17821768D02*
X25330597Y-17812244D01*
X25330597Y-17812244D02*
X25349644Y-17783673D01*
X25349644Y-17783673D02*
X25359168Y-17764625D01*
X25359168Y-17764625D02*
X25368692Y-17736054D01*
X25368692Y-17736054D02*
X25378216Y-17688435D01*
X25378216Y-17688435D02*
X25378216Y-17650340D01*
X25378216Y-17650340D02*
X25368692Y-17602721D01*
X25368692Y-17602721D02*
X25359168Y-17574149D01*
X25359168Y-17574149D02*
X25349644Y-17555102D01*
X25349644Y-17555102D02*
X25330597Y-17526530D01*
X25330597Y-17526530D02*
X25321073Y-17517006D01*
D15*
X20538688Y-17935772D02*
X20538688Y-17900416D01*
X20503332Y-17900416D01*
X20503332Y-17935772D01*
X20538688Y-17935772D01*
D11*
X20844882Y-17809578D02*
X20863930Y-17809578D01*
X20863930Y-17809578D02*
X20882977Y-17819102D01*
X20882977Y-17819102D02*
X20892501Y-17828625D01*
X20892501Y-17828625D02*
X20902025Y-17847673D01*
X20902025Y-17847673D02*
X20911549Y-17885768D01*
X20911549Y-17885768D02*
X20911549Y-17933387D01*
X20911549Y-17933387D02*
X20902025Y-17971483D01*
X20902025Y-17971483D02*
X20892501Y-17990530D01*
X20892501Y-17990530D02*
X20882977Y-18000054D01*
X20882977Y-18000054D02*
X20863930Y-18009578D01*
X20863930Y-18009578D02*
X20844882Y-18009578D01*
X20844882Y-18009578D02*
X20825834Y-18000054D01*
X20825834Y-18000054D02*
X20816311Y-17990530D01*
X20816311Y-17990530D02*
X20806787Y-17971483D01*
X20806787Y-17971483D02*
X20797263Y-17933387D01*
X20797263Y-17933387D02*
X20797263Y-17885768D01*
X20797263Y-17885768D02*
X20806787Y-17847673D01*
X20806787Y-17847673D02*
X20816311Y-17828625D01*
X20816311Y-17828625D02*
X20825834Y-17819102D01*
X20825834Y-17819102D02*
X20844882Y-17809578D01*
X20997263Y-17990530D02*
X21006787Y-18000054D01*
X21006787Y-18000054D02*
X20997263Y-18009578D01*
X20997263Y-18009578D02*
X20987739Y-18000054D01*
X20987739Y-18000054D02*
X20997263Y-17990530D01*
X20997263Y-17990530D02*
X20997263Y-18009578D01*
X21187739Y-17809578D02*
X21092501Y-17809578D01*
X21092501Y-17809578D02*
X21082977Y-17904816D01*
X21082977Y-17904816D02*
X21092501Y-17895292D01*
X21092501Y-17895292D02*
X21111549Y-17885768D01*
X21111549Y-17885768D02*
X21159168Y-17885768D01*
X21159168Y-17885768D02*
X21178215Y-17895292D01*
X21178215Y-17895292D02*
X21187739Y-17904816D01*
X21187739Y-17904816D02*
X21197263Y-17923864D01*
X21197263Y-17923864D02*
X21197263Y-17971483D01*
X21197263Y-17971483D02*
X21187739Y-17990530D01*
X21187739Y-17990530D02*
X21178215Y-18000054D01*
X21178215Y-18000054D02*
X21159168Y-18009578D01*
X21159168Y-18009578D02*
X21111549Y-18009578D01*
X21111549Y-18009578D02*
X21092501Y-18000054D01*
X21092501Y-18000054D02*
X21082977Y-17990530D01*
X21321073Y-17809578D02*
X21340120Y-17809578D01*
X21340120Y-17809578D02*
X21359168Y-17819102D01*
X21359168Y-17819102D02*
X21368692Y-17828625D01*
X21368692Y-17828625D02*
X21378215Y-17847673D01*
X21378215Y-17847673D02*
X21387739Y-17885768D01*
X21387739Y-17885768D02*
X21387739Y-17933387D01*
X21387739Y-17933387D02*
X21378215Y-17971483D01*
X21378215Y-17971483D02*
X21368692Y-17990530D01*
X21368692Y-17990530D02*
X21359168Y-18000054D01*
X21359168Y-18000054D02*
X21340120Y-18009578D01*
X21340120Y-18009578D02*
X21321073Y-18009578D01*
X21321073Y-18009578D02*
X21302025Y-18000054D01*
X21302025Y-18000054D02*
X21292501Y-17990530D01*
X21292501Y-17990530D02*
X21282977Y-17971483D01*
X21282977Y-17971483D02*
X21273454Y-17933387D01*
X21273454Y-17933387D02*
X21273454Y-17885768D01*
X21273454Y-17885768D02*
X21282977Y-17847673D01*
X21282977Y-17847673D02*
X21292501Y-17828625D01*
X21292501Y-17828625D02*
X21302025Y-17819102D01*
X21302025Y-17819102D02*
X21321073Y-17809578D01*
X21511549Y-17809578D02*
X21530596Y-17809578D01*
X21530596Y-17809578D02*
X21549644Y-17819102D01*
X21549644Y-17819102D02*
X21559168Y-17828625D01*
X21559168Y-17828625D02*
X21568692Y-17847673D01*
X21568692Y-17847673D02*
X21578215Y-17885768D01*
X21578215Y-17885768D02*
X21578215Y-17933387D01*
X21578215Y-17933387D02*
X21568692Y-17971483D01*
X21568692Y-17971483D02*
X21559168Y-17990530D01*
X21559168Y-17990530D02*
X21549644Y-18000054D01*
X21549644Y-18000054D02*
X21530596Y-18009578D01*
X21530596Y-18009578D02*
X21511549Y-18009578D01*
X21511549Y-18009578D02*
X21492501Y-18000054D01*
X21492501Y-18000054D02*
X21482977Y-17990530D01*
X21482977Y-17990530D02*
X21473454Y-17971483D01*
X21473454Y-17971483D02*
X21463930Y-17933387D01*
X21463930Y-17933387D02*
X21463930Y-17885768D01*
X21463930Y-17885768D02*
X21473454Y-17847673D01*
X21473454Y-17847673D02*
X21482977Y-17828625D01*
X21482977Y-17828625D02*
X21492501Y-17819102D01*
X21492501Y-17819102D02*
X21511549Y-17809578D01*
X21663930Y-18009578D02*
X21663930Y-17876244D01*
X21663930Y-17895292D02*
X21673454Y-17885768D01*
X21673454Y-17885768D02*
X21692501Y-17876244D01*
X21692501Y-17876244D02*
X21721073Y-17876244D01*
X21721073Y-17876244D02*
X21740120Y-17885768D01*
X21740120Y-17885768D02*
X21749644Y-17904816D01*
X21749644Y-17904816D02*
X21749644Y-18009578D01*
X21749644Y-17904816D02*
X21759168Y-17885768D01*
X21759168Y-17885768D02*
X21778215Y-17876244D01*
X21778215Y-17876244D02*
X21806787Y-17876244D01*
X21806787Y-17876244D02*
X21825835Y-17885768D01*
X21825835Y-17885768D02*
X21835358Y-17904816D01*
X21835358Y-17904816D02*
X21835358Y-18009578D01*
X21930596Y-18009578D02*
X21930596Y-17876244D01*
X21930596Y-17895292D02*
X21940120Y-17885768D01*
X21940120Y-17885768D02*
X21959168Y-17876244D01*
X21959168Y-17876244D02*
X21987739Y-17876244D01*
X21987739Y-17876244D02*
X22006787Y-17885768D01*
X22006787Y-17885768D02*
X22016311Y-17904816D01*
X22016311Y-17904816D02*
X22016311Y-18009578D01*
X22016311Y-17904816D02*
X22025835Y-17885768D01*
X22025835Y-17885768D02*
X22044882Y-17876244D01*
X22044882Y-17876244D02*
X22073454Y-17876244D01*
X22073454Y-17876244D02*
X22092501Y-17885768D01*
X22092501Y-17885768D02*
X22102025Y-17904816D01*
X22102025Y-17904816D02*
X22102025Y-18009578D01*
X22492501Y-17800054D02*
X22321073Y-18057197D01*
X22749644Y-17809578D02*
X22768692Y-17809578D01*
X22768692Y-17809578D02*
X22787739Y-17819102D01*
X22787739Y-17819102D02*
X22797263Y-17828625D01*
X22797263Y-17828625D02*
X22806787Y-17847673D01*
X22806787Y-17847673D02*
X22816311Y-17885768D01*
X22816311Y-17885768D02*
X22816311Y-17933387D01*
X22816311Y-17933387D02*
X22806787Y-17971483D01*
X22806787Y-17971483D02*
X22797263Y-17990530D01*
X22797263Y-17990530D02*
X22787739Y-18000054D01*
X22787739Y-18000054D02*
X22768692Y-18009578D01*
X22768692Y-18009578D02*
X22749644Y-18009578D01*
X22749644Y-18009578D02*
X22730596Y-18000054D01*
X22730596Y-18000054D02*
X22721073Y-17990530D01*
X22721073Y-17990530D02*
X22711549Y-17971483D01*
X22711549Y-17971483D02*
X22702025Y-17933387D01*
X22702025Y-17933387D02*
X22702025Y-17885768D01*
X22702025Y-17885768D02*
X22711549Y-17847673D01*
X22711549Y-17847673D02*
X22721073Y-17828625D01*
X22721073Y-17828625D02*
X22730596Y-17819102D01*
X22730596Y-17819102D02*
X22749644Y-17809578D01*
X22902025Y-17990530D02*
X22911549Y-18000054D01*
X22911549Y-18000054D02*
X22902025Y-18009578D01*
X22902025Y-18009578D02*
X22892501Y-18000054D01*
X22892501Y-18000054D02*
X22902025Y-17990530D01*
X22902025Y-17990530D02*
X22902025Y-18009578D01*
X23035358Y-17809578D02*
X23054406Y-17809578D01*
X23054406Y-17809578D02*
X23073454Y-17819102D01*
X23073454Y-17819102D02*
X23082977Y-17828625D01*
X23082977Y-17828625D02*
X23092501Y-17847673D01*
X23092501Y-17847673D02*
X23102025Y-17885768D01*
X23102025Y-17885768D02*
X23102025Y-17933387D01*
X23102025Y-17933387D02*
X23092501Y-17971483D01*
X23092501Y-17971483D02*
X23082977Y-17990530D01*
X23082977Y-17990530D02*
X23073454Y-18000054D01*
X23073454Y-18000054D02*
X23054406Y-18009578D01*
X23054406Y-18009578D02*
X23035358Y-18009578D01*
X23035358Y-18009578D02*
X23016311Y-18000054D01*
X23016311Y-18000054D02*
X23006787Y-17990530D01*
X23006787Y-17990530D02*
X22997263Y-17971483D01*
X22997263Y-17971483D02*
X22987739Y-17933387D01*
X22987739Y-17933387D02*
X22987739Y-17885768D01*
X22987739Y-17885768D02*
X22997263Y-17847673D01*
X22997263Y-17847673D02*
X23006787Y-17828625D01*
X23006787Y-17828625D02*
X23016311Y-17819102D01*
X23016311Y-17819102D02*
X23035358Y-17809578D01*
X23292501Y-18009578D02*
X23178216Y-18009578D01*
X23235358Y-18009578D02*
X23235358Y-17809578D01*
X23235358Y-17809578D02*
X23216311Y-17838149D01*
X23216311Y-17838149D02*
X23197263Y-17857197D01*
X23197263Y-17857197D02*
X23178216Y-17866721D01*
X23387739Y-18009578D02*
X23425835Y-18009578D01*
X23425835Y-18009578D02*
X23444882Y-18000054D01*
X23444882Y-18000054D02*
X23454406Y-17990530D01*
X23454406Y-17990530D02*
X23473454Y-17961959D01*
X23473454Y-17961959D02*
X23482977Y-17923864D01*
X23482977Y-17923864D02*
X23482977Y-17847673D01*
X23482977Y-17847673D02*
X23473454Y-17828625D01*
X23473454Y-17828625D02*
X23463930Y-17819102D01*
X23463930Y-17819102D02*
X23444882Y-17809578D01*
X23444882Y-17809578D02*
X23406787Y-17809578D01*
X23406787Y-17809578D02*
X23387739Y-17819102D01*
X23387739Y-17819102D02*
X23378216Y-17828625D01*
X23378216Y-17828625D02*
X23368692Y-17847673D01*
X23368692Y-17847673D02*
X23368692Y-17895292D01*
X23368692Y-17895292D02*
X23378216Y-17914340D01*
X23378216Y-17914340D02*
X23387739Y-17923864D01*
X23387739Y-17923864D02*
X23406787Y-17933387D01*
X23406787Y-17933387D02*
X23444882Y-17933387D01*
X23444882Y-17933387D02*
X23463930Y-17923864D01*
X23463930Y-17923864D02*
X23473454Y-17914340D01*
X23473454Y-17914340D02*
X23482977Y-17895292D01*
X23549644Y-17809578D02*
X23682977Y-17809578D01*
X23682977Y-17809578D02*
X23597263Y-18009578D01*
X23749644Y-17809578D02*
X23749644Y-17847673D01*
X23825835Y-17809578D02*
X23825835Y-17847673D01*
X24121073Y-18085768D02*
X24111549Y-18076244D01*
X24111549Y-18076244D02*
X24092501Y-18047673D01*
X24092501Y-18047673D02*
X24082978Y-18028625D01*
X24082978Y-18028625D02*
X24073454Y-18000054D01*
X24073454Y-18000054D02*
X24063930Y-17952435D01*
X24063930Y-17952435D02*
X24063930Y-17914340D01*
X24063930Y-17914340D02*
X24073454Y-17866721D01*
X24073454Y-17866721D02*
X24082978Y-17838149D01*
X24082978Y-17838149D02*
X24092501Y-17819102D01*
X24092501Y-17819102D02*
X24111549Y-17790530D01*
X24111549Y-17790530D02*
X24121073Y-17781006D01*
X24282978Y-17876244D02*
X24282978Y-18009578D01*
X24235358Y-17800054D02*
X24187739Y-17942911D01*
X24187739Y-17942911D02*
X24311549Y-17942911D01*
X24378216Y-17828625D02*
X24387739Y-17819102D01*
X24387739Y-17819102D02*
X24406787Y-17809578D01*
X24406787Y-17809578D02*
X24454406Y-17809578D01*
X24454406Y-17809578D02*
X24473454Y-17819102D01*
X24473454Y-17819102D02*
X24482978Y-17828625D01*
X24482978Y-17828625D02*
X24492501Y-17847673D01*
X24492501Y-17847673D02*
X24492501Y-17866721D01*
X24492501Y-17866721D02*
X24482978Y-17895292D01*
X24482978Y-17895292D02*
X24368692Y-18009578D01*
X24368692Y-18009578D02*
X24492501Y-18009578D01*
X24730597Y-18009578D02*
X24730597Y-17809578D01*
X24816311Y-18009578D02*
X24816311Y-17904816D01*
X24816311Y-17904816D02*
X24806787Y-17885768D01*
X24806787Y-17885768D02*
X24787740Y-17876244D01*
X24787740Y-17876244D02*
X24759168Y-17876244D01*
X24759168Y-17876244D02*
X24740120Y-17885768D01*
X24740120Y-17885768D02*
X24730597Y-17895292D01*
X24940120Y-18009578D02*
X24921073Y-18000054D01*
X24921073Y-18000054D02*
X24911549Y-17990530D01*
X24911549Y-17990530D02*
X24902025Y-17971483D01*
X24902025Y-17971483D02*
X24902025Y-17914340D01*
X24902025Y-17914340D02*
X24911549Y-17895292D01*
X24911549Y-17895292D02*
X24921073Y-17885768D01*
X24921073Y-17885768D02*
X24940120Y-17876244D01*
X24940120Y-17876244D02*
X24968692Y-17876244D01*
X24968692Y-17876244D02*
X24987740Y-17885768D01*
X24987740Y-17885768D02*
X24997263Y-17895292D01*
X24997263Y-17895292D02*
X25006787Y-17914340D01*
X25006787Y-17914340D02*
X25006787Y-17971483D01*
X25006787Y-17971483D02*
X24997263Y-17990530D01*
X24997263Y-17990530D02*
X24987740Y-18000054D01*
X24987740Y-18000054D02*
X24968692Y-18009578D01*
X24968692Y-18009578D02*
X24940120Y-18009578D01*
X25121073Y-18009578D02*
X25102025Y-18000054D01*
X25102025Y-18000054D02*
X25092501Y-17981006D01*
X25092501Y-17981006D02*
X25092501Y-17809578D01*
X25273454Y-18000054D02*
X25254406Y-18009578D01*
X25254406Y-18009578D02*
X25216311Y-18009578D01*
X25216311Y-18009578D02*
X25197263Y-18000054D01*
X25197263Y-18000054D02*
X25187740Y-17981006D01*
X25187740Y-17981006D02*
X25187740Y-17904816D01*
X25187740Y-17904816D02*
X25197263Y-17885768D01*
X25197263Y-17885768D02*
X25216311Y-17876244D01*
X25216311Y-17876244D02*
X25254406Y-17876244D01*
X25254406Y-17876244D02*
X25273454Y-17885768D01*
X25273454Y-17885768D02*
X25282978Y-17904816D01*
X25282978Y-17904816D02*
X25282978Y-17923864D01*
X25282978Y-17923864D02*
X25187740Y-17942911D01*
X25359168Y-18000054D02*
X25378216Y-18009578D01*
X25378216Y-18009578D02*
X25416311Y-18009578D01*
X25416311Y-18009578D02*
X25435359Y-18000054D01*
X25435359Y-18000054D02*
X25444882Y-17981006D01*
X25444882Y-17981006D02*
X25444882Y-17971483D01*
X25444882Y-17971483D02*
X25435359Y-17952435D01*
X25435359Y-17952435D02*
X25416311Y-17942911D01*
X25416311Y-17942911D02*
X25387740Y-17942911D01*
X25387740Y-17942911D02*
X25368692Y-17933387D01*
X25368692Y-17933387D02*
X25359168Y-17914340D01*
X25359168Y-17914340D02*
X25359168Y-17904816D01*
X25359168Y-17904816D02*
X25368692Y-17885768D01*
X25368692Y-17885768D02*
X25387740Y-17876244D01*
X25387740Y-17876244D02*
X25416311Y-17876244D01*
X25416311Y-17876244D02*
X25435359Y-17885768D01*
X25511549Y-18085768D02*
X25521073Y-18076244D01*
X25521073Y-18076244D02*
X25540121Y-18047673D01*
X25540121Y-18047673D02*
X25549644Y-18028625D01*
X25549644Y-18028625D02*
X25559168Y-18000054D01*
X25559168Y-18000054D02*
X25568692Y-17952435D01*
X25568692Y-17952435D02*
X25568692Y-17914340D01*
X25568692Y-17914340D02*
X25559168Y-17866721D01*
X25559168Y-17866721D02*
X25549644Y-17838149D01*
X25549644Y-17838149D02*
X25540121Y-17819102D01*
X25540121Y-17819102D02*
X25521073Y-17790530D01*
X25521073Y-17790530D02*
X25511549Y-17781006D01*
D16*
X20496010Y-18232094D02*
X20546010Y-18182094D01*
X20496010Y-18132094D01*
X20446010Y-18182094D01*
X20496010Y-18232094D01*
D11*
X20911549Y-18273578D02*
X20797263Y-18273578D01*
X20854406Y-18273578D02*
X20854406Y-18073578D01*
X20854406Y-18073578D02*
X20835358Y-18102149D01*
X20835358Y-18102149D02*
X20816311Y-18121197D01*
X20816311Y-18121197D02*
X20797263Y-18130721D01*
X20997263Y-18254530D02*
X21006787Y-18264054D01*
X21006787Y-18264054D02*
X20997263Y-18273578D01*
X20997263Y-18273578D02*
X20987739Y-18264054D01*
X20987739Y-18264054D02*
X20997263Y-18254530D01*
X20997263Y-18254530D02*
X20997263Y-18273578D01*
X21130596Y-18073578D02*
X21149644Y-18073578D01*
X21149644Y-18073578D02*
X21168692Y-18083102D01*
X21168692Y-18083102D02*
X21178215Y-18092625D01*
X21178215Y-18092625D02*
X21187739Y-18111673D01*
X21187739Y-18111673D02*
X21197263Y-18149768D01*
X21197263Y-18149768D02*
X21197263Y-18197387D01*
X21197263Y-18197387D02*
X21187739Y-18235483D01*
X21187739Y-18235483D02*
X21178215Y-18254530D01*
X21178215Y-18254530D02*
X21168692Y-18264054D01*
X21168692Y-18264054D02*
X21149644Y-18273578D01*
X21149644Y-18273578D02*
X21130596Y-18273578D01*
X21130596Y-18273578D02*
X21111549Y-18264054D01*
X21111549Y-18264054D02*
X21102025Y-18254530D01*
X21102025Y-18254530D02*
X21092501Y-18235483D01*
X21092501Y-18235483D02*
X21082977Y-18197387D01*
X21082977Y-18197387D02*
X21082977Y-18149768D01*
X21082977Y-18149768D02*
X21092501Y-18111673D01*
X21092501Y-18111673D02*
X21102025Y-18092625D01*
X21102025Y-18092625D02*
X21111549Y-18083102D01*
X21111549Y-18083102D02*
X21130596Y-18073578D01*
X21321073Y-18073578D02*
X21340120Y-18073578D01*
X21340120Y-18073578D02*
X21359168Y-18083102D01*
X21359168Y-18083102D02*
X21368692Y-18092625D01*
X21368692Y-18092625D02*
X21378215Y-18111673D01*
X21378215Y-18111673D02*
X21387739Y-18149768D01*
X21387739Y-18149768D02*
X21387739Y-18197387D01*
X21387739Y-18197387D02*
X21378215Y-18235483D01*
X21378215Y-18235483D02*
X21368692Y-18254530D01*
X21368692Y-18254530D02*
X21359168Y-18264054D01*
X21359168Y-18264054D02*
X21340120Y-18273578D01*
X21340120Y-18273578D02*
X21321073Y-18273578D01*
X21321073Y-18273578D02*
X21302025Y-18264054D01*
X21302025Y-18264054D02*
X21292501Y-18254530D01*
X21292501Y-18254530D02*
X21282977Y-18235483D01*
X21282977Y-18235483D02*
X21273454Y-18197387D01*
X21273454Y-18197387D02*
X21273454Y-18149768D01*
X21273454Y-18149768D02*
X21282977Y-18111673D01*
X21282977Y-18111673D02*
X21292501Y-18092625D01*
X21292501Y-18092625D02*
X21302025Y-18083102D01*
X21302025Y-18083102D02*
X21321073Y-18073578D01*
X21511549Y-18073578D02*
X21530596Y-18073578D01*
X21530596Y-18073578D02*
X21549644Y-18083102D01*
X21549644Y-18083102D02*
X21559168Y-18092625D01*
X21559168Y-18092625D02*
X21568692Y-18111673D01*
X21568692Y-18111673D02*
X21578215Y-18149768D01*
X21578215Y-18149768D02*
X21578215Y-18197387D01*
X21578215Y-18197387D02*
X21568692Y-18235483D01*
X21568692Y-18235483D02*
X21559168Y-18254530D01*
X21559168Y-18254530D02*
X21549644Y-18264054D01*
X21549644Y-18264054D02*
X21530596Y-18273578D01*
X21530596Y-18273578D02*
X21511549Y-18273578D01*
X21511549Y-18273578D02*
X21492501Y-18264054D01*
X21492501Y-18264054D02*
X21482977Y-18254530D01*
X21482977Y-18254530D02*
X21473454Y-18235483D01*
X21473454Y-18235483D02*
X21463930Y-18197387D01*
X21463930Y-18197387D02*
X21463930Y-18149768D01*
X21463930Y-18149768D02*
X21473454Y-18111673D01*
X21473454Y-18111673D02*
X21482977Y-18092625D01*
X21482977Y-18092625D02*
X21492501Y-18083102D01*
X21492501Y-18083102D02*
X21511549Y-18073578D01*
X21663930Y-18273578D02*
X21663930Y-18140244D01*
X21663930Y-18159292D02*
X21673454Y-18149768D01*
X21673454Y-18149768D02*
X21692501Y-18140244D01*
X21692501Y-18140244D02*
X21721073Y-18140244D01*
X21721073Y-18140244D02*
X21740120Y-18149768D01*
X21740120Y-18149768D02*
X21749644Y-18168816D01*
X21749644Y-18168816D02*
X21749644Y-18273578D01*
X21749644Y-18168816D02*
X21759168Y-18149768D01*
X21759168Y-18149768D02*
X21778215Y-18140244D01*
X21778215Y-18140244D02*
X21806787Y-18140244D01*
X21806787Y-18140244D02*
X21825835Y-18149768D01*
X21825835Y-18149768D02*
X21835358Y-18168816D01*
X21835358Y-18168816D02*
X21835358Y-18273578D01*
X21930596Y-18273578D02*
X21930596Y-18140244D01*
X21930596Y-18159292D02*
X21940120Y-18149768D01*
X21940120Y-18149768D02*
X21959168Y-18140244D01*
X21959168Y-18140244D02*
X21987739Y-18140244D01*
X21987739Y-18140244D02*
X22006787Y-18149768D01*
X22006787Y-18149768D02*
X22016311Y-18168816D01*
X22016311Y-18168816D02*
X22016311Y-18273578D01*
X22016311Y-18168816D02*
X22025835Y-18149768D01*
X22025835Y-18149768D02*
X22044882Y-18140244D01*
X22044882Y-18140244D02*
X22073454Y-18140244D01*
X22073454Y-18140244D02*
X22092501Y-18149768D01*
X22092501Y-18149768D02*
X22102025Y-18168816D01*
X22102025Y-18168816D02*
X22102025Y-18273578D01*
X22492501Y-18064054D02*
X22321073Y-18321197D01*
X22749644Y-18073578D02*
X22768692Y-18073578D01*
X22768692Y-18073578D02*
X22787739Y-18083102D01*
X22787739Y-18083102D02*
X22797263Y-18092625D01*
X22797263Y-18092625D02*
X22806787Y-18111673D01*
X22806787Y-18111673D02*
X22816311Y-18149768D01*
X22816311Y-18149768D02*
X22816311Y-18197387D01*
X22816311Y-18197387D02*
X22806787Y-18235483D01*
X22806787Y-18235483D02*
X22797263Y-18254530D01*
X22797263Y-18254530D02*
X22787739Y-18264054D01*
X22787739Y-18264054D02*
X22768692Y-18273578D01*
X22768692Y-18273578D02*
X22749644Y-18273578D01*
X22749644Y-18273578D02*
X22730596Y-18264054D01*
X22730596Y-18264054D02*
X22721073Y-18254530D01*
X22721073Y-18254530D02*
X22711549Y-18235483D01*
X22711549Y-18235483D02*
X22702025Y-18197387D01*
X22702025Y-18197387D02*
X22702025Y-18149768D01*
X22702025Y-18149768D02*
X22711549Y-18111673D01*
X22711549Y-18111673D02*
X22721073Y-18092625D01*
X22721073Y-18092625D02*
X22730596Y-18083102D01*
X22730596Y-18083102D02*
X22749644Y-18073578D01*
X22902025Y-18254530D02*
X22911549Y-18264054D01*
X22911549Y-18264054D02*
X22902025Y-18273578D01*
X22902025Y-18273578D02*
X22892501Y-18264054D01*
X22892501Y-18264054D02*
X22902025Y-18254530D01*
X22902025Y-18254530D02*
X22902025Y-18273578D01*
X23035358Y-18073578D02*
X23054406Y-18073578D01*
X23054406Y-18073578D02*
X23073454Y-18083102D01*
X23073454Y-18083102D02*
X23082977Y-18092625D01*
X23082977Y-18092625D02*
X23092501Y-18111673D01*
X23092501Y-18111673D02*
X23102025Y-18149768D01*
X23102025Y-18149768D02*
X23102025Y-18197387D01*
X23102025Y-18197387D02*
X23092501Y-18235483D01*
X23092501Y-18235483D02*
X23082977Y-18254530D01*
X23082977Y-18254530D02*
X23073454Y-18264054D01*
X23073454Y-18264054D02*
X23054406Y-18273578D01*
X23054406Y-18273578D02*
X23035358Y-18273578D01*
X23035358Y-18273578D02*
X23016311Y-18264054D01*
X23016311Y-18264054D02*
X23006787Y-18254530D01*
X23006787Y-18254530D02*
X22997263Y-18235483D01*
X22997263Y-18235483D02*
X22987739Y-18197387D01*
X22987739Y-18197387D02*
X22987739Y-18149768D01*
X22987739Y-18149768D02*
X22997263Y-18111673D01*
X22997263Y-18111673D02*
X23006787Y-18092625D01*
X23006787Y-18092625D02*
X23016311Y-18083102D01*
X23016311Y-18083102D02*
X23035358Y-18073578D01*
X23168692Y-18073578D02*
X23292501Y-18073578D01*
X23292501Y-18073578D02*
X23225835Y-18149768D01*
X23225835Y-18149768D02*
X23254406Y-18149768D01*
X23254406Y-18149768D02*
X23273454Y-18159292D01*
X23273454Y-18159292D02*
X23282977Y-18168816D01*
X23282977Y-18168816D02*
X23292501Y-18187864D01*
X23292501Y-18187864D02*
X23292501Y-18235483D01*
X23292501Y-18235483D02*
X23282977Y-18254530D01*
X23282977Y-18254530D02*
X23273454Y-18264054D01*
X23273454Y-18264054D02*
X23254406Y-18273578D01*
X23254406Y-18273578D02*
X23197263Y-18273578D01*
X23197263Y-18273578D02*
X23178216Y-18264054D01*
X23178216Y-18264054D02*
X23168692Y-18254530D01*
X23387739Y-18273578D02*
X23425835Y-18273578D01*
X23425835Y-18273578D02*
X23444882Y-18264054D01*
X23444882Y-18264054D02*
X23454406Y-18254530D01*
X23454406Y-18254530D02*
X23473454Y-18225959D01*
X23473454Y-18225959D02*
X23482977Y-18187864D01*
X23482977Y-18187864D02*
X23482977Y-18111673D01*
X23482977Y-18111673D02*
X23473454Y-18092625D01*
X23473454Y-18092625D02*
X23463930Y-18083102D01*
X23463930Y-18083102D02*
X23444882Y-18073578D01*
X23444882Y-18073578D02*
X23406787Y-18073578D01*
X23406787Y-18073578D02*
X23387739Y-18083102D01*
X23387739Y-18083102D02*
X23378216Y-18092625D01*
X23378216Y-18092625D02*
X23368692Y-18111673D01*
X23368692Y-18111673D02*
X23368692Y-18159292D01*
X23368692Y-18159292D02*
X23378216Y-18178340D01*
X23378216Y-18178340D02*
X23387739Y-18187864D01*
X23387739Y-18187864D02*
X23406787Y-18197387D01*
X23406787Y-18197387D02*
X23444882Y-18197387D01*
X23444882Y-18197387D02*
X23463930Y-18187864D01*
X23463930Y-18187864D02*
X23473454Y-18178340D01*
X23473454Y-18178340D02*
X23482977Y-18159292D01*
X23654406Y-18140244D02*
X23654406Y-18273578D01*
X23606787Y-18064054D02*
X23559168Y-18206911D01*
X23559168Y-18206911D02*
X23682977Y-18206911D01*
X23749644Y-18073578D02*
X23749644Y-18111673D01*
X23825835Y-18073578D02*
X23825835Y-18111673D01*
X24121073Y-18349768D02*
X24111549Y-18340244D01*
X24111549Y-18340244D02*
X24092501Y-18311673D01*
X24092501Y-18311673D02*
X24082978Y-18292625D01*
X24082978Y-18292625D02*
X24073454Y-18264054D01*
X24073454Y-18264054D02*
X24063930Y-18216435D01*
X24063930Y-18216435D02*
X24063930Y-18178340D01*
X24063930Y-18178340D02*
X24073454Y-18130721D01*
X24073454Y-18130721D02*
X24082978Y-18102149D01*
X24082978Y-18102149D02*
X24092501Y-18083102D01*
X24092501Y-18083102D02*
X24111549Y-18054530D01*
X24111549Y-18054530D02*
X24121073Y-18045006D01*
X24302025Y-18273578D02*
X24187739Y-18273578D01*
X24244882Y-18273578D02*
X24244882Y-18073578D01*
X24244882Y-18073578D02*
X24225835Y-18102149D01*
X24225835Y-18102149D02*
X24206787Y-18121197D01*
X24206787Y-18121197D02*
X24187739Y-18130721D01*
X24530597Y-18264054D02*
X24549644Y-18273578D01*
X24549644Y-18273578D02*
X24587739Y-18273578D01*
X24587739Y-18273578D02*
X24606787Y-18264054D01*
X24606787Y-18264054D02*
X24616311Y-18245006D01*
X24616311Y-18245006D02*
X24616311Y-18235483D01*
X24616311Y-18235483D02*
X24606787Y-18216435D01*
X24606787Y-18216435D02*
X24587739Y-18206911D01*
X24587739Y-18206911D02*
X24559168Y-18206911D01*
X24559168Y-18206911D02*
X24540120Y-18197387D01*
X24540120Y-18197387D02*
X24530597Y-18178340D01*
X24530597Y-18178340D02*
X24530597Y-18168816D01*
X24530597Y-18168816D02*
X24540120Y-18149768D01*
X24540120Y-18149768D02*
X24559168Y-18140244D01*
X24559168Y-18140244D02*
X24587739Y-18140244D01*
X24587739Y-18140244D02*
X24606787Y-18149768D01*
X24730597Y-18273578D02*
X24711549Y-18264054D01*
X24711549Y-18264054D02*
X24702025Y-18245006D01*
X24702025Y-18245006D02*
X24702025Y-18073578D01*
X24835359Y-18273578D02*
X24816311Y-18264054D01*
X24816311Y-18264054D02*
X24806787Y-18254530D01*
X24806787Y-18254530D02*
X24797263Y-18235483D01*
X24797263Y-18235483D02*
X24797263Y-18178340D01*
X24797263Y-18178340D02*
X24806787Y-18159292D01*
X24806787Y-18159292D02*
X24816311Y-18149768D01*
X24816311Y-18149768D02*
X24835359Y-18140244D01*
X24835359Y-18140244D02*
X24863930Y-18140244D01*
X24863930Y-18140244D02*
X24882978Y-18149768D01*
X24882978Y-18149768D02*
X24892501Y-18159292D01*
X24892501Y-18159292D02*
X24902025Y-18178340D01*
X24902025Y-18178340D02*
X24902025Y-18235483D01*
X24902025Y-18235483D02*
X24892501Y-18254530D01*
X24892501Y-18254530D02*
X24882978Y-18264054D01*
X24882978Y-18264054D02*
X24863930Y-18273578D01*
X24863930Y-18273578D02*
X24835359Y-18273578D01*
X24959168Y-18140244D02*
X25035359Y-18140244D01*
X24987740Y-18073578D02*
X24987740Y-18245006D01*
X24987740Y-18245006D02*
X24997263Y-18264054D01*
X24997263Y-18264054D02*
X25016311Y-18273578D01*
X25016311Y-18273578D02*
X25035359Y-18273578D01*
X25082978Y-18349768D02*
X25092501Y-18340244D01*
X25092501Y-18340244D02*
X25111549Y-18311673D01*
X25111549Y-18311673D02*
X25121073Y-18292625D01*
X25121073Y-18292625D02*
X25130597Y-18264054D01*
X25130597Y-18264054D02*
X25140120Y-18216435D01*
X25140120Y-18216435D02*
X25140120Y-18178340D01*
X25140120Y-18178340D02*
X25130597Y-18130721D01*
X25130597Y-18130721D02*
X25121073Y-18102149D01*
X25121073Y-18102149D02*
X25111549Y-18083102D01*
X25111549Y-18083102D02*
X25092501Y-18054530D01*
X25092501Y-18054530D02*
X25082978Y-18045006D01*
D17*
X20421010Y-18383594D02*
X20546010Y-18508594D01*
X20546010Y-18383594D02*
X20421010Y-18508594D01*
X20546010Y-18446094D02*
G75*
G03*
X20546010Y-18446094I-62500J0D01*
G01*
D11*
X20911549Y-18537578D02*
X20797263Y-18537578D01*
X20854406Y-18537578D02*
X20854406Y-18337578D01*
X20854406Y-18337578D02*
X20835358Y-18366149D01*
X20835358Y-18366149D02*
X20816311Y-18385197D01*
X20816311Y-18385197D02*
X20797263Y-18394721D01*
X20997263Y-18518530D02*
X21006787Y-18528054D01*
X21006787Y-18528054D02*
X20997263Y-18537578D01*
X20997263Y-18537578D02*
X20987739Y-18528054D01*
X20987739Y-18528054D02*
X20997263Y-18518530D01*
X20997263Y-18518530D02*
X20997263Y-18537578D01*
X21082977Y-18356625D02*
X21092501Y-18347102D01*
X21092501Y-18347102D02*
X21111549Y-18337578D01*
X21111549Y-18337578D02*
X21159168Y-18337578D01*
X21159168Y-18337578D02*
X21178215Y-18347102D01*
X21178215Y-18347102D02*
X21187739Y-18356625D01*
X21187739Y-18356625D02*
X21197263Y-18375673D01*
X21197263Y-18375673D02*
X21197263Y-18394721D01*
X21197263Y-18394721D02*
X21187739Y-18423292D01*
X21187739Y-18423292D02*
X21073454Y-18537578D01*
X21073454Y-18537578D02*
X21197263Y-18537578D01*
X21378215Y-18337578D02*
X21282977Y-18337578D01*
X21282977Y-18337578D02*
X21273454Y-18432816D01*
X21273454Y-18432816D02*
X21282977Y-18423292D01*
X21282977Y-18423292D02*
X21302025Y-18413768D01*
X21302025Y-18413768D02*
X21349644Y-18413768D01*
X21349644Y-18413768D02*
X21368692Y-18423292D01*
X21368692Y-18423292D02*
X21378215Y-18432816D01*
X21378215Y-18432816D02*
X21387739Y-18451864D01*
X21387739Y-18451864D02*
X21387739Y-18499483D01*
X21387739Y-18499483D02*
X21378215Y-18518530D01*
X21378215Y-18518530D02*
X21368692Y-18528054D01*
X21368692Y-18528054D02*
X21349644Y-18537578D01*
X21349644Y-18537578D02*
X21302025Y-18537578D01*
X21302025Y-18537578D02*
X21282977Y-18528054D01*
X21282977Y-18528054D02*
X21273454Y-18518530D01*
X21511549Y-18337578D02*
X21530596Y-18337578D01*
X21530596Y-18337578D02*
X21549644Y-18347102D01*
X21549644Y-18347102D02*
X21559168Y-18356625D01*
X21559168Y-18356625D02*
X21568692Y-18375673D01*
X21568692Y-18375673D02*
X21578215Y-18413768D01*
X21578215Y-18413768D02*
X21578215Y-18461387D01*
X21578215Y-18461387D02*
X21568692Y-18499483D01*
X21568692Y-18499483D02*
X21559168Y-18518530D01*
X21559168Y-18518530D02*
X21549644Y-18528054D01*
X21549644Y-18528054D02*
X21530596Y-18537578D01*
X21530596Y-18537578D02*
X21511549Y-18537578D01*
X21511549Y-18537578D02*
X21492501Y-18528054D01*
X21492501Y-18528054D02*
X21482977Y-18518530D01*
X21482977Y-18518530D02*
X21473454Y-18499483D01*
X21473454Y-18499483D02*
X21463930Y-18461387D01*
X21463930Y-18461387D02*
X21463930Y-18413768D01*
X21463930Y-18413768D02*
X21473454Y-18375673D01*
X21473454Y-18375673D02*
X21482977Y-18356625D01*
X21482977Y-18356625D02*
X21492501Y-18347102D01*
X21492501Y-18347102D02*
X21511549Y-18337578D01*
X21663930Y-18537578D02*
X21663930Y-18404244D01*
X21663930Y-18423292D02*
X21673454Y-18413768D01*
X21673454Y-18413768D02*
X21692501Y-18404244D01*
X21692501Y-18404244D02*
X21721073Y-18404244D01*
X21721073Y-18404244D02*
X21740120Y-18413768D01*
X21740120Y-18413768D02*
X21749644Y-18432816D01*
X21749644Y-18432816D02*
X21749644Y-18537578D01*
X21749644Y-18432816D02*
X21759168Y-18413768D01*
X21759168Y-18413768D02*
X21778215Y-18404244D01*
X21778215Y-18404244D02*
X21806787Y-18404244D01*
X21806787Y-18404244D02*
X21825835Y-18413768D01*
X21825835Y-18413768D02*
X21835358Y-18432816D01*
X21835358Y-18432816D02*
X21835358Y-18537578D01*
X21930596Y-18537578D02*
X21930596Y-18404244D01*
X21930596Y-18423292D02*
X21940120Y-18413768D01*
X21940120Y-18413768D02*
X21959168Y-18404244D01*
X21959168Y-18404244D02*
X21987739Y-18404244D01*
X21987739Y-18404244D02*
X22006787Y-18413768D01*
X22006787Y-18413768D02*
X22016311Y-18432816D01*
X22016311Y-18432816D02*
X22016311Y-18537578D01*
X22016311Y-18432816D02*
X22025835Y-18413768D01*
X22025835Y-18413768D02*
X22044882Y-18404244D01*
X22044882Y-18404244D02*
X22073454Y-18404244D01*
X22073454Y-18404244D02*
X22092501Y-18413768D01*
X22092501Y-18413768D02*
X22102025Y-18432816D01*
X22102025Y-18432816D02*
X22102025Y-18537578D01*
X22492501Y-18328054D02*
X22321073Y-18585197D01*
X22749644Y-18337578D02*
X22768692Y-18337578D01*
X22768692Y-18337578D02*
X22787739Y-18347102D01*
X22787739Y-18347102D02*
X22797263Y-18356625D01*
X22797263Y-18356625D02*
X22806787Y-18375673D01*
X22806787Y-18375673D02*
X22816311Y-18413768D01*
X22816311Y-18413768D02*
X22816311Y-18461387D01*
X22816311Y-18461387D02*
X22806787Y-18499483D01*
X22806787Y-18499483D02*
X22797263Y-18518530D01*
X22797263Y-18518530D02*
X22787739Y-18528054D01*
X22787739Y-18528054D02*
X22768692Y-18537578D01*
X22768692Y-18537578D02*
X22749644Y-18537578D01*
X22749644Y-18537578D02*
X22730596Y-18528054D01*
X22730596Y-18528054D02*
X22721073Y-18518530D01*
X22721073Y-18518530D02*
X22711549Y-18499483D01*
X22711549Y-18499483D02*
X22702025Y-18461387D01*
X22702025Y-18461387D02*
X22702025Y-18413768D01*
X22702025Y-18413768D02*
X22711549Y-18375673D01*
X22711549Y-18375673D02*
X22721073Y-18356625D01*
X22721073Y-18356625D02*
X22730596Y-18347102D01*
X22730596Y-18347102D02*
X22749644Y-18337578D01*
X22902025Y-18518530D02*
X22911549Y-18528054D01*
X22911549Y-18528054D02*
X22902025Y-18537578D01*
X22902025Y-18537578D02*
X22892501Y-18528054D01*
X22892501Y-18528054D02*
X22902025Y-18518530D01*
X22902025Y-18518530D02*
X22902025Y-18537578D01*
X23035358Y-18337578D02*
X23054406Y-18337578D01*
X23054406Y-18337578D02*
X23073454Y-18347102D01*
X23073454Y-18347102D02*
X23082977Y-18356625D01*
X23082977Y-18356625D02*
X23092501Y-18375673D01*
X23092501Y-18375673D02*
X23102025Y-18413768D01*
X23102025Y-18413768D02*
X23102025Y-18461387D01*
X23102025Y-18461387D02*
X23092501Y-18499483D01*
X23092501Y-18499483D02*
X23082977Y-18518530D01*
X23082977Y-18518530D02*
X23073454Y-18528054D01*
X23073454Y-18528054D02*
X23054406Y-18537578D01*
X23054406Y-18537578D02*
X23035358Y-18537578D01*
X23035358Y-18537578D02*
X23016311Y-18528054D01*
X23016311Y-18528054D02*
X23006787Y-18518530D01*
X23006787Y-18518530D02*
X22997263Y-18499483D01*
X22997263Y-18499483D02*
X22987739Y-18461387D01*
X22987739Y-18461387D02*
X22987739Y-18413768D01*
X22987739Y-18413768D02*
X22997263Y-18375673D01*
X22997263Y-18375673D02*
X23006787Y-18356625D01*
X23006787Y-18356625D02*
X23016311Y-18347102D01*
X23016311Y-18347102D02*
X23035358Y-18337578D01*
X23273454Y-18404244D02*
X23273454Y-18537578D01*
X23225835Y-18328054D02*
X23178216Y-18470911D01*
X23178216Y-18470911D02*
X23302025Y-18470911D01*
X23387739Y-18537578D02*
X23425835Y-18537578D01*
X23425835Y-18537578D02*
X23444882Y-18528054D01*
X23444882Y-18528054D02*
X23454406Y-18518530D01*
X23454406Y-18518530D02*
X23473454Y-18489959D01*
X23473454Y-18489959D02*
X23482977Y-18451864D01*
X23482977Y-18451864D02*
X23482977Y-18375673D01*
X23482977Y-18375673D02*
X23473454Y-18356625D01*
X23473454Y-18356625D02*
X23463930Y-18347102D01*
X23463930Y-18347102D02*
X23444882Y-18337578D01*
X23444882Y-18337578D02*
X23406787Y-18337578D01*
X23406787Y-18337578D02*
X23387739Y-18347102D01*
X23387739Y-18347102D02*
X23378216Y-18356625D01*
X23378216Y-18356625D02*
X23368692Y-18375673D01*
X23368692Y-18375673D02*
X23368692Y-18423292D01*
X23368692Y-18423292D02*
X23378216Y-18442340D01*
X23378216Y-18442340D02*
X23387739Y-18451864D01*
X23387739Y-18451864D02*
X23406787Y-18461387D01*
X23406787Y-18461387D02*
X23444882Y-18461387D01*
X23444882Y-18461387D02*
X23463930Y-18451864D01*
X23463930Y-18451864D02*
X23473454Y-18442340D01*
X23473454Y-18442340D02*
X23482977Y-18423292D01*
X23559168Y-18356625D02*
X23568692Y-18347102D01*
X23568692Y-18347102D02*
X23587739Y-18337578D01*
X23587739Y-18337578D02*
X23635358Y-18337578D01*
X23635358Y-18337578D02*
X23654406Y-18347102D01*
X23654406Y-18347102D02*
X23663930Y-18356625D01*
X23663930Y-18356625D02*
X23673454Y-18375673D01*
X23673454Y-18375673D02*
X23673454Y-18394721D01*
X23673454Y-18394721D02*
X23663930Y-18423292D01*
X23663930Y-18423292D02*
X23549644Y-18537578D01*
X23549644Y-18537578D02*
X23673454Y-18537578D01*
X23749644Y-18337578D02*
X23749644Y-18375673D01*
X23825835Y-18337578D02*
X23825835Y-18375673D01*
X24121073Y-18613768D02*
X24111549Y-18604244D01*
X24111549Y-18604244D02*
X24092501Y-18575673D01*
X24092501Y-18575673D02*
X24082978Y-18556625D01*
X24082978Y-18556625D02*
X24073454Y-18528054D01*
X24073454Y-18528054D02*
X24063930Y-18480435D01*
X24063930Y-18480435D02*
X24063930Y-18442340D01*
X24063930Y-18442340D02*
X24073454Y-18394721D01*
X24073454Y-18394721D02*
X24082978Y-18366149D01*
X24082978Y-18366149D02*
X24092501Y-18347102D01*
X24092501Y-18347102D02*
X24111549Y-18318530D01*
X24111549Y-18318530D02*
X24121073Y-18309006D01*
X24225835Y-18423292D02*
X24206787Y-18413768D01*
X24206787Y-18413768D02*
X24197263Y-18404244D01*
X24197263Y-18404244D02*
X24187739Y-18385197D01*
X24187739Y-18385197D02*
X24187739Y-18375673D01*
X24187739Y-18375673D02*
X24197263Y-18356625D01*
X24197263Y-18356625D02*
X24206787Y-18347102D01*
X24206787Y-18347102D02*
X24225835Y-18337578D01*
X24225835Y-18337578D02*
X24263930Y-18337578D01*
X24263930Y-18337578D02*
X24282978Y-18347102D01*
X24282978Y-18347102D02*
X24292501Y-18356625D01*
X24292501Y-18356625D02*
X24302025Y-18375673D01*
X24302025Y-18375673D02*
X24302025Y-18385197D01*
X24302025Y-18385197D02*
X24292501Y-18404244D01*
X24292501Y-18404244D02*
X24282978Y-18413768D01*
X24282978Y-18413768D02*
X24263930Y-18423292D01*
X24263930Y-18423292D02*
X24225835Y-18423292D01*
X24225835Y-18423292D02*
X24206787Y-18432816D01*
X24206787Y-18432816D02*
X24197263Y-18442340D01*
X24197263Y-18442340D02*
X24187739Y-18461387D01*
X24187739Y-18461387D02*
X24187739Y-18499483D01*
X24187739Y-18499483D02*
X24197263Y-18518530D01*
X24197263Y-18518530D02*
X24206787Y-18528054D01*
X24206787Y-18528054D02*
X24225835Y-18537578D01*
X24225835Y-18537578D02*
X24263930Y-18537578D01*
X24263930Y-18537578D02*
X24282978Y-18528054D01*
X24282978Y-18528054D02*
X24292501Y-18518530D01*
X24292501Y-18518530D02*
X24302025Y-18499483D01*
X24302025Y-18499483D02*
X24302025Y-18461387D01*
X24302025Y-18461387D02*
X24292501Y-18442340D01*
X24292501Y-18442340D02*
X24282978Y-18432816D01*
X24282978Y-18432816D02*
X24263930Y-18423292D01*
X24540120Y-18537578D02*
X24540120Y-18337578D01*
X24625835Y-18537578D02*
X24625835Y-18432816D01*
X24625835Y-18432816D02*
X24616311Y-18413768D01*
X24616311Y-18413768D02*
X24597263Y-18404244D01*
X24597263Y-18404244D02*
X24568692Y-18404244D01*
X24568692Y-18404244D02*
X24549644Y-18413768D01*
X24549644Y-18413768D02*
X24540120Y-18423292D01*
X24749644Y-18537578D02*
X24730597Y-18528054D01*
X24730597Y-18528054D02*
X24721073Y-18518530D01*
X24721073Y-18518530D02*
X24711549Y-18499483D01*
X24711549Y-18499483D02*
X24711549Y-18442340D01*
X24711549Y-18442340D02*
X24721073Y-18423292D01*
X24721073Y-18423292D02*
X24730597Y-18413768D01*
X24730597Y-18413768D02*
X24749644Y-18404244D01*
X24749644Y-18404244D02*
X24778216Y-18404244D01*
X24778216Y-18404244D02*
X24797263Y-18413768D01*
X24797263Y-18413768D02*
X24806787Y-18423292D01*
X24806787Y-18423292D02*
X24816311Y-18442340D01*
X24816311Y-18442340D02*
X24816311Y-18499483D01*
X24816311Y-18499483D02*
X24806787Y-18518530D01*
X24806787Y-18518530D02*
X24797263Y-18528054D01*
X24797263Y-18528054D02*
X24778216Y-18537578D01*
X24778216Y-18537578D02*
X24749644Y-18537578D01*
X24930597Y-18537578D02*
X24911549Y-18528054D01*
X24911549Y-18528054D02*
X24902025Y-18509006D01*
X24902025Y-18509006D02*
X24902025Y-18337578D01*
X25082978Y-18528054D02*
X25063930Y-18537578D01*
X25063930Y-18537578D02*
X25025835Y-18537578D01*
X25025835Y-18537578D02*
X25006787Y-18528054D01*
X25006787Y-18528054D02*
X24997263Y-18509006D01*
X24997263Y-18509006D02*
X24997263Y-18432816D01*
X24997263Y-18432816D02*
X25006787Y-18413768D01*
X25006787Y-18413768D02*
X25025835Y-18404244D01*
X25025835Y-18404244D02*
X25063930Y-18404244D01*
X25063930Y-18404244D02*
X25082978Y-18413768D01*
X25082978Y-18413768D02*
X25092501Y-18432816D01*
X25092501Y-18432816D02*
X25092501Y-18451864D01*
X25092501Y-18451864D02*
X24997263Y-18470911D01*
X25168692Y-18528054D02*
X25187740Y-18537578D01*
X25187740Y-18537578D02*
X25225835Y-18537578D01*
X25225835Y-18537578D02*
X25244882Y-18528054D01*
X25244882Y-18528054D02*
X25254406Y-18509006D01*
X25254406Y-18509006D02*
X25254406Y-18499483D01*
X25254406Y-18499483D02*
X25244882Y-18480435D01*
X25244882Y-18480435D02*
X25225835Y-18470911D01*
X25225835Y-18470911D02*
X25197263Y-18470911D01*
X25197263Y-18470911D02*
X25178216Y-18461387D01*
X25178216Y-18461387D02*
X25168692Y-18442340D01*
X25168692Y-18442340D02*
X25168692Y-18432816D01*
X25168692Y-18432816D02*
X25178216Y-18413768D01*
X25178216Y-18413768D02*
X25197263Y-18404244D01*
X25197263Y-18404244D02*
X25225835Y-18404244D01*
X25225835Y-18404244D02*
X25244882Y-18413768D01*
X25321073Y-18613768D02*
X25330597Y-18604244D01*
X25330597Y-18604244D02*
X25349644Y-18575673D01*
X25349644Y-18575673D02*
X25359168Y-18556625D01*
X25359168Y-18556625D02*
X25368692Y-18528054D01*
X25368692Y-18528054D02*
X25378216Y-18480435D01*
X25378216Y-18480435D02*
X25378216Y-18442340D01*
X25378216Y-18442340D02*
X25368692Y-18394721D01*
X25368692Y-18394721D02*
X25359168Y-18366149D01*
X25359168Y-18366149D02*
X25349644Y-18347102D01*
X25349644Y-18347102D02*
X25330597Y-18318530D01*
X25330597Y-18318530D02*
X25321073Y-18309006D01*
D17*
X20421010Y-18647594D02*
X20546010Y-18772594D01*
X20546010Y-18647594D02*
X20421010Y-18772594D01*
X20483510Y-18647594D02*
X20483510Y-18772594D01*
X20421010Y-18710094D02*
X20546010Y-18710094D01*
D11*
X20911549Y-18801578D02*
X20797263Y-18801578D01*
X20854406Y-18801578D02*
X20854406Y-18601578D01*
X20854406Y-18601578D02*
X20835358Y-18630149D01*
X20835358Y-18630149D02*
X20816311Y-18649197D01*
X20816311Y-18649197D02*
X20797263Y-18658721D01*
X20997263Y-18782530D02*
X21006787Y-18792054D01*
X21006787Y-18792054D02*
X20997263Y-18801578D01*
X20997263Y-18801578D02*
X20987739Y-18792054D01*
X20987739Y-18792054D02*
X20997263Y-18782530D01*
X20997263Y-18782530D02*
X20997263Y-18801578D01*
X21082977Y-18620625D02*
X21092501Y-18611102D01*
X21092501Y-18611102D02*
X21111549Y-18601578D01*
X21111549Y-18601578D02*
X21159168Y-18601578D01*
X21159168Y-18601578D02*
X21178215Y-18611102D01*
X21178215Y-18611102D02*
X21187739Y-18620625D01*
X21187739Y-18620625D02*
X21197263Y-18639673D01*
X21197263Y-18639673D02*
X21197263Y-18658721D01*
X21197263Y-18658721D02*
X21187739Y-18687292D01*
X21187739Y-18687292D02*
X21073454Y-18801578D01*
X21073454Y-18801578D02*
X21197263Y-18801578D01*
X21378215Y-18601578D02*
X21282977Y-18601578D01*
X21282977Y-18601578D02*
X21273454Y-18696816D01*
X21273454Y-18696816D02*
X21282977Y-18687292D01*
X21282977Y-18687292D02*
X21302025Y-18677768D01*
X21302025Y-18677768D02*
X21349644Y-18677768D01*
X21349644Y-18677768D02*
X21368692Y-18687292D01*
X21368692Y-18687292D02*
X21378215Y-18696816D01*
X21378215Y-18696816D02*
X21387739Y-18715864D01*
X21387739Y-18715864D02*
X21387739Y-18763483D01*
X21387739Y-18763483D02*
X21378215Y-18782530D01*
X21378215Y-18782530D02*
X21368692Y-18792054D01*
X21368692Y-18792054D02*
X21349644Y-18801578D01*
X21349644Y-18801578D02*
X21302025Y-18801578D01*
X21302025Y-18801578D02*
X21282977Y-18792054D01*
X21282977Y-18792054D02*
X21273454Y-18782530D01*
X21511549Y-18601578D02*
X21530596Y-18601578D01*
X21530596Y-18601578D02*
X21549644Y-18611102D01*
X21549644Y-18611102D02*
X21559168Y-18620625D01*
X21559168Y-18620625D02*
X21568692Y-18639673D01*
X21568692Y-18639673D02*
X21578215Y-18677768D01*
X21578215Y-18677768D02*
X21578215Y-18725387D01*
X21578215Y-18725387D02*
X21568692Y-18763483D01*
X21568692Y-18763483D02*
X21559168Y-18782530D01*
X21559168Y-18782530D02*
X21549644Y-18792054D01*
X21549644Y-18792054D02*
X21530596Y-18801578D01*
X21530596Y-18801578D02*
X21511549Y-18801578D01*
X21511549Y-18801578D02*
X21492501Y-18792054D01*
X21492501Y-18792054D02*
X21482977Y-18782530D01*
X21482977Y-18782530D02*
X21473454Y-18763483D01*
X21473454Y-18763483D02*
X21463930Y-18725387D01*
X21463930Y-18725387D02*
X21463930Y-18677768D01*
X21463930Y-18677768D02*
X21473454Y-18639673D01*
X21473454Y-18639673D02*
X21482977Y-18620625D01*
X21482977Y-18620625D02*
X21492501Y-18611102D01*
X21492501Y-18611102D02*
X21511549Y-18601578D01*
X21663930Y-18801578D02*
X21663930Y-18668244D01*
X21663930Y-18687292D02*
X21673454Y-18677768D01*
X21673454Y-18677768D02*
X21692501Y-18668244D01*
X21692501Y-18668244D02*
X21721073Y-18668244D01*
X21721073Y-18668244D02*
X21740120Y-18677768D01*
X21740120Y-18677768D02*
X21749644Y-18696816D01*
X21749644Y-18696816D02*
X21749644Y-18801578D01*
X21749644Y-18696816D02*
X21759168Y-18677768D01*
X21759168Y-18677768D02*
X21778215Y-18668244D01*
X21778215Y-18668244D02*
X21806787Y-18668244D01*
X21806787Y-18668244D02*
X21825835Y-18677768D01*
X21825835Y-18677768D02*
X21835358Y-18696816D01*
X21835358Y-18696816D02*
X21835358Y-18801578D01*
X21930596Y-18801578D02*
X21930596Y-18668244D01*
X21930596Y-18687292D02*
X21940120Y-18677768D01*
X21940120Y-18677768D02*
X21959168Y-18668244D01*
X21959168Y-18668244D02*
X21987739Y-18668244D01*
X21987739Y-18668244D02*
X22006787Y-18677768D01*
X22006787Y-18677768D02*
X22016311Y-18696816D01*
X22016311Y-18696816D02*
X22016311Y-18801578D01*
X22016311Y-18696816D02*
X22025835Y-18677768D01*
X22025835Y-18677768D02*
X22044882Y-18668244D01*
X22044882Y-18668244D02*
X22073454Y-18668244D01*
X22073454Y-18668244D02*
X22092501Y-18677768D01*
X22092501Y-18677768D02*
X22102025Y-18696816D01*
X22102025Y-18696816D02*
X22102025Y-18801578D01*
X22492501Y-18592054D02*
X22321073Y-18849197D01*
X22749644Y-18601578D02*
X22768692Y-18601578D01*
X22768692Y-18601578D02*
X22787739Y-18611102D01*
X22787739Y-18611102D02*
X22797263Y-18620625D01*
X22797263Y-18620625D02*
X22806787Y-18639673D01*
X22806787Y-18639673D02*
X22816311Y-18677768D01*
X22816311Y-18677768D02*
X22816311Y-18725387D01*
X22816311Y-18725387D02*
X22806787Y-18763483D01*
X22806787Y-18763483D02*
X22797263Y-18782530D01*
X22797263Y-18782530D02*
X22787739Y-18792054D01*
X22787739Y-18792054D02*
X22768692Y-18801578D01*
X22768692Y-18801578D02*
X22749644Y-18801578D01*
X22749644Y-18801578D02*
X22730596Y-18792054D01*
X22730596Y-18792054D02*
X22721073Y-18782530D01*
X22721073Y-18782530D02*
X22711549Y-18763483D01*
X22711549Y-18763483D02*
X22702025Y-18725387D01*
X22702025Y-18725387D02*
X22702025Y-18677768D01*
X22702025Y-18677768D02*
X22711549Y-18639673D01*
X22711549Y-18639673D02*
X22721073Y-18620625D01*
X22721073Y-18620625D02*
X22730596Y-18611102D01*
X22730596Y-18611102D02*
X22749644Y-18601578D01*
X22902025Y-18782530D02*
X22911549Y-18792054D01*
X22911549Y-18792054D02*
X22902025Y-18801578D01*
X22902025Y-18801578D02*
X22892501Y-18792054D01*
X22892501Y-18792054D02*
X22902025Y-18782530D01*
X22902025Y-18782530D02*
X22902025Y-18801578D01*
X23035358Y-18601578D02*
X23054406Y-18601578D01*
X23054406Y-18601578D02*
X23073454Y-18611102D01*
X23073454Y-18611102D02*
X23082977Y-18620625D01*
X23082977Y-18620625D02*
X23092501Y-18639673D01*
X23092501Y-18639673D02*
X23102025Y-18677768D01*
X23102025Y-18677768D02*
X23102025Y-18725387D01*
X23102025Y-18725387D02*
X23092501Y-18763483D01*
X23092501Y-18763483D02*
X23082977Y-18782530D01*
X23082977Y-18782530D02*
X23073454Y-18792054D01*
X23073454Y-18792054D02*
X23054406Y-18801578D01*
X23054406Y-18801578D02*
X23035358Y-18801578D01*
X23035358Y-18801578D02*
X23016311Y-18792054D01*
X23016311Y-18792054D02*
X23006787Y-18782530D01*
X23006787Y-18782530D02*
X22997263Y-18763483D01*
X22997263Y-18763483D02*
X22987739Y-18725387D01*
X22987739Y-18725387D02*
X22987739Y-18677768D01*
X22987739Y-18677768D02*
X22997263Y-18639673D01*
X22997263Y-18639673D02*
X23006787Y-18620625D01*
X23006787Y-18620625D02*
X23016311Y-18611102D01*
X23016311Y-18611102D02*
X23035358Y-18601578D01*
X23273454Y-18668244D02*
X23273454Y-18801578D01*
X23225835Y-18592054D02*
X23178216Y-18734911D01*
X23178216Y-18734911D02*
X23302025Y-18734911D01*
X23387739Y-18801578D02*
X23425835Y-18801578D01*
X23425835Y-18801578D02*
X23444882Y-18792054D01*
X23444882Y-18792054D02*
X23454406Y-18782530D01*
X23454406Y-18782530D02*
X23473454Y-18753959D01*
X23473454Y-18753959D02*
X23482977Y-18715864D01*
X23482977Y-18715864D02*
X23482977Y-18639673D01*
X23482977Y-18639673D02*
X23473454Y-18620625D01*
X23473454Y-18620625D02*
X23463930Y-18611102D01*
X23463930Y-18611102D02*
X23444882Y-18601578D01*
X23444882Y-18601578D02*
X23406787Y-18601578D01*
X23406787Y-18601578D02*
X23387739Y-18611102D01*
X23387739Y-18611102D02*
X23378216Y-18620625D01*
X23378216Y-18620625D02*
X23368692Y-18639673D01*
X23368692Y-18639673D02*
X23368692Y-18687292D01*
X23368692Y-18687292D02*
X23378216Y-18706340D01*
X23378216Y-18706340D02*
X23387739Y-18715864D01*
X23387739Y-18715864D02*
X23406787Y-18725387D01*
X23406787Y-18725387D02*
X23444882Y-18725387D01*
X23444882Y-18725387D02*
X23463930Y-18715864D01*
X23463930Y-18715864D02*
X23473454Y-18706340D01*
X23473454Y-18706340D02*
X23482977Y-18687292D01*
X23559168Y-18620625D02*
X23568692Y-18611102D01*
X23568692Y-18611102D02*
X23587739Y-18601578D01*
X23587739Y-18601578D02*
X23635358Y-18601578D01*
X23635358Y-18601578D02*
X23654406Y-18611102D01*
X23654406Y-18611102D02*
X23663930Y-18620625D01*
X23663930Y-18620625D02*
X23673454Y-18639673D01*
X23673454Y-18639673D02*
X23673454Y-18658721D01*
X23673454Y-18658721D02*
X23663930Y-18687292D01*
X23663930Y-18687292D02*
X23549644Y-18801578D01*
X23549644Y-18801578D02*
X23673454Y-18801578D01*
X23749644Y-18601578D02*
X23749644Y-18639673D01*
X23825835Y-18601578D02*
X23825835Y-18639673D01*
X24121073Y-18877768D02*
X24111549Y-18868244D01*
X24111549Y-18868244D02*
X24092501Y-18839673D01*
X24092501Y-18839673D02*
X24082978Y-18820625D01*
X24082978Y-18820625D02*
X24073454Y-18792054D01*
X24073454Y-18792054D02*
X24063930Y-18744435D01*
X24063930Y-18744435D02*
X24063930Y-18706340D01*
X24063930Y-18706340D02*
X24073454Y-18658721D01*
X24073454Y-18658721D02*
X24082978Y-18630149D01*
X24082978Y-18630149D02*
X24092501Y-18611102D01*
X24092501Y-18611102D02*
X24111549Y-18582530D01*
X24111549Y-18582530D02*
X24121073Y-18573006D01*
X24178216Y-18601578D02*
X24311549Y-18601578D01*
X24311549Y-18601578D02*
X24225835Y-18801578D01*
X24540120Y-18801578D02*
X24540120Y-18601578D01*
X24625835Y-18801578D02*
X24625835Y-18696816D01*
X24625835Y-18696816D02*
X24616311Y-18677768D01*
X24616311Y-18677768D02*
X24597263Y-18668244D01*
X24597263Y-18668244D02*
X24568692Y-18668244D01*
X24568692Y-18668244D02*
X24549644Y-18677768D01*
X24549644Y-18677768D02*
X24540120Y-18687292D01*
X24749644Y-18801578D02*
X24730597Y-18792054D01*
X24730597Y-18792054D02*
X24721073Y-18782530D01*
X24721073Y-18782530D02*
X24711549Y-18763483D01*
X24711549Y-18763483D02*
X24711549Y-18706340D01*
X24711549Y-18706340D02*
X24721073Y-18687292D01*
X24721073Y-18687292D02*
X24730597Y-18677768D01*
X24730597Y-18677768D02*
X24749644Y-18668244D01*
X24749644Y-18668244D02*
X24778216Y-18668244D01*
X24778216Y-18668244D02*
X24797263Y-18677768D01*
X24797263Y-18677768D02*
X24806787Y-18687292D01*
X24806787Y-18687292D02*
X24816311Y-18706340D01*
X24816311Y-18706340D02*
X24816311Y-18763483D01*
X24816311Y-18763483D02*
X24806787Y-18782530D01*
X24806787Y-18782530D02*
X24797263Y-18792054D01*
X24797263Y-18792054D02*
X24778216Y-18801578D01*
X24778216Y-18801578D02*
X24749644Y-18801578D01*
X24930597Y-18801578D02*
X24911549Y-18792054D01*
X24911549Y-18792054D02*
X24902025Y-18773006D01*
X24902025Y-18773006D02*
X24902025Y-18601578D01*
X25082978Y-18792054D02*
X25063930Y-18801578D01*
X25063930Y-18801578D02*
X25025835Y-18801578D01*
X25025835Y-18801578D02*
X25006787Y-18792054D01*
X25006787Y-18792054D02*
X24997263Y-18773006D01*
X24997263Y-18773006D02*
X24997263Y-18696816D01*
X24997263Y-18696816D02*
X25006787Y-18677768D01*
X25006787Y-18677768D02*
X25025835Y-18668244D01*
X25025835Y-18668244D02*
X25063930Y-18668244D01*
X25063930Y-18668244D02*
X25082978Y-18677768D01*
X25082978Y-18677768D02*
X25092501Y-18696816D01*
X25092501Y-18696816D02*
X25092501Y-18715864D01*
X25092501Y-18715864D02*
X24997263Y-18734911D01*
X25168692Y-18792054D02*
X25187740Y-18801578D01*
X25187740Y-18801578D02*
X25225835Y-18801578D01*
X25225835Y-18801578D02*
X25244882Y-18792054D01*
X25244882Y-18792054D02*
X25254406Y-18773006D01*
X25254406Y-18773006D02*
X25254406Y-18763483D01*
X25254406Y-18763483D02*
X25244882Y-18744435D01*
X25244882Y-18744435D02*
X25225835Y-18734911D01*
X25225835Y-18734911D02*
X25197263Y-18734911D01*
X25197263Y-18734911D02*
X25178216Y-18725387D01*
X25178216Y-18725387D02*
X25168692Y-18706340D01*
X25168692Y-18706340D02*
X25168692Y-18696816D01*
X25168692Y-18696816D02*
X25178216Y-18677768D01*
X25178216Y-18677768D02*
X25197263Y-18668244D01*
X25197263Y-18668244D02*
X25225835Y-18668244D01*
X25225835Y-18668244D02*
X25244882Y-18677768D01*
X25321073Y-18877768D02*
X25330597Y-18868244D01*
X25330597Y-18868244D02*
X25349644Y-18839673D01*
X25349644Y-18839673D02*
X25359168Y-18820625D01*
X25359168Y-18820625D02*
X25368692Y-18792054D01*
X25368692Y-18792054D02*
X25378216Y-18744435D01*
X25378216Y-18744435D02*
X25378216Y-18706340D01*
X25378216Y-18706340D02*
X25368692Y-18658721D01*
X25368692Y-18658721D02*
X25359168Y-18630149D01*
X25359168Y-18630149D02*
X25349644Y-18611102D01*
X25349644Y-18611102D02*
X25330597Y-18582530D01*
X25330597Y-18582530D02*
X25321073Y-18573006D01*
D18*
X20396010Y-18899094D02*
X20546010Y-19049094D01*
X20546010Y-18899094D02*
X20396010Y-19049094D01*
X20524044Y-19027128D02*
X20524044Y-18921061D01*
X20417977Y-18921061D01*
X20417977Y-19027128D01*
X20524044Y-19027128D01*
D11*
X20911549Y-19065578D02*
X20797263Y-19065578D01*
X20854406Y-19065578D02*
X20854406Y-18865578D01*
X20854406Y-18865578D02*
X20835358Y-18894149D01*
X20835358Y-18894149D02*
X20816311Y-18913197D01*
X20816311Y-18913197D02*
X20797263Y-18922721D01*
X20997263Y-19046530D02*
X21006787Y-19056054D01*
X21006787Y-19056054D02*
X20997263Y-19065578D01*
X20997263Y-19065578D02*
X20987739Y-19056054D01*
X20987739Y-19056054D02*
X20997263Y-19046530D01*
X20997263Y-19046530D02*
X20997263Y-19065578D01*
X21187739Y-18865578D02*
X21092501Y-18865578D01*
X21092501Y-18865578D02*
X21082977Y-18960816D01*
X21082977Y-18960816D02*
X21092501Y-18951292D01*
X21092501Y-18951292D02*
X21111549Y-18941768D01*
X21111549Y-18941768D02*
X21159168Y-18941768D01*
X21159168Y-18941768D02*
X21178215Y-18951292D01*
X21178215Y-18951292D02*
X21187739Y-18960816D01*
X21187739Y-18960816D02*
X21197263Y-18979864D01*
X21197263Y-18979864D02*
X21197263Y-19027483D01*
X21197263Y-19027483D02*
X21187739Y-19046530D01*
X21187739Y-19046530D02*
X21178215Y-19056054D01*
X21178215Y-19056054D02*
X21159168Y-19065578D01*
X21159168Y-19065578D02*
X21111549Y-19065578D01*
X21111549Y-19065578D02*
X21092501Y-19056054D01*
X21092501Y-19056054D02*
X21082977Y-19046530D01*
X21321073Y-18865578D02*
X21340120Y-18865578D01*
X21340120Y-18865578D02*
X21359168Y-18875102D01*
X21359168Y-18875102D02*
X21368692Y-18884625D01*
X21368692Y-18884625D02*
X21378215Y-18903673D01*
X21378215Y-18903673D02*
X21387739Y-18941768D01*
X21387739Y-18941768D02*
X21387739Y-18989387D01*
X21387739Y-18989387D02*
X21378215Y-19027483D01*
X21378215Y-19027483D02*
X21368692Y-19046530D01*
X21368692Y-19046530D02*
X21359168Y-19056054D01*
X21359168Y-19056054D02*
X21340120Y-19065578D01*
X21340120Y-19065578D02*
X21321073Y-19065578D01*
X21321073Y-19065578D02*
X21302025Y-19056054D01*
X21302025Y-19056054D02*
X21292501Y-19046530D01*
X21292501Y-19046530D02*
X21282977Y-19027483D01*
X21282977Y-19027483D02*
X21273454Y-18989387D01*
X21273454Y-18989387D02*
X21273454Y-18941768D01*
X21273454Y-18941768D02*
X21282977Y-18903673D01*
X21282977Y-18903673D02*
X21292501Y-18884625D01*
X21292501Y-18884625D02*
X21302025Y-18875102D01*
X21302025Y-18875102D02*
X21321073Y-18865578D01*
X21511549Y-18865578D02*
X21530596Y-18865578D01*
X21530596Y-18865578D02*
X21549644Y-18875102D01*
X21549644Y-18875102D02*
X21559168Y-18884625D01*
X21559168Y-18884625D02*
X21568692Y-18903673D01*
X21568692Y-18903673D02*
X21578215Y-18941768D01*
X21578215Y-18941768D02*
X21578215Y-18989387D01*
X21578215Y-18989387D02*
X21568692Y-19027483D01*
X21568692Y-19027483D02*
X21559168Y-19046530D01*
X21559168Y-19046530D02*
X21549644Y-19056054D01*
X21549644Y-19056054D02*
X21530596Y-19065578D01*
X21530596Y-19065578D02*
X21511549Y-19065578D01*
X21511549Y-19065578D02*
X21492501Y-19056054D01*
X21492501Y-19056054D02*
X21482977Y-19046530D01*
X21482977Y-19046530D02*
X21473454Y-19027483D01*
X21473454Y-19027483D02*
X21463930Y-18989387D01*
X21463930Y-18989387D02*
X21463930Y-18941768D01*
X21463930Y-18941768D02*
X21473454Y-18903673D01*
X21473454Y-18903673D02*
X21482977Y-18884625D01*
X21482977Y-18884625D02*
X21492501Y-18875102D01*
X21492501Y-18875102D02*
X21511549Y-18865578D01*
X21663930Y-19065578D02*
X21663930Y-18932244D01*
X21663930Y-18951292D02*
X21673454Y-18941768D01*
X21673454Y-18941768D02*
X21692501Y-18932244D01*
X21692501Y-18932244D02*
X21721073Y-18932244D01*
X21721073Y-18932244D02*
X21740120Y-18941768D01*
X21740120Y-18941768D02*
X21749644Y-18960816D01*
X21749644Y-18960816D02*
X21749644Y-19065578D01*
X21749644Y-18960816D02*
X21759168Y-18941768D01*
X21759168Y-18941768D02*
X21778215Y-18932244D01*
X21778215Y-18932244D02*
X21806787Y-18932244D01*
X21806787Y-18932244D02*
X21825835Y-18941768D01*
X21825835Y-18941768D02*
X21835358Y-18960816D01*
X21835358Y-18960816D02*
X21835358Y-19065578D01*
X21930596Y-19065578D02*
X21930596Y-18932244D01*
X21930596Y-18951292D02*
X21940120Y-18941768D01*
X21940120Y-18941768D02*
X21959168Y-18932244D01*
X21959168Y-18932244D02*
X21987739Y-18932244D01*
X21987739Y-18932244D02*
X22006787Y-18941768D01*
X22006787Y-18941768D02*
X22016311Y-18960816D01*
X22016311Y-18960816D02*
X22016311Y-19065578D01*
X22016311Y-18960816D02*
X22025835Y-18941768D01*
X22025835Y-18941768D02*
X22044882Y-18932244D01*
X22044882Y-18932244D02*
X22073454Y-18932244D01*
X22073454Y-18932244D02*
X22092501Y-18941768D01*
X22092501Y-18941768D02*
X22102025Y-18960816D01*
X22102025Y-18960816D02*
X22102025Y-19065578D01*
X22492501Y-18856054D02*
X22321073Y-19113197D01*
X22749644Y-18865578D02*
X22768692Y-18865578D01*
X22768692Y-18865578D02*
X22787739Y-18875102D01*
X22787739Y-18875102D02*
X22797263Y-18884625D01*
X22797263Y-18884625D02*
X22806787Y-18903673D01*
X22806787Y-18903673D02*
X22816311Y-18941768D01*
X22816311Y-18941768D02*
X22816311Y-18989387D01*
X22816311Y-18989387D02*
X22806787Y-19027483D01*
X22806787Y-19027483D02*
X22797263Y-19046530D01*
X22797263Y-19046530D02*
X22787739Y-19056054D01*
X22787739Y-19056054D02*
X22768692Y-19065578D01*
X22768692Y-19065578D02*
X22749644Y-19065578D01*
X22749644Y-19065578D02*
X22730596Y-19056054D01*
X22730596Y-19056054D02*
X22721073Y-19046530D01*
X22721073Y-19046530D02*
X22711549Y-19027483D01*
X22711549Y-19027483D02*
X22702025Y-18989387D01*
X22702025Y-18989387D02*
X22702025Y-18941768D01*
X22702025Y-18941768D02*
X22711549Y-18903673D01*
X22711549Y-18903673D02*
X22721073Y-18884625D01*
X22721073Y-18884625D02*
X22730596Y-18875102D01*
X22730596Y-18875102D02*
X22749644Y-18865578D01*
X22902025Y-19046530D02*
X22911549Y-19056054D01*
X22911549Y-19056054D02*
X22902025Y-19065578D01*
X22902025Y-19065578D02*
X22892501Y-19056054D01*
X22892501Y-19056054D02*
X22902025Y-19046530D01*
X22902025Y-19046530D02*
X22902025Y-19065578D01*
X23035358Y-18865578D02*
X23054406Y-18865578D01*
X23054406Y-18865578D02*
X23073454Y-18875102D01*
X23073454Y-18875102D02*
X23082977Y-18884625D01*
X23082977Y-18884625D02*
X23092501Y-18903673D01*
X23092501Y-18903673D02*
X23102025Y-18941768D01*
X23102025Y-18941768D02*
X23102025Y-18989387D01*
X23102025Y-18989387D02*
X23092501Y-19027483D01*
X23092501Y-19027483D02*
X23082977Y-19046530D01*
X23082977Y-19046530D02*
X23073454Y-19056054D01*
X23073454Y-19056054D02*
X23054406Y-19065578D01*
X23054406Y-19065578D02*
X23035358Y-19065578D01*
X23035358Y-19065578D02*
X23016311Y-19056054D01*
X23016311Y-19056054D02*
X23006787Y-19046530D01*
X23006787Y-19046530D02*
X22997263Y-19027483D01*
X22997263Y-19027483D02*
X22987739Y-18989387D01*
X22987739Y-18989387D02*
X22987739Y-18941768D01*
X22987739Y-18941768D02*
X22997263Y-18903673D01*
X22997263Y-18903673D02*
X23006787Y-18884625D01*
X23006787Y-18884625D02*
X23016311Y-18875102D01*
X23016311Y-18875102D02*
X23035358Y-18865578D01*
X23282977Y-18865578D02*
X23187739Y-18865578D01*
X23187739Y-18865578D02*
X23178216Y-18960816D01*
X23178216Y-18960816D02*
X23187739Y-18951292D01*
X23187739Y-18951292D02*
X23206787Y-18941768D01*
X23206787Y-18941768D02*
X23254406Y-18941768D01*
X23254406Y-18941768D02*
X23273454Y-18951292D01*
X23273454Y-18951292D02*
X23282977Y-18960816D01*
X23282977Y-18960816D02*
X23292501Y-18979864D01*
X23292501Y-18979864D02*
X23292501Y-19027483D01*
X23292501Y-19027483D02*
X23282977Y-19046530D01*
X23282977Y-19046530D02*
X23273454Y-19056054D01*
X23273454Y-19056054D02*
X23254406Y-19065578D01*
X23254406Y-19065578D02*
X23206787Y-19065578D01*
X23206787Y-19065578D02*
X23187739Y-19056054D01*
X23187739Y-19056054D02*
X23178216Y-19046530D01*
X23387739Y-19065578D02*
X23425835Y-19065578D01*
X23425835Y-19065578D02*
X23444882Y-19056054D01*
X23444882Y-19056054D02*
X23454406Y-19046530D01*
X23454406Y-19046530D02*
X23473454Y-19017959D01*
X23473454Y-19017959D02*
X23482977Y-18979864D01*
X23482977Y-18979864D02*
X23482977Y-18903673D01*
X23482977Y-18903673D02*
X23473454Y-18884625D01*
X23473454Y-18884625D02*
X23463930Y-18875102D01*
X23463930Y-18875102D02*
X23444882Y-18865578D01*
X23444882Y-18865578D02*
X23406787Y-18865578D01*
X23406787Y-18865578D02*
X23387739Y-18875102D01*
X23387739Y-18875102D02*
X23378216Y-18884625D01*
X23378216Y-18884625D02*
X23368692Y-18903673D01*
X23368692Y-18903673D02*
X23368692Y-18951292D01*
X23368692Y-18951292D02*
X23378216Y-18970340D01*
X23378216Y-18970340D02*
X23387739Y-18979864D01*
X23387739Y-18979864D02*
X23406787Y-18989387D01*
X23406787Y-18989387D02*
X23444882Y-18989387D01*
X23444882Y-18989387D02*
X23463930Y-18979864D01*
X23463930Y-18979864D02*
X23473454Y-18970340D01*
X23473454Y-18970340D02*
X23482977Y-18951292D01*
X23673454Y-19065578D02*
X23559168Y-19065578D01*
X23616311Y-19065578D02*
X23616311Y-18865578D01*
X23616311Y-18865578D02*
X23597263Y-18894149D01*
X23597263Y-18894149D02*
X23578216Y-18913197D01*
X23578216Y-18913197D02*
X23559168Y-18922721D01*
X23749644Y-18865578D02*
X23749644Y-18903673D01*
X23825835Y-18865578D02*
X23825835Y-18903673D01*
X24121073Y-19141768D02*
X24111549Y-19132244D01*
X24111549Y-19132244D02*
X24092501Y-19103673D01*
X24092501Y-19103673D02*
X24082978Y-19084625D01*
X24082978Y-19084625D02*
X24073454Y-19056054D01*
X24073454Y-19056054D02*
X24063930Y-19008435D01*
X24063930Y-19008435D02*
X24063930Y-18970340D01*
X24063930Y-18970340D02*
X24073454Y-18922721D01*
X24073454Y-18922721D02*
X24082978Y-18894149D01*
X24082978Y-18894149D02*
X24092501Y-18875102D01*
X24092501Y-18875102D02*
X24111549Y-18846530D01*
X24111549Y-18846530D02*
X24121073Y-18837006D01*
X24302025Y-19065578D02*
X24187739Y-19065578D01*
X24244882Y-19065578D02*
X24244882Y-18865578D01*
X24244882Y-18865578D02*
X24225835Y-18894149D01*
X24225835Y-18894149D02*
X24206787Y-18913197D01*
X24206787Y-18913197D02*
X24187739Y-18922721D01*
X24530597Y-19056054D02*
X24549644Y-19065578D01*
X24549644Y-19065578D02*
X24587739Y-19065578D01*
X24587739Y-19065578D02*
X24606787Y-19056054D01*
X24606787Y-19056054D02*
X24616311Y-19037006D01*
X24616311Y-19037006D02*
X24616311Y-19027483D01*
X24616311Y-19027483D02*
X24606787Y-19008435D01*
X24606787Y-19008435D02*
X24587739Y-18998911D01*
X24587739Y-18998911D02*
X24559168Y-18998911D01*
X24559168Y-18998911D02*
X24540120Y-18989387D01*
X24540120Y-18989387D02*
X24530597Y-18970340D01*
X24530597Y-18970340D02*
X24530597Y-18960816D01*
X24530597Y-18960816D02*
X24540120Y-18941768D01*
X24540120Y-18941768D02*
X24559168Y-18932244D01*
X24559168Y-18932244D02*
X24587739Y-18932244D01*
X24587739Y-18932244D02*
X24606787Y-18941768D01*
X24730597Y-19065578D02*
X24711549Y-19056054D01*
X24711549Y-19056054D02*
X24702025Y-19037006D01*
X24702025Y-19037006D02*
X24702025Y-18865578D01*
X24835359Y-19065578D02*
X24816311Y-19056054D01*
X24816311Y-19056054D02*
X24806787Y-19046530D01*
X24806787Y-19046530D02*
X24797263Y-19027483D01*
X24797263Y-19027483D02*
X24797263Y-18970340D01*
X24797263Y-18970340D02*
X24806787Y-18951292D01*
X24806787Y-18951292D02*
X24816311Y-18941768D01*
X24816311Y-18941768D02*
X24835359Y-18932244D01*
X24835359Y-18932244D02*
X24863930Y-18932244D01*
X24863930Y-18932244D02*
X24882978Y-18941768D01*
X24882978Y-18941768D02*
X24892501Y-18951292D01*
X24892501Y-18951292D02*
X24902025Y-18970340D01*
X24902025Y-18970340D02*
X24902025Y-19027483D01*
X24902025Y-19027483D02*
X24892501Y-19046530D01*
X24892501Y-19046530D02*
X24882978Y-19056054D01*
X24882978Y-19056054D02*
X24863930Y-19065578D01*
X24863930Y-19065578D02*
X24835359Y-19065578D01*
X24959168Y-18932244D02*
X25035359Y-18932244D01*
X24987740Y-18865578D02*
X24987740Y-19037006D01*
X24987740Y-19037006D02*
X24997263Y-19056054D01*
X24997263Y-19056054D02*
X25016311Y-19065578D01*
X25016311Y-19065578D02*
X25035359Y-19065578D01*
X25082978Y-19141768D02*
X25092501Y-19132244D01*
X25092501Y-19132244D02*
X25111549Y-19103673D01*
X25111549Y-19103673D02*
X25121073Y-19084625D01*
X25121073Y-19084625D02*
X25130597Y-19056054D01*
X25130597Y-19056054D02*
X25140120Y-19008435D01*
X25140120Y-19008435D02*
X25140120Y-18970340D01*
X25140120Y-18970340D02*
X25130597Y-18922721D01*
X25130597Y-18922721D02*
X25121073Y-18894149D01*
X25121073Y-18894149D02*
X25111549Y-18875102D01*
X25111549Y-18875102D02*
X25092501Y-18846530D01*
X25092501Y-18846530D02*
X25082978Y-18837006D01*
M02*
